<?xml version="1.0" encoding="UTF-8" standalone="no"?>
<!-- Created with Inkscape (http://www.inkscape.org/) -->

<svg
   xmlns:svg="http://www.w3.org/2000/svg"
   xmlns="http://www.w3.org/2000/svg"
   version="1.0"
   viewBox="0 0 375 438" width="293" height="342"

   id="svg2">
  <defs
     id="defs5" />
  <path
     d="m 117.9969,423.10561 c 0,-0.32962 0.94559,-1.56262 2.10132,-2.73999 l 2.10132,-2.14067 0.33468,-31.06822 c 0.19891,-18.46595 0.54985,-32.23251 0.86525,-33.93852 0.70515,-3.81457 0.68414,-4.05501 -0.40544,-4.63812 -1.94122,-1.03891 -5.45443,3.54322 -5.48068,7.14826 -0.006,0.81983 -0.42254,2.26603 -0.92577,3.21378 -0.50319,0.94775 -1.4245,3.28063 -2.04739,5.18418 -3.0709,9.38482 -7.65884,17.68601 -16.805864,30.40735 -2.053069,2.85531 -4.309045,6.08147 -5.013366,7.16921 -0.704258,1.08774 -3.408186,4.10326 -6.008729,6.70117 -3.565033,3.56139 -5.736315,5.26433 -8.825846,6.92199 -2.253709,1.2092 -4.663603,2.66785 -5.355309,3.24145 -3.375505,2.79912 -8.29661,3.9444 -15.01708,3.4949 -5.745205,-0.38427 -8.616093,-1.25392 -12.89105,-3.90497 -3.25364,-2.0177 -3.571795,-2.39079 -6.841025,-8.02219 -1.885775,-3.24835 -3.724698,-6.69698 -4.086491,-7.66365 -1.025078,-2.73886 -3.577926,-14.62649 -4.199828,-19.55699 -0.308701,-2.44741 -0.759269,-6.0073 -1.001257,-7.91085 -0.897151,-7.05713 -0.136987,-21.54264 2.516799,-47.95955 1.780397,-17.72283 1.882852,-19.1131 2.495929,-33.86835 0.333314,-8.02211 0.590451,-15.10363 0.571416,-15.73672 -0.06525,-2.16984 -4.295649,-5.45676 -8.681126,-6.74502 -1.682035,-0.49412 -2.113325,-0.86081 -2.238282,-1.90305 -0.220678,-1.84057 1.433842,-2.10814 6.169553,-0.99773 3.264879,0.76554 6.011072,0.90831 17.470578,0.90831 13.348365,0 13.683833,-0.0248 18.360628,-1.35967 5.780866,-1.64997 7.349638,-1.73572 7.349638,-0.40177 0,0.71984 -1.378228,1.67219 -5.545371,3.83182 -6.962839,3.60851 -7.605051,4.44444 -8.007414,10.42222 -0.87099,12.93981 -2.012621,23.46477 -3.28399,30.27546 -0.279205,1.49565 -0.72424,6.27925 -0.988962,10.63021 -0.264712,4.35097 -0.922845,11.69324 -1.462516,16.31614 -1.1093,9.50199 -1.966441,22.3659 -1.969853,29.56266 -0.0033,6.90564 1.357701,17.35062 2.687023,20.62182 0.607747,1.49565 1.511471,3.82339 2.008172,5.17276 1.152063,3.12969 7.082438,9.22856 9.867303,10.14765 2.735476,0.90277 6.886006,0.3679 11.253339,-1.45023 3.423823,-1.42535 4.282744,-2.0982 9.380897,-7.34877 7.479512,-7.70315 14.411644,-18.55715 18.059244,-28.27625 0.66338,-1.76759 1.87611,-4.38804 2.69493,-5.82324 1.46781,-2.57273 4.51769,-10.64758 6.39088,-16.92047 3.77784,-12.651 7.3482,-33.15724 9.13428,-52.46209 0.71949,-7.77662 0.75623,-9.84152 0.23752,-13.34957 -0.93703,-6.33752 -1.4679,-7.98885 -3.03376,-9.4372 -1.64057,-1.51747 -1.75235,-1.99595 -0.67524,-2.88991 0.62159,-0.51586 1.24596,-0.5164 3.33739,-0.003 6.02457,1.47924 22.0706,1.12006 30.50796,-0.6829 2.96371,-0.63331 3.38225,-0.61336 5.378,0.25626 1.19029,0.51866 2.55882,0.94302 3.04118,0.94302 2.33538,0 10.57652,-7.90903 13.53572,-12.9903 1.32052,-2.26744 3.10244,-8.50186 3.57502,-12.50797 0.29562,-2.50604 0.29443,-2.50861 -2.2276,-4.89649 -2.55783,-2.42172 -5.01227,-6.53784 -5.00382,-8.39135 0.009,-2.00081 2.90225,-6.16046 5.43778,-7.8183 2.16392,-1.41486 2.45108,-1.80487 2.45405,-3.33287 0.002,-0.95177 -0.6442,-3.80483 -1.43563,-6.34013 -0.79148,-2.5353 -1.80342,-6.65142 -2.24875,-9.14693 -0.44534,-2.49551 -1.021,-5.34861 -1.27934,-6.34023 -0.88186,-3.38553 -1.66014,-3.01772 -8.37147,3.9561 l -6.18035,6.42215 -2.34211,-0.2722 c -2.00609,-0.23314 -2.5865,-0.0858 -4.04561,1.02712 -0.93689,0.71463 -1.8498,1.7604 -2.02869,2.32394 -0.42007,1.32348 0.99964,2.93147 2.58819,2.93147 5.16,0 8.7277,2.81806 10.44124,8.24732 1.60293,5.07892 1.81431,7.82622 0.85521,11.11598 -1.55255,5.32546 -6.26925,9.80797 -10.32035,9.80797 -3.22713,0 -8.35085,-1.77622 -10.12372,-3.50957 -1.90617,-1.8636 -2.00743,-3.02354 -0.35831,-4.10408 3.98771,-2.61285 2.8443,-6.33701 -1.40096,-4.56321 -1.2431,0.51938 -2.06874,1.39232 -2.94354,3.11198 -0.66871,1.31455 -1.91907,3.71867 -2.77853,5.34249 -2.01831,3.81323 -1.88852,4.90793 0.60636,5.11356 1.03494,0.0853 1.99606,0.45311 2.13584,0.81732 0.70608,1.84009 -5.23249,10.06952 -8.35847,11.58277 -3.47568,1.68255 -6.8232,1.89785 -8.96136,0.57639 -4.451,-2.75085 -7.13595,-8.14247 -6.51154,-13.07555 0.41517,-3.27996 1.63069,-6.99088 2.53588,-7.74214 1.17526,-0.97537 0.88503,-2.90376 -0.51722,-3.43688 -1.53619,-0.58407 -2.44688,-0.25048 -3.43564,1.25855 -0.85917,1.3113 -1.04472,4.94002 -0.27688,5.4146 1.61287,0.9968 -0.86495,3.21377 -3.59193,3.21377 -2.71055,0 -5.37201,-1.4159 -8.68438,-4.6202 -3.902919,-3.77557 -4.720312,-5.62983 -4.753686,-10.78424 -0.02586,-3.98949 0.07412,-4.42501 1.473889,-6.42026 2.086497,-2.97408 4.132537,-4.19853 8.147047,-4.87567 1.89757,-0.32006 3.58906,-0.80668 3.75879,-1.08135 0.16979,-0.27468 -0.16964,-1.08905 -0.7542,-1.80973 -4.0591,-5.0041 -3.91073,-9.62991 0.44444,-13.85648 2.9372,-2.85043 6.66555,-4.17623 11.8709,-4.22125 3.64863,-0.0316 4.53637,0.13924 6.73401,1.29562 2.7819,1.4638 4.79354,3.56813 5.86698,6.13734 0.7501,1.79525 1.73352,2.12538 2.73539,0.91825 0.51984,-0.62637 3.71488,-6.53874 9.02752,-16.70519 0.80591,-1.54214 0.8826,-2.10605 0.42363,-3.11343 -0.3379,-0.7416 -0.56055,-4.16652 -0.56055,-8.62336 0,-4.06624 -0.11564,-7.39316 -0.25699,-7.39316 -0.14141,0 -1.1405,0.5577 -2.22029,1.23934 -2.3468,1.48146 -9.03761,4.19937 -10.33781,4.19937 -1.05352,0 -1.52333,-0.92735 -1.52333,-3.00701 0,-1.09534 -0.22961,-1.44284 -0.95335,-1.44284 -0.76321,0 -1.07014,0.56717 -1.53862,2.84296 -2.05039,9.96145 -7.04911,18.07349 -12.70622,20.61993 -1.02278,0.46038 -2.52707,1.14287 -3.34288,1.51665 -1.73564,0.79521 -10.48381,1.36756 -10.88875,0.71238 -0.15209,-0.24608 -0.042,-2.40067 0.2446,-4.78799 0.98421,-8.19857 1.0248,-8.83448 0.51355,-8.0488 -0.44848,0.68922 -3.31439,9.4152 -4.384491,13.34958 -1.741822,6.40414 -6.793147,19.7956 -8.153219,21.61471 -0.857241,1.14662 -2.559907,3.81654 -3.783619,5.93313 -2.308734,3.99337 -7.776222,9.85693 -11.723288,12.57257 -1.175551,0.80882 -3.301748,1.87384 -4.724809,2.3667 -1.423062,0.49286 -3.58555,1.41943 -4.805546,2.05903 -1.770358,0.92815 -3.167802,1.19789 -6.922004,1.33616 l -4.70384,0.17322 -4.449837,-2.19122 c -7.912921,-3.89651 -11.414424,-7.57836 -15.619043,-16.42353 -1.53305,-3.22505 -1.646605,-3.81493 -1.665581,-8.6525 -0.01677,-4.27319 0.142741,-5.432 0.901744,-6.55118 1.191463,-1.75684 3.18127,-1.80815 4.764519,-0.12285 1.616168,1.72033 3.869753,2.22168 9.887862,2.19971 6.090101,-0.0222 7.635439,-0.48459 12.399404,-3.70994 7.451333,-5.04481 11.382688,-10.9924 15.016094,-22.71751 1.011201,-3.26323 2.233087,-7.04561 2.7152,-8.40529 1.006164,-2.8373 4.484319,-16.89918 4.481297,-18.11734 -0.0011,-0.4468 -0.310197,-0.93062 -0.68691,-1.07517 -1.217027,-0.46703 -2.760192,1.1387 -4.581177,4.76707 -2.580466,5.14169 -5.214835,8.80547 -10.549962,14.67266 -2.596388,2.85532 -5.321631,6.00194 -6.056051,6.99249 -1.531348,2.06536 -7.573808,5.58759 -10.842163,6.32005 -1.183221,0.26516 -2.928153,0.80227 -3.877629,1.19357 -2.510791,1.03476 -6.501136,1.46105 -9.940113,1.06191 -3.960643,-0.45967 -8.096829,-3.23683 -11.417672,-7.66615 -1.321528,-1.76263 -3.083296,-4.04834 -3.915038,-5.07933 -0.858881,-1.06464 -1.389264,-2.19503 -1.227592,-2.61635 0.156567,-0.40799 -0.08204,-2.41069 -0.530239,-4.45041 -0.793449,-3.61097 -0.788614,-3.74384 0.18362,-5.04729 1.409957,-1.8903 2.511044,-1.93022 4.137066,-0.14994 1.657047,1.81423 2.843359,1.91176 7.400759,0.60846 8.429925,-2.41074 14.257268,-6.19533 18.588412,-12.07233 3.021704,-4.10018 4.342723,-7.18125 6.938271,-16.18257 2.0145,-6.98626 2.208413,-8.056 1.575195,-8.68924 -0.63326,-0.63324 -1.11424,-0.4676 -3.906776,1.34549 -3.833024,2.48861 -6.055445,3.21367 -11.170766,3.64444 -3.502655,0.29498 -4.157545,0.20274 -6.731352,-0.94806 -1.568158,-0.70115 -3.842377,-2.18846 -5.05382,-3.30514 -3.075107,-2.83453 -7.669479,-8.95734 -7.669479,-10.22095 0,-1.28663 2.254034,-3.06727 5.933141,-4.68708 1.495646,-0.65849 4.076538,-2.32681 5.73532,-3.70738 5.635426,-4.69026 8.331702,-9.613668 9.139499,-16.688802 0.248386,-2.175491 0.894134,-6.180363 1.434995,-8.899719 0.540865,-2.719356 1.312124,-6.946719 1.713911,-9.394142 0.401792,-2.447413 1.166485,-5.715524 1.699321,-7.262446 2.405127,-6.982517 11.523619,-17.48139 17.887065,-20.594828 4.182623,-2.046415 7.157697,-2.550064 15.063205,-2.550064 l 6.55652,0 3.479982,1.790109 c 6.136305,3.156541 13.122584,10.595112 14.628114,15.575114 0.37997,1.256833 1.04502,2.970099 1.47795,3.807264 1.59354,3.081555 0.61664,10.646274 -1.76595,13.675281 -0.58951,0.749448 -2.27141,2.129985 -3.73754,3.067859 -1.46612,0.937873 -2.80168,2.059554 -2.967854,2.492635 -0.439798,1.14606 2.002534,2.903257 5.793514,4.168308 1.76546,0.589119 4.3356,1.568961 5.71144,2.177433 4.00784,1.772456 14.26111,4.140822 20.20458,4.667003 6.9925,0.61905 26.54325,0.640029 28.14717,0.0302 0.79266,-0.30137 1.43384,-1.123738 1.83096,-2.34853 0.8885,-2.739831 3.631,-8.07435 6.25452,-12.165805 2.81756,-4.394094 6.08627,-11.072659 6.08681,-12.436519 2e-4,-0.558264 0.355,-2.683705 0.78847,-4.723224 1.92046,-9.036666 -0.92359,-18.678298 -6.56497,-22.255945 -1.90122,-1.205724 -2.85918,-1.476617 -5.2217,-1.476617 -2.81702,0 -2.95921,0.06591 -5.39334,2.500024 -1.9431,1.943113 -2.79143,2.466272 -3.80828,2.34853 l -1.30826,-0.151483 -0.13913,-5.795254 c -0.12895,-5.368364 -0.0471,-5.977098 1.11178,-8.263929 1.48408,-2.928697 1.81405,-3.130051 6.93821,-4.233744 4.96317,-1.069007 5.98778,-1.715501 6.74984,-4.259005 0.92226,-3.078217 2.85863,-4.67924 7.39106,-6.111044 6.1451,-1.941224 14.70954,-1.571669 19.46456,0.839904 1.09639,0.55605 4.80416,2.847446 8.23955,5.092014 6.01418,3.929456 6.30337,4.19783 7.78635,7.225683 0.84712,1.729564 2.20896,5.768051 3.0263,8.974421 1.59815,6.269244 3.23327,10.005352 5.52999,12.63567 2.63985,3.023213 0.75539,4.513904 -3.25319,2.573393 -3.85843,-1.867845 -4.83897,-0.357717 -5.13696,7.911344 -0.17736,4.922249 -0.0261,6.460407 1.09426,11.12464 1.37229,5.713016 1.91616,7.166429 4.78656,12.791088 0.98209,1.924412 2.05875,4.34117 2.39265,5.370558 1.08996,3.360383 1.56521,3.471597 15.01336,3.513272 11.88384,0.03683 11.99775,0.02714 18.51971,-1.574251 3.60923,-0.886207 9.1312,-2.604143 12.27092,-3.817633 6.53466,-2.525589 14.54065,-6.528204 14.54065,-7.269635 0,-0.275952 -0.77923,-1.563284 -1.73165,-2.860732 -0.9524,-1.297449 -2.31243,-3.885923 -3.02229,-5.752162 -1.17945,-3.101033 -1.26618,-3.818882 -1.00695,-8.337467 0.50402,-8.78714 3.69195,-17.130274 7.9916,-20.914995 4.73202,-4.165296 13.38972,-6.524584 20.37663,-5.552801 6.16191,0.857042 17.48477,7.635297 22.99127,13.763364 1.99511,2.220294 4.87234,7.558443 5.78164,10.726717 0.31219,1.087751 0.78876,6.872562 1.05902,12.855139 0.69319,15.34304 1.41658,19.316134 4.06638,22.334121 1.92219,2.189239 5.85492,4.106414 8.43698,4.112964 1.82418,0.005 5.26621,-1.244182 5.26621,-1.910659 0,-0.683341 2.59237,-3.070934 3.13466,-2.887011 0.3377,0.114541 0.60089,1.396121 0.63999,3.116555 0.0366,1.607105 0.3115,4.868835 0.61102,7.248275 0.7188,5.70985 0.10833,12.06975 -1.35592,14.1261 -1.52828,2.14625 -5.99153,6.05852 -7.76381,6.80538 -0.83613,0.35235 -2.97058,0.89321 -4.74315,1.20189 -3.11703,0.54281 -3.34669,0.5093 -6.98914,-1.01967 -2.07146,-0.86951 -4.10875,-1.44949 -4.52738,-1.28885 -1.2339,0.4735 -0.93537,5.12893 0.75973,11.84748 2.24179,8.8851 4.59566,12.49368 9.92229,15.21112 2.55867,1.30534 5.35926,1.10107 9.63715,-0.70292 1.59157,-0.67116 3.0619,-1.11635 3.26743,-0.98933 1.14979,0.7106 -0.61358,8.12 -3.11104,13.07217 -1.6642,3.29992 -5.04579,6.91131 -7.77538,8.30386 -4.30054,2.19396 -10.72766,2.30208 -15.93345,0.26803 -5.55411,-2.17016 -13.14122,-8.84475 -17.37639,-15.28641 -1.6108,-2.45001 -2.38744,-3.22118 -3.13611,-3.11388 -0.88616,0.127 -0.98307,0.46989 -0.88532,3.13131 0.12667,3.44796 3.36532,14.47029 5.80449,19.75501 0.8786,1.90355 2.12767,4.68471 2.77576,6.18036 1.69778,3.91827 5.15141,9.70024 7.39374,12.37848 2.76356,3.30075 6.06431,4.43208 12.93084,4.43208 4.54428,0 5.4793,-0.15155 7.61291,-1.234 4.2282,-2.14511 4.13549,-2.29127 3.83992,6.05468 -0.25398,7.17092 -0.28949,7.35894 -2.1251,11.24825 -2.5605,5.4251 -5.95188,9.03667 -10.41948,11.09592 -2.94542,1.35764 -4.24631,1.64928 -8.37013,1.87652 l -4.88268,0.26906 -4.61568,-2.26302 c -7.17218,-3.51645 -10.88322,-7.06095 -16.9239,-16.16423 -4.13332,-6.22897 -4.91407,-7.76037 -8.69972,-17.06353 -2.53468,-6.22908 -3.42924,-7.93898 -4.20792,-8.04312 -0.61992,-0.0829 -1.98855,0.7933 -3.66846,2.34854 -3.45824,3.20168 -4.80403,3.25476 -10.4891,0.41379 -5.83668,-2.91674 -8.89305,-6.12711 -12.3888,-13.01306 -1.51854,-2.99129 -3.58322,-7.66364 -4.5881,-10.383 -1.89915,-5.13924 -2.75659,-6.53025 -3.67529,-5.96246 -0.78317,0.48404 -0.6655,4.46223 0.19278,6.51638 0.40406,0.96703 1.40527,2.60497 2.22494,3.63987 2.38032,3.00541 1.78112,4.45871 -1.83829,4.45871 -2.52129,0 -5.07037,-0.97399 -7.16768,-2.73877 -1.04992,-0.88347 -1.96619,-1.2235 -3.01587,-1.11923 l -1.50775,0.14979 0.13418,8.14949 0.13424,8.14949 1.58662,2.72793 c 0.87261,1.50037 2.02236,3.61791 2.55501,4.70565 1.42286,2.90563 2.4358,2.78808 6.27296,-0.728 5.3559,-4.90768 8.93037,-5.57995 14.52982,-2.73267 7.16614,3.64397 10.2229,8.07948 8.5679,12.43251 -0.76834,2.02088 -0.23382,3.30691 1.86587,4.48934 3.64502,2.05267 6.80403,6.3564 7.29707,9.94139 0.56756,4.12655 -1.36289,12.20949 -3.29338,13.78975 -1.1143,0.91212 -7.35676,2.24074 -9.30209,1.97982 -1.019,-0.13668 -2.07486,-0.10662 -2.34625,0.0668 -0.2714,0.17344 -0.59253,2.77104 -0.71366,5.77246 -0.24286,6.01828 -1.09348,8.55301 -3.4471,10.27185 -1.89441,1.38346 -7.45416,1.69137 -11.9624,0.66251 -1.94356,-0.44355 -4.4237,-0.98404 -5.51145,-1.20109 -2.55278,-0.50939 -2.6487,-1.84826 -0.24721,-3.45022 2.18711,-1.4589 3.14367,-3.64435 2.74853,-6.27931 -0.39333,-2.62287 -2.49409,-7.12477 -3.50585,-7.51302 -0.559,-0.21452 -1.73944,0.72941 -3.97402,3.17775 -6.21229,6.80664 -10.52811,7.1917 -18.09677,1.61457 -4.13391,-3.04617 -5.79608,-5.75249 -6.48195,-10.55385 -0.48435,-3.39072 -0.44569,-3.68116 0.82144,-6.17167 2.11333,-4.15361 4.44654,-6.35756 9.06312,-8.56097 2.28218,-1.08925 4.28417,-2.33158 4.44886,-2.76073 0.28712,-0.74822 -1.61934,-4.88836 -2.5114,-5.45383 -0.23668,-0.15002 -0.97589,0.4244 -1.64274,1.27646 -2.20752,2.82072 -3.06085,2.21455 -7.94303,-5.64235 -1.35949,-2.18778 -3.32459,-5.60586 -4.36699,-7.59573 -3.08736,-5.89358 -3.66016,-5.53955 -6.70366,4.14365 -3.07025,9.76839 -4.41263,15.49431 -4.48679,19.13847 -0.0794,3.89993 0.2437,4.40644 4.03627,6.32882 4.33371,2.19666 5.9627,4.48842 5.9627,8.38851 0,1.5527 -0.36221,2.24958 -2.04278,3.93016 -1.12353,1.12353 -2.62536,2.1816 -3.33739,2.35126 -2.25073,0.53631 -2.53068,1.07014 -2.53068,4.82587 0,4.79582 0.95751,8.13681 4.05787,14.15942 2.76247,5.36611 4.04784,6.68956 8.90446,9.168 1.97791,1.00936 3.04355,1.19012 7.01644,1.19012 2.72138,0 4.818,0.21631 5.00336,0.51623 0.17547,0.28391 -0.36049,1.897 -1.19107,3.5846 -0.83055,1.68761 -2.05732,4.33942 -2.72619,5.89289 -2.40692,5.59032 -4.64822,7.30206 -9.56941,7.30852 -1.92541,0.003 -2.10132,0.10893 -2.10132,1.27132 0,2.57403 2.19763,5.34491 4.89341,6.16989 3.56502,1.09101 4.50073,1.59601 4.50073,2.42898 0,0.86836 -5.62784,6.58995 -7.98928,8.12234 -0.72295,0.46915 -2.38245,1.11887 -3.68779,1.44379 l -2.37335,0.59079 -0.62882,3.1163 c -0.64043,3.17377 -3.26273,8.49705 -5.55722,11.28129 -0.69912,0.84835 -2.15437,2.79516 -3.23391,4.32624 -1.22316,1.73481 -2.32065,2.78381 -2.91253,2.78381 -1.00918,0 -3.04078,-1.61123 -8.98861,-7.12867 -2.86348,-2.65627 -4.03513,-4.17514 -5.24431,-6.7984 l -1.55695,-3.37794 -2.84899,0 c -2.56515,0 -3.08741,-0.19044 -5.24193,-1.91155 -1.31607,-1.05136 -2.85859,-2.44194 -3.42777,-3.09018 -1.98078,-2.25599 -6.13438,-8.66897 -6.13438,-9.47129 0,-0.51525 1.56644,-1.61807 4.32625,-3.04581 4.11478,-2.1287 7.0456,-4.28476 7.0456,-5.18308 0,-0.48456 -2.4353,-1.0286 -4.63527,-1.03548 -2.72375,-0.009 -6.59468,-2.25742 -10.53191,-6.11883 -3.90109,-3.82596 -4.14198,-4.43714 -2.89647,-7.34951 0.50976,-1.19197 -0.93783,-1.14158 -4.39823,0.15313 -1.88491,0.70523 -3.32854,1.7076 -4.69484,3.25977 l -1.97292,2.24138 -0.14442,63.8589 c -0.0794,35.12238 -0.069,65.24947 0.0231,66.94906 0.16258,2.99949 0.20732,3.09018 1.52482,3.09018 1.26598,0 1.58484,-0.49081 4.73841,-7.29282 1.85958,-4.01105 8.87631,-18.41746 15.59264,-32.01424 12.99788,-26.3132 15.45326,-31.756 17.62098,-39.05985 0.50644,-1.70646 0.75583,-1.73196 7.57351,-0.77437 4.44673,0.62457 13.17893,0.13092 18.20456,-1.02914 1.35151,-0.31196 2.81442,-0.43013 3.25101,-0.26261 1.28843,0.49442 0.91093,1.80223 -0.78145,2.70716 -0.86628,0.46323 -2.2136,1.50973 -2.99396,2.32553 -1.31893,1.3788 -1.40561,1.70968 -1.23068,4.69708 0.1774,3.02952 3.17611,14.67967 4.33663,16.84817 0.29349,0.54837 0.73655,2.24399 0.98461,3.76805 0.24805,1.52407 1.49189,6.24174 2.7641,10.48372 2.75945,9.20104 6.09111,21.60715 8.17909,30.45639 2.01716,8.54934 2.25612,9.14693 3.65738,9.14693 0.63084,0 1.29134,-0.23368 1.46786,-0.51928 0.17651,-0.2856 0.63617,-5.12483 1.02148,-10.75381 0.38536,-5.62901 1.0426,-13.46069 1.46059,-17.40376 1.2519,-11.80997 3.62179,-35.03427 4.91918,-48.20677 1.76436,-17.91399 4.48842,-44.26105 5.51578,-53.34848 l 0.88874,-7.86105 -2.90324,-2.59661 c -4.5028,-4.02729 -3.04512,-5.27679 3.66773,-3.14388 5.35693,1.70208 16.14576,1.24795 25.29827,-1.06486 4.34597,-1.09823 6.13634,-1.20132 6.64245,-0.38247 0.40345,0.65284 -1.0917,1.98794 -4.45129,3.97471 -2.36416,1.39812 -4.2463,3.88389 -4.24942,5.61236 -0.001,0.55856 0.7951,4.34094 1.76917,8.40529 4.29396,17.91712 5.7365,24.24123 7.38107,32.35835 0.96419,4.75888 2.07086,9.54248 2.45929,10.63022 0.38842,1.08774 1.17323,4.20263 1.74399,6.92199 0.57082,2.71936 1.691,7.94794 2.4893,11.61907 0.79836,3.67113 1.83695,9.17783 2.30804,12.2371 l 0.8565,5.56232 1.59765,0 c 1.46509,0 1.62158,-0.15378 1.88679,-1.85411 0.15906,-1.01975 0.63286,-3.30031 1.05298,-5.06788 0.42007,-1.76759 1.04656,-4.4375 1.39222,-5.93315 1.34227,-5.8083 6.74267,-25.84755 9.92668,-36.83492 1.02441,-3.53516 2.36273,-8.2075 2.97399,-10.38299 0.61131,-2.17549 2.36767,-8.26096 3.90312,-13.52329 2.5652,-8.79151 3.95379,-14.46376 4.60773,-18.82234 0.21937,-1.46205 0.0334,-1.87093 -1.37358,-3.01923 -1.99324,-1.62678 -1.75625,-2.95334 0.52761,-2.95334 0.84221,0 1.93944,0.21843 2.43827,0.48538 0.49883,0.26696 3.59988,0.74106 6.89129,1.05354 5.68677,0.53989 11.01103,0.29235 19.00158,-0.88348 1.77287,-0.26088 1.88545,-0.20313 1.7305,0.8878 -0.10477,0.73777 -0.71114,1.40212 -1.64902,1.80663 -5.02863,2.169 -5.87084,3.55284 -5.48376,9.01084 0.6708,9.45826 1.20404,15.71949 1.4738,17.30499 0.16197,0.95178 0.74683,7.62656 1.29975,14.83286 0.55293,7.20629 1.10357,13.37984 1.22366,13.71899 0.12015,0.33915 0.5644,5.56773 0.98728,11.61906 0.42289,6.05134 1.31429,16.676 1.98092,23.61036 0.66665,6.93436 1.89589,20.9514 2.73167,31.14899 2.29983,28.0604 2.01678,27.02764 8.33518,30.40735 2.86521,1.5326 3.95988,3.21378 2.09257,3.21378 -0.55327,0 -2.96138,-0.46209 -5.35135,-1.02687 -5.39185,-1.27416 -10.37267,-1.49535 -10.99817,-0.4884 -0.37547,0.60437 -0.73526,0.61248 -2.42556,0.0546 -2.6892,-0.88749 -10.25425,-0.39474 -14.32745,0.93324 -4.15355,1.35416 -5.13761,1.33701 -4.93464,-0.086 0.0969,-0.68002 1.06405,-1.69977 2.50433,-2.64074 4.64832,-3.03688 4.49579,-2.71128 4.14929,-8.85939 -0.1686,-2.99129 -0.7414,-11.00103 -1.27295,-17.79942 -1.25269,-16.02264 -1.84882,-23.95459 -2.50829,-33.37392 -0.29512,-4.215 -0.75272,-10.11105 -1.0169,-13.10235 -0.76597,-8.67262 -1.42474,-21.72504 -1.43804,-28.4927 -0.009,-4.8552 -0.1725,-6.37645 -0.73308,-6.84166 -0.58299,-0.48386 -0.95732,-0.36177 -1.9576,0.63851 -0.68023,0.68023 -1.36551,1.86779 -1.52284,2.63903 -0.15738,0.77125 -0.9629,3.40469 -1.79007,5.85212 -0.82723,2.44741 -2.61222,7.89848 -3.96661,12.1135 -1.35444,4.215 -3.58342,10.88978 -4.95323,14.83284 -1.36986,3.94307 -3.22733,9.50539 -4.12774,12.36071 -0.9004,2.85533 -1.98858,6.19272 -2.41819,7.41643 -0.42962,1.22371 -2.3213,7.45351 -4.20373,13.844 -4.95373,16.81705 -5.34739,18.20536 -6.16854,21.75484 -0.40895,1.76759 -1.41238,4.82854 -2.22997,6.80211 -0.81754,1.97358 -1.75127,5.42223 -2.07492,7.66365 -0.78941,5.4666 -1.14065,6.30024 -2.65473,6.30024 -1.84304,0 -2.61509,-1.61767 -4.02451,-8.43268 -0.69442,-3.35792 -1.46889,-6.49075 -1.72105,-6.96188 -0.25211,-0.47111 -0.45729,-1.48305 -0.45596,-2.24875 0.001,-0.76571 -1.42425,-7.28825 -3.16795,-14.49453 -1.74375,-7.2063 -3.65873,-15.32729 -4.25545,-18.04665 -0.59672,-2.71935 -1.82523,-8.05918 -2.72998,-11.86628 -0.90481,-3.80709 -2.11973,-9.48066 -2.69983,-12.60792 -0.58017,-3.12726 -1.48077,-7.24338 -2.0013,-9.14692 -1.78049,-6.51037 -4.65875,-20.57442 -5.34976,-26.14029 -0.47525,-3.82818 -1.10985,-5.25592 -2.33618,-5.25592 -0.95445,0 -1.55805,2.73447 -2.42389,10.98036 -0.41997,3.99967 -0.86915,7.55955 -0.99825,7.91085 -0.24147,0.65707 -1.27824,9.50745 -2.4624,21.01928 -0.36978,3.59512 -0.81511,6.76757 -0.9896,7.0499 -0.27465,0.4444 -1.47275,14.16375 -3.21769,36.84523 -0.27193,3.53516 -0.49502,10.49361 -0.49566,15.46324 -0.001,7.77024 0.13725,9.42968 0.98761,11.84914 1.17453,3.34167 1.25492,5.00163 0.26067,5.38316 -0.40054,0.1537 -2.12486,-0.0952 -3.83182,-0.55303 -2.2989,-0.61663 -6.08874,-0.90272 -14.61674,-1.10339 -10.87164,-0.25582 -11.718,-0.21008 -15.19062,0.82082 -4.2906,1.27373 -5.92854,1.21391 -5.92854,-0.21653 0,-0.71078 0.73422,-1.33016 2.61088,-2.20258 l 2.61088,-1.21372 -0.29385,-2.24728 c -0.34555,-2.64281 -3.45372,-15.70677 -4.41657,-18.56341 -0.36667,-1.08774 -0.92493,-3.25326 -1.24058,-4.81225 -0.31568,-1.55899 -0.81812,-2.98542 -1.11651,-3.16986 -0.29844,-0.18442 -7.76446,-0.35509 -16.59119,-0.37925 l -16.0486,-0.0439 -0.91756,1.16656 c -0.50467,0.6416 -1.51236,2.42155 -2.23931,3.95542 -0.72692,1.53388 -2.03888,3.90134 -2.9154,5.26102 -3.18116,4.93464 -9.57753,16.34872 -9.89377,17.65511 -0.23268,0.96119 -0.0214,1.76414 0.74887,2.84583 0.59009,0.82876 0.99513,1.89491 0.90006,2.36923 -0.20801,1.03751 -1.27054,1.0058 -6.0789,-0.18134 -2.47595,-0.6113 -5.64213,-0.86581 -11.12464,-0.89424 -7.17584,-0.0372 -7.90201,0.0468 -11.40899,1.31993 -4.04551,1.46863 -5.89601,1.70726 -5.89601,0.76036 z m 73.35889,-44.14513 c 5.14482,-0.29984 5.48742,-0.61621 4.19517,-3.87425 -2.54546,-6.41769 -5.62338,-17.55864 -7.16337,-25.92896 -0.11382,-0.61877 -0.65142,-1.56946 -1.19459,-2.11265 -1.5091,-1.50908 -2.76361,-0.53182 -3.6955,2.87872 -0.42547,1.55711 -1.198,4.19338 -1.71682,5.85837 -1.1703,3.75605 -6.87329,16.14916 -8.6071,18.7041 -1.21021,1.78334 -1.67859,4.16111 -0.96102,4.8787 0.30645,0.30642 10.72642,0.0865 19.14323,-0.40403 z m 4.94744,-67.65524 c 0.68602,-1.45013 1.68289,-4.20834 2.21524,-6.12936 l 0.9679,-3.49275 -3.1682,-5.08163 c -3.33651,-5.35169 -3.83662,-7.10229 -2.17929,-7.62832 1.7122,-0.54341 2.67524,0.15559 4.17475,3.03009 1.13585,2.17732 1.89574,2.98991 3.461,3.70087 2.44485,1.11048 6.11697,1.19068 8.52123,0.18612 2.04268,-0.85347 2.21602,-0.44995 -2.33474,-5.43379 -2.6313,-2.88169 -6.40038,-8.31011 -6.41788,-9.2434 -0.007,-0.35484 -1.4421,-2.848 -3.18985,-5.54035 -3.5238,-5.4283 -5.98086,-10.71173 -5.52905,-11.88907 0.39425,-1.02749 1.97123,-0.97456 2.89938,0.0973 0.41206,0.47589 1.65233,2.4227 2.75609,4.32624 1.9921,3.43544 4.80224,6.54411 6.87483,7.60519 1.41946,0.72668 10.30675,0.6606 12.5168,-0.0931 1.30638,-0.44549 1.76719,-0.90603 1.88017,-1.87905 0.16829,-1.44998 -0.39149,-1.76291 -5.73364,-3.205 -2.80277,-0.75661 -3.50921,-1.23816 -7.11202,-4.84785 -4.96276,-4.97225 -7.44277,-8.20692 -8.96433,-11.6921 -1.89726,-4.34582 -2.42097,-7.21279 -2.04683,-11.20546 0.31025,-3.3107 0.2622,-3.60743 -0.58536,-3.6153 -0.50782,-0.005 -3.02624,-0.23002 -5.59642,-0.5007 -3.70289,-0.38995 -4.80719,-0.35811 -5.31868,0.15337 -0.40152,0.40154 -0.82376,2.97321 -1.11721,6.80466 -0.25947,3.38754 -0.73813,6.93789 -1.06376,7.88967 -0.94189,2.75322 -3.04484,5.49466 -7.24817,9.44885 -3.19865,3.00907 -4.87422,4.12864 -9.18766,6.139 -5.04243,2.35014 -5.26973,2.52216 -5.14404,3.89319 0.0823,0.89823 0.6522,1.82149 1.52457,2.46998 2.07621,1.54348 8.12084,1.72276 12.56249,0.37258 3.97169,-1.20728 6.29788,-3.32583 10.21617,-9.30416 2.01703,-3.07753 2.81612,-3.90463 3.89239,-4.02896 1.10163,-0.12727 1.35434,0.0403 1.35434,0.89775 0,1.39678 -0.26462,1.87436 -6.30169,11.37219 -7.89103,12.41468 -8.5193,13.28083 -11.59963,15.99226 -4.71898,4.15382 -3.68914,6.84253 2.7414,7.15704 4.42518,0.21645 5.77107,-0.58576 9.82968,-5.85893 2.05628,-2.67158 3.15283,-3.69359 3.963,-3.69359 2.57463,0 1.12141,3.78479 -3.66921,9.55595 -1.05481,1.27068 -2.04654,2.81344 -2.20386,3.42836 -0.32326,1.26329 1.36966,3.57801 6.68565,9.14136 4.04784,4.23613 4.95686,4.33158 6.67444,0.70081 z M 130.62075,250.433 c 2.12184,-0.88658 2.26473,-2.38442 0.4785,-5.01655 -1.91234,-2.81804 -1.45901,-5.60655 1.55384,-9.55732 0.91766,-1.20338 1.8866,-3.09456 2.15319,-4.20264 1.40358,-5.83416 1.45787,-5.91062 4.69825,-6.61491 7.7972,-1.69469 9.44072,-1.2995 11.20766,2.69491 1.06302,2.4032 1.16838,1.97979 -1.35983,5.46561 -1.07563,1.48306 -0.52156,2.12561 1.83295,2.12561 2.21177,0 3.29008,-0.46499 5.99504,-2.58523 1.80066,-1.41137 1.85411,-1.54526 1.85411,-4.64197 0,-2.41843 -0.29759,-3.77601 -1.23212,-5.62015 -1.74627,-3.44616 -3.81174,-4.89664 -8.73081,-6.13132 -4.69801,-1.17921 -6.84764,-2.35317 -6.84764,-3.73977 0,-0.51741 1.83556,-3.1611 4.07904,-5.87484 3.56522,-4.31254 5.22259,-6.95206 7.50344,-11.94985 0.31026,-0.67984 1.0701,-1.30886 1.68857,-1.39781 0.87084,-0.12526 1.25407,0.18146 1.69876,1.35968 0.31589,0.83677 0.74762,1.52141 0.95944,1.52141 0.87386,0 11.7496,-10.68947 11.75405,-11.55271 0.003,-0.50737 -0.32014,-1.95357 -0.71718,-3.21379 -0.39707,-1.2602 -1.16072,-3.75198 -1.69707,-5.53729 -0.53636,-1.78529 -2.12283,-5.90141 -3.52542,-9.14692 -1.40264,-3.24551 -3.28449,-8.12585 -4.18188,-10.84521 -1.36629,-4.14017 -1.81233,-4.97142 -2.74239,-5.11114 -1.47246,-0.22121 -1.84556,0.50485 -2.23729,4.35369 -0.18076,1.77627 -0.68162,4.6758 -1.11296,6.44338 -0.54624,2.23824 -0.81447,5.99034 -0.8837,12.36071 -0.0546,5.03082 -0.12251,9.48825 -0.15084,9.90541 -0.0284,0.41717 -1.12572,2.19711 -2.43857,3.95543 -1.31291,1.75832 -3.2305,4.77227 -4.26138,6.69767 -1.03093,1.92541 -3.19638,5.26281 -4.81218,7.41643 -1.61574,2.15363 -3.37377,4.75004 -3.90672,5.7698 -1.38178,2.64409 -2.5032,2.42937 -5.03046,-0.9632 -2.24214,-3.00985 -3.05428,-3.82798 -7.26069,-7.31415 -2.56474,-2.12562 -2.83554,-2.22925 -5.82541,-2.22925 -1.72455,0 -3.86886,0.30636 -4.76506,0.68081 -3.00217,1.25441 -4.21213,6.11042 -2.41706,9.70073 1.047,2.09407 2.1656,2.38869 3.89733,1.02649 2.38815,-1.87849 3.63154,-1.41609 7.7314,2.87517 7.25311,7.59174 7.07418,8.28212 -1.62129,6.25497 -4.39843,-1.02539 -6.70303,-1.32124 -8.78843,-1.12822 -3.61748,0.33484 -8.92152,2.11726 -10.40905,3.49795 -1.07642,0.99912 -1.14352,1.38049 -0.98885,5.61873 0.16172,4.43054 0.21023,4.59289 1.89643,6.34615 3.05546,3.17688 6.44284,4.27879 6.41185,2.08574 -0.009,-0.61185 -0.3424,-1.54435 -0.74165,-2.07221 -1.02565,-1.35603 -0.96127,-5.90348 0.0986,-6.96331 1.2923,-1.29232 12.49205,-0.88715 15.24443,0.55148 3.01879,1.57785 2.97122,3.27739 -0.21181,7.57107 -1.37624,1.85645 -2.83718,4.17694 -3.24652,5.15665 -1.06697,2.55363 -0.96957,7.61793 0.18289,9.50778 1.74064,2.85443 5.7378,3.92313 9.22451,2.4663 z m 124.29094,-5.04124 c 3.03001,-1.50991 3.99731,-3.20238 3.99731,-6.99389 0,-3.47158 -3.57626,-10.63299 -7.2149,-14.44774 -3.12919,-3.28061 -3.35752,-4.60027 -0.83835,-4.84458 0.86901,-0.0843 2.04842,0.0975 2.62097,0.40386 0.57249,0.3064 3.05729,0.7657 5.52172,1.02067 6.76264,0.69967 9.66781,2.71754 10.27076,7.13398 0.33206,2.43213 1.62598,2.66812 3.18323,0.58061 0.85447,-1.14541 1.03316,-2.0556 0.99183,-5.05206 -0.12752,-9.24986 -3.94327,-12.16576 -14.88561,-11.37529 -6.3013,0.45521 -8.31431,-0.77281 -5.21198,-3.17945 4.93757,-3.83028 7.77258,-4.7678 9.7941,-3.23881 1.11745,0.84518 2.50051,0.96996 2.93626,0.26488 0.41037,-0.66401 -2.96969,-7.01781 -4.49619,-8.4519 -2.48391,-2.33351 -9.40412,-0.77742 -13.41667,3.01688 -1.02123,0.9657 -1.88168,2.487 -2.38412,4.21533 -0.43238,1.48736 -1.17699,2.91347 -1.65466,3.16911 -1.40462,0.75174 -3.7225,-1.032 -5.21315,-4.01182 -1.58989,-3.17816 -2.41726,-4.6271 -4.86365,-8.51725 -2.41469,-3.83976 -3.1943,-6.65334 -3.80902,-13.74638 -0.55599,-6.41523 -1.67725,-10.51288 -5.55654,-20.30604 -2.0903,-5.27696 -2.6975,-6.36144 -3.70326,-6.61387 -1.60942,-0.40394 -1.84789,-0.0489 -2.87006,4.2733 -0.48237,2.03952 -2.30879,7.93558 -4.05877,13.10235 -1.74993,5.16678 -3.283,9.83913 -3.40681,10.383 -0.15292,0.67189 0.66807,2.09827 2.56119,4.44986 1.53248,1.90355 3.68201,4.96684 4.77673,6.8073 1.09476,1.84048 2.18191,3.46467 2.41597,3.60932 0.23406,0.14465 1.14613,-0.7593 2.02686,-2.00878 1.27968,-1.81551 1.85213,-2.24252 2.85018,-2.12604 1.00048,0.11677 1.34811,0.53918 1.74756,2.12348 0.5678,2.25218 3.47653,7.62718 6.2644,11.57594 1.94385,2.7533 2.35319,4.48417 1.27138,5.37562 -0.33992,0.28011 -1.90845,0.74683 -3.48563,1.03717 -5.62006,1.03456 -9.84184,3.53822 -11.27034,6.68378 -1.10787,2.43938 -1.24384,7.51663 -0.26412,9.8614 1.33773,3.20159 7.20634,6.72077 11.23969,6.74 2.67348,0.0128 4.89287,-1.63584 4.89287,-3.63446 0,-1.28662 -0.15689,-1.35352 -4.83047,-2.05925 -4.18356,-0.63175 -4.8855,-3.58467 -1.59597,-6.71394 3.49828,-3.32782 8.04173,-3.52778 9.64649,-0.42453 0.39481,0.76349 2.50864,3.01303 4.69738,4.99898 5.59535,5.07694 7.59668,9.76706 6.41599,15.03568 -0.27939,1.24676 -0.37947,2.47487 -0.22234,2.72912 0.50407,0.81557 2.43506,0.4973 5.12974,-0.84554 z M 199.496,233.42667 c 0.47263,-0.58601 0.60277,-1.98262 0.45829,-4.91977 -0.2921,-5.93765 -0.30239,-5.94455 -9.88783,-6.61302 -8.54287,-0.59576 -9.50464,-0.48754 -11.41698,1.28479 -1.15292,1.0685 -1.32117,1.60734 -1.32117,4.23196 0,3.33854 0.81571,5.05346 3.04979,6.41209 1.17254,0.71306 2.54838,0.79986 9.90972,0.62514 7.19676,-0.17079 8.6525,-0.33225 9.20818,-1.02119 z m 66.335,-5.72672 c 0,-1.43727 -2.10532,-3.24967 -3.77487,-3.24967 -1.53168,0 -1.49307,1.02275 0.11061,2.92863 1.62197,1.92757 3.66426,2.1065 3.66426,0.32104 z M 62.024867,225.66056 c 6.152625,-1.42415 6.808239,-1.67711 9.870672,-3.80834 5.046728,-3.51213 12.844853,-13.96584 15.671603,-21.00847 0.62817,-1.56497 1.81515,-4.40284 2.637779,-6.30639 1.563231,-3.61728 7.34162,-21.79539 9.901569,-31.14899 4.19305,-15.32063 6.22407,-22.62715 7.3042,-26.27594 1.81603,-6.13505 4.93236,-8.83838 6.46554,-5.60864 1.17613,2.47774 1.79813,11.35144 1.4724,21.00716 -0.44864,13.29988 -2.21761,23.35059 -5.08129,28.8702 -0.6615,1.27504 -1.25105,2.97684 -1.31004,3.7818 -0.097,1.32192 0.0514,1.47879 1.53223,1.62093 1.15109,0.11048 2.1086,-0.2021 3.21379,-1.04915 2.01232,-1.5423 5.93879,-8.15858 8.09311,-13.63727 1.89431,-4.81745 4.35854,-14.6477 4.78602,-19.09209 0.34121,-3.54743 1.9034,-9.66298 3.45388,-13.5211 1.79467,-4.46581 6.42277,-6.7086 7.29807,-3.53667 0.55701,2.01851 0.47875,10.22206 -0.1556,16.31613 -0.32554,3.12726 -0.60291,6.79839 -0.61636,8.15807 -0.0377,3.81296 1.22144,3.63022 5.38299,-0.78124 4.77989,-5.06695 6.05878,-8.05232 8.02972,-18.74404 0.36019,-1.95383 0.58718,-2.25209 1.89133,-2.48526 l 1.48205,-0.26497 -0.16346,-4.05505 c -0.19628,-4.86937 -0.64196,-6.7471 -1.64753,-6.94086 -0.41305,-0.0796 -2.61587,1.43043 -4.89519,3.3556 -5.8656,4.95434 -7.1167,5.12334 -8.61531,1.16375 -1.16335,-3.07387 -2.17169,-4.62185 -3.01068,-4.62185 -0.36641,0 -2.01785,1.33495 -3.66989,2.96657 -1.65199,1.63162 -3.20291,2.96657 -3.44641,2.96657 -0.65587,0 -3.70595,-3.88653 -4.98127,-6.3473 -0.61132,-1.17957 -1.4107,-2.25949 -1.77644,-2.39984 -0.81205,-0.3116 -4.11072,1.57146 -5.01538,2.86307 -0.36208,0.51688 -0.95352,0.93978 -1.31435,0.93978 -0.86253,0 -3.84448,-3.33019 -6.00196,-6.70294 -0.94689,-1.48015 -2.00525,-2.69119 -2.35195,-2.69119 -0.85962,0 -3.54634,2.03019 -4.80595,3.63154 -0.56795,0.72201 -1.3488,1.31274 -1.735293,1.31274 -0.827478,0 -3.26703,-3.22223 -4.977504,-6.5744 -0.665647,-1.30448 -1.560712,-2.50626 -1.989092,-2.67064 -0.428369,-0.16438 -1.981714,0.29105 -3.451845,1.01208 -1.470183,0.72103 -3.45472,1.31097 -4.41011,1.31097 -1.600508,0 -1.815989,-0.184 -2.739925,-2.33947 -0.551579,-1.2867 -1.161163,-3.10158 -1.35473,-4.03308 -0.554549,-2.66917 -1.496589,-2.94234 -5.475349,-1.58778 -1.890104,0.64348 -3.772442,1.04105 -4.183012,0.8835 -1.345987,-0.5165 -2.346757,-2.68483 -2.592147,-5.61642 -0.132603,-1.58468 -0.350896,-3.60435 -0.485031,-4.48814 l -0.243901,-1.60689 -4.056643,-0.0076 c -2.231103,-0.0042 -4.368267,-0.204912 -4.74923,-0.446105 -1.184052,-0.749659 -0.320534,-5.105636 1.78504,-9.00472 2.704474,-5.008201 4.353144,-6.857743 6.112765,-6.857743 1.272072,0 1.447294,0.176083 1.447294,1.454095 0,0.799761 -0.244698,1.605347 -0.54377,1.790193 -0.936898,0.579033 -4.400518,6.258182 -4.400518,7.215356 0,1.703558 4.295296,0.789025 7.264839,-1.546786 0.700606,-0.551106 1.688813,-1.002007 2.195998,-1.002007 1.184409,0 1.238352,2.089181 0.122874,4.758833 -0.570679,1.365854 -0.716726,2.70291 -0.510648,4.674717 0.605522,5.793314 1.489809,5.882864 8.344267,0.845036 1.829339,-1.344529 3.718005,-2.369121 4.196959,-2.276871 1.427165,0.274839 1.300094,1.767156 -0.317627,3.729739 -1.80476,2.18947 -1.941119,4.01355 -0.543718,7.27355 1.646498,3.8411 3.16034,3.5367 6.75735,-1.3588 1.236861,-1.68331 2.573204,-3.24502 2.969637,-3.47045 1.307566,-0.74349 2.15235,0.59828 2.15235,3.41844 0,3.01171 1.527034,7.55493 2.981748,8.87144 1.375012,1.24438 2.607512,0.46247 5.581312,-3.54079 1.83902,-2.47565 2.62877,-3.17251 3.46099,-3.05402 0.87479,0.12454 1.15706,0.62019 1.49535,2.62567 0.89032,5.2778 3.27366,9.64134 5.26606,9.64134 0.53858,0 1.93297,-1.39594 3.48345,-3.48742 2.19165,-2.95642 2.78225,-3.46459 3.8786,-3.3374 1.23024,0.14273 1.30673,0.32263 1.56902,3.69023 0.3062,3.93148 2.16693,7.58446 3.86331,7.58446 0.53448,0 2.17989,-1.54574 3.97961,-3.73851 2.35847,-2.87359 3.31855,-3.70292 4.14964,-3.58462 0.92567,0.13176 1.11692,0.54525 1.32883,2.87326 0.26121,2.86954 1.4101,4.93237 3.33283,5.984 1.66851,0.91258 3.15144,-0.0118 5.58526,-3.48144 1.83171,-2.61125 2.37034,-3.05107 4.06916,-3.32273 1.07691,-0.1722 2.51886,-0.79549 3.20429,-1.38508 1.0377,-0.89259 1.15597,-1.2407 0.70679,-2.08004 -0.60034,-1.12172 -3.78501,-1.64043 -10.17277,-1.6569 -4.70079,-0.0121 -12.69624,-1.19715 -16.44198,-2.4369 -1.67269,-0.55364 -4.5651,-1.35973 -6.42757,-1.79133 -4.38287,-1.01567 -11.74793,-3.7744 -16.6836,-6.24915 -2.14676,-1.07638 -6.142978,-2.82996 -8.880585,-3.89682 -2.737543,-1.06686 -5.782681,-2.472682 -6.766994,-3.124035 -0.98425,-0.651364 -3.337587,-1.963862 -5.22957,-2.916649 -2.829457,-1.424898 -4.138608,-2.538676 -7.376473,-6.275656 -2.165048,-2.498817 -4.459047,-5.421752 -5.097754,-6.495408 -1.50954,-2.537554 -1.862566,-6.721059 -0.87034,-10.314689 0.733088,-2.655022 0.725227,-2.736903 -0.332361,-3.461007 -2.226654,-1.524484 -5.964337,-4.72652 -6.476958,-5.548708 -0.840923,-1.348748 0.351735,-2.08788 3.30011,-2.045261 1.429988,0.02068 3.306197,0.402814 4.16942,0.849213 2.219885,1.147939 3.532194,1.043893 3.794587,-0.300845 1.491246,-7.641983 2.576468,-10.259392 4.253568,-10.259392 1.125564,0 1.36492,0.826943 1.604466,5.543346 0.09271,1.82512 0.332855,3.482742 0.533684,3.683582 0.200841,0.200851 1.748697,-0.0035 3.439598,-0.454039 3.740296,-0.996635 6.266578,-0.519055 8.948603,1.691688 3.571308,2.943778 1.568773,4.935902 -5.297198,5.26965 -4.855733,0.236029 -5.503235,0.709484 -4.135943,3.024147 0.954687,1.616157 3.035839,11.598242 2.635544,12.641337 -0.531701,1.385637 -2.198181,0.740539 -4.392898,-1.700461 -2.155309,-2.397227 -3.344357,-5.195945 -4.070675,-9.581423 -0.280391,-1.69277 -0.447406,-1.868622 -1.643726,-1.730499 l -1.331641,0.15374 0.02452,4.449854 c 0.02112,3.828201 0.217506,4.850054 1.40586,7.3145 1.759223,3.648362 6.225543,8.512018 8.508565,9.265476 0.951338,0.313964 3.201721,1.431048 5.000855,2.482402 6.673149,3.899556 26.16031,12.109737 32.03091,13.495017 9.01487,2.1272 30.13526,3.93158 33.04973,2.82353 1.41183,-0.53679 2.44312,-2.50471 2.20075,-4.19954 -0.14053,-0.98267 -0.44489,-1.02184 -8.05692,-1.03668 -8.11495,-0.0158 -13.89986,-0.76791 -21.26041,-2.76402 -1.90356,-0.51623 -5.33795,-1.28911 -7.63206,-1.71751 -5.09662,-0.951768 -12.44131,-3.561631 -17.0875,-6.071908 -5.59303,-3.021807 -13.527662,-8.4529 -13.854629,-9.483202 -0.393663,-1.240188 -0.193022,-1.515122 2.335684,-3.200408 3.19109,-2.126816 5.303087,-4.212996 6.492533,-6.413223 0.926812,-1.71441 1.064557,-2.734721 1.03494,-7.663644 -0.01878,-3.12726 -0.305904,-6.633111 -0.638014,-7.790768 -1.151276,-4.012848 -6.050667,-7.409627 -13.490183,-9.352866 -2.90481,-0.758747 -3.677264,-0.782581 -6.674786,-0.205972 -4.239327,0.815492 -6.666716,1.852522 -10.64301,4.546868 -3.742826,2.536126 -8.321336,6.987281 -8.321336,8.089861 0,0.434677 -0.525079,1.839771 -1.166893,3.122422 -1.4381,2.874071 -3.451509,10.920305 -4.538609,18.137655 -1.826965,12.129639 -4.179692,17.036075 -11.844573,24.700955 -3.914726,3.91473 -5.879936,5.48083 -8.330507,6.63867 -3.790668,1.79101 -4.225893,2.32382 -2.944701,3.60501 2.257886,2.25789 12.99964,3.22971 18.300111,1.65564 2.805219,-0.83306 6.154029,-3.90714 9.42191,-8.64892 2.169351,-3.1478 3.932635,-3.78832 5.250234,-1.90715 0.694865,0.99203 0.700165,1.24015 0.04781,2.23575 -0.561727,0.85732 -0.73463,2.77591 -0.737495,8.18289 -0.0043,8.24644 -0.458385,11.59782 -2.530973,18.68208 -3.019279,10.32012 -8.695072,19.09462 -15.704347,24.27814 -3.857323,2.85257 -6.999361,4.13339 -12.265489,4.99992 -3.452835,0.56815 -3.875502,0.75682 -4.02257,1.7957 -0.24937,1.76153 1.687218,3.43237 5.255823,4.53459 3.843944,1.18728 6.673453,1.23147 11.7898,0.18413 5.277074,-1.08023 8.116494,-2.51444 13.001696,-6.5672 4.559966,-3.78295 5.876925,-5.53252 10.375727,-13.78411 1.670824,-3.06462 3.703176,-6.62109 4.516307,-7.90326 0.81309,-1.28216 1.714189,-3.20683 2.002336,-4.27703 0.857441,-3.18422 7.257378,-16.67222 9.113164,-19.2062 1.264452,-1.7265 2.050339,-2.34854 2.967213,-2.34854 1.834229,0 2.107746,1.40055 1.40437,7.19141 -0.589255,4.85171 -0.931944,8.97122 -2.198769,26.42973 -0.410328,5.65472 -1.000034,9.43331 -2.249605,14.41465 -1.993091,7.9452 -6.581183,21.06874 -8.2527,23.60566 -0.645476,0.97964 -1.548801,2.39407 -2.007332,3.14315 -3.174182,5.18533 -12.005012,13.25074 -17.124082,15.63976 -2.754713,1.28561 -5.369098,1.46234 -13.843976,0.9359 -2.08372,-0.12944 -2.234605,-0.0545 -2.377454,1.18083 -0.356024,3.07886 5.031846,10.05203 9.46059,12.24425 2.53402,1.25433 6.874017,1.34967 11.603517,0.25491 z m 271.127353,-7.77597 c 3.90653,-1.91842 6.84304,-4.85725 6.84304,-6.84843 l 0,-1.54894 -2.10132,0.4148 c -1.15573,0.22813 -4.4375,0.41991 -7.29283,0.42616 -4.81661,0.0106 -5.43277,-0.10219 -8.53309,-1.56175 -5.56686,-2.62073 -10.72004,-8.39709 -16.07238,-18.01596 -4.82943,-8.67914 -9.03588,-21.69349 -11.49165,-35.55418 -0.79831,-4.50564 -1.88328,-10.41963 -2.41103,-13.14219 -0.78214,-4.03478 -0.91153,-6.26845 -0.69967,-12.07949 0.28321,-7.76764 0.76682,-9.3543 2.85117,-9.3543 2.32594,0 3.73615,1.8891 4.44126,5.94954 0.3547,2.04258 1.20833,5.15504 1.89697,6.91658 0.68859,1.76155 1.41282,3.75903 1.60931,4.43888 0.67915,2.34975 5.84559,11.63348 8.68697,15.60996 3.25867,4.56041 8.90272,10.09975 11.7932,11.57436 4.76154,2.42916 12.34053,3.19681 17.10975,1.73301 2.66937,-0.8193 4.03502,-1.78866 5.35233,-3.79914 0.82995,-1.26669 0.82525,-1.3342 -0.1285,-1.84465 -0.54452,-0.29141 -2.61776,-0.53107 -4.60713,-0.5326 -1.98944,-0.002 -4.50642,-0.24963 -5.59333,-0.55136 -4.52852,-1.25719 -9.08991,-6.14943 -12.58543,-13.49827 -3.72289,-7.82684 -4.30271,-10.77048 -5.41996,-27.51641 -0.50408,-7.55537 -0.24069,-9.82226 1.20269,-10.35231 1.83289,-0.67305 3.12997,0.34038 4.70661,3.67729 2.59629,5.49515 6.40889,7.96304 13.88488,8.98774 4.3532,0.59667 11.02774,-2.35552 12.54247,-5.54761 0.41102,-0.86615 0.74727,-2.82052 0.74727,-4.34305 0,-2.58108 -0.0791,-2.76824 -1.16937,-2.76824 -0.64314,0 -1.73509,0.44499 -2.4265,0.98885 -1.88051,1.4792 -3.78935,1.23192 -7.08126,-0.91733 -6.65367,-4.34412 -10.87346,-9.59165 -13.95544,-17.35425 -2.05969,-5.187727 -2.86105,-8.923384 -3.55929,-16.591824 -0.74742,-8.20859 -2.14675,-14.707902 -3.95943,-18.38991 -1.71853,-3.490854 -5.88918,-7.382329 -11.41601,-10.651868 l -3.13368,-1.853781 -5.7418,0 c -5.44366,0 -5.90263,0.08036 -8.83909,1.547741 -3.64513,1.821488 -5.21894,3.95565 -7.19478,9.756582 -2.19659,6.449094 -2.12959,13.877622 0.16386,18.172886 2.71985,5.093809 3.14214,5.653164 4.78725,6.340515 2.787,1.164489 2.14142,3.372734 -1.62445,5.556611 -1.2867,0.746164 -3.78568,2.282601 -5.55327,3.414315 -5.5677,3.56478 -11.04167,6.030181 -20.87353,9.401153 -12.3392,4.23062 -17.31192,5.30105 -24.62239,5.30022 -3.4958,-3.9e-4 -6.12428,-0.2307 -6.80783,-0.59651 -1.50222,-0.80396 -3.74965,0.24251 -3.97841,1.85249 -0.58323,4.10383 1.27403,4.77662 12.01362,4.35191 9.89647,-0.39136 15.67698,-1.34742 23.25533,-3.84628 11.40202,-3.75965 19.94139,-8.770657 29.17128,-17.118094 8.15248,-7.372999 9.94672,-9.462631 10.87921,-12.670229 0.44073,-1.516109 0.7319,-3.59764 0.647,-4.625622 -0.13097,-1.58632 -0.34506,-1.89128 -1.41505,-2.015959 -1.18811,-0.138437 -1.32482,0.08949 -2.37271,3.955431 -0.61161,2.25628 -1.27256,4.656393 -1.46885,5.333584 -0.43291,1.493735 -1.66173,1.822696 -2.74857,0.735837 -1.05145,-1.05148 -1.05151,-4.96724 0,-8.714599 0.7813,-2.784687 0.69219,-4.377135 -0.24494,-4.377135 -0.25474,0 -1.39523,0.778719 -2.53444,1.730498 -2.21158,1.847757 -4.74622,2.327425 -5.25756,0.994955 -0.66634,-1.73647 4.29367,-7.996111 6.72056,-8.481488 1.86866,-0.373732 1.89297,-0.973986 0.23927,-5.900318 -1.48819,-4.43324 -1.45184,-6.320395 0.12607,-6.544901 0.82456,-0.117323 1.40853,0.359743 2.42087,1.977715 0.73383,1.17278 1.96916,2.863177 2.74517,3.756427 0.77601,0.893249 1.4109,2.053509 1.4109,2.578347 0,1.096471 1.70791,2.187255 2.78031,1.77572 1.0303,-0.395362 2.16397,-3.37476 2.16397,-5.687041 0,-1.470614 0.27669,-2.15935 1.09882,-2.735172 1.0072,-0.705485 1.17461,-0.693815 2.00852,0.140117 1.11978,1.119771 2.11986,6.580805 1.65663,9.046196 -0.2003,1.065848 -1.17318,2.746989 -2.38922,4.128522 l -2.05144,2.330521 0.8115,2.546264 c 1.43558,4.504302 1.48131,5.565238 0.36816,8.540385 -2.01975,5.398191 -4.56126,8.349599 -16.87742,19.599128 -6.54934,5.982131 -22.23588,14.194171 -33.16141,17.360261 -2.30487,0.66793 -6.02915,1.3748 -8.27619,1.5708 -4.6633,0.40679 -5.16505,0.88196 -3.73501,3.53736 0.9053,1.68105 6.32899,7.06711 7.11646,7.06711 0.674,0 1.29921,-1.0846 2.46641,-4.2786 1.19256,-3.26335 2.57335,-5.11554 3.81362,-5.11554 0.42377,0 1.77901,1.12171 3.01162,2.4927 1.23265,1.37097 2.9192,2.84331 3.74791,3.27186 1.37975,0.7135 1.55661,0.71101 2.09816,-0.0296 0.32523,-0.44481 0.74154,-1.97278 0.92512,-3.39548 0.61947,-4.80053 1.19291,-6.25561 2.60484,-6.60998 1.55993,-0.39152 2.81805,0.30109 3.02225,1.66378 0.22393,1.49401 2.19669,3.10281 4.20437,3.42862 2.10992,0.34239 2.14395,0.2539 2.49004,-6.47879 0.30181,-5.87176 1.54677,-6.89998 4.7747,-3.94347 1.55839,1.42732 3.53937,2.18391 5.71811,2.18391 l 1.69831,0 0,-5.097 c 0,-5.445061 0.53137,-7.025115 2.25104,-6.693939 0.52221,0.100583 1.3975,0.894929 1.94503,1.765226 0.94728,1.505782 1.14767,1.583265 4.14143,1.60139 l 3.14595,0.01905 -0.30071,-3.337398 c -0.16539,-1.835562 -0.43584,-4.399552 -0.60093,-5.697746 -0.32751,-2.574873 0.26793,-3.819994 1.82676,-3.819994 0.51525,0 1.2477,0.64217 1.67508,1.46863 0.96522,1.866501 2.14033,2.48679 4.71121,2.48679 l 2.04931,0 -0.20796,-3.584605 c -0.11441,-1.971534 -0.49854,-4.94051 -0.85368,-6.597723 -0.88023,-4.107774 -0.45503,-5.4864 2.03625,-6.601784 2.28283,-1.022053 3.72319,-0.841205 4.15582,0.521773 0.56682,1.78588 1.54485,18.987656 1.14317,20.106838 -0.56493,1.574241 -1.65717,1.846918 -3.78257,0.944318 -4.58158,-1.945654 -5.50453,-1.404339 -5.59427,3.280967 -0.11994,6.265749 -1.18093,7.740319 -4.63857,6.446879 -7.08926,-2.65195 -8.18081,-1.77232 -7.11809,5.7362 0.50872,3.59418 0.50467,4.54053 -0.022,5.17518 -0.99276,1.19622 -1.99269,0.94321 -4.44709,-1.12521 -2.75748,-2.32385 -5.02898,-3.53684 -6.62337,-3.53684 -1.00477,0 -1.2903,0.35094 -1.74073,2.13974 -0.29631,1.17686 -0.68691,3.45741 -0.86802,5.06789 -0.40632,3.61395 -0.91518,4.65865 -2.26927,4.65865 -1.09042,0 -5.31298,-2.48297 -6.35237,-3.73536 -1.20457,-1.45142 -2.4455,-0.8211 -3.70362,1.88125 -0.66465,1.42767 -1.21066,2.99974 -1.21332,3.49351 -0.008,1.40642 -0.94545,2.81058 -1.87631,2.80921 -0.46634,-7e-4 -2.51659,-1.1126 -4.55611,-2.47089 -2.03952,-1.3583 -4.19067,-2.4702 -4.78033,-2.47089 -1.46405,-0.002 -3.06066,2.71214 -3.62095,6.15462 -0.24692,1.51699 -0.58441,2.97742 -0.75004,3.24543 -0.68494,1.1082 -2.19176,0.25576 -6.15307,-3.48088 -2.29885,-2.16849 -4.46132,-3.94271 -4.80545,-3.94271 -0.34417,0 -1.39166,1.19734 -2.32781,2.66076 -1.70192,2.66056 -3.43475,4.26123 -4.61302,4.26123 -0.82001,0 -4.81781,-5.51535 -6.17586,-8.52028 -1.70202,-3.76599 -1.92788,-3.42453 -2.85636,4.31765 -0.2935,2.44741 -0.6561,5.12144 -0.80572,5.94227 -0.21908,1.20158 0.0246,1.80291 1.25046,3.08568 0.94396,0.98773 1.52392,2.11172 1.5261,2.95743 0.004,1.69153 1.85174,9.51037 2.41721,10.23005 0.22828,0.29055 0.79143,1.68231 1.25145,3.0928 1.74429,5.34799 7.27853,12.02111 9.9695,12.02111 1.22906,0 1.26466,-0.0807 0.92746,-2.10133 -0.19288,-1.15572 -0.87989,-3.57443 -1.52675,-5.37492 -1.32497,-3.68806 -1.46627,-6.77079 -0.64705,-14.11747 0.64171,-5.75504 1.37599,-8.09998 2.68474,-8.57404 2.06048,-0.74632 3.06887,0.24452 4.379,4.30281 2.52391,7.81832 4.28992,12.36243 6.305,16.2236 1.13531,2.17548 3.00806,6.23519 4.16166,9.02156 4.95951,11.97952 10.33325,18.37376 16.10897,19.16812 4.08264,0.56152 4.31151,-0.58465 1.06001,-5.30929 -6.36058,-9.24243 -10.75877,-22.72072 -11.35603,-34.80111 -0.44336,-8.96666 1.06751,-13.04792 4.83031,-13.04792 1.73683,0 2.02592,0.18712 2.86462,1.85411 0.51307,1.01975 1.73944,4.63527 2.72524,8.03446 0.98584,3.39919 3.25235,10.51896 5.03669,15.82171 1.78435,5.30274 3.91389,12.08831 4.73233,15.07904 1.80446,6.594 2.5863,8.41271 5.77047,13.42271 1.35745,2.13582 2.63036,4.43954 2.82867,5.11938 1.09121,3.7404 5.97374,11.98807 9.8065,16.56531 9.70687,11.59232 12.50439,13.16496 23.06889,12.96825 5.63065,-0.10484 6.42925,-0.23729 8.97867,-1.48926 z m -2.55111,-99.46003 c 0,-0.11991 0.22251,-0.35553 0.49444,-0.52361 0.27193,-0.16806 0.49442,-0.0699 0.49442,0.21804 0,0.28798 -0.22249,0.52361 -0.49442,0.52361 -0.27193,0 -0.49444,-0.0981 -0.49444,-0.21804 z m -136.54362,97.91795 c 0.6791,-0.4197 0.81418,-8.7028 0.14195,-8.7028 -0.23866,0 -0.71089,0.33374 -1.04942,0.74165 -1.60298,1.93151 -3.54401,0.28856 -6.15108,-5.20654 -1.89654,-3.99748 -3.1152,-8.69951 -2.60159,-10.0379 0.41878,-1.0914 2.66329,-1.06303 3.22535,0.0408 0.24233,0.47588 0.71158,1.97471 1.0428,3.33073 0.86446,3.53888 2.52229,7.17586 3.27099,7.17586 0.77304,0 1.52378,-2.29712 1.88051,-5.75389 0.14418,-1.39705 0.59797,-3.34386 1.00844,-4.32624 0.62174,-1.48807 0.99335,-1.78615 2.22676,-1.78615 1.65391,0 3.01981,-1.4897 3.01981,-3.29349 0,-0.91991 -0.35766,-1.14941 -2.22867,-1.42998 -2.8046,-0.42058 -4.0297,-1.80707 -6.17255,-6.98576 -2.70838,-6.54535 -3.05947,-6.51088 -4.16882,0.40909 -1.04898,6.54344 -1.43622,7.44943 -3.10036,7.25393 -1.16375,-0.13671 -1.72462,-0.93518 -4.4511,-6.33679 -4.50286,-8.92086 -5.12158,-12.24169 -2.38122,-12.78017 1.12409,-0.22089 1.44497,0.32212 3.02398,5.11654 1.2286,3.73049 2.33365,5.69085 2.8928,5.13172 0.13646,-0.13647 0.89601,-2.74083 1.68783,-5.78747 1.57208,-6.04857 2.0903,-7.00789 3.78569,-7.00789 1.14693,0 2.21272,1.94551 2.21272,4.03908 0,1.1473 3.96502,9.11378 5.37216,10.79377 1.37327,1.63955 1.72185,1.07529 3.05424,-4.94429 2.01242,-9.09205 3.09729,-11.36017 4.95753,-10.36461 0.66109,0.35382 0.95449,1.03741 0.95449,2.22393 0,1.63326 0.83178,2.39899 1.18944,1.09508 0.0933,-0.33992 0.84395,-2.73172 1.66821,-5.3151 1.77831,-5.57385 2.20178,-8.14951 1.66795,-10.14566 -0.71633,-2.67843 -1.69311,-1.99147 -3.69679,2.59978 -3.09537,7.09285 -2.89161,6.80423 -4.80318,6.80423 -1.48541,0 -1.83062,-0.24363 -2.61265,-1.8439 -0.49557,-1.01414 -1.11336,-3.34275 -1.37278,-5.17469 -0.49581,-3.501 -1.68857,-6.0273 -2.47457,-5.24126 -0.24958,0.24958 -0.87939,1.88643 -1.39962,3.63745 -2.10355,7.08085 -3.23347,9.60371 -4.37521,9.76883 -1.75309,0.25358 -4.06385,-2.79882 -7.02152,-9.27507 -1.00572,-2.20219 -1.99304,-0.58552 -3.26916,5.35306 -0.7773,3.61704 -0.97477,4.01165 -2.00772,4.01165 -1.20843,0 -2.01184,-1.0883 -4.85668,-6.57863 -0.93007,-1.79494 -1.74567,-2.79173 -2.21099,-2.70211 -1.14989,0.22144 -2.61725,4.72967 -2.37701,7.30303 0.11422,1.22371 1.03272,4.0517 2.04111,6.28442 1.00838,2.23271 3.14367,7.81898 4.74502,12.41393 1.60141,4.59495 3.28484,9.22046 3.7409,10.27893 2.10255,4.87945 4.85627,13.26833 5.90644,17.99342 0.63464,2.85532 1.40289,5.83227 1.70721,6.61541 0.55243,1.42169 0.55896,1.42356 4.16793,1.19195 1.98805,-0.12759 3.87375,-0.39211 4.19043,-0.58785 z m 10.91209,-41.95311 c 0.56686,-0.74064 0.54674,-0.86525 -0.13993,-0.86525 -0.49314,0 -0.80221,0.41271 -0.80221,1.07127 0,0.58919 0.063,0.97855 0.13993,0.86525 0.0769,-0.11332 0.43791,-0.59538 0.80221,-1.07127 z m -99.23239,-3.09226 c 0.0804,-1.08659 -0.0763,-2.08688 -0.34822,-2.22284 -0.64222,-0.32111 -1.48527,3.08721 -1.04651,4.2307 0.50396,1.31321 1.22578,0.27401 1.39473,-2.00786 z m 171.87618,-3.04973 c -1.54924,-6.04755 -3.87152,-9.75003 -3.87152,-6.17251 0,2.85894 2.97009,9.96597 4.16486,9.96597 0.54946,0 0.49369,-0.72109 -0.29334,-3.79346 z m -88.21141,-15.15334 c 0.43643,-1.31089 1.0422,-4.57069 1.34617,-7.244 0.30398,-2.67331 0.72098,-5.13283 0.92666,-5.46561 0.48044,-0.77739 2.74235,-0.78194 3.67564,-0.007 0.39603,0.32871 1.07904,1.83238 1.51774,3.3415 0.43871,1.50913 1.42633,3.88229 2.19472,5.2737 0.76834,1.3914 1.66454,3.37569 1.99151,4.40954 0.32696,1.03384 0.85155,1.80257 1.16576,1.70831 0.91825,-0.27555 2.71209,-4.29553 3.58678,-8.03787 0.44489,-1.90355 1.00765,-4.27247 1.25061,-5.26428 0.47267,-1.92986 1.45431,-2.61196 3.03639,-2.10985 0.91024,0.28892 0.95977,0.60925 0.67044,4.33747 -0.17182,2.21403 -0.11164,4.33605 0.13364,4.71559 1.41417,2.1878 3.51974,-2.90709 4.78063,-11.56751 0.65789,-4.51887 1.41234,-8.53109 2.02206,-10.75382 0.15224,-0.55482 -0.0384,-0.86524 -0.53135,-0.86524 -0.84375,0 -3.7239,5.32114 -4.76852,8.80999 -0.68528,2.28865 -2.00956,3.55072 -3.72577,3.55072 -1.41742,0 -1.88871,-0.71614 -2.60322,-3.95543 -0.8333,-3.77806 -3.60887,-10.93276 -4.16882,-10.74612 -0.25438,0.0848 -1.19681,2.39853 -2.0943,5.14164 -2.16218,6.60863 -3.43988,9.06548 -4.71462,9.06548 -1.06954,0 -3.42738,-2.21486 -3.42738,-3.21956 0,-1.0242 -3.38955,-7.43997 -4.42637,-8.3783 -0.96205,-0.87063 -1.01387,-0.81418 -2.75001,2.99552 -0.97323,2.13558 -1.98884,4.8617 -2.25696,6.05805 -0.66501,2.96728 -1.30549,4.02758 -2.43294,4.02758 -1.21288,0 -1.92589,-1.34109 -2.46102,-4.62879 -0.63444,-3.89837 -4.95541,-11.33078 -4.95541,-8.52378 0,0.38029 -0.68547,1.99337 -1.52328,3.58461 -1.36433,2.59119 -1.46751,3.07978 -0.98885,4.68103 0.78292,2.61913 0.65872,3.79676 -0.46388,4.39755 -0.73848,0.39524 -1.3489,0.36624 -2.34551,-0.11143 -1.04988,-0.50319 -1.63197,-1.46312 -2.63714,-4.34871 -3.96171,-11.37295 -5.05138,-12.38822 -5.30112,-4.93906 -0.19712,5.87913 0.54616,10.68432 2.59299,16.76354 3.57303,10.61218 4.8137,11.17582 5.54511,2.51917 0.36138,-4.27643 0.82194,-5.43871 2.15512,-5.43871 1.27814,0 1.8815,1.26985 2.42418,5.10187 0.24944,1.76128 0.7238,3.72567 1.05416,4.36534 0.73364,1.42048 2.4853,3.38793 3.01636,3.38793 0.54625,0 1.24315,-2.9667 1.89303,-8.05868 0.68063,-5.3326 1.27621,-6.77418 2.7989,-6.77418 1.55143,0 2.16293,1.36763 2.16293,4.83727 0,2.4057 0.31836,3.5299 1.79423,6.33647 2.39872,4.56159 2.65666,4.86626 3.43257,4.05475 0.33804,-0.35356 0.97175,-1.71539 1.40814,-3.02629 z m 21.968,-26.20929 c 0.54229,-1.44939 1.26934,-4.4862 1.61564,-6.74846 0.4071,-2.65948 1.03232,-4.70656 1.76892,-5.792 1.89177,-2.78773 1.55265,-4.24236 -1.79404,-7.69438 -1.61332,-1.66407 -3.31865,-3.88019 -3.78965,-4.92467 -0.47099,-1.04449 -1.09783,-1.820087 -1.39299,-1.72357 -0.80726,0.26403 -1.79513,3.65624 -2.11685,7.26905 -0.36909,4.14494 -0.8388,5.04603 -2.52836,4.8503 -0.91078,-0.1055 -1.53342,-0.61525 -1.99898,-1.63653 -1.55874,-3.41908 -6.67023,-10.630195 -7.53504,-10.630195 -0.57803,0 -2.4223,5.986515 -2.75535,8.943925 -0.3502,3.10962 -0.84424,3.91121 -2.41048,3.91121 -1.30386,0 -2.19506,-1.26209 -5.91298,-8.37365 -1.35967,-2.60079 -2.82679,-4.793959 -3.26026,-4.873709 -1.02515,-0.188625 -3.29882,4.801809 -3.91635,8.595859 -0.52311,3.21427 -1.1453,4.15707 -2.7433,4.15707 -1.46751,0 -1.56022,-0.1759 -2.39614,-4.54481 -0.38447,-2.00953 -1.0075,-4.40965 -1.38451,-5.33357 l -0.68547,-1.67986 -1.70666,2.90677 c -0.93868,1.59872 -2.17258,3.76902 -2.74196,4.82286 -0.56938,1.05386 -1.73747,2.34313 -2.59574,2.86508 -1.31395,0.79906 -1.56053,1.24799 -1.56053,2.84147 0,1.45408 0.34101,2.21914 1.47187,3.3026 0.80953,0.77557 1.73011,2.20778 2.0457,3.18269 1.00833,3.11495 3.39578,7.45847 4.09961,7.45847 0.77743,0 1.07404,-1.00172 1.53722,-5.19149 0.49497,-4.477 1.15766,-6.60199 2.23927,-7.18088 1.33975,-0.717 2.97854,1.10095 4.35725,4.83352 1.43062,3.87324 3.95379,8.13973 4.67245,7.90082 0.63632,-0.21153 2.21226,-6.09351 2.28277,-8.52003 0.0237,-0.81581 0.2748,-2.31764 0.55801,-3.33739 0.44009,-1.58456 0.7184,-1.85411 1.91443,-1.85411 1.72955,0 2.28054,0.63682 3.00029,3.46758 0.3102,1.22009 1.20902,3.10832 1.99734,4.19607 0.78837,1.08774 2.00101,3.03454 2.69474,4.32624 0.69373,1.2917 1.46404,2.34853 1.71186,2.34853 0.72008,0 2.46986,-5.20775 3.04597,-9.06532 0.68755,-4.60389 1.3756,-6.01474 2.93334,-6.01474 1.03968,0 1.59394,0.72068 3.8024,4.94428 1.42193,2.71935 3.06482,6.22362 3.65086,7.78725 1.40754,3.75536 2.47664,3.8134 3.8257,0.20772 z m 24.16034,-5.28204 c 0.60448,-1.49211 1.10588,-3.5264 1.11424,-4.52064 0.0151,-1.79085 -0.007,-1.81029 -2.33336,-2.08445 -9.22059,-1.0865 -10.67366,-0.97274 -10.41181,0.81522 0.1057,0.72166 0.68304,1.17636 1.88292,1.48295 2.19557,0.56099 3.19317,1.44862 5.29801,4.71384 2.11734,3.28467 2.98664,3.20517 4.45,-0.40692 z m -71.67565,-19.64711 c 1.9601,-4.666449 1.8709,-6.253587 -0.22235,-3.955411 -1.88392,2.068361 -2.76643,5.003951 -1.79607,5.974331 0.6661,0.66609 1.05323,0.27886 2.01842,-2.01892 z m 24.73358,-1.73049 c 0.58287,-1.699591 1.20057,-4.202637 1.37267,-5.56232 0.17212,-1.359673 0.52732,-3.320082 0.78937,-4.35646 0.41823,-1.654043 0.63687,-1.865525 1.78903,-1.730509 1.15578,0.135457 1.46346,0.599414 2.57484,3.883069 1.28626,3.80041 3.6787,8.01521 5.46966,9.63601 1.66736,1.50895 1.93737,0.93708 3.50921,-7.43211 0.56474,-3.007062 1.64239,-5.679684 2.29567,-5.693495 0.19698,-0.0042 0.65443,-0.195415 1.0166,-0.42499 0.51732,-0.327943 0.22511,-1.279387 -1.36324,-4.438446 -6.1093,-12.150755 -7.47699,-19.301997 -5.73487,-29.986189 1.63567,-10.031621 3.28879,-12.268623 6.82217,-9.231787 1.67146,1.436558 1.81564,-0.01715 0.53116,-5.353861 -0.68725,-2.855316 -1.45648,-6.156665 -1.70938,-7.33633 -0.63747,-2.973331 -1.48101,-3.917722 -6.50327,-7.280644 -8.50965,-5.698082 -9.86419,-6.281218 -15.17441,-6.532686 -7.91847,-0.374971 -11.88942,1.546177 -11.88942,5.752162 0,1.090962 -0.20686,2.527772 -0.45977,3.192916 -0.43573,1.146102 -0.7138,1.221119 -5.3151,1.434018 -5.33542,0.246871 -7.184,0.86739 -8.01458,2.690285 -0.78461,1.722081 -0.67757,3.612112 0.22422,3.958159 0.80018,0.307048 1.55488,-0.01046 4.91274,-2.066869 1.08774,-0.666141 2.48534,-1.214823 3.1057,-1.219304 1.60403,-0.01157 2.00001,1.431825 0.68498,2.496665 -0.58921,0.477128 -1.07132,0.995501 -1.07132,1.151948 0,0.156447 1.00863,0.538429 2.24138,0.848835 1.74193,0.438623 2.77627,1.164489 4.64165,3.257375 4.72511,5.301471 6.46653,10.868828 6.46653,20.673435 0,6.137859 -1.00033,8.835301 -8.02981,21.652847 -3.46535,6.318654 -3.47232,6.339087 -3.2216,9.462611 0.27683,3.44857 2.57103,8.812345 3.87676,9.063805 0.91919,0.17702 2.47967,-3.002601 4.07118,-8.295382 0.9937,-3.304707 1.25758,-3.72491 2.42502,-3.861627 1.14277,-0.133831 1.37673,0.08705 1.83309,1.730498 0.28776,1.036148 0.5244,2.346809 0.52593,2.912577 0.001,0.565768 0.52756,2.011981 1.16897,3.21379 1.70449,3.193713 3.00772,5.560774 3.44885,6.264144 0.81238,1.29546 1.66656,0.51028 2.68939,-2.47214 z m -8.54056,-71.50826 c -1.35227,-0.289154 -1.53595,-0.57219 -1.31024,-2.018907 0.0408,-0.261459 0.91553,-0.701928 1.94389,-0.978825 3.18418,-0.857409 7.0862,0.789487 6.3592,2.683967 -0.30339,0.790568 -3.98959,0.955967 -6.99285,0.313765 z m 33.37392,71.086692 c 0,-0.571781 -0.93437,-2.963582 -2.07636,-5.315114 -2.00188,-4.122099 -2.08307,-4.214601 -2.263,-2.57821 -0.29013,2.638629 0.26176,4.616534 1.91557,6.865352 1.68175,2.28682 2.42379,2.60154 2.42379,1.027972 z"
     id="path1382"
     style="fill:#000000;fill-opacity:1" />
</svg>
