<?xml version="1.0" encoding="UTF-8" standalone="no"?>
<!-- Created with Inkscape (http://www.inkscape.org/) -->

<svg
   width="68.000031mm"
   height="68.000038mm"
   viewBox="0 0 68.000031 68.000038"
   version="1.1"
   id="svg1"
   inkscape:version="1.3 (0e150ed, 2023-07-21)"
   sodipodi:docname="milano-bicocca.svg"
   xmlns:inkscape="http://www.inkscape.org/namespaces/inkscape"
   xmlns:sodipodi="http://sodipodi.sourceforge.net/DTD/sodipodi-0.dtd"
   xmlns="http://www.w3.org/2000/svg"
   xmlns:svg="http://www.w3.org/2000/svg">
  <sodipodi:namedview
     id="namedview1"
     pagecolor="#ffffff"
     bordercolor="#000000"
     borderopacity="0.25"
     inkscape:showpageshadow="2"
     inkscape:pageopacity="0.0"
     inkscape:pagecheckerboard="0"
     inkscape:deskcolor="#d1d1d1"
     inkscape:document-units="mm"
     inkscape:zoom="0.2102413"
     inkscape:cx="128.42386"
     inkscape:cy="128.42386"
     inkscape:window-width="1312"
     inkscape:window-height="431"
     inkscape:window-x="0"
     inkscape:window-y="38"
     inkscape:window-maximized="0"
     inkscape:current-layer="layer1" />
  <defs
     id="defs1" />
  <g
     inkscape:label="Layer 1"
     inkscape:groupmode="layer"
     id="layer1"
     transform="translate(-70.379167,-114.56457)">
    <path
       id="path1"
       d="M 70.379167,114.56457 H 138.3792 v 68.00004 H 70.379167 v -68.00004"
       style="fill:#ffffff;fill-opacity:1;fill-rule:evenodd;stroke:none;stroke-width:0.0352778" />
    <path
       id="path2"
       d="m 75.774339,179.32098 v -10.22959 h 2.489694 c 1.461417,0 2.570868,0.56843 2.570868,2.62516 0,0.92012 -0.243522,1.70491 -0.920115,2.16489 v 0.0272 c 0.865964,0.62244 1.055441,1.1636 1.055441,2.43554 0,2.08386 -0.920115,2.97683 -2.489694,2.97683 z m 1.921369,-1.84022 c 0.947138,-0.027 1.353115,0.0542 1.353115,-1.32609 0,-1.19062 -0.541303,-1.16363 -1.353115,-1.21779 z m 0,-4.38411 c 0.838835,-0.054 1.244812,0 1.244812,-1.21775 0,-1.00129 -0.568325,-0.94714 -1.244812,-0.94714 v 2.16489"
       style="fill:#231f20;fill-opacity:1;fill-rule:evenodd;stroke:none;stroke-width:0.0352778" />
    <path
       id="path3"
       d="m 84.867187,179.32098 v -10.22959 h 1.92151 v 10.22959 h -1.92151"
       style="fill:#231f20;fill-opacity:1;fill-rule:evenodd;stroke:none;stroke-width:0.0352778" />
    <path
       id="path4"
       d="m 93.987304,172.66369 v -0.67663 c 0,-0.86596 -0.270651,-1.29893 -0.622582,-1.29893 -0.595171,-0.027 -0.730497,0.37882 -0.730497,1.05544 l -0.02716,5.06071 c 0,0.56829 0.189336,0.92011 0.703616,0.92011 0.649499,0 0.70365,-0.86596 0.70365,-1.48844 v -0.92011 h 1.921404 v 1.24492 c 0,1.75895 -0.811812,3.00386 -2.76038,3.00386 -1.786044,0 -2.462671,-1.19076 -2.462671,-3.27462 v -4.19464 c 0,-2.21904 0.811918,-3.24746 2.571009,-3.24746 1.62373,0 2.62502,0.86597 2.62502,2.94983 v 0.86596 h -1.921405"
       style="fill:#231f20;fill-opacity:1;fill-rule:evenodd;stroke:none;stroke-width:0.0352778" />
    <path
       id="path5"
       d="m 104.92052,176.04648 c 0,2.30035 -0.62247,3.51814 -2.57101,3.51814 -1.94839,0 -2.625016,-1.21779 -2.625016,-3.51814 v -4.16758 c 0,-1.94857 0.947136,-3.031 2.625016,-3.031 1.67792,0 2.57101,1.08243 2.57101,3.031 z m -1.89438,-3.9781 c 0,-0.64961 -0.0541,-1.38025 -0.67663,-1.38025 -0.62244,0 -0.70361,0.73064 -0.70361,1.38025 v 4.1946 c 0,0.56829 0.0812,1.46141 0.70361,1.46141 0.62248,0 0.67663,-0.89312 0.67663,-1.46141 v -4.1946"
       style="fill:#231f20;fill-opacity:1;fill-rule:evenodd;stroke:none;stroke-width:0.0352778" />
    <path
       id="path6"
       d="m 112.01083,172.66369 v -0.67663 c 0,-0.86596 -0.27058,-1.29893 -0.62265,-1.29893 -0.59514,-0.027 -0.73061,0.37882 -0.73061,1.05544 l -0.0268,5.06071 c 0,0.56829 0.18944,0.92011 0.70344,0.92011 0.64946,0 0.70379,-0.86596 0.70379,-1.48844 v -0.92011 h 1.92123 v 1.24492 c 0,1.75895 -0.81174,3.00386 -2.7873,3.00386 -1.75895,0 -2.43558,-1.19076 -2.43558,-3.27462 v -4.19464 c 0,-2.21904 0.81175,-3.24746 2.5707,-3.24746 1.62383,0 2.62537,0.86597 2.62537,2.94983 v 0.86596 h -1.92158"
       style="fill:#231f20;fill-opacity:1;fill-rule:evenodd;stroke:none;stroke-width:0.0352778" />
    <path
       id="path7"
       d="m 121.02254,172.66369 v -0.67663 c 0,-0.86596 -0.27058,-1.29893 -0.6223,-1.29893 -0.59549,-0.027 -0.73061,0.37882 -0.73061,1.05544 l -0.0272,5.06071 c 0,0.56829 0.18944,0.92011 0.70344,0.92011 0.64982,0 0.70379,-0.86596 0.70379,-1.48844 v -0.92011 h 1.92123 v 1.24492 c 0,1.75895 -0.81174,3.00386 -2.7873,3.00386 -1.75895,0 -2.43558,-1.19076 -2.43558,-3.27462 v -4.19464 c 0,-2.21904 0.81175,-3.24746 2.57105,-3.24746 1.62348,0 2.62502,0.86597 2.62502,2.94983 v 0.86596 h -1.92158"
       style="fill:#231f20;fill-opacity:1;fill-rule:evenodd;stroke:none;stroke-width:0.0352778" />
    <path
       id="path8"
       d="m 126.43485,179.32098 1.78647,-10.22959 h 2.30011 l 1.78612,10.22959 h -1.9484 l -0.27058,-2.00256 h -1.51553 l -0.21661,2.00256 z m 2.92312,-8.38922 v 0 l -0.56832,4.60058 h 1.10948 l -0.54116,-4.60058"
       style="fill:#231f20;fill-opacity:1;fill-rule:evenodd;stroke:none;stroke-width:0.0352778" />
    <path
       id="path9"
       d="m 75.882501,167.16999 v -2.598 H 76.099 c 0.02713,0.29778 0.05401,0.51428 0.162313,0.59545 0.08132,0.10817 0.270652,0.16232 0.595454,0.16232 h 2.760345 c 0.433,0 0.757802,-0.0541 0.974267,-0.13519 0.432999,-0.16245 0.649499,-0.48725 0.649499,-0.97441 0,-0.59531 -0.243664,-0.97412 -0.703792,-1.19062 -0.27051,-0.1083 -0.6223,-0.18948 -1.082287,-0.18948 h -2.54388 c -0.29778,0 -0.487116,0.054 -0.595454,0.16232 -0.108162,0.10819 -0.189336,0.29767 -0.216465,0.59545 h -0.216499 v -1.67788 H 76.099 c 0.05401,0.24348 0.108303,0.40583 0.189336,0.48701 0.08117,0.0813 0.243629,0.1083 0.51428,0.1083 h 2.652183 c 0.703616,0 1.244777,0.16231 1.623731,0.45999 0.378812,0.3248 0.568289,0.81195 0.568289,1.48854 0,0.89299 -0.297779,1.48844 -0.866069,1.81325 -0.297674,0.18933 -0.676487,0.27065 -1.163638,0.27065 h -2.760345 c -0.297638,0 -0.514138,0.0268 -0.595454,0.10816 -0.08114,0.0812 -0.135184,0.24349 -0.162313,0.51414 h -0.216499"
       style="fill:#646f73;fill-opacity:1;fill-rule:evenodd;stroke:none;stroke-width:0.0352778" />
    <path
       id="path10"
       d="m 81.484365,161.62213 h -0.2165 c 0,-0.27051 -0.05415,-0.45998 -0.162313,-0.54112 -0.108338,-0.0812 -0.270651,-0.13533 -0.48715,-0.13533 h -3.924089 c -0.27051,0.24349 -0.459987,0.37881 -0.48701,0.43297 -0.05429,0.0541 -0.08117,0.13532 -0.108303,0.24348 h -0.216499 v -1.65075 l 3.491124,-2.62502 v -0.0541 h -2.462706 c -0.270652,0 -0.460129,0.0541 -0.595454,0.16235 -0.108162,0.0813 -0.189336,0.27065 -0.216465,0.56829 h -0.216499 v -1.65076 H 76.099 c 0.05401,0.2165 0.108303,0.37896 0.189336,0.46013 0.05429,0.0812 0.2165,0.13533 0.487257,0.13533 h 4.844098 v 0.2165 l -4.411099,3.38278 v 0.054 h 3.247496 c 0.243488,0 0.432965,-0.027 0.541126,-0.1082 0.16249,-0.1083 0.270651,-0.29764 0.270651,-0.62244 h 0.2165 v 1.73189"
       style="fill:#646f73;fill-opacity:1;fill-rule:evenodd;stroke:none;stroke-width:0.0352778" />
    <path
       id="path11"
       d="m 81.484365,156.07445 h -0.2165 c 0,-0.2165 -0.02699,-0.37898 -0.08117,-0.45998 -0.08114,-0.16249 -0.243487,-0.24367 -0.487115,-0.24367 h -4.005263 c -0.243523,0 -0.405977,0.0812 -0.48701,0.2165 -0.05429,0.10817 -0.08117,0.27065 -0.108303,0.48715 h -0.216499 v -2.6792 H 76.099 c 0.02713,0.24352 0.05401,0.40597 0.08118,0.48715 0.08114,0.16231 0.270615,0.2165 0.514138,0.2165 h 4.005263 c 0.216499,0 0.378954,-0.0542 0.460128,-0.16235 0.08117,-0.13533 0.108161,-0.29778 0.108161,-0.5413 h 0.2165 v 2.6792"
       style="fill:#646f73;fill-opacity:1;fill-rule:evenodd;stroke:none;stroke-width:0.0352778" />
    <path
       id="path12"
       d="m 75.882501,153.09761 v -2.59803 H 76.099 c 0.02713,0.27065 0.05401,0.45998 0.08118,0.54116 0.02713,0.0813 0.108161,0.13532 0.243628,0.13532 0.05401,0 0.08103,-0.027 0.135326,-0.027 0.02699,0 0.05401,0 0.108161,-0.027 l 3.05816,-1.16374 v -0.0541 l -2.78765,-1.00139 c -0.08103,-0.027 -0.135184,-0.0541 -0.189336,-0.0541 -0.108197,-0.0271 -0.189335,-0.0543 -0.270651,-0.0543 -0.162348,0 -0.243487,0.0543 -0.297638,0.13533 -0.02716,0.0813 -0.05405,0.27079 -0.08118,0.51428 h -0.216499 v -1.62373 H 76.099 c 0.02713,0.18933 0.08118,0.32466 0.162313,0.43296 0.108197,0.0812 0.270652,0.16249 0.51428,0.27065 l 4.844098,1.73193 v 0.2165 l -4.952401,1.9757 c -0.189477,0.081 -0.324661,0.16231 -0.405977,0.24348 -0.108302,0.0812 -0.162313,0.2165 -0.162313,0.40598 h -0.216499"
       style="fill:#646f73;fill-opacity:1;fill-rule:evenodd;stroke:none;stroke-width:0.0352778" />
    <path
       id="path13"
       d="m 81.484365,143.03021 v 4.49252 h -0.2165 c 0,-0.21646 -0.02699,-0.35196 -0.108161,-0.46027 -0.08117,-0.13511 -0.243629,-0.21625 -0.460128,-0.21625 h -4.005263 c -0.243523,0 -0.405977,0.0811 -0.48701,0.21625 -0.05429,0.10831 -0.08117,0.24381 -0.108303,0.46027 h -0.216499 v -4.41138 h 1.677917 v 0.1898 c -0.541303,0.0811 -0.893128,0.24341 -1.082605,0.48683 -0.2165,0.24377 -0.297638,0.64946 -0.297638,1.27212 0,0.24341 0.02713,0.40604 0.08114,0.46002 0.02702,0.054 0.135326,0.0811 0.297816,0.0811 h 1.921404 c 0,-0.43286 -0.08131,-0.73061 -0.270651,-0.86607 -0.16249,-0.16228 -0.487151,-0.29775 -0.947279,-0.37889 v -0.18944 h 2.787509 v 0.18944 c -0.487151,0.054 -0.811812,0.18945 -1.001289,0.35208 -0.189477,0.16227 -0.29778,0.46002 -0.29778,0.89288 h 2.002684 c 0.189477,0 0.297674,-0.0272 0.378813,-0.10831 0.05415,-0.0811 0.08117,-0.27058 0.08117,-0.51435 0,-0.48683 -0.108162,-0.89288 -0.297639,-1.21778 -0.216499,-0.2974 -0.595312,-0.56798 -1.163778,-0.81175 v -0.2166 l 1.732068,0.29774"
       style="fill:#646f73;fill-opacity:1;fill-rule:evenodd;stroke:none;stroke-width:0.0352778" />
    <path
       id="path14"
       d="m 76.531965,140.48633 c -0.135326,0 -0.2165,-0.0272 -0.270652,-0.1083 -0.05401,-0.054 -0.08114,-0.18909 -0.08114,-0.40569 0,-0.37889 0.13529,-0.62266 0.460092,-0.75777 0.189372,-0.0815 0.433,-0.13547 0.757661,-0.13547 0.51428,0 0.866105,0.1083 1.00129,0.32491 0.135325,0.21661 0.216499,0.56833 0.216499,1.08232 z m 4.9524,-0.67663 h -0.2165 c 0,0.27094 -0.05415,0.46038 -0.162313,0.54152 -0.108338,0.0811 -0.297674,0.13511 -0.595312,0.13511 h -1.623907 v -0.21625 l 2.598032,-1.59667 v -1.56986 h -0.2165 c 0,0.0811 0,0.13546 -0.02699,0.18944 -0.02716,0.0543 -0.05419,0.0815 -0.135326,0.13546 l -2.354509,1.5427 c -0.05405,-0.27093 -0.162207,-0.51435 -0.351825,-0.75777 -0.270511,-0.29774 -0.622336,-0.46037 -1.082464,-0.46037 -0.595454,0 -1.028418,0.32491 -1.244917,0.9204 -0.135326,0.32455 -0.189336,0.75776 -0.189336,1.2446 v 2.4899 H 76.099 c 0.02713,-0.27058 0.08118,-0.43286 0.135326,-0.51435 0.108303,-0.10795 0.297639,-0.16227 0.622441,-0.16227 h 3.653473 c 0.297638,0 0.514138,0.0543 0.595312,0.13546 0.108162,0.1083 0.162313,0.27058 0.162313,0.54116 h 0.2165 v -2.59821"
       style="fill:#646f73;fill-opacity:1;fill-rule:evenodd;stroke:none;stroke-width:0.0352778" />
    <path
       id="path15"
       d="m 81.592668,136.72502 h -2.056836 v -0.24377 c 0.622583,-0.10831 1.08257,-0.32456 1.353221,-0.59549 0.297638,-0.27058 0.432964,-0.59514 0.432964,-0.94721 0,-0.35172 -0.108303,-0.6223 -0.297639,-0.75777 -0.189477,-0.16228 -0.405976,-0.21625 -0.595453,-0.21625 -0.27051,0 -0.459987,0.0811 -0.622336,0.21625 -0.108303,0.1083 -0.243628,0.32491 -0.405941,0.62265 l -0.243523,0.514 c -0.270792,0.48719 -0.541408,0.83926 -0.78493,1.02835 -0.270651,0.2166 -0.595313,0.32491 -0.974267,0.32491 -0.405835,0 -0.784789,-0.13547 -1.109592,-0.40605 -0.351825,-0.27058 -0.541161,-0.67627 -0.541161,-1.2446 0,-0.27093 0.05415,-0.56868 0.135326,-0.81209 0.108302,-0.27058 0.135325,-0.43286 0.135325,-0.46003 0,-0.0811 -0.02702,-0.13546 -0.08132,-0.18944 -0.05401,-0.0272 -0.108162,-0.054 -0.189336,-0.054 v -0.24377 h 1.786079 v 0.2166 c -0.405836,0.10831 -0.757661,0.27058 -1.082464,0.54116 -0.297779,0.27058 -0.432964,0.56833 -0.432964,0.94721 0,0.27058 0.05401,0.46002 0.2165,0.62266 0.162313,0.13511 0.35179,0.21625 0.56829,0.21625 0.243487,0 0.432964,-0.0811 0.568289,-0.21625 0.135326,-0.13547 0.324803,-0.43322 0.595313,-0.9204 l 0.297815,-0.59514 c 0.135185,-0.24377 0.297639,-0.46037 0.459987,-0.59549 0.29778,-0.29774 0.676628,-0.43321 1.136615,-0.43321 0.405941,0 0.811918,0.13547 1.190766,0.46038 0.35179,0.29739 0.541267,0.78457 0.541267,1.4612 0,0.16228 0,0.32491 -0.05415,0.48719 -0.02699,0.13547 -0.05415,0.29739 -0.135326,0.46002 l -0.05415,0.16228 c -0.02702,0.0272 -0.02702,0.0543 -0.02702,0.0815 0,0.0268 0,0.0811 0,0.0811 0,0.0811 0,0.13511 0.05419,0.16228 0.05401,0.054 0.135325,0.0811 0.216464,0.0811 v 0.24377"
       style="fill:#646f73;fill-opacity:1;fill-rule:evenodd;stroke:none;stroke-width:0.0352778" />
    <path
       id="path16"
       d="m 81.484365,132.58411 h -0.2165 c 0,-0.21661 -0.02699,-0.37853 -0.08117,-0.46002 -0.08114,-0.16228 -0.243487,-0.24342 -0.487115,-0.24342 h -4.005263 c -0.243523,0 -0.405977,0.0811 -0.48701,0.21661 -0.05429,0.0811 -0.08117,0.24341 -0.108303,0.48683 h -0.216499 v -2.67899 H 76.099 c 0.02713,0.2166 0.05401,0.40604 0.08118,0.48718 0.08114,0.13512 0.270615,0.21625 0.514138,0.21625 h 4.005263 c 0.216499,0 0.378954,-0.054 0.460128,-0.16227 0.08117,-0.13512 0.108161,-0.32456 0.108161,-0.54116 h 0.2165 v 2.67899"
       style="fill:#646f73;fill-opacity:1;fill-rule:evenodd;stroke:none;stroke-width:0.0352778" />
    <path
       id="path17"
       d="m 77.560418,129.52623 -1.677917,-0.0272 v -4.62739 h 1.677917 v 0.21625 c -0.595454,0.0811 -1.001289,0.29775 -1.217789,0.62266 -0.108303,0.18909 -0.162454,0.48683 -0.189618,0.86571 h 4.357229 c 0.297638,0 0.514138,-0.054 0.6223,-0.13511 0.08117,-0.1083 0.135325,-0.32491 0.135325,-0.62265 h 0.2165 v 2.73332 h -0.2165 c 0,-0.29739 -0.05415,-0.48719 -0.162313,-0.59514 -0.08117,-0.1083 -0.297674,-0.13546 -0.595312,-0.13546 h -4.357229 c 0.02716,0.35207 0.08131,0.64946 0.189618,0.86607 0.2165,0.35172 0.622335,0.56832 1.217789,0.6223 v 0.2166"
       style="fill:#646f73;fill-opacity:1;fill-rule:evenodd;stroke:none;stroke-width:0.0352778" />
    <path
       id="path18"
       d="m 77.614428,122.35461 v -0.054 l 1.921404,-0.73096 v 1.48872 z m 3.869937,0.51435 h -0.2165 c 0,0.18944 -0.02699,0.32456 -0.05415,0.4057 -0.05401,0.13546 -0.135184,0.2166 -0.243487,0.2166 -0.108338,0 -0.270651,-0.0272 -0.459987,-0.1083 -0.108338,-0.0272 -0.324803,-0.1083 -0.649605,-0.21661 v -1.73178 l 0.487115,-0.18944 c 0.108338,-0.0272 0.2165,-0.0811 0.297674,-0.10831 0.135326,-0.0272 0.216465,-0.054 0.29778,-0.054 0.135326,0 0.2165,0.054 0.27051,0.13511 0.02716,0.0811 0.05415,0.24377 0.05415,0.48719 h 0.2165 v -2.48991 h -0.2165 c 0,0.16263 -0.05415,0.29775 -0.189335,0.40605 -0.162455,0.0811 -0.460128,0.24377 -0.947244,0.43286 l -4.356947,1.70533 v 0.21625 l 4.51926,1.70497 c 0.378954,0.13512 0.595454,0.24342 0.703615,0.32491 0.16249,0.10795 0.270651,0.24342 0.270651,0.43286 h 0.2165 v -1.56951"
       style="fill:#646f73;fill-opacity:1;fill-rule:evenodd;stroke:none;stroke-width:0.0352778" />
    <path
       id="path19"
       d="m 76.234326,118.34953 c -0.135326,0 -0.270651,-0.0272 -0.351825,-0.0811 -0.08117,-0.0815 -0.108162,-0.1898 -0.108162,-0.32491 0,-0.1083 0.02699,-0.21661 0.108162,-0.29775 0.08117,-0.054 0.189336,-0.0811 0.351825,-0.0811 0.08114,0 0.189477,0 0.297639,0 0.135325,0.0272 0.351825,0.0543 0.649464,0.10831 0.243663,0.0272 0.514279,0.054 0.784789,0.1083 l 0.405977,0.054 v 0.24341 l -1.759056,0.24377 c -0.162349,0.0272 -0.27051,0.0272 -0.378813,0.0272"
       style="fill:#646f73;fill-opacity:1;fill-rule:evenodd;stroke:none;stroke-width:0.0352778" />
    <path
       id="path20"
       d="m 85.489628,119.40468 c 0,-0.16227 0.02702,-0.27058 0.05415,-0.32455 0.08118,-0.1083 0.189336,-0.13512 0.405836,-0.13512 0.595454,0 1.001289,0.32456 1.272081,1.00119 0.162313,0.43286 0.2165,0.92004 0.2165,1.51553 0,0.97402 -0.135325,1.65065 -0.432999,1.97556 -0.270793,0.35172 -0.649464,0.51399 -1.109592,0.51399 -0.16249,0 -0.270651,-0.0272 -0.324662,-0.1083 -0.05429,-0.0811 -0.08132,-0.18944 -0.08132,-0.35172 z m 0.541302,4.84435 c 0.865964,0 1.569579,-0.29775 2.05673,-0.86607 0.459987,-0.54116 0.676451,-1.16346 0.676451,-1.92123 0,-0.8389 -0.216464,-1.48872 -0.676451,-1.97555 -0.487151,-0.56833 -1.190766,-0.83926 -2.138045,-0.83926 h -2.32724 v 0.2166 c 0.2165,0.0272 0.351825,0.0543 0.433,0.10831 0.135325,0.0811 0.216499,0.2166 0.216499,0.43285 v 4.08658 c 0,0.21661 -0.08117,0.37889 -0.243663,0.46002 -0.08114,0.0543 -0.216465,0.0811 -0.405836,0.0811 v 0.21661 h 2.408555"
       style="fill:#646f73;fill-opacity:1;fill-rule:evenodd;stroke:none;stroke-width:0.0352778" />
    <path
       id="path21"
       d="m 93.581328,124.24903 h -4.438227 v -0.21661 c 0.216464,0 0.378812,-0.0268 0.460128,-0.0811 0.135325,-0.1083 0.216464,-0.27058 0.216464,-0.48718 v -4.00509 c 0,-0.24377 -0.08114,-0.40605 -0.216464,-0.48718 -0.08132,-0.054 -0.243664,-0.0811 -0.460128,-0.10831 v -0.2166 h 4.384075 v 1.67816 H 93.33784 c -0.108302,-0.54151 -0.270651,-0.89323 -0.48715,-1.08267 -0.243629,-0.21626 -0.649464,-0.2974 -1.272047,-0.2974 -0.243522,0 -0.378848,0.0268 -0.432999,0.0811 -0.08117,0.054 -0.108162,0.13512 -0.108162,0.29739 v 1.92159 c 0.432964,0 0.730638,-0.0811 0.892951,-0.27058 0.135326,-0.16228 0.270793,-0.48719 0.351826,-0.94721 h 0.189477 v 2.78729 h -0.189477 c -0.05415,-0.46002 -0.162349,-0.81174 -0.351826,-1.00118 -0.162313,-0.18944 -0.459987,-0.29774 -0.892951,-0.29774 v 2.00272 c 0,0.18944 0.05415,0.29739 0.135326,0.37888 0.08117,0.054 0.243487,0.0811 0.514138,0.0811 0.487151,0 0.865964,-0.1083 1.163744,-0.29775 0.324661,-0.2166 0.595312,-0.59549 0.838835,-1.16381 h 0.216605 l -0.324802,1.73214"
       style="fill:#646f73;fill-opacity:1;fill-rule:evenodd;stroke:none;stroke-width:0.0352778" />
    <path
       id="path22"
       d="m 94.366117,121.48854 c 0,-0.81174 0.243523,-1.51553 0.730638,-2.05669 0.514139,-0.59514 1.163779,-0.86607 1.948568,-0.86607 0.297639,0 0.622442,0.0543 0.920115,0.18944 0.324803,0.1083 0.514139,0.18979 0.595313,0.18979 0.08114,0 0.135326,-0.0272 0.189477,-0.1083 0.05415,-0.0543 0.08128,-0.13547 0.135326,-0.27093 h 0.216464 v 1.92158 h -0.216464 c -0.162349,-0.40605 -0.351826,-0.7306 -0.541303,-0.97437 -0.378813,-0.46003 -0.757661,-0.67628 -1.217789,-0.67628 -0.487115,0 -0.838941,0.21625 -1.082428,0.70344 -0.216641,0.46002 -0.324802,1.10949 -0.324802,1.94839 0,0.67663 0.108161,1.29928 0.297779,1.84044 0.2165,0.54117 0.622336,0.81175 1.217789,0.81175 0.324662,0 0.541162,-0.0811 0.649464,-0.21661 0.08117,-0.1083 0.108162,-0.21625 0.108162,-0.40569 v -0.86607 c 0,-0.24342 -0.08114,-0.40605 -0.216464,-0.48719 -0.08118,-0.054 -0.270511,-0.0811 -0.568326,-0.0811 v -0.2166 h 2.625161 v 0.2166 c -0.270792,0 -0.432964,0.0811 -0.514279,0.16228 -0.108303,0.1083 -0.135185,0.29774 -0.135185,0.59549 v 1.05551 c -0.162454,0.1083 -0.433105,0.21625 -0.811953,0.32491 -0.378954,0.13511 -0.811918,0.18909 -1.271905,0.18909 -0.838941,0 -1.515428,-0.29775 -2.029707,-0.86572 -0.460128,-0.54151 -0.703651,-1.21779 -0.703651,-2.05705"
       style="fill:#646f73;fill-opacity:1;fill-rule:evenodd;stroke:none;stroke-width:0.0352778" />
    <path
       id="path23"
       d="m 100.13033,124.24903 v -0.21661 c 0.2165,0 0.37895,-0.0268 0.46013,-0.0811 0.16245,-0.0811 0.2165,-0.24341 0.2165,-0.48718 v -4.00509 c 0,-0.24377 -0.0541,-0.40605 -0.2165,-0.48718 -0.0812,-0.054 -0.2165,-0.0811 -0.46013,-0.10831 v -0.2166 h 2.67917 v 0.2166 c -0.32466,0.0272 -0.51414,0.0543 -0.6223,0.13547 -0.10834,0.0811 -0.16249,0.29774 -0.16249,0.6223 v 3.89714 c 0,0.18944 0.0542,0.32455 0.13533,0.37888 0.0812,0.054 0.27079,0.0811 0.51428,0.0811 0.45998,0 0.83894,-0.1083 1.16363,-0.32491 0.29778,-0.21625 0.56829,-0.64946 0.78479,-1.27176 h 0.24363 l -0.3248,1.86725 h -4.41124"
       style="fill:#646f73;fill-opacity:1;fill-rule:evenodd;stroke:none;stroke-width:0.0352778" />
    <path
       id="path24"
       d="m 105.19103,124.24903 v -0.21661 c 0.2165,0 0.37896,-0.0268 0.48708,-0.0811 0.13547,-0.0811 0.21661,-0.24341 0.21661,-0.48718 v -4.00509 c 0,-0.24377 -0.0811,-0.40605 -0.21661,-0.48718 -0.0811,-0.054 -0.24345,-0.0811 -0.48708,-0.10831 v -0.2166 h 2.67924 v 0.2166 c -0.24341,0.0272 -0.40604,0.0543 -0.48718,0.0815 -0.16228,0.10795 -0.24342,0.27023 -0.24342,0.514 v 4.00509 c 0,0.2166 0.0811,0.37888 0.18944,0.46002 0.10795,0.0815 0.29775,0.1083 0.54116,0.1083 v 0.21661 h -2.67924"
       style="fill:#646f73;fill-opacity:1;fill-rule:evenodd;stroke:none;stroke-width:0.0352778" />
    <path
       id="path25"
       d="m 110.19755,124.35733 v -2.02953 h 0.21661 c 0.13546,0.59514 0.32455,1.05516 0.59548,1.32574 0.2974,0.29774 0.59514,0.43321 0.97402,0.43321 0.32491,0 0.56833,-0.1083 0.73061,-0.29774 0.13546,-0.18945 0.2166,-0.37889 0.2166,-0.59549 0,-0.24342 -0.0811,-0.46002 -0.24341,-0.6223 -0.0815,-0.0811 -0.29775,-0.21661 -0.59549,-0.37889 l -0.48719,-0.27093 c -0.514,-0.27023 -0.8389,-0.54116 -1.05516,-0.78458 -0.18979,-0.27058 -0.29774,-0.59549 -0.29774,-0.97437 0,-0.40569 0.13511,-0.75777 0.40569,-1.10949 0.27094,-0.35172 0.67663,-0.54116 1.21779,-0.54116 0.27093,0 0.54152,0.054 0.8121,0.13512 0.27058,0.1083 0.40604,0.13546 0.46002,0.13546 0.0811,0 0.13511,-0.0272 0.16228,-0.0811 0.0272,-0.0272 0.0543,-0.1083 0.0811,-0.18944 h 0.21661 v 1.78612 h -0.18944 c -0.1083,-0.40605 -0.29775,-0.75777 -0.54116,-1.08268 -0.27094,-0.29739 -0.56833,-0.43286 -0.94721,-0.43286 -0.24342,0 -0.46002,0.0811 -0.59549,0.21661 -0.16228,0.16228 -0.24342,0.35172 -0.24342,0.56832 0,0.24342 0.0811,0.46003 0.21626,0.56833 0.13546,0.13511 0.46037,0.32455 0.92039,0.59514 l 0.56833,0.29774 c 0.27058,0.13547 0.46002,0.29774 0.6223,0.46002 0.27058,0.32491 0.43286,0.70379 0.43286,1.13665 0,0.40605 -0.16228,0.8121 -0.46003,1.19063 -0.29739,0.35207 -0.78493,0.54151 -1.4612,0.54151 -0.16228,0 -0.32491,0 -0.46002,-0.0272 -0.16263,-0.054 -0.32491,-0.0811 -0.48719,-0.16228 l -0.13511,-0.0543 c -0.0272,0 -0.0815,-0.0268 -0.10866,-0.0268 -0.0268,0 -0.054,0 -0.0811,0 -0.0811,0 -0.13511,0.0268 -0.16228,0.054 -0.0272,0.0543 -0.054,0.13546 -0.0811,0.2166 h -0.21661"
       style="fill:#646f73;fill-opacity:1;fill-rule:evenodd;stroke:none;stroke-width:0.0352778" />
    <path
       id="path26"
       d="m 114.36527,120.32508 v -1.67816 h 4.57341 l 0.0272,1.67816 h -0.21625 c -0.0815,-0.59549 -0.2981,-1.00154 -0.62265,-1.21779 -0.18945,-0.1083 -0.48719,-0.16228 -0.86607,-0.18944 v 4.35681 c 0,0.29774 0.054,0.51435 0.16263,0.62265 0.0811,0.0811 0.29739,0.13511 0.59513,0.13511 v 0.21661 h -2.70615 v -0.21661 c 0.29774,0 0.48718,-0.054 0.59513,-0.13511 0.0815,-0.1083 0.13547,-0.32491 0.13547,-0.62265 v -4.35681 c -0.35172,0.0272 -0.64947,0.0811 -0.83891,0.18944 -0.37888,0.21625 -0.56832,0.6223 -0.6223,1.21779 h -0.2166"
       style="fill:#646f73;fill-opacity:1;fill-rule:evenodd;stroke:none;stroke-width:0.0352778" />
    <path
       id="path27"
       d="m 119.37189,118.64692 h 2.57069 v 0.2166 c -0.29739,0.0272 -0.48683,0.0543 -0.59513,0.16263 -0.10831,0.0811 -0.16264,0.29739 -0.16264,0.59514 v 2.76049 c 0,0.43285 0.0543,0.75776 0.13547,0.97402 0.18944,0.43321 0.48719,0.64981 0.97437,0.64981 0.56833,0 0.97402,-0.24377 1.19063,-0.70379 0.1083,-0.27058 0.16228,-0.62265 0.16228,-1.08232 v -2.54388 c 0,-0.29775 -0.054,-0.48719 -0.16228,-0.59549 -0.0811,-0.1083 -0.29775,-0.18944 -0.56833,-0.21661 v -0.2166 h 1.65065 v 0.2166 c -0.24342,0.0543 -0.40569,0.10831 -0.48683,0.18944 -0.0543,0.0811 -0.10831,0.24377 -0.10831,0.51435 v 2.65219 c 0,0.70344 -0.16227,1.2446 -0.46002,1.62348 -0.32491,0.37924 -0.81174,0.56833 -1.46156,0.56833 -0.89288,0 -1.48837,-0.27058 -1.81292,-0.83891 -0.16263,-0.32491 -0.24377,-0.70344 -0.24377,-1.19062 v -2.76049 c 0,-0.29775 -0.054,-0.514 -0.1083,-0.59514 -0.0811,-0.0811 -0.27058,-0.13546 -0.514,-0.16263 v -0.2166"
       style="fill:#646f73;fill-opacity:1;fill-rule:evenodd;stroke:none;stroke-width:0.0352778" />
    <path
       id="path28"
       d="m 126.70579,119.40468 c 0,-0.16227 0.0272,-0.27058 0.054,-0.32455 0.0543,-0.1083 0.18944,-0.13512 0.37889,-0.13512 0.59548,0 1.02834,0.32456 1.29892,1.00119 0.13547,0.43286 0.21661,0.92004 0.21661,1.51553 0,0.97402 -0.13547,1.65065 -0.43286,1.97556 -0.29774,0.35172 -0.64946,0.51399 -1.10984,0.51399 -0.16228,0 -0.27023,-0.0272 -0.32455,-0.1083 -0.054,-0.0811 -0.0811,-0.18944 -0.0811,-0.35172 z m 0.54116,4.84435 c 0.86607,0 1.5427,-0.29775 2.05669,-0.86607 0.46003,-0.54116 0.67663,-1.16346 0.67663,-1.92123 0,-0.8389 -0.2166,-1.48872 -0.67663,-1.97555 -0.48718,-0.56833 -1.19062,-0.83926 -2.13783,-0.83926 h -2.32728 v 0.2166 c 0.18945,0.0272 0.35172,0.0543 0.43286,0.10831 0.13547,0.0811 0.18944,0.2166 0.18944,0.43285 v 4.08658 c 0,0.21661 -0.054,0.37889 -0.2166,0.46002 -0.0811,0.0543 -0.21625,0.0811 -0.4057,0.0811 v 0.21661 h 2.40842"
       style="fill:#646f73;fill-opacity:1;fill-rule:evenodd;stroke:none;stroke-width:0.0352778" />
    <path
       id="path29"
       d="m 130.35915,124.24903 v -0.21661 c 0.18945,0 0.35172,-0.0268 0.46003,-0.0811 0.13546,-0.0811 0.2166,-0.24341 0.2166,-0.48718 v -4.00509 c 0,-0.24377 -0.0811,-0.40605 -0.2166,-0.48718 -0.0811,-0.054 -0.24342,-0.0811 -0.46003,-0.10831 v -0.2166 h 2.65219 v 0.2166 c -0.24377,0.0272 -0.40605,0.0543 -0.48719,0.0815 -0.16228,0.10795 -0.24377,0.27023 -0.24377,0.514 v 4.00509 c 0,0.2166 0.0815,0.37888 0.1898,0.46002 0.1083,0.0815 0.29739,0.1083 0.54116,0.1083 v 0.21661 h -2.65219"
       style="fill:#646f73;fill-opacity:1;fill-rule:evenodd;stroke:none;stroke-width:0.0352778" />
    <path
       id="path30"
       d="m 131.79355,128.33525 c 0.16228,0 0.27058,0.0272 0.35172,0.0543 0.0811,0.054 0.13511,0.18944 0.13511,0.37888 0,0.59549 -0.35172,1.00119 -1.02799,1.24496 -0.40605,0.16228 -0.9204,0.24341 -1.48872,0.24341 -1.00119,0 -1.65065,-0.16227 -2.00237,-0.43285 -0.35172,-0.29775 -0.51435,-0.64947 -0.51435,-1.08268 0,-0.16228 0.0272,-0.27058 0.1083,-0.32455 0.0811,-0.0543 0.18944,-0.0815 0.37888,-0.0815 z m -4.84435,0.51435 c 0,0.86607 0.29775,1.5427 0.89324,2.02989 0.51399,0.43286 1.13665,0.64946 1.89406,0.64946 0.83926,0 1.48872,-0.2166 2.00272,-0.64946 0.54116,-0.48719 0.8121,-1.19098 0.8121,-2.11103 v -2.2733 h -0.21661 c -0.0272,0.21661 -0.0543,0.35172 -0.1083,0.43322 -0.0811,0.13511 -0.21626,0.18908 -0.43286,0.18908 h -4.08658 c -0.21625,0 -0.37888,-0.054 -0.46002,-0.21625 -0.0272,-0.0811 -0.054,-0.2166 -0.0811,-0.40605 h -0.21661 v 2.35444"
       style="fill:#646f73;fill-opacity:1;fill-rule:evenodd;stroke:none;stroke-width:0.0352778" />
    <path
       id="path31"
       d="m 126.9492,131.90748 h 0.21661 c 0,0.1898 0.0272,0.35207 0.0811,0.43321 0.0811,0.16228 0.27058,0.24342 0.51435,0.24342 h 3.97792 c 0.24377,0 0.43321,-0.0811 0.51435,-0.21661 0.054,-0.0808 0.0811,-0.24341 0.0811,-0.46002 h 0.21661 v 2.59821 h -0.21661 c 0,-0.24342 -0.0272,-0.40605 -0.0811,-0.48719 -0.0811,-0.13546 -0.24342,-0.2166 -0.51435,-0.2166 h -3.97792 c -0.24377,0 -0.40605,0.0543 -0.48719,0.16263 -0.0543,0.13511 -0.1083,0.29774 -0.1083,0.54116 h -0.21661 v -2.59821"
       style="fill:#646f73;fill-opacity:1;fill-rule:evenodd;stroke:none;stroke-width:0.0352778" />
    <path
       id="path32"
       d="m 126.9492,136.64352 h 0.21661 c 0,0.27058 0.054,0.46003 0.16228,0.54116 0.1083,0.0815 0.27058,0.13547 0.48718,0.13547 h 3.92395 c 0.24377,0 0.37888,-0.054 0.46002,-0.16228 0.0811,-0.0811 0.10831,-0.27058 0.13547,-0.51435 h 0.21661 v 1.89442 l -3.84281,1.46156 v 0.054 l 3.84281,1.46121 v 1.86761 h -0.21661 c -0.0272,-0.24377 -0.0811,-0.43322 -0.16228,-0.51435 -0.0811,-0.0811 -0.27058,-0.13547 -0.59549,-0.13547 h -3.65336 c -0.29775,0 -0.514,0.0543 -0.59549,0.13547 -0.10831,0.0811 -0.13512,0.27058 -0.16228,0.51435 h -0.21661 v -2.46275 h 0.21661 c 0,0.21626 0.054,0.37889 0.13547,0.48719 0.054,0.10795 0.21625,0.16228 0.48683,0.16228 h 4.03225 v -0.0543 l -4.87116,-1.81293 v -0.18944 l 4.76286,-1.86725 v -0.0272 h -3.73451 c -0.27058,0 -0.46002,0.054 -0.59513,0.13511 -0.13547,0.1083 -0.18945,0.29774 -0.21661,0.62265 h -0.21661 v -1.73214"
       style="fill:#646f73;fill-opacity:1;fill-rule:evenodd;stroke:none;stroke-width:0.0352778" />
    <path
       id="path33"
       d="m 126.9492,143.67968 h 0.21661 c 0,0.2166 0.0272,0.35207 0.0811,0.46037 0.0811,0.13512 0.27058,0.21625 0.51435,0.21625 h 3.97792 c 0.24377,0 0.43321,-0.0811 0.51435,-0.21625 0.054,-0.0815 0.0811,-0.24377 0.0811,-0.46037 h 0.21661 v 2.59821 h -0.21661 c 0,-0.24342 -0.0272,-0.40605 -0.0811,-0.48719 -0.0811,-0.13547 -0.24342,-0.21661 -0.51435,-0.21661 h -3.97792 c -0.24377,0 -0.40605,0.0543 -0.48719,0.18945 -0.0543,0.1083 -0.1083,0.27093 -0.1083,0.51435 h -0.21661 v -2.59821"
       style="fill:#646f73;fill-opacity:1;fill-rule:evenodd;stroke:none;stroke-width:0.0352778" />
    <path
       id="path34"
       d="m 126.9492,146.57563 h 0.21661 c 0,0.21625 0.054,0.35172 0.0811,0.43286 0.1083,0.16228 0.27058,0.24377 0.51435,0.24377 h 3.97792 c 0.24377,0 0.40605,-0.0815 0.48719,-0.21661 0.054,-0.0811 0.1083,-0.24377 0.1083,-0.46002 h 0.21661 v 2.59786 h -0.21661 c 0,-0.29764 -0.0543,-0.48712 -0.13547,-0.59542 -0.0811,-0.1082 -0.29739,-0.16221 -0.6223,-0.16221 h -3.89713 c -0.18909,0 -0.29739,0.054 -0.37853,0.13518 -0.0543,0.0813 -0.0815,0.27066 -0.0815,0.51428 0,0.43297 0.10831,0.81182 0.32491,1.13662 0.21661,0.29764 0.64947,0.54116 1.29893,0.78479 v 0.2165 l -1.89442,-0.3248 v -4.3028"
       style="fill:#646f73;fill-opacity:1;fill-rule:evenodd;stroke:none;stroke-width:0.0352778" />
    <path
       id="path35"
       d="m 130.81918,153.5576 v 0.0541 l -1.92123,0.73064 v -1.46128 z m -3.86998,-0.48715 h 0.21661 c 0,-0.16232 0.0272,-0.29764 0.054,-0.37882 0.0543,-0.16245 0.13547,-0.2165 0.24377,-0.2165 0.10831,0 0.27058,0.027 0.48719,0.0812 0.0811,0.0541 0.29739,0.1083 0.6223,0.2165 v 1.67788 l -0.48719,0.18933 c -0.1083,0.0272 -0.2166,0.0813 -0.29774,0.10834 -0.1083,0.027 -0.21625,0.0542 -0.29739,0.0542 -0.13547,0 -0.21661,-0.0542 -0.24377,-0.13532 -0.054,-0.0541 -0.054,-0.2165 -0.0811,-0.46013 h -0.21661 v 2.40866 h 0.21661 c 0,-0.16245 0.054,-0.29778 0.21661,-0.40594 0.13511,-0.0813 0.43285,-0.2165 0.92004,-0.40598 l 4.35716,-1.65075 v -0.2165 l -4.51944,-1.65089 c -0.35207,-0.13533 -0.59549,-0.24349 -0.70379,-0.29764 -0.16228,-0.10834 -0.24342,-0.27065 -0.27058,-0.433 h -0.21661 v 1.51543"
       style="fill:#646f73;fill-opacity:1;fill-rule:evenodd;stroke:none;stroke-width:0.0352778" />
    <path
       id="path36"
       d="m 126.9492,156.9134 h 0.21661 c 0,0.27065 0.0811,0.43296 0.18944,0.51413 0.1083,0.0812 0.27058,0.13533 0.46002,0.13533 h 3.92395 c 0.29775,-0.24349 0.46002,-0.37881 0.51435,-0.43296 0.0268,-0.0542 0.0811,-0.10834 0.0811,-0.2165 h 0.21661 v 1.56957 l -3.49109,2.57087 v 0.0272 h 2.46274 c 0.27058,0 0.48718,-0.0272 0.59513,-0.13533 0.13547,-0.0812 0.18945,-0.27065 0.21661,-0.5413 h 0.21661 v 1.59674 h -0.21661 c -0.0543,-0.24366 -0.1083,-0.37899 -0.16228,-0.46013 -0.0811,-0.0812 -0.24377,-0.13532 -0.48718,-0.13532 h -4.87116 v -0.18934 l 4.41113,-3.27466 v -0.054 h -3.24767 c -0.24342,0 -0.43286,0.027 -0.54116,0.0812 -0.16228,0.10816 -0.24342,0.32466 -0.27058,0.6223 h -0.21661 v -1.67774"
       style="fill:#646f73;fill-opacity:1;fill-rule:evenodd;stroke:none;stroke-width:0.0352778" />
    <path
       id="path37"
       d="m 128.16699,163.8955 c 0.40605,-0.1083 0.92005,-0.16235 1.56951,-0.16235 0.62265,0 1.137,0.0541 1.5427,0.16235 0.73095,0.18934 1.10948,0.59532 1.10948,1.13662 0,0.40594 -0.21625,0.73064 -0.67662,0.97426 -0.43286,0.24349 -1.10949,0.35169 -1.97556,0.35169 -0.64946,0 -1.16346,-0.054 -1.56951,-0.16221 -0.7306,-0.2165 -1.08232,-0.59545 -1.08232,-1.16374 0,-0.5413 0.35172,-0.94728 1.08232,-1.13662 z m 3.65337,-0.7578 c -0.54116,-0.48711 -1.27176,-0.73074 -2.13783,-0.73074 -0.78458,0 -1.46121,0.2166 -2.00272,0.67659 -0.59514,0.51428 -0.89288,1.16378 -0.89288,1.94857 0,0.75762 0.27058,1.38024 0.81174,1.86722 0.54151,0.51427 1.27211,0.78493 2.13783,0.78493 0.86607,0 1.56986,-0.27066 2.13819,-0.78493 0.51399,-0.48698 0.78493,-1.1096 0.78493,-1.86722 0,-0.78479 -0.27094,-1.40727 -0.83926,-1.89442"
       style="fill:#646f73;fill-opacity:1;fill-rule:evenodd;stroke:none;stroke-width:0.0352778" />
    <path
       id="path38"
       d="M 84.082397,126.36005 H 124.5676 v 40.48528 H 84.082397 v -40.48528"
       style="fill:#9da5ac;fill-opacity:1;fill-rule:evenodd;stroke:none;stroke-width:0.0352778" />
    <path
       id="path39"
       d="M 84.082362,126.36005 H 124.5676 v 40.48528 H 84.082362 Z"
       style="fill:none;stroke:#646f73;stroke-width:0.375786;stroke-linecap:butt;stroke-linejoin:miter;stroke-miterlimit:2.6131;stroke-dasharray:none;stroke-opacity:1" />
    <path
       id="path40"
       d="m 88.412321,161.32449 0.02713,-28.95699 19.809709,16.69782 z"
       style="fill:#ffffff;fill-opacity:1;fill-rule:evenodd;stroke:none;stroke-width:0.0352778" />
    <path
       id="path41"
       d="M 111.49683,144.89747 93.960176,130.85232 h 25.817404 z"
       style="fill:#ffffff;fill-opacity:1;fill-rule:evenodd;stroke:none;stroke-width:0.0352778" />
    <path
       id="path42"
       d="m 96.450011,162.35291 16.914069,-10.41904 6.08895,10.44621 z"
       style="fill:#ffffff;fill-opacity:1;fill-rule:evenodd;stroke:none;stroke-width:0.0352778" />
    <path
       id="path43"
       d="m 120.18363,152.66461 0.0543,-12.80058 -3.97828,6.27839 z"
       style="fill:#ffffff;fill-opacity:1;fill-rule:evenodd;stroke:none;stroke-width:0.0352778" />
    <path
       id="path44"
       d="m 122.67354,132.39467 v 27.79321 l -22.35373,-13.96432 z"
       style="fill:none;stroke:#a0a8af;stroke-width:0.375786;stroke-linecap:butt;stroke-linejoin:miter;stroke-miterlimit:2.6131;stroke-dasharray:none;stroke-opacity:1" />
    <path
       id="path45"
       d="m 97.370091,149.17349 22.569769,14.77616 H 87.843996 Z"
       style="fill:none;stroke:#a0a8af;stroke-width:0.375786;stroke-linecap:butt;stroke-linejoin:miter;stroke-miterlimit:2.6131;stroke-dasharray:none;stroke-opacity:1" />
    <path
       id="path46"
       d="m 118.93868,129.12018 -20.5673,13.5315 -11.014358,-13.5315 z"
       style="fill:none;stroke:#a0a8af;stroke-width:0.375786;stroke-linecap:butt;stroke-linejoin:miter;stroke-miterlimit:2.6131;stroke-dasharray:none;stroke-opacity:1" />
    <path
       id="path47"
       d="m 87.357022,136.40011 0.243487,19.53902 7.52341,-10.77073 z"
       style="fill:none;stroke:#a0a8af;stroke-width:0.375786;stroke-linecap:butt;stroke-linejoin:miter;stroke-miterlimit:2.6131;stroke-dasharray:none;stroke-opacity:1" />
    <path
       id="path48"
       d="m 88.412321,161.32449 0.02713,-28.95699 19.809709,16.69782 z"
       style="fill:none;stroke:#646f73;stroke-width:0.375786;stroke-linecap:butt;stroke-linejoin:miter;stroke-miterlimit:2.6131;stroke-dasharray:none;stroke-opacity:1" />
    <path
       id="path49"
       d="M 111.49648,144.89747 93.96014,130.85232 h 25.81744 z"
       style="fill:none;stroke:#646f73;stroke-width:0.375786;stroke-linecap:butt;stroke-linejoin:miter;stroke-miterlimit:2.6131;stroke-dasharray:none;stroke-opacity:1" />
    <path
       id="path50"
       d="m 96.449976,162.35291 16.914104,-10.41908 6.08895,10.44625 z"
       style="fill:none;stroke:#646f73;stroke-width:0.375786;stroke-linecap:butt;stroke-linejoin:miter;stroke-miterlimit:2.6131;stroke-dasharray:none;stroke-opacity:1" />
    <path
       id="path51"
       d="m 120.18363,152.66461 0.0543,-12.80058 -3.97828,6.27839 z"
       style="fill:none;stroke:#646f73;stroke-width:0.375786;stroke-linecap:butt;stroke-linejoin:miter;stroke-miterlimit:2.6131;stroke-dasharray:none;stroke-opacity:1" />
  </g>
</svg>
