<?xml version="1.0" encoding="UTF-8" standalone="no"?>
<!-- Created with Inkscape (http://www.inkscape.org/) -->

<svg
   width="62.547226mm"
   height="55.090179mm"
   viewBox="0 0 62.547228 55.090179"
   version="1.1"
   id="svg1"
   xml:space="preserve"
   inkscape:version="1.3 (0e150ed, 2023-07-21)"
   sodipodi:docname="parma.svg"
   xmlns:inkscape="http://www.inkscape.org/namespaces/inkscape"
   xmlns:sodipodi="http://sodipodi.sourceforge.net/DTD/sodipodi-0.dtd"
   xmlns="http://www.w3.org/2000/svg"
   xmlns:svg="http://www.w3.org/2000/svg"><sodipodi:namedview
     id="namedview1"
     pagecolor="#ffffff"
     bordercolor="#000000"
     borderopacity="0.25"
     inkscape:showpageshadow="2"
     inkscape:pageopacity="0.0"
     inkscape:pagecheckerboard="0"
     inkscape:deskcolor="#d1d1d1"
     inkscape:document-units="mm"
     inkscape:zoom="1.578905"
     inkscape:cx="115.90311"
     inkscape:cy="172.27129"
     inkscape:window-width="1512"
     inkscape:window-height="783"
     inkscape:window-x="0"
     inkscape:window-y="34"
     inkscape:window-maximized="0"
     inkscape:current-layer="layer1" /><defs
     id="defs1" /><g
     inkscape:label="Layer 1"
     inkscape:groupmode="layer"
     id="layer1"
     transform="translate(-39.638515,-132.46997)"><path
       id="Tracciato_1338"
       data-name="Tracciato 1338"
       d="m 95.073646,147.88114 c -1.7526,0 -2.896658,-1.03902 -2.896658,-2.92788 v -4.43944 h 1.385358 v 4.36562 c 0,1.10199 0.502709,1.79467 1.521619,1.79467 1.028435,0 1.542785,-0.65061 1.542785,-1.76318 v -4.39711 h 1.395942 v 4.40743 c 0,1.92061 -1.196975,2.95963 -2.949046,2.95963"
       fill="#ffffff"
       style="fill:#2c5e97;fill-opacity:1;stroke-width:0.264583"
       clip-path="none"
       transform="translate(-52.538473,28.92026)" /><path
       id="Tracciato_1339"
       data-name="Tracciato 1339"
       d="m 104.69734,147.75494 -3.41101,-4.98502 v 4.98502 h -1.29117 v -7.24139 h 1.3118 l 3.25438,4.74372 v -4.74372 h 1.29037 v 7.24139 z"
       fill="#ffffff"
       style="fill:#2c5e97;fill-opacity:1;stroke-width:0.264583"
       clip-path="none"
       transform="translate(-52.538473,28.92026)" /><rect
       id="Rettangolo_927"
       data-name="Rettangolo 927"
       width="1.3954126"
       height="7.2413812"
       fill="#ffffff"
       x="107.96097"
       y="140.51355"
       style="fill:#2c5e97;fill-opacity:1;stroke-width:0.264583"
       clip-path="none"
       transform="translate(-52.538473,28.92026)" /><path
       id="Tracciato_1340"
       data-name="Tracciato 1340"
       d="m 114.94094,147.78641 h -1.36525 l -2.66594,-7.09453 1.46897,-0.25242 1.93146,5.55229 1.89971,-5.47847 h 1.44806 z"
       fill="#ffffff"
       style="fill:#2c5e97;fill-opacity:1;stroke-width:0.264583"
       clip-path="none"
       transform="translate(-52.538473,28.92026)" /><path
       id="Tracciato_1341"
       data-name="Tracciato 1341"
       d="m 119.16899,147.75494 v -7.24139 h 4.20687 v 1.17555 h -2.8321 v 1.70021 h 2.18255 l 0.18891,1.19645 h -2.37172 v 1.99416 h 2.93846 v 1.17528 z"
       fill="#ffffff"
       style="fill:#2c5e97;fill-opacity:1;stroke-width:0.264583"
       clip-path="none"
       transform="translate(-52.538473,28.92026)" /><path
       id="Tracciato_1342"
       data-name="Tracciato 1342"
       d="m 127.27079,141.62639 h -0.76729 v 2.29844 h 0.70326 c 0.86096,0 1.39594,-0.40958 1.39594,-1.16417 0,-0.72364 -0.46169,-1.13295 -1.3327,-1.13295 m 3.1795,5.9399 -1.41685,0.2622 -1.88859,-2.84427 h -0.62971 v 2.7694 h -1.38536 v -7.24112 h 2.24605 c 1.61607,0 2.59291,0.76597 2.59291,2.17223 a 2.0293541,2.0293541 0 0 1 -1.44885,2.03729 z"
       fill="#ffffff"
       style="fill:#2c5e97;fill-opacity:1;stroke-width:0.264583"
       clip-path="none"
       transform="translate(-52.538473,28.92026)" /><path
       id="Tracciato_1343"
       data-name="Tracciato 1343"
       d="m 133.85071,147.83907 a 5.2498624,5.2498624 0 0 1 -2.27779,-0.50271 l 0.21166,-1.27 a 4.3177354,4.3177354 0 0 0 2.08809,0.63977 c 0.6403,0 1.08109,-0.30401 1.08109,-0.88133 0,-0.53525 -0.25188,-0.75565 -1.30095,-1.20676 -1.40706,-0.57733 -1.973,-1.03902 -1.973,-2.16192 0,-1.28058 0.98636,-2.02538 2.34024,-2.02538 a 3.8914916,3.8914916 0 0 1 1.91002,0.44053 l -0.20981,1.25968 a 3.2258,3.2258 0 0 0 -1.71185,-0.56806 c -0.69321,0 -0.99722,0.33629 -0.99722,0.77682 0,0.4617 0.23098,0.68236 1.23825,1.10199 1.4904,0.60854 2.03729,1.12315 2.03729,2.24631 0,1.41658 -1.03875,2.15106 -2.43416,2.15106"
       fill="#ffffff"
       style="fill:#2c5e97;fill-opacity:1;stroke-width:0.264583"
       clip-path="none"
       transform="translate(-52.538473,28.92026)" /><rect
       id="Rettangolo_928"
       data-name="Rettangolo 928"
       width="1.3956771"
       height="7.2413812"
       fill="#ffffff"
       x="138.04832"
       y="140.51355"
       style="fill:#2c5e97;fill-opacity:1;stroke-width:0.264583"
       clip-path="none"
       transform="translate(-52.538473,28.92026)" /><path
       id="Tracciato_1344"
       data-name="Tracciato 1344"
       d="m 144.62852,141.72058 v 6.03462 h -1.39621 v -6.03462 h -2.15186 v -1.20676 h 5.62557 l 0.1995,1.20676 z"
       fill="#ffffff"
       style="fill:#2c5e97;fill-opacity:1;stroke-width:0.264583"
       clip-path="none"
       transform="translate(-52.538473,28.92026)" /><path
       id="Tracciato_1345"
       data-name="Tracciato 1345"
       d="m 151.27141,141.99363 -0.98584,2.79135 h 1.97274 z m -0.36777,-2.04602 -1.47902,-1.30175 1.54252,-0.28364 0.76597,1.58539 z m 2.43417,7.88114 -0.69295,-1.91003 h -2.73791 l -0.66145,1.83648 h -1.37584 l 2.71912,-7.27287 h 1.48008 l 2.65536,7.09427 z"
       fill="#ffffff"
       style="fill:#2c5e97;fill-opacity:1;stroke-width:0.264583"
       clip-path="none"
       transform="translate(-52.538473,28.92026)" /><path
       id="Tracciato_1346"
       data-name="Tracciato 1346"
       d="m 94.465105,152.46822 h -0.902759 v 4.95326 h 0.881327 c 1.521884,0 2.434167,-0.77655 2.434167,-2.47676 0,-1.66846 -0.965465,-2.47677 -2.413529,-2.47677 m 0.01032,6.09733 h -2.298436 v -7.24112 h 2.298436 c 2.518833,0 3.820318,1.48008 3.820318,3.60998 0,2.15159 -1.353873,3.6314 -3.820318,3.6314"
       fill="#ffffff"
       style="fill:#2c5e97;fill-opacity:1;stroke-width:0.264583"
       clip-path="none"
       transform="translate(-46.754421,28.92026)" /><rect
       id="Rettangolo_929"
       data-name="Rettangolo 929"
       width="1.3956771"
       height="7.2413812"
       fill="#ffffff"
       x="100.14227"
       y="151.32443"
       style="fill:#2c5e97;fill-opacity:1;stroke-width:0.264583"
       clip-path="none"
       transform="translate(-46.754421,28.92026)" /><path
       id="Tracciato_1347"
       data-name="Tracciato 1347"
       d="m 108.45389,152.43673 h -0.66146 v 2.34024 h 0.60854 c 0.89218,0 1.41685,-0.3675 1.41685,-1.19644 0,-0.75565 -0.47255,-1.1438 -1.36446,-1.1438 m -0.0418,3.46287 h -0.61913 v 2.66594 h -1.38536 v -7.24138 h 2.12011 c 1.65788,0 2.65483,0.76597 2.65483,2.22488 0,1.56342 -1.11125,2.35056 -2.77045,2.35056"
       fill="#ffffff"
       style="fill:#2c5e97;fill-opacity:1;stroke-width:0.264583"
       clip-path="none"
       transform="translate(-46.754421,28.92026)" /><path
       id="Tracciato_1348"
       data-name="Tracciato 1348"
       d="m 114.89755,152.80398 -0.98663,2.79135 h 1.973 z m 2.06719,5.83512 -0.69241,-1.91029 h -2.73923 l -0.66146,1.837 h -1.37451 l 2.71806,-7.27393 h 1.47955 l 2.65536,7.09454 z"
       fill="#ffffff"
       style="fill:#2c5e97;fill-opacity:1;stroke-width:0.264583"
       clip-path="none"
       transform="translate(-46.754421,28.92026)" /><path
       id="Tracciato_1349"
       data-name="Tracciato 1349"
       d="m 122.00241,152.43673 h -0.76729 v 2.29791 h 0.70352 c 0.86043,0 1.39568,-0.40931 1.39568,-1.16417 0,-0.72416 -0.4617,-1.13294 -1.33271,-1.13294 m 3.17977,5.93963 -1.41685,0.26273 -1.88912,-2.84427 h -0.62945 v 2.76992 h -1.38562 v -7.24138 h 2.24605 c 1.61634,0 2.59292,0.76597 2.59292,2.17223 a 2.028825,2.028825 0 0 1 -1.4486,2.0357 z"
       fill="#ffffff"
       style="fill:#2c5e97;fill-opacity:1;stroke-width:0.264583"
       clip-path="none"
       transform="translate(-46.754421,28.92026)" /><path
       id="Tracciato_1350"
       data-name="Tracciato 1350"
       d="m 133.29562,158.56554 -0.38841,-5.28928 -1.82563,5.31018 h -1.21708 l -1.83647,-5.31018 -0.36804,5.28928 h -1.24883 l 0.55562,-7.24138 h 1.76319 l 1.83647,5.46761 1.82563,-5.46761 h 1.73143 l 0.55562,7.24138 z"
       fill="#ffffff"
       style="fill:#2c5e97;fill-opacity:1;stroke-width:0.264583"
       clip-path="none"
       transform="translate(-46.754421,28.92026)" /><path
       id="Tracciato_1351"
       data-name="Tracciato 1351"
       d="m 139.38103,152.80398 -0.98636,2.79135 h 1.97273 z m 2.06719,5.83512 -0.69294,-1.91029 h -2.7387 l -0.66146,1.837 h -1.37583 l 2.71938,-7.27393 h 1.48008 l 2.65536,7.09454 z"
       fill="#ffffff"
       style="fill:#2c5e97;fill-opacity:1;stroke-width:0.264583"
       clip-path="none"
       transform="translate(-46.754421,28.92026)" /><path
       id="Tracciato_1353"
       data-name="Tracciato 1353"
       d="m 68.335119,162.5589 q -0.130175,0.008 -0.260879,0.009 0.06535,-0.16458 0.129911,-0.33126 0.06535,0.16192 0.130968,0.32226 m -0.01482,-0.6223 a 0.034925,0.034925 0 0 0 -0.0344,-0.0212 c -0.05292,0.003 -0.105833,0.005 -0.157427,0.006 a 0.03757083,0.03757083 0 0 0 -0.0344,0.0236 q -0.226219,0.55747 -0.452437,1.08929 a 0.03995208,0.03995208 0 0 0 0.0034,0.0357 0.0428625,0.0428625 0 0 0 0.03096,0.0198 c 0.05292,0.005 0.105834,0.009 0.15875,0.0124 a 0.03518958,0.03518958 0 0 0 0.03466,-0.0217 c 0.04048,-0.10107 0.07938,-0.20267 0.121444,-0.3048 0.142345,0.002 0.284956,-0.003 0.427566,-0.014 q 0.06324,0.15478 0.126206,0.30797 a 0.03254375,0.03254375 0 0 0 0.03466,0.0196 0.02645833,0.02645833 0 0 0 0.0077,-0.002 c 0.05106,-0.0164 0.1016,-0.0336 0.152929,-0.0529 a 0.04550833,0.04550833 0 0 0 0.02461,-0.0228 0.03942292,0.03942292 0 0 0 0.0021,-0.0323 q -0.223573,-0.51223 -0.446352,-1.04351"
       fill="#ffffff"
       style="fill:#366493;fill-opacity:1;stroke-width:0.264583"
       clip-path="none" /><path
       id="Tracciato_1354"
       data-name="Tracciato 1354"
       d="m 70.045122,162.15938 a 0.48762708,0.48762708 0 0 1 -0.407988,0.49662 c -0.04736,0.0124 -0.09366,0.0246 -0.140494,0.0362 v -0.75909 c 0.04789,-0.0124 0.0971,-0.0251 0.145786,-0.0381 0.259821,-0.0704 0.403489,0.0193 0.403489,0.26458 m -0.408781,-0.47439 q -0.167746,0.0447 -0.335756,0.0836 a 0.04974167,0.04974167 0 0 0 -0.03678,0.046 v 1.10675 a 0.028575,0.028575 0 0 0 0.03678,0.0291 c 0.110067,-0.0251 0.219075,-0.0529 0.328348,-0.082 a 0.82020832,0.82020832 0 0 0 0.652727,-0.78343 c 0,-0.36487 -0.247915,-0.50853 -0.645583,-0.40005"
       fill="#ffffff"
       style="fill:#366493;fill-opacity:1;stroke-width:0.264583"
       clip-path="none" /><path
       id="Tracciato_1355"
       data-name="Tracciato 1355"
       d="m 71.486836,161.32117 c 0.137848,-0.0402 0.227013,0.0511 0.229394,0.22966 a 0.53578124,0.53578124 0 0 1 -0.230981,0.14156 c -0.132292,0.0394 -0.195792,0 -0.195792,-0.1233 a 0.25135416,0.25135416 0 0 1 0.197379,-0.24792 m 0.0034,-0.20267 a 0.57943749,0.57943749 0 0 0 -0.42545,0.52652 c 0,0.2331 0.148431,0.32994 0.388673,0.2585 a 0.76120624,0.76120624 0 0 0 0.211666,-0.10239 0.87841666,0.87841666 0 0 1 -0.423333,0.39052 0.05450417,0.05450417 0 0 0 -0.0291,0.0529 c 0.0074,0.0408 0.01482,0.0812 0.02196,0.12171 a 0.02645833,0.02645833 0 0 0 0.01587,0.0198 0.0301625,0.0301625 0 0 0 0.02064,0 0.03730625,0.03730625 0 0 0 0.0079,-0.003 1.0345208,1.0345208 0 0 0 0.65749,-0.88927 c 0,-0.30586 -0.170656,-0.45455 -0.446352,-0.37412"
       fill="#ffffff"
       style="fill:#366493;fill-opacity:1;stroke-width:0.264583"
       clip-path="none" /><path
       id="Tracciato_1356"
       data-name="Tracciato 1356"
       d="m 72.479553,161.87812 c -0.135202,0.0241 -0.221721,-0.0638 -0.229129,-0.23627 a 0.44979166,0.44979166 0 0 1 0.229129,-0.12039 c 0.135202,-0.0235 0.197908,0.0241 0.197908,0.14261 a 0.21510625,0.21510625 0 0 1 -0.197908,0.21405 m 0.0336,-0.56409 a 0.58658124,0.58658124 0 0 0 -0.22225,0.0881 0.68368332,0.68368332 0 0 1 0.418571,-0.35719 0.04365625,0.04365625 0 0 0 0.02646,-0.0463 c -0.0066,-0.0418 -0.01349,-0.0836 -0.01984,-0.12541 a 0.03227917,0.03227917 0 0 0 -0.01614,-0.0233 0.03571875,0.03571875 0 0 0 -0.0291,0 0.89270416,0.89270416 0 0 0 -0.642144,0.82921 c 0,0.30691 0.170392,0.45217 0.444765,0.40243 a 0.47783749,0.47783749 0 0 0 0.427566,-0.44979 0.30294791,0.30294791 0 0 0 -0.389202,-0.31618"
       fill="#ffffff"
       style="fill:#366493;fill-opacity:1;stroke-width:0.264583"
       clip-path="none" /><path
       id="Tracciato_1357"
       data-name="Tracciato 1357"
       d="m 73.758548,161.82468 a 0.04180417,0.04180417 0 0 0 -0.03678,-0.0352 3.9028687,3.9028687 0 0 0 -0.429154,-0.0161 q 0.128587,-0.127 0.257439,-0.2458 c 0.140494,-0.13097 0.211667,-0.21881 0.211667,-0.36671 a 0.36247916,0.36247916 0 0 0 -0.390789,-0.36486 0.53498749,0.53498749 0 0 0 -0.36195,0.14446 0.041275,0.041275 0 0 0 -0.01296,0.036 c 0.0071,0.046 0.01482,0.0918 0.02196,0.13785 a 0.03360208,0.03360208 0 0 0 0.02355,0.0265 0.03783542,0.03783542 0 0 0 0.03678,-0.009 0.42015833,0.42015833 0 0 1 0.284427,-0.12858 c 0.151607,0.001 0.169069,0.0873 0.169069,0.14922 0,0.072 -0.0344,0.12859 -0.136789,0.22966 q -0.208757,0.20717 -0.418571,0.43498 a 0.04021667,0.04021667 0 0 0 -0.01138,0.0264 v 0.11086 a 0.03413125,0.03413125 0 0 0 0.03731,0.0347 4.094427,4.094427 0 0 1 0.739246,0.004 0.0333375,0.0333375 0 0 0 0.02805,-0.0103 0.03518958,0.03518958 0 0 0 0.0085,-0.0291 l -0.02011,-0.13071"
       fill="#ffffff"
       style="fill:#366493;fill-opacity:1;stroke-width:0.264583"
       clip-path="none"
       inkscape:label="Tracciato_1357" /><path
       id="Tracciato_1358"
       data-name="Tracciato 1358"
       d="m 70.330343,162.44672 a 0.16166041,0.16166041 0 0 0 -0.108744,0.14446 0.07752292,0.07752292 0 0 0 0.108744,0.0765 0.16245416,0.16245416 0 0 0 0.109008,-0.14472 0.07752292,0.07752292 0 0 0 -0.109008,-0.0762"
       fill="#ffffff"
       style="fill:#366493;fill-opacity:1;stroke-width:0.264583"
       clip-path="none" /><path
       id="Tracciato_1359"
       data-name="Tracciato 1359"
       d="m 68.929902,162.81051 a 0.13520208,0.13520208 0 0 0 -0.109008,0.12859 0.09022292,0.09022292 0 0 0 0.109008,0.0923 0.13758333,0.13758333 0 0 0 0.109009,-0.1307 0.0889,0.0889 0 0 0 -0.109009,-0.0902"
       fill="#ffffff"
       style="fill:#366493;fill-opacity:1;stroke-width:0.264583"
       clip-path="none" /><path
       id="Tracciato_1360"
       data-name="Tracciato 1360"
       d="m 60.068742,160.16019 -0.683948,0.30639 0.30824,-0.68422 z m 0.959379,-0.39688 a 0.0460375,0.0460375 0 0 0 -0.03201,-0.0135 0.04392083,0.04392083 0 0 0 -0.01852,0.004 l -0.576527,0.2593 -0.559329,-0.56224 0.270933,-0.59664 a 0.04577292,0.04577292 0 0 0 -0.0164,-0.0566 l -0.235215,-0.15108 a 0.04418542,0.04418542 0 0 0 -0.02461,-0.007 0.04259792,0.04259792 0 0 0 -0.0127,0.002 0.04339167,0.04339167 0 0 0 -0.02805,0.0251 l -0.883179,2.00369 a 0.04577292,0.04577292 0 0 0 0.009,0.05 l 0.199231,0.19976 a 0.04550833,0.04550833 0 0 0 0.03202,0.0135 0.04894792,0.04894792 0 0 0 0.01773,-0.004 l 2.043906,-0.89218 a 0.04497917,0.04497917 0 0 0 0.01376,-0.073 z"
       fill="#f9b000"
       style="stroke-width:0.264583"
       clip-path="none" /><path
       id="Tracciato_1361"
       data-name="Tracciato 1361"
       d="m 59.652553,158.32318 a 0.04815417,0.04815417 0 0 0 -0.009,-0.0333 l -0.652727,-0.84507 a 0.04392083,0.04392083 0 0 0 -0.03281,-0.0175 h -0.0026 a 0.04550833,0.04550833 0 0 0 -0.03281,0.0138 l -0.179916,0.18812 a 0.04445,0.04445 0 0 0 -0.0032,0.0587 l 0.428625,0.55562 -1.398852,1.07924 a 0.04524375,0.04524375 0 0 0 -0.0079,0.063 l 0.171979,0.22331 a 0.04471458,0.04471458 0 0 0 0.0299,0.0172 h 0.0058 a 0.04339167,0.04339167 0 0 0 0.02646,-0.009 l 1.639888,-1.26285 a 0.04524375,0.04524375 0 0 0 0.0172,-0.0299"
       fill="#f9b000"
       style="stroke-width:0.264583"
       clip-path="none" /><path
       id="Tracciato_1362"
       data-name="Tracciato 1362"
       d="m 58.766463,157.20665 a 0.04418542,0.04418542 0 0 0 -0.0034,-0.036 l -0.129117,-0.22992 a 0.04445,0.04445 0 0 0 -0.03916,-0.023 0.04709583,0.04709583 0 0 0 -0.01931,0.004 l -1.319477,0.61304 1.000125,-1.22819 a 0.04524375,0.04524375 0 0 0 0.0037,-0.0503 l -0.103981,-0.18521 a 0.0460375,0.0460375 0 0 0 -0.03942,-0.023 h -0.0058 l -1.570567,0.21352 1.210998,-0.80989 a 0.04418542,0.04418542 0 0 0 0.01402,-0.0593 l -0.132291,-0.23548 a 0.04365625,0.04365625 0 0 0 -0.02858,-0.0217 0.05662083,0.05662083 0 0 0 -0.01058,-0.001 0.04497917,0.04497917 0 0 0 -0.02513,0.008 l -1.724554,1.15411 a 0.04445,0.04445 0 0 0 -0.01429,0.0593 l 0.168275,0.30057 a 0.04524375,0.04524375 0 0 0 0.03942,0.023 h 0.0069 l 1.678252,-0.25109 -1.08876,1.30122 a 0.04445,0.04445 0 0 0 -0.0045,0.0508 l 0.170392,0.30348 a 0.04365625,0.04365625 0 0 0 0.03863,0.023 0.04709583,0.04709583 0 0 0 0.01931,-0.004 l 1.885157,-0.86836 a 0.04630208,0.04630208 0 0 0 0.02355,-0.0265"
       fill="#f9b000"
       style="stroke-width:0.264583"
       clip-path="none" /><path
       id="Tracciato_1363"
       data-name="Tracciato 1363"
       d="m 55.624536,154.50684 0.570177,-0.48763 0.180446,0.50112 z m 1.839648,0.39052 a 0.04524375,0.04524375 0 0 0 0.0426,-0.0603 l -0.09604,-0.26803 a 0.04497917,0.04497917 0 0 0 -0.04154,-0.0299 l -0.632619,-0.0106 -0.266171,-0.74745 0.49874,-0.42333 a 0.04471458,0.04471458 0 0 0 0.0085,-0.0579 l -0.148431,-0.23813 a 0.04365625,0.04365625 0 0 0 -0.03096,-0.0206 h -0.0071 a 0.0460375,0.0460375 0 0 0 -0.02937,0.0114 l -1.651794,1.43801 a 0.04471458,0.04471458 0 0 0 -0.01243,0.0489 l 0.09472,0.26458 a 0.04497917,0.04497917 0 0 0 0.04101,0.0299 l 2.229379,0.0627 h 0.0013"
       fill="#f9b000"
       style="stroke-width:0.264583"
       clip-path="none" /><path
       id="Tracciato_1364"
       data-name="Tracciato 1364"
       d="m 55.52373,149.838 a 0.79374999,0.79374999 0 0 0 0.863335,-0.839 0.84904791,0.84904791 0 0 0 -0.23151,-0.62574 0.90302291,0.90302291 0 0 0 -0.643467,-0.23495 l -1.27,-0.01 v 0 a 0.04524375,0.04524375 0 0 0 -0.04551,0.0444 l -0.0037,0.27993 a 0.04550833,0.04550833 0 0 0 0.04445,0.0455 l 1.259681,0.01 c 0.248973,0.002 0.545042,0.0881 0.542131,0.48683 -0.0045,0.38921 -0.301096,0.47096 -0.550069,0.47096 h -0.01005 l -1.248833,-0.0101 v 0 a 0.04471458,0.04471458 0 0 0 -0.04498,0.0445 l -0.0026,0.28204 a 0.04577292,0.04577292 0 0 0 0.0127,0.0317 0.04418542,0.04418542 0 0 0 0.03202,0.0135 l 1.286668,0.0103 z"
       fill="#f9b000"
       style="stroke-width:0.264583"
       clip-path="none" /><path
       id="Tracciato_1365"
       data-name="Tracciato 1365"
       d="m 54.30453,147.35515 2.043642,0.32464 h 0.0074 a 0.04418542,0.04418542 0 0 0 0.04419,-0.0378 l 0.04101,-0.25771 a 0.04524375,0.04524375 0 0 0 -0.03731,-0.0513 l -1.450181,-0.22993 1.640416,-0.80751 a 0.04471458,0.04471458 0 0 0 0.02434,-0.0333 l 0.0336,-0.21008 a 0.04550833,0.04550833 0 0 0 -0.03784,-0.0529 l -2.041525,-0.32306 a 0.022225,0.022225 0 0 0 -0.0066,0 0.04524375,0.04524375 0 0 0 -0.02646,0.008 0.04418542,0.04418542 0 0 0 -0.01826,0.0294 l -0.04048,0.25744 a 0.04445,0.04445 0 0 0 0.03704,0.0529 l 1.391444,0.22066 -1.577711,0.77655 a 0.04656667,0.04656667 0 0 0 -0.02461,0.0333 l -0.03916,0.24897 a 0.04868333,0.04868333 0 0 0 0.0077,0.0336 0.04709583,0.04709583 0 0 0 0.02937,0.0177"
       fill="#f9b000"
       style="stroke-width:0.264583"
       clip-path="none" /><path
       id="Tracciato_1366"
       data-name="Tracciato 1366"
       d="m 54.762523,144.94876 1.9939,0.55298 a 0.03836458,0.03836458 0 0 0 0.01164,0 0.04815417,0.04815417 0 0 0 0.02222,-0.006 0.04497917,0.04497917 0 0 0 0.0209,-0.0265 l 0.07541,-0.27146 a 0.04524375,0.04524375 0 0 0 -0.03201,-0.0556 l -1.993107,-0.55219 a 0.04841875,0.04841875 0 0 0 -0.01191,-0.002 0.04471458,0.04471458 0 0 0 -0.04313,0.0328 l -0.07567,0.27173 a 0.04074583,0.04074583 0 0 0 0.0042,0.0339 0.04312708,0.04312708 0 0 0 0.02646,0.0212"
       fill="#f9b000"
       style="stroke-width:0.264583"
       clip-path="none" /><path
       id="Tracciato_1367"
       data-name="Tracciato 1367"
       d="m 55.049862,144.05553 v 0 l 2.189956,-0.0119 a 0.04577292,0.04577292 0 0 0 0.0418,-0.0291 l 0.09049,-0.23522 a 0.04550833,0.04550833 0 0 0 -0.01191,-0.0495 l -1.649677,-1.49966 a 0.04497917,0.04497917 0 0 0 -0.03016,-0.0116 0.03175,0.03175 0 0 0 -0.01005,0.001 0.04497917,0.04497917 0 0 0 -0.03228,0.0265 l -0.105833,0.27728 a 0.04471458,0.04471458 0 0 0 0.01244,0.0497 l 1.27,1.12184 -1.718204,-0.0153 v 0 a 0.04550833,0.04550833 0 0 0 -0.04445,0.0381 l -0.04683,0.28549 a 0.04497917,0.04497917 0 0 0 0.01032,0.0362 0.04550833,0.04550833 0 0 0 0.0344,0.0159"
       fill="#f9b000"
       style="stroke-width:0.264583"
       clip-path="none" /><path
       id="Tracciato_1368"
       data-name="Tracciato 1368"
       d="m 55.971404,141.69069 1.820069,0.98425 a 0.04788958,0.04788958 0 0 0 0.02117,0.006 0.04524375,0.04524375 0 0 0 0.03969,-0.0236 l 0.544777,-1.00753 a 0.04497917,0.04497917 0 0 0 -0.01852,-0.0611 l -0.227013,-0.12277 a 0.04259792,0.04259792 0 0 0 -0.03387,-0.003 0.04392083,0.04392083 0 0 0 -0.02646,0.0217 l -0.389202,0.7202 -0.532871,-0.2884 0.306388,-0.567 a 0.04524375,0.04524375 0 0 0 0.0024,-0.0378 0.04392083,0.04392083 0 0 0 -0.02646,-0.0265 l -0.246592,-0.0857 a 0.04577292,0.04577292 0 0 0 -0.01482,-0.002 0.04524375,0.04524375 0 0 0 -0.03969,0.0236 l -0.286544,0.52916 -0.448469,-0.24235 0.374386,-0.69295 a 0.04339167,0.04339167 0 0 0 0.0034,-0.0339 0.04233333,0.04233333 0 0 0 -0.0217,-0.0265 l -0.226483,-0.12277 a 0.04630208,0.04630208 0 0 0 -0.02196,-0.006 0.04445,0.04445 0 0 0 -0.03916,0.0236 l -0.530489,0.98108 a 0.04497917,0.04497917 0 0 0 0.01826,0.0611"
       fill="#f9b000"
       style="stroke-width:0.264583"
       clip-path="none" /><path
       id="Tracciato_1369"
       data-name="Tracciato 1369"
       d="m 57.748876,139.58143 a 0.31247291,0.31247291 0 0 1 0.179916,0.0648 0.27410833,0.27410833 0 0 1 0.128853,0.21749 0.48339374,0.48339374 0 0 1 -0.105834,0.29104 l -0.112183,0.15875 -0.506148,-0.35719 0.129646,-0.18388 a 0.36856458,0.36856458 0 0 1 0.286279,-0.19103 m 0.820208,1.70127 a 0.04497917,0.04497917 0 0 0 0.02646,0.008 0.04577292,0.04577292 0 0 0 0.03731,-0.0193 l 0.161925,-0.23046 a 0.04524375,0.04524375 0 0 0 0.0079,-0.0336 0.047625,0.047625 0 0 0 -0.01852,-0.0291 l -0.676805,-0.47625 0.08334,-0.11827 1.072092,-0.003 a 0.04577292,0.04577292 0 0 0 0.04154,-0.0265 l 0.112448,-0.26908 a 0.04497917,0.04497917 0 0 0 -0.0045,-0.0421 0.04312708,0.04312708 0 0 0 -0.03704,-0.0198 l -1.001184,0.003 a 0.59769374,0.59769374 0 0 0 -0.243416,-0.69162 0.62415208,0.62415208 0 0 0 -0.36195,-0.12489 0.72363541,0.72363541 0 0 0 -0.577057,0.35851 l -0.324643,0.45958 a 0.04577292,0.04577292 0 0 0 0.01085,0.0627 z"
       fill="#f9b000"
       style="stroke-width:0.264583"
       clip-path="none" /><path
       id="Tracciato_1370"
       data-name="Tracciato 1370"
       d="m 58.438909,138.84773 a 0.51408541,0.51408541 0 0 0 0.359569,0.15267 1.2774083,1.2774083 0 0 0 0.495829,-0.14103 0.93530207,0.93530207 0 0 1 0.345811,-0.10583 0.28469166,0.28469166 0 0 1 0.262996,0.27385 0.37041666,0.37041666 0 0 1 -0.105834,0.2241 0.98160415,0.98160415 0 0 1 -0.47281,0.27199 0.04418542,0.04418542 0 0 0 -0.03122,0.0299 0.04365625,0.04365625 0 0 0 0.0082,0.0426 l 0.185208,0.22384 a 0.04550833,0.04550833 0 0 0 0.03466,0.0161 0.04868333,0.04868333 0 0 0 0.01535,-0.003 1.30175,1.30175 0 0 0 0.505354,-0.35243 0.74533124,0.74533124 0 0 0 0.211667,-0.48498 0.58896249,0.58896249 0 0 0 -0.209021,-0.4535 0.55562499,0.55562499 0 0 0 -0.386821,-0.16668 1.2739687,1.2739687 0 0 0 -0.492654,0.13705 1.0054167,1.0054167 0 0 1 -0.351102,0.10795 0.20081875,0.20081875 0 0 1 -0.143934,-0.0614 c -0.110331,-0.0995 -0.1016,-0.23813 0.02461,-0.37703 a 0.68791666,0.68791666 0 0 1 0.379412,-0.20664 0.04656667,0.04656667 0 0 0 0.03387,-0.0288 0.04497917,0.04497917 0 0 0 -0.0071,-0.0439 l -0.179652,-0.22172 a 0.04418542,0.04418542 0 0 0 -0.03493,-0.0167 0.05291667,0.05291667 0 0 0 -0.01402,0.002 0.96731665,0.96731665 0 0 0 -0.421217,0.28443 0.60298541,0.60298541 0 0 0 -0.01191,0.89694"
       fill="#f9b000"
       style="stroke-width:0.264583"
       clip-path="none" /><path
       id="Tracciato_1371"
       data-name="Tracciato 1371"
       d="m 60.773063,138.62786 a 0.04524375,0.04524375 0 0 0 0.03148,0.0143 v 0 a 0.04736042,0.04736042 0 0 0 0.03122,-0.0119 l 0.20611,-0.19236 a 0.04471458,0.04471458 0 0 0 0.0024,-0.0638 l -1.410494,-1.51395 a 0.04894792,0.04894792 0 0 0 -0.03202,-0.0143 v 0 a 0.04577292,0.04577292 0 0 0 -0.03122,0.0124 l -0.20611,0.19209 a 0.04471458,0.04471458 0 0 0 -0.0021,0.0638 z"
       fill="#f9b000"
       style="stroke-width:0.264583"
       clip-path="none" /><path
       id="Tracciato_1372"
       data-name="Tracciato 1372"
       d="m 61.059607,136.07543 0.502708,-0.38444 a 0.04683125,0.04683125 0 0 0 0.01826,-0.0336 0.0460375,0.0460375 0 0 0 -0.01402,-0.0349 l -0.1905,-0.17938 a 0.04418542,0.04418542 0 0 0 -0.03096,-0.0124 0.04550833,0.04550833 0 0 0 -0.02646,0.009 l -1.253067,0.95832 a 0.0460375,0.0460375 0 0 0 -0.0172,0.0299 0.04418542,0.04418542 0 0 0 0.009,0.0333 l 0.156634,0.20505 a 0.04471458,0.04471458 0 0 0 0.03572,0.0175 0.04339167,0.04339167 0 0 0 0.02646,-0.009 l 0.488156,-0.37332 1.073679,1.40229 a 0.04180417,0.04180417 0 0 0 0.02937,0.0172 h 0.0058 a 0.04630208,0.04630208 0 0 0 0.02646,-0.009 l 0.223837,-0.17145 a 0.04524375,0.04524375 0 0 0 0.0082,-0.063 z"
       fill="#f9b000"
       style="stroke-width:0.264583"
       clip-path="none" /><path
       id="Tracciato_1373"
       data-name="Tracciato 1373"
       d="m 63.201409,135.68994 -0.458787,0.2704 -0.127794,-0.73872 z m -0.667543,-0.97684 a 0.04339167,0.04339167 0 0 0 -0.02646,-0.01 0.04392083,0.04392083 0 0 0 -0.02275,0.006 l -0.242623,0.1434 a 0.04471458,0.04471458 0 0 0 -0.02196,0.046 l 0.358246,2.20186 a 0.04577292,0.04577292 0 0 0 0.02646,0.0336 0.04841875,0.04841875 0 0 0 0.01931,0.004 0.04312708,0.04312708 0 0 0 0.02275,-0.006 l 0.245533,-0.14473 a 0.04577292,0.04577292 0 0 0 0.02196,-0.0466 l -0.108743,-0.62283 0.682625,-0.40296 0.511439,0.41037 a 0.04392083,0.04392083 0 0 0 0.05821,-0.002 l 0.205052,-0.19023 a 0.04445,0.04445 0 0 0 0.01402,-0.0349 0.0428625,0.0428625 0 0 0 -0.0172,-0.0333 z"
       fill="#f9b000"
       style="stroke-width:0.264583"
       clip-path="none" /><path
       id="Tracciato_1374"
       data-name="Tracciato 1374"
       d="m 64.725144,134.59138 c -0.347398,-0.008 -0.418571,-0.0471 -0.469371,-0.16589 a 0.21457708,0.21457708 0 0 1 -0.0024,-0.17648 0.33707916,0.33707916 0 0 1 0.183356,-0.15505 0.64214374,0.64214374 0 0 1 0.254,-0.05 0.73183749,0.73183749 0 0 1 0.177271,0.022 0.04021667,0.04021667 0 0 0 0.01085,0.001 0.04445,0.04445 0 0 0 0.03202,-0.013 0.04577292,0.04577292 0 0 0 0.01164,-0.0429 l -0.06932,-0.27702 a 0.04497917,0.04497917 0 0 0 -0.0381,-0.0336 0.89720207,0.89720207 0 0 0 -0.105833,-0.006 1.0030354,1.0030354 0 0 0 -0.396875,0.0868 0.60298541,0.60298541 0 0 0 -0.388408,0.8083 c 0.12991,0.30374 0.35216,0.36169 0.770996,0.37042 0.35216,0.007 0.423333,0.0497 0.483658,0.19209 a 0.24315208,0.24315208 0 0 1 -0.0021,0.21642 0.36777083,0.36777083 0 0 1 -0.189177,0.15875 0.87312499,0.87312499 0 0 1 -0.343958,0.0659 1.1049,1.1049 0 0 1 -0.198438,-0.0183 h -0.0082 a 0.04392083,0.04392083 0 0 0 -0.03281,0.0143 0.04524375,0.04524375 0 0 0 -0.01058,0.0421 l 0.07435,0.28125 a 0.0460375,0.0460375 0 0 0 0.03969,0.0336 c 0.0291,0.002 0.059,0.003 0.08917,0.003 a 1.3319125,1.3319125 0 0 0 0.518054,-0.11033 0.74453749,0.74453749 0 0 0 0.394494,-0.35163 0.58922708,0.58922708 0 0 0 0.0013,-0.49927 c -0.138906,-0.32544 -0.364066,-0.38709 -0.785547,-0.39688"
       fill="#f9b000"
       style="stroke-width:0.264583"
       clip-path="none" /><path
       id="Tracciato_1375"
       data-name="Tracciato 1375"
       d="m 69.509605,133.4214 c -0.327025,-0.11589 -0.383381,-0.17463 -0.394494,-0.30348 a 0.21166666,0.21166666 0 0 1 0.05292,-0.1688 0.33628541,0.33628541 0 0 1 0.221721,-0.0905 c 0.01746,-0.001 0.03466,-0.002 0.05292,-0.002 a 0.69611874,0.69611874 0 0 1 0.366448,0.10928 0.04524375,0.04524375 0 0 0 0.04419,0.002 0.04524375,0.04524375 0 0 0 0.02461,-0.037 l 0.01984,-0.28469 a 0.04577292,0.04577292 0 0 0 -0.02646,-0.0439 0.92604165,0.92604165 0 0 0 -0.396875,-0.0836 c -0.0344,0 -0.07064,0.002 -0.105833,0.005 a 0.73157291,0.73157291 0 0 0 -0.469106,0.20135 0.55033333,0.55033333 0 0 0 -0.151077,0.44715 c 0.0291,0.32887 0.222779,0.45243 0.617802,0.59134 0.332845,0.11589 0.387085,0.17833 0.401108,0.33285 a 0.24685625,0.24685625 0 0 1 -0.06932,0.20505 0.37041666,0.37041666 0 0 1 -0.229658,0.0923 c -0.02196,0.002 -0.04392,0.003 -0.06615,0.003 a 1.02235,1.02235 0 0 1 -0.465402,-0.1262 0.04233333,0.04233333 0 0 0 -0.0209,-0.006 0.04709583,0.04709583 0 0 0 -0.02223,0.006 0.04418542,0.04418542 0 0 0 -0.02275,0.0368 l -0.01535,0.29025 a 0.04418542,0.04418542 0 0 0 0.02646,0.0439 1.254125,1.254125 0 0 0 0.483129,0.0923 c 0.0418,0 0.0844,-0.002 0.126471,-0.006 a 0.74559582,0.74559582 0 0 0 0.484717,-0.21167 0.58869791,0.58869791 0 0 0 0.156104,-0.47439 c -0.03096,-0.35216 -0.225954,-0.48075 -0.623623,-0.62098"
       fill="#f9b000"
       style="stroke-width:0.264583"
       clip-path="none" /><path
       id="Tracciato_1376"
       data-name="Tracciato 1376"
       d="m 72.072359,132.51837 -1.576652,-0.0484 v 0 a 0.04445,0.04445 0 0 0 -0.03096,0.0124 0.04339167,0.04339167 0 0 0 -0.01402,0.0312 l -0.0082,0.2577 a 0.04524375,0.04524375 0 0 0 0.04366,0.0463 l 0.614627,0.0188 -0.05292,1.76556 a 0.04524375,0.04524375 0 0 0 0.04392,0.0463 l 0.281252,0.008 h 0.0013 a 0.04577292,0.04577292 0 0 0 0.04551,-0.0439 l 0.05292,-1.7653 0.632884,0.0193 h 0.0013 a 0.04418542,0.04418542 0 0 0 0.03334,-0.0148 0.04577292,0.04577292 0 0 0 0.01138,-0.036 l -0.0344,-0.25929 a 0.04497917,0.04497917 0 0 0 -0.04313,-0.0392"
       fill="#f9b000"
       style="stroke-width:0.264583"
       clip-path="none" /><path
       id="Tracciato_1377"
       data-name="Tracciato 1377"
       d="m 74.383758,132.86154 -0.278077,-0.0471 a 0.02645833,0.02645833 0 0 0 -0.0077,0 0.04259792,0.04259792 0 0 0 -0.02646,0.008 0.04656667,0.04656667 0 0 0 -0.01879,0.0291 l -0.211667,1.24142 c -0.05292,0.30983 -0.205581,0.46699 -0.453231,0.46699 a 0.68024374,0.68024374 0 0 1 -0.114829,-0.0103 c -0.386028,-0.0664 -0.415925,-0.37782 -0.373328,-0.62706 l 0.211667,-1.23296 a 0.04259792,0.04259792 0 0 0 -0.0085,-0.0341 0.04471458,0.04471458 0 0 0 -0.0291,-0.0185 l -0.277812,-0.0476 h -0.0071 a 0.04497917,0.04497917 0 0 0 -0.04445,0.0373 l -0.217487,1.26815 a 0.79374999,0.79374999 0 0 0 0.687916,0.99695 1.1022542,1.1022542 0 0 0 0.185209,0.0167 0.80036457,0.80036457 0 0 0 0.804333,-0.74084 l 0.214842,-1.25333 a 0.04497917,0.04497917 0 0 0 -0.03625,-0.0529"
       fill="#f9b000"
       style="stroke-width:0.264583"
       clip-path="none" /><path
       id="Tracciato_1378"
       data-name="Tracciato 1378"
       d="m 76.172078,134.51862 a 0.64055624,0.64055624 0 0 1 -0.62283,0.52017 1.0387542,1.0387542 0 0 1 -0.320675,-0.0572 l -0.259556,-0.0849 0.457994,-1.39594 0.267494,0.0878 a 0.67309999,0.67309999 0 0 1 0.47625,0.93001 m -0.377296,-1.26074 -0.569913,-0.18706 a 0.04577292,0.04577292 0 0 0 -0.01376,-0.002 0.047625,0.047625 0 0 0 -0.02064,0.005 0.04524375,0.04524375 0 0 0 -0.02222,0.0265 l -0.645584,1.96612 a 0.04524375,0.04524375 0 0 0 0.02884,0.0566 l 0.558535,0.18335 a 1.4552083,1.4552083 0 0 0 0.453231,0.0778 0.99615624,0.99615624 0 0 0 0.972609,-0.74903 c 0.210079,-0.6403 -0.06641,-1.15491 -0.740834,-1.37584"
       fill="#f9b000"
       style="stroke-width:0.264583"
       clip-path="none" /><path
       id="Tracciato_1379"
       data-name="Tracciato 1379"
       d="m 77.80297,134.05031 a 0.04312708,0.04312708 0 0 0 -0.02328,-0.0251 l -0.25691,-0.11642 a 0.04736042,0.04736042 0 0 0 -0.01878,-0.004 0.04392083,0.04392083 0 0 0 -0.04075,0.0265 l -0.852223,1.88595 a 0.04497917,0.04497917 0 0 0 0.02275,0.0595 l 0.257175,0.11588 a 0.04074583,0.04074583 0 0 0 0.01852,0.004 0.04894792,0.04894792 0 0 0 0.01535,-0.003 0.04630208,0.04630208 0 0 0 0.02646,-0.0236 l 0.851958,-1.88621 a 0.04259792,0.04259792 0 0 0 0,-0.0344"
       fill="#f9b000"
       style="stroke-width:0.264583"
       clip-path="none" /><path
       id="Tracciato_1380"
       data-name="Tracciato 1380"
       d="m 79.27564,136.06935 a 0.75829582,0.75829582 0 0 1 -0.621242,0.43497 0.59213749,0.59213749 0 0 1 -0.303741,-0.0889 c -0.32729,-0.19473 -0.379942,-0.56991 -0.13679,-0.97895 a 0.75882499,0.75882499 0 0 1 0.621242,-0.43551 0.58737499,0.58737499 0 0 1 0.303742,0.0892 c 0.327818,0.19473 0.379941,0.56938 0.136789,0.97895 m 0.04392,-1.27582 a 0.9919229,0.9919229 0 0 0 -0.511175,-0.14816 1.1006667,1.1006667 0 0 0 -0.924454,0.60007 c -0.341048,0.57362 -0.226219,1.16417 0.285221,1.46765 a 0.99642082,0.99642082 0 0 0 0.511968,0.14843 1.1001375,1.1001375 0 0 0 0.922602,-0.59981 c 0.346605,-0.58209 0.23495,-1.15835 -0.284956,-1.46765"
       fill="#f9b000"
       style="stroke-width:0.264583"
       clip-path="none" /><path
       id="Tracciato_1381"
       data-name="Tracciato 1381"
       d="m 81.065017,136.87103 a 0.27516666,0.27516666 0 0 1 -0.21934,0.11457 0.47916041,0.47916041 0 0 1 -0.28866,-0.12409 l -0.151871,-0.12277 0.389731,-0.4826 0.175419,0.14129 a 0.42492083,0.42492083 0 0 1 0.16801,0.24103 0.282575,0.282575 0 0 1 -0.07329,0.23284 m 0.298979,0.22225 a 0.58975624,0.58975624 0 0 0 0.138906,-0.49186 0.81359374,0.81359374 0 0 0 -0.310621,-0.46011 l -0.438944,-0.35455 a 0.04392083,0.04392083 0 0 0 -0.02805,-0.01 h -0.0048 a 0.0460375,0.0460375 0 0 0 -0.03016,0.0164 l -1.300163,1.61026 a 0.04365625,0.04365625 0 0 0 -0.0095,0.0328 0.04445,0.04445 0 0 0 0.0164,0.0302 l 0.21934,0.17727 a 0.04392083,0.04392083 0 0 0 0.02805,0.0101 h 0.0048 a 0.04524375,0.04524375 0 0 0 0.03016,-0.0164 l 0.520171,-0.64373 0.112447,0.0908 -0.06747,1.06971 a 0.04497917,0.04497917 0 0 0 0.02461,0.0429 l 0.261144,0.12991 a 0.04736042,0.04736042 0 0 0 0.02011,0.005 0.0428625,0.0428625 0 0 0 0.02222,-0.006 0.04392083,0.04392083 0 0 0 0.02275,-0.036 l 0.06218,-0.99907 a 0.70617291,0.70617291 0 0 0 0.235479,0.0426 0.59504791,0.59504791 0 0 0 0.472282,-0.24024"
       fill="#f9b000"
       style="stroke-width:0.264583"
       clip-path="none" /><path
       id="Tracciato_1382"
       data-name="Tracciato 1382"
       d="m 81.274567,139.20254 a 0.84163957,0.84163957 0 0 0 0.611716,0.29316 0.90884374,0.90884374 0 0 0 0.61648,-0.27517 l 0.926041,-0.87312 a 0.04524375,0.04524375 0 0 0 0.0016,-0.0638 l -0.193411,-0.20505 a 0.04445,0.04445 0 0 0 -0.03122,-0.0143 v 0 a 0.04418542,0.04418542 0 0 0 -0.03122,0.0124 l -0.917046,0.86386 a 0.59107916,0.59107916 0 0 1 -0.393171,0.1905 0.46249166,0.46249166 0 0 1 -0.335227,-0.16801 c -0.268817,-0.28495 -0.105833,-0.55192 0.07937,-0.72548 l 0.910696,-0.85778 a 0.04630208,0.04630208 0 0 0 0.01402,-0.0312 0.04471458,0.04471458 0 0 0 -0.01244,-0.0323 l -0.193675,-0.20532 a 0.04445,0.04445 0 0 0 -0.06297,-0.002 l -0.938741,0.88292 a 0.79374999,0.79374999 0 0 0 -0.0508,1.2102"
       fill="#f9b000"
       style="stroke-width:0.264583"
       clip-path="none" /><path
       id="Tracciato_1383"
       data-name="Tracciato 1383"
       d="m 82.175473,140.09022 a 0.04392083,0.04392083 0 0 0 0.0066,0.0357 l 0.14605,0.21987 a 0.04550833,0.04550833 0 0 0 0.03731,0.0198 0.04206875,0.04206875 0 0 0 0.02196,-0.006 l 1.27,-0.71199 -0.904081,1.30149 a 0.04392083,0.04392083 0 0 0 0,0.0508 l 0.117475,0.17727 a 0.04524375,0.04524375 0 0 0 0.03731,0.0201 0.09128125,0.09128125 0 0 0 0.0095,0 l 1.550194,-0.33258 -1.14644,0.89959 a 0.04497917,0.04497917 0 0 0 -0.0095,0.0603 l 0.149755,0.2249 a 0.04550833,0.04550833 0 0 0 0.03016,0.0196 h 0.0071 a 0.04339167,0.04339167 0 0 0 0.02646,-0.01 l 1.633009,-1.28164 a 0.04497917,0.04497917 0 0 0 0.0095,-0.0603 l -0.19103,-0.28733 a 0.04497917,0.04497917 0 0 0 -0.03731,-0.0198 0.05291667,0.05291667 0 0 0 -0.01032,0 l -1.653645,0.37756 0.986895,-1.38086 a 0.04497917,0.04497917 0 0 0 0,-0.0511 l -0.192616,-0.28972 a 0.04550833,0.04550833 0 0 0 -0.03784,-0.0201 0.04312708,0.04312708 0 0 0 -0.02196,0.006 l -1.813983,1.00939 a 0.04550833,0.04550833 0 0 0 -0.02196,0.0288"
       fill="#f9b000"
       style="stroke-width:0.264583"
       clip-path="none" /><path
       id="Tracciato_1384"
       data-name="Tracciato 1384"
       d="m 85.95584,145.28372 0.624417,-0.14816 0.04789,0.20161 a 0.45455416,0.45455416 0 0 1 -0.01032,0.30348 0.28125208,0.28125208 0 0 1 -0.204259,0.14472 0.43894374,0.43894374 0 0 1 -0.09948,0.0127 c -0.156898,0 -0.264583,-0.11112 -0.314589,-0.33046 z m -1.217083,-0.0794 a 0.04709583,0.04709583 0 0 0 -0.0056,0.0339 l 0.06535,0.27437 a 0.04392083,0.04392083 0 0 0 0.04366,0.0347 0.05503333,0.05503333 0 0 0 0.01032,0 l 0.773377,-0.18309 0.03969,0.16907 a 0.96440624,0.96440624 0 0 0 0.23495,0.46381 0.57546874,0.57546874 0 0 0 0.423334,0.17595 0.78687082,0.78687082 0 0 0 0.183356,-0.0228 c 0.391583,-0.0926 0.560652,-0.41936 0.452437,-0.87444 l -0.12647,-0.53367 a 0.04550833,0.04550833 0 0 0 -0.01984,-0.028 0.0460375,0.0460375 0 0 0 -0.02408,-0.007 0.05794375,0.05794375 0 0 0 -0.01032,0 l -2.013744,0.47625 a 0.04683125,0.04683125 0 0 0 -0.02646,0.0201"
       fill="#f9b000"
       style="stroke-width:0.264583"
       clip-path="none" /><path
       id="Tracciato_1385"
       data-name="Tracciato 1385"
       d="m 86.806211,147.27709 -0.666221,0.34396 -0.06032,-0.52917 z m -1.712913,-0.80089 a 0.04497917,0.04497917 0 0 0 -0.02937,0.0109 0.04445,0.04445 0 0 0 -0.01508,0.0391 l 0.03228,0.28311 a 0.04471458,0.04471458 0 0 0 0.0336,0.0384 l 0.613039,0.15452 0.08969,0.7874 -0.582083,0.29951 a 0.04445,0.04445 0 0 0 -0.02196,0.0545 l 0.09022,0.26458 a 0.04550833,0.04550833 0 0 0 0.02646,0.0265 0.04365625,0.04365625 0 0 0 0.0172,0.003 0.04497917,0.04497917 0 0 0 0.0209,-0.005 l 1.935428,-1.02341 a 0.04497917,0.04497917 0 0 0 0.02408,-0.045 l -0.03202,-0.2802 a 0.04418542,0.04418542 0 0 0 -0.03334,-0.0384 l -2.156355,-0.56938 a 0.04418542,0.04418542 0 0 0 -0.01138,-10e-4"
       fill="#f9b000"
       style="stroke-width:0.264583"
       clip-path="none" /><path
       id="Tracciato_1386"
       data-name="Tracciato 1386"
       d="m 87.071059,149.1858 -0.0056,0.22489 c -0.0056,0.2421 -0.108215,0.36486 -0.306123,0.36486 h -0.01138 c -0.271198,-0.007 -0.305858,-0.25929 -0.302419,-0.40931 l 0.0045,-0.19473 z m 0.334698,-0.35084 a 0.04497917,0.04497917 0 0 0 -0.03148,-0.014 l -2.069042,-0.0479 v 0 a 0.04524375,0.04524375 0 0 0 -0.04524,0.0439 l -0.0066,0.28178 a 0.04471458,0.04471458 0 0 0 0.01243,0.0323 0.04392083,0.04392083 0 0 0 0.03175,0.0138 l 0.827352,0.0196 -0.0034,0.14473 -0.889,0.59849 a 0.04497917,0.04497917 0 0 0 -0.01879,0.046 l 0.05662,0.28654 a 0.04392083,0.04392083 0 0 0 0.02646,0.0328 0.0460375,0.0460375 0 0 0 0.01667,0.003 0.04497917,0.04497917 0 0 0 0.02513,-0.008 l 0.829998,-0.55986 a 0.59689999,0.59689999 0 0 0 0.587375,0.43921 h 0.01932 c 0.38391,0 0.61939,-0.26802 0.630237,-0.71728 l 0.01297,-0.56357 a 0.04471458,0.04471458 0 0 0 -0.01244,-0.0323"
       fill="#f9b000"
       style="stroke-width:0.264583"
       clip-path="none" /><path
       id="Tracciato_1387"
       data-name="Tracciato 1387"
       d="m 87.28246,151.03603 -2.0066,-0.5334 a 0.04339167,0.04339167 0 0 0 -0.01164,-0.001 0.04630208,0.04630208 0 0 0 -0.02408,0.007 0.047625,0.047625 0 0 0 -0.02011,0.0302 l -0.04683,0.25956 a 0.04445,0.04445 0 0 0 0.03254,0.0513 l 1.408112,0.37041 -1.553368,0.30692 a 0.04524375,0.04524375 0 0 0 -0.03598,0.0362 l -0.0381,0.20902 a 0.04497917,0.04497917 0 0 0 0.02011,0.0463 l 1.345935,0.83767 -1.448858,-0.14869 h -0.0048 a 0.04524375,0.04524375 0 0 0 -0.04419,0.037 l -0.04868,0.26458 a 0.04577292,0.04577292 0 0 0 0.0082,0.0352 0.04630208,0.04630208 0 0 0 0.03202,0.0177 l 2.06375,0.21166 h 0.0045 a 0.04550833,0.04550833 0 0 0 0.04445,-0.037 l 0.06323,-0.33761 a 0.04392083,0.04392083 0 0 0 -0.0209,-0.0466 l -1.452562,-0.87762 1.669256,-0.30824 a 0.04445,0.04445 0 0 0 0.03572,-0.0362 l 0.06271,-0.34211 a 0.04524375,0.04524375 0 0 0 -0.03281,-0.0513"
       fill="#f9b000"
       style="stroke-width:0.264583"
       clip-path="none" /><path
       id="Tracciato_1388"
       data-name="Tracciato 1388"
       d="m 86.646138,153.93507 -1.957917,-0.66781 a 0.04101042,0.04101042 0 0 0 -0.01429,-0.002 0.04471458,0.04471458 0 0 0 -0.0426,0.0304 l -0.370417,1.0848 a 0.041275,0.041275 0 0 0 0.0024,0.0344 0.04312708,0.04312708 0 0 0 0.02646,0.0228 l 0.24421,0.0833 a 0.04101042,0.04101042 0 0 0 0.01429,0.002 0.04550833,0.04550833 0 0 0 0.04286,-0.0304 l 0.264583,-0.7747 0.573352,0.19553 -0.207697,0.61013 a 0.04418542,0.04418542 0 0 0 0.0037,0.0378 0.04339167,0.04339167 0 0 0 0.03096,0.0212 l 0.257704,0.0437 h 0.0079 a 0.04550833,0.04550833 0 0 0 0.0426,-0.0304 l 0.194468,-0.57044 0.482336,0.16457 -0.254794,0.74639 a 0.0492125,0.0492125 0 0 0 0.0021,0.0344 0.04736042,0.04736042 0 0 0 0.02646,0.023 l 0.24421,0.0831 a 0.04709583,0.04709583 0 0 0 0.01482,0.002 0.04445,0.04445 0 0 0 0.04127,-0.0299 l 0.35904,-1.05834 a 0.04550833,0.04550833 0 0 0 -0.02805,-0.0569"
       fill="#f9b000"
       style="stroke-width:0.264583"
       clip-path="none" /><path
       id="Tracciato_1389"
       data-name="Tracciato 1389"
       d="m 86.018281,155.68529 -1.855258,-0.91678 a 0.04815417,0.04815417 0 0 0 -0.01984,-0.005 0.04471458,0.04471458 0 0 0 -0.04048,0.0265 l -0.115623,0.23389 a 0.04577292,0.04577292 0 0 0 -0.0026,0.0344 0.047625,0.047625 0 0 0 0.02302,0.0265 l 1.317096,0.65061 -1.807369,0.28363 a 0.04683125,0.04683125 0 0 0 -0.03387,0.0246 l -0.09393,0.19103 a 0.04524375,0.04524375 0 0 0 0.02064,0.0603 l 1.855523,0.91678 a 0.04392083,0.04392083 0 0 0 0.01958,0.005 0.04471458,0.04471458 0 0 0 0.04048,-0.0251 l 0.115623,-0.23389 a 0.04497917,0.04497917 0 0 0 0.0026,-0.0347 0.04577292,0.04577292 0 0 0 -0.02302,-0.0265 l -1.263121,-0.62521 1.736725,-0.27517 a 0.04339167,0.04339167 0 0 0 0.03281,-0.0243 l 0.112183,-0.22596 a 0.04550833,0.04550833 0 0 0 -0.02064,-0.0603"
       fill="#f9b000"
       style="stroke-width:0.264583"
       clip-path="none" /><path
       id="Tracciato_1390"
       data-name="Tracciato 1390"
       d="m 84.468617,157.51726 a 0.53842708,0.53842708 0 0 0 -0.307445,-0.10583 1.1083396,1.1083396 0 0 0 -0.541073,0.21405 0.77258332,0.77258332 0 0 1 -0.360627,0.15636 0.26035,0.26035 0 0 1 -0.150284,-0.0529 0.27887083,0.27887083 0 0 1 -0.04313,-0.41963 0.97895832,0.97895832 0 0 1 0.429683,-0.33523 0.04550833,0.04550833 0 0 0 0.02646,-0.0339 0.04630208,0.04630208 0 0 0 -0.01402,-0.041 l -0.2159,-0.19552 a 0.04524375,0.04524375 0 0 0 -0.03043,-0.0116 0.04630208,0.04630208 0 0 0 -0.0209,0.006 1.3099521,1.3099521 0 0 0 -0.451115,0.41963 0.63050208,0.63050208 0 0 0 0.130969,0.92975 0.58499374,0.58499374 0 0 0 0.33311,0.11615 1.0744729,1.0744729 0 0 0 0.541602,-0.21008 0.81597499,0.81597499 0 0 1 0.363273,-0.15875 0.20849166,0.20849166 0 0 1 0.120915,0.0426 c 0.123296,0.0831 0.133614,0.2204 0.02857,0.37703 a 0.69029791,0.69029791 0 0 1 -0.345546,0.25638 0.04497917,0.04497917 0 0 0 -0.01587,0.0754 l 0.208756,0.19473 a 0.04524375,0.04524375 0 0 0 0.03096,0.0119 0.04656667,0.04656667 0 0 0 0.01984,-0.005 0.96625832,0.96625832 0 0 0 0.377032,-0.34105 0.73183749,0.73183749 0 0 0 0.138377,-0.49107 0.55006874,0.55006874 0 0 0 -0.252677,-0.39872"
       fill="#f9b000"
       style="stroke-width:0.264583"
       clip-path="none" /><path
       id="Tracciato_1391"
       data-name="Tracciato 1391"
       d="m 82.188438,158.06337 a 0.04339167,0.04339167 0 0 0 -0.02805,-0.0101 0.04497917,0.04497917 0 0 0 -0.03519,0.0164 l -0.177271,0.21907 a 0.04497917,0.04497917 0 0 0 0.0066,0.0635 l 1.608667,1.30202 a 0.04577292,0.04577292 0 0 0 0.02857,0.01 h 0.0048 a 0.04418542,0.04418542 0 0 0 0.03016,-0.0161 l 0.17727,-0.21934 a 0.04471458,0.04471458 0 0 0 -0.0066,-0.063 z"
       fill="#f9b000"
       style="stroke-width:0.264583"
       clip-path="none" /><path
       id="Tracciato_1392"
       data-name="Tracciato 1392"
       d="m 82.400369,159.62256 a 1.3446125,1.3446125 0 0 0 -0.479689,0.12276 1.0146771,1.0146771 0 0 1 -0.33999,0.0939 0.2413,0.2413 0 0 1 -0.180975,-0.0836 0.27860625,0.27860625 0 0 1 0.03149,-0.42042 0.97551874,0.97551874 0 0 1 0.481012,-0.25321 0.04577292,0.04577292 0 0 0 0.03281,-0.0288 0.04418542,0.04418542 0 0 0 -0.0069,-0.0426 l -0.177535,-0.23071 a 0.04577292,0.04577292 0 0 0 -0.03598,-0.0175 0.041275,0.041275 0 0 0 -0.01376,0.002 1.3006917,1.3006917 0 0 0 -0.518054,0.33364 0.74824166,0.74824166 0 0 0 -0.228071,0.47757 0.58896249,0.58896249 0 0 0 0.192352,0.46037 0.55297916,0.55297916 0 0 0 0.402167,0.18124 1.3387916,1.3387916 0 0 0 0.47625,-0.11959 1.0609792,1.0609792 0 0 1 0.34581,-0.0958 0.20055416,0.20055416 0 0 1 0.151607,0.0669 c 0.105833,0.10319 0.09234,0.24024 -0.03916,0.37597 a 0.68950416,0.68950416 0 0 1 -0.386821,0.19315 0.04471458,0.04471458 0 0 0 -0.03466,0.0265 0.04392083,0.04392083 0 0 0 0.0058,0.0442 l 0.17145,0.22834 a 0.04392083,0.04392083 0 0 0 0.03572,0.0183 0.04868333,0.04868333 0 0 0 0.01244,-0.002 0.9696979,0.9696979 0 0 0 0.432065,-0.26908 0.60351458,0.60351458 0 0 0 0.04445,-0.89588 0.51249791,0.51249791 0 0 0 -0.37465,-0.1659"
       fill="#f9b000"
       style="stroke-width:0.264583"
       clip-path="none" /><path
       id="Tracciato_1393"
       data-name="Tracciato 1393"
       d="m 55.180565,151.69749 a 0.30347708,0.30347708 0 1 0 0.303477,-0.30321 0.30374166,0.30374166 0 0 0 -0.303477,0.30348"
       fill="#f9b000"
       style="stroke-width:0.264583"
       clip-path="none" /><path
       id="Tracciato_1394"
       data-name="Tracciato 1394"
       d="m 67.161163,133.78334 a 0.29977291,0.29977291 0 0 0 -0.173038,-0.0545 0.30374166,0.30374166 0 1 0 0.173038,0.0545"
       fill="#f9b000"
       style="stroke-width:0.264583"
       clip-path="none" /><path
       id="Tracciato_1395"
       data-name="Tracciato 1395"
       d="m 85.132192,142.86835 a 0.29924375,0.29924375 0 0 0 -0.114565,0.0228 0.30347708,0.30347708 0 0 0 0.114565,0.5842 0.29792083,0.29792083 0 0 0 0.114565,-0.0228 0.30347708,0.30347708 0 0 0 -0.114565,-0.5842"
       fill="#f9b000"
       style="stroke-width:0.264583"
       clip-path="none" /><path
       id="Tracciato_1352"
       data-name="Tracciato 1352"
       d="m 74.752853,161.72546 -0.0013,-0.0233 a 0.12991042,0.12991042 0 0 0 -0.0058,-0.0328 c 0,-0.004 0,-0.007 0,-0.0106 l -0.07461,-1.31445 a 0.17700625,0.17700625 0 0 0 -0.0074,-0.0397 c -0.03281,-0.0958 -0.391848,-0.92155 -2.89216,-0.4371 -0.815975,0.15875 -1.525323,0.34396 -2.151327,0.50853 a 12.42695,12.42695 0 0 1 -1.683279,0.37042 l 0.04974,-0.26749 a 0.14948958,0.14948958 0 0 0 -0.134143,-0.17648 c -1.058334,-0.0942 -1.182688,0.0889 -1.214967,0.17859 a 0.1539875,0.1539875 0 0 0 -0.01535,0.0606 c -0.0042,0.11245 -0.01958,0.58658 -0.01376,1.15147 a 13.330237,13.330237 0 0 1 -4.42595,-2.45745 l 0.02064,-1.10543 0.110861,-5.9092 c 1.504156,-0.3175 1.408641,-1.41209 1.344877,-2.14313 a 1.5192375,1.5192375 0 0 0 -0.0217,-0.15293 v -10e-4 a 0.09233958,0.09233958 0 0 0 -0.0042,-0.0167 1.635125,1.635125 0 0 0 -1.252802,-1.18507 l 0.0034,-0.18891 0.0545,-2.86226 c 1.23534,0.28892 1.953419,1.10146 2.189957,2.48073 0.246062,1.43351 -0.08705,2.6244 -0.330465,3.49409 a 8.3716811,8.3716811 0 0 0 -0.201877,0.81703 c -0.164836,0.98399 -0.161925,3.17976 1.030287,4.445 l 0.0013,0.001 0.0016,0.001 a 2.9604229,2.9604229 0 0 0 0.66675,0.53207 18.2245,18.2245 0 0 0 2.084123,1.0922 0.02936875,0.02936875 0 0 0 0.0058,0.002 l 0.0048,0.002 h 0.0032 v 0 a 13.927402,13.927402 0 0 0 3.064669,0.48683 c 0.278341,0.0193 0.557741,0.0336 0.832643,0.0437 h 0.0058 c 0.311415,0.0114 0.615686,0.0167 0.906727,0.0167 a 12.631737,12.631737 0 0 0 1.95633,-0.12065 v 0 c 0.111389,-0.0188 0.203729,-0.0386 0.281252,-0.0601 a 7.6665666,7.6665666 0 0 0 2.661443,-1.41763 0.16959791,0.16959791 0 0 0 0.03228,-0.0243 9.8131311,9.8131311 0 0 0 3.376878,-4.70959 l 0.03916,-0.10795 a 0.15345833,0.15345833 0 1 0 -0.287867,-0.10583 l -0.03969,0.10927 a 9.555427,9.555427 0 0 1 -3.049588,4.39923 c -0.0082,-0.41487 -0.02328,-1.21708 -0.04101,-2.17964 a 5.4239583,5.4239583 0 0 0 2.584979,-3.98674 0.15345833,0.15345833 0 1 0 -0.304006,-0.041 5.1247145,5.1247145 0 0 1 -2.287852,3.67109 c -0.01138,-0.62388 -0.02328,-1.29937 -0.03466,-1.97299 1.90209,-0.7673 2.445809,-2.82284 2.679965,-3.71026 0.01482,-0.0556 0.02805,-0.10583 0.04075,-0.1516 l 0.211666,0.068 a 0.1571625,0.1571625 0 0 0 0.04657,0.007 0.1524,0.1524 0 0 0 0.09049,-0.0299 l 0.624417,-0.45455 c -0.0093,0.9345 0.0926,2.79691 2.319338,4.22328 a 13.262769,13.262769 0 0 1 -1.708415,3.80338 c -0.197115,-1.02791 -0.03466,-2.2225 0.07646,-3.03821 0.02937,-0.21458 0.05556,-0.40693 0.07197,-0.56885 a 0.15266458,0.15266458 0 0 0 -0.136789,-0.16801 0.15425208,0.15425208 0 0 0 -0.168275,0.13679 c -0.01614,0.15875 -0.0418,0.34766 -0.07064,0.55853 -0.124883,0.91123 -0.312208,2.28785 -0.009,3.42874 a 13.391621,13.391621 0 0 1 -6.905625,5.08211 m -0.223837,1.60206 a 0.28019375,0.28019375 0 0 1 -0.24474,0.15875 c -0.227542,-0.0159 -1.263121,-0.0648 -1.558131,0.3384 a 2.1206354,2.1206354 0 0 1 -0.112448,-0.48816 c 0.33999,-0.0976 0.636587,-0.18177 0.873125,-0.24103 0.757767,-0.18971 0.975254,-0.013 1.023937,0.046 a 0.15875,0.15875 0 0 1 0.02434,0.0394 l 0.0061,0.11403 a 0.21166666,0.21166666 0 0 1 -0.01191,0.0328 m -1.528762,0.86783 a 0.26458333,0.26458333 0 0 1 -0.02937,-0.0185 c -0.04842,-0.10874 -0.01984,-0.15425 -0.0077,-0.17198 a 0.59160833,0.59160833 0 0 1 0.362479,-0.17145 0.64029166,0.64029166 0 0 0 0.180975,0.33285 0.71437499,0.71437499 0 0 1 -0.506412,0.0291 m -5.994136,-3.59833 a 3.8954604,3.8954604 0 0 1 0.653786,-0.008 l -0.03228,0.17383 a 1.1310937,1.1310937 0 0 1 -0.555625,-0.12647 c -0.02646,-0.0148 -0.04736,-0.0265 -0.06509,-0.0397 m 0.115623,3.13928 c -0.20955,-0.45667 -0.226483,-1.98437 -0.210079,-2.84559 0.0042,0.002 0.0085,0.005 0.01191,0.007 a 1.5978187,1.5978187 0 0 0 0.926042,0.15875 11.1125,11.1125 0 0 0 1.845733,-0.38921 c 0.621506,-0.16324 1.326092,-0.34792 2.132542,-0.50429 2.071423,-0.4019 2.492375,0.14287 2.544498,0.22833 l 0.07329,1.28561 a 0.174625,0.174625 0 0 0 0.0048,0.0315 c 0,0.003 0,0.007 0,0.0103 l 0.06006,1.06653 a 1.7708562,1.7708562 0 0 0 -1.098814,0.0185 c -0.277019,0.0696 -0.630502,0.17119 -1.040077,0.28893 -1.708415,0.4916 -4.560094,1.31207 -5.250127,0.64294 m -7.863417,-7.93486 a 8.0144936,8.0144936 0 0 0 0.211667,-2.22885 v -0.004 a 0.13070417,0.13070417 0 0 0 -0.0032,-0.0201 l -0.0013,-0.008 A 9.6168103,9.6168103 0 0 0 59.156799,151.571 c -0.02222,-0.0884 -0.03969,-0.15875 -0.04868,-0.20531 a 0.15008949,0.15008949 0 0 0 -0.294482,0.0582 c 0.01058,0.0529 0.0291,0.12752 0.05292,0.22013 a 9.5951145,9.5951145 0 0 1 0.285485,1.65206 c -0.913077,-0.62839 -1.228725,-1.74228 -1.328737,-2.59927 a 7.2678395,7.2678395 0 0 1 0.264583,-2.92497 c 0.446352,-1.29857 1.878542,-1.87193 2.283354,-2.01083 a 0.96202499,0.96202499 0 0 0 0.701411,0.33126 c 0.02355,0 0.0463,0 0.0672,-0.003 a 1.3856229,1.3856229 0 0 0 0.998802,-0.7538 l -0.0026,0.14182 -0.0291,1.52162 a 4.3743562,4.3743562 0 0 0 -1.865048,0.7194 c -0.0024,0.001 -0.0037,0.003 -0.0061,0.005 -0.0024,0.001 -0.0082,0.007 -0.01191,0.0101 a 0.09022292,0.09022292 0 0 0 -0.0085,0.008 7.5877207,7.5877207 0 0 0 -1.875896,1.84203 0.1500496,0.1500496 0 0 0 0.243681,0.17515 7.3694395,7.3694395 0 0 1 1.67005,-1.68195 c 0.256911,0.70458 0.987954,3.31867 0.862542,5.57768 -0.01588,0.28443 -0.03334,0.55562 -0.04974,0.81253 -0.126206,1.96586 -0.202935,3.17289 0.828411,3.75232 l -0.01402,0.75618 a 13.414375,13.414375 0 0 1 -2.619375,-3.175 m 3.0861,-5.29431 0.02646,-1.46976 a 1.3189479,1.3189479 0 0 1 0.948531,0.89112 1.5533687,1.5533687 0 0 1 -0.976048,0.57864 m -0.266964,-2.10979 a 2.9601583,2.9601583 0 0 0 -1.226079,0.61093 10.488083,10.488083 0 0 0 -0.335757,-1.09988 4.0266937,4.0266937 0 0 1 1.581944,-0.59663 z m 2.374371,-8.89 c 0.01032,0.25347 0.02275,0.6268 0.03704,1.04696 l 0.01826,0.52149 c -0.373591,0.22278 -0.687916,0.40931 -0.954881,0.56674 -0.497681,0.29422 -0.82206,0.48604 -1.051189,0.63368 0.01482,-0.75883 0.02646,-1.30519 0.03148,-1.54967 l 0.01032,-0.007 a 18.412354,18.412354 0 0 1 1.908969,-1.21206 m 0.356129,1.3888 -0.01191,-0.35322 c -0.01746,-0.50853 -0.03254,-0.94959 -0.04286,-1.19062 0.136525,-0.0675 0.264583,-0.12727 0.392112,-0.18309 1.46394,-0.77232 1.975644,-0.40799 2.275417,0.0672 0.03202,0.24024 0.07937,0.64479 0.135202,1.18375 -0.628121,-0.44636 -1.461294,-0.29316 -2.746375,0.47625 m 2.945606,1.60337 c -0.396875,-0.17833 -1.064947,-0.0622 -1.984375,0.34634 -0.187589,0.0833 -0.502708,0.24077 -0.865981,0.42968 -0.02805,-0.46751 -0.06509,-1.506 -0.08308,-2.02935 l 0.142875,-0.0855 c 1.54596,-0.92604 2.181754,-0.7919 2.63816,-0.28787 0.06271,0.60987 0.123032,1.22979 0.16219,1.63169 -0.0034,-10e-4 -0.0066,-0.003 -0.01005,-0.005 m -4.046008,-0.59399 c 0.230981,-0.13653 0.499268,-0.29528 0.811212,-0.48075 0.03916,1.11892 0.06641,1.74837 0.08705,2.0058 -0.156369,0.0833 -0.3175,0.1696 -0.47625,0.25718 v 0 a 17.092083,17.092083 0 0 0 -1.676135,1.00859 l 0.03942,-2.04682 c 0.221721,-0.15636 0.571765,-0.36353 1.214703,-0.74374 m 1.418695,2.63975 a 0.76252916,0.76252916 0 0 0 -0.449791,0.39211 0.11615208,0.11615208 0 0 0 -0.0034,0.0116 c -0.274637,-0.25056 -0.296862,-0.74559 -0.310356,-1.03822 0.608542,-0.33232 1.242219,-0.65749 1.530879,-0.78581 1.096963,-0.4871 1.557073,-0.42651 1.734079,-0.34687 a 0.32120416,0.32120416 0 0 1 0.173567,0.177 c -0.06403,0.42863 -0.264583,0.69824 -2.674144,1.59015 m 1.478227,0.51223 a 1.1641667,1.1641667 0 0 0 -0.585787,-0.0778 5.3575478,5.3575478 0 0 0 -0.827617,0.12621 0.94006457,0.94006457 0 0 1 -0.220398,-0.013 0.08466667,0.08466667 0 0 1 -0.0034,-0.0601 c 0.02646,-0.0794 0.17145,-0.1659 0.264583,-0.19924 0.508529,-0.18811 0.924189,-0.35083 1.266825,-0.49582 a 1.8563166,1.8563166 0 0 1 0.105833,0.71966 m -0.832114,0.56462 a 1.3999104,1.3999104 0 0 1 0.219075,-0.18521 0.37676666,0.37676666 0 0 0 0.143933,-0.15425 c 0.248179,-0.003 0.337344,0.0437 0.351102,0.0638 0.0026,0.003 0.0037,0.0265 -0.01746,0.0746 a 2.136775,2.136775 0 0 1 -0.377825,0.33337 2.1124333,2.1124333 0 0 0 -0.40349,0.36751 0.48736249,0.48736249 0 0 1 0.08467,-0.50059 m -4.644496,-3.60945 c 0.36486,0.29634 1.090877,1.31075 1.022085,2.27542 a 1.7663583,1.7663583 0 0 0 -0.963348,-0.38047 1.4628812,1.4628812 0 0 0 -1.109133,0.37756 c -0.06112,-1.11125 0.776288,-2.01083 1.050396,-2.2733 m -0.590021,3.48668 a 0.15187083,0.15187083 0 0 0 -0.01482,-0.0185 2.0073937,2.0073937 0 0 1 -0.257439,-0.43154 2.16535,2.16535 0 0 1 -0.132292,-0.38602 1.2170833,1.2170833 0 0 1 1.029229,-0.4498 c 0.373592,0.041 0.806715,0.20982 0.910961,0.48578 -0.173567,0.59928 -0.573617,1.05278 -0.964142,1.08479 a 0.66383957,0.66383957 0 0 1 -0.5715,-0.28548 m 0.392113,3.83222 0.02646,-0.0196 a 3.0138687,3.0138687 0 0 1 1.113102,-0.6006 l -0.03784,1.99416 -0.02646,1.3851 v 0 0.002 l -0.10795,5.76527 c -0.710406,-0.53419 -0.640027,-1.63777 -0.529166,-3.37079 0.0164,-0.25823 0.03387,-0.52917 0.05001,-0.81492 a 16.121591,16.121591 0 0 0 -0.488421,-4.34101 m 1.386152,2.57571 0.02011,-1.08029 a 2.3301854,2.3301854 0 0 0 1.031875,-0.48022 c 0.04207,0.74877 -0.07673,1.33218 -1.050925,1.56104 m 8.411369,-16.22134 a 13.353785,13.353785 0 0 1 12.417425,8.47937 4.3574229,4.3574229 0 0 0 -2.102379,-0.59902 c 0.01164,-0.0762 0.02222,-0.14763 0.03149,-0.21166 v 0 c 0.01667,-0.12092 0.03175,-0.23972 0.04286,-0.34052 a 2.2023916,2.2023916 0 0 0 0.01032,-0.94033 c 0,-0.0246 -0.0016,-0.0495 -0.0032,-0.0738 a 2.2788562,2.2788562 0 0 0 -0.727075,-1.54305 2.092325,2.092325 0 0 0 -3.044825,0.19209 2.3198666,2.3198666 0 0 0 0.101865,3.07022 3.2078083,3.2078083 0 0 0 -1.402292,0.62812 3.8502166,3.8502166 0 0 0 -0.527314,-2.21773 0.15504583,0.15504583 0 0 0 -0.01931,-0.0315 2.4767646,2.4767646 0 0 0 -0.338137,-0.43709 1.755775,1.755775 0 0 0 -0.568325,-0.43365 2.0878271,2.0878271 0 0 0 -0.426244,-0.97896 c 0.08837,-0.18706 0.283104,-0.6059 0.349779,-0.78581 a 0.15319375,0.15319375 0 0 0 -0.180446,-0.20215 c -0.347927,0.086 -0.746654,-0.22225 -0.827616,-0.3175 a 0.15319375,0.15319375 0 0 0 -0.18124,-0.0394 1.35255,1.35255 0 0 1 -1.011237,0.13785 0.15372291,0.15372291 0 0 0 -0.17489,0.19447 l 0.287602,0.98293 a 1.3956771,1.3956771 0 0 0 -0.02328,1.36789 3.8922854,3.8922854 0 0 1 -1.23534,-0.58526 c -0.03836,-0.0243 -0.07514,-0.0479 -0.11086,-0.0699 l 0.352425,-1.14749 a 0.15372291,0.15372291 0 0 0 -0.201877,-0.18812 c -0.557213,0.21166 -0.796661,-0.0659 -0.799042,-0.0683 a 0.15345833,0.15345833 0 0 0 -0.18759,-0.0386 c -0.502708,0.25374 -0.756179,0.0794 -0.864923,0.007 l -0.02302,-0.0154 a 0.15319375,0.15319375 0 0 0 -0.230452,0.17489 c 0.01482,0.0463 0.04842,0.27279 0.07541,0.45535 0.0426,0.28496 0.09049,0.60854 0.134144,0.76359 a 0.15134166,0.15134166 0 0 0 0.152135,0.11218 4.6566666,4.6566666 0 0 1 1.288785,0.13838 c 0.303478,0.9562 1.09908,1.76768 1.805253,1.82695 0.50112,0.0421 0.620183,0.21431 0.756708,0.45429 a 3.268927,3.268927 0 0 1 -0.549804,0.24447 9.4657332,9.4657332 0 0 0 -1.352021,0.59452 1.8034,1.8034 0 0 0 0.203729,-1.42478 0.15319375,0.15319375 0 0 0 -0.267758,-0.0445 c -0.377032,0.49583 -1.067594,0.64558 -1.677723,0.77787 l -0.06059,0.013 a 0.15325057,0.15325057 0 0 0 0.06509,0.29951 l 0.06059,-0.013 c 0.562504,-0.12171 1.189302,-0.25744 1.6383,-0.65616 a 1.8647833,1.8647833 0 0 1 -0.606954,1.39541 8.7106124,8.7106124 0 0 1 -0.856985,0.41989 3.4049229,3.4049229 0 0 1 -0.774171,0.23151 1.5930562,1.5930562 0 0 1 -0.156104,-1.1594 1.666875,1.666875 0 0 1 0.487891,-0.96917 0.15345833,0.15345833 0 0 0 -0.0079,-0.27146 0.75697291,0.75697291 0 0 1 -0.423333,-0.46488 0.87312499,0.87312499 0 0 1 0.068,-0.63844 0.69294374,0.69294374 0 0 1 0.694003,-0.22463 c 0.415395,0.0561 0.733425,0.69189 0.813858,0.99775 a 0.90328749,0.90328749 0 0 1 -0.832379,0.12038 0.153301,0.153301 0 0 0 -0.08255,0.29528 1.1951229,1.1951229 0 0 0 1.184539,-0.23813 0.15292916,0.15292916 0 0 0 0.05133,-0.13652 c -0.03493,-0.25744 -0.396875,-1.24804 -1.093258,-1.34223 a 0.97075624,0.97075624 0 0 0 -0.998802,0.37041 1.1728979,1.1728979 0 0 0 -0.09842,0.88345 1.0167937,1.0167937 0 0 0 0.390525,0.53975 2.38125,2.38125 0 0 0 -0.455612,1.01758 2.4807333,2.4807333 0 0 0 -0.04762,0.39423 0.76438124,0.76438124 0 0 0 -0.3683,0.81571 c 0.01243,0.0405 0.02408,0.0849 0.03678,0.1323 0.09234,0.34792 0.23151,0.86862 0.895085,1.03822 a 2.041525,2.041525 0 0 1 -0.79375,1.7055 q -0.242094,0.0241 -0.502708,0.0762 A 3.5599687,3.5599687 0 0 0 67.222494,147.654 c -0.830262,-0.49504 -1.849967,-0.67337 -2.54926,-0.45932 a 2.9403145,2.9403145 0 0 0 -2.229379,-1.83753 l 0.005,-0.26458 c 0.103452,-0.10822 0.533664,-0.41619 1.617133,-1.01918 0.02646,0.43207 0.127529,1.10781 0.743744,1.29249 a 0.155575,0.155575 0 0 0 0.04048,0.0116 1.1744854,1.1744854 0 0 0 0.287602,0.0347 c 0.02884,0 0.05821,0 0.08811,-0.002 a 0.13705416,0.13705416 0 0 0 0.02646,-0.005 c 0.0026,0 0.168804,-0.0405 0.383645,-0.0751 -0.02408,0.022 -0.04974,0.046 -0.07752,0.0741 -0.310886,0.31273 -0.261144,0.8509 0.124354,1.33905 a 0.15356571,0.15356571 0 0 0 0.245004,-0.18521 c -0.116681,-0.16245 -0.01932,-0.27702 0.353219,-0.56091 a 2.3770166,2.3770166 0 0 0 0.427831,-0.38286 0.16271875,0.16271875 0 0 0 0.01799,-0.019 l 0.0024,-0.003 v 0 c 0.0024,-0.003 0.005,-0.006 0.0071,-0.009 l 0.0013,-0.002 c 0.0085,-0.0106 0.01667,-0.0217 0.02434,-0.0328 0.283633,-0.43259 0.130175,-1.00118 0.02117,-1.33377 1.11125,-0.50112 1.27,-0.79057 1.330325,-1.25968 v -0.005 c 0,-0.004 0,-0.008 0,-0.0119 v 0 a 0.10292292,0.10292292 0 0 0 0,-0.0143 v -0.003 c 0,0 -0.103188,-1.08876 -0.210079,-2.13016 v -0.003 c -0.05556,-0.53922 -0.132292,-1.25783 -0.182298,-1.62666 a 0.16060208,0.16060208 0 0 0 -0.02117,-0.0587 c -0.670983,-1.1057 -1.859492,-0.64691 -2.684992,-0.21167 -0.150812,0.0651 -0.309827,0.14023 -0.486833,0.22966 a 17.749837,17.749837 0 0 0 -2.160587,1.3462 l -0.07276,0.0513 a 0.15504583,0.15504583 0 0 0 -0.06509,0.1217 c -0.005,0.21167 -0.01932,0.9107 -0.03916,1.92538 l -0.0077,0.39872 a 3.059377,3.059377 0 0 0 -0.989541,-1.28243 0.1539875,0.1539875 0 0 0 -0.173831,0.0167 c -0.01535,0.013 -1.536171,1.31207 -1.20015,2.95195 l 0.0024,0.009 v 0 a 2.4357541,2.4357541 0 0 0 0.16801,0.51541 2.498725,2.498725 0 0 0 0.180711,0.33179 c -0.538957,0.20081 -1.916113,0.83185 -2.374107,2.16535 -0.403225,1.17342 -0.811477,4.73789 1.371336,5.99519 a 7.7538791,7.7538791 0 0 1 -0.135731,1.73434 13.327327,13.327327 0 0 1 11.700139,-19.71728 m 10.734675,11.58875 c -0.135731,-0.28866 -0.280723,-0.6215 -0.440267,-1.01097 0.248444,-0.16034 0.5461,-0.35904 0.76544,-0.50641 v 0 l 0.08228,-0.0558 a 4.9212499,4.9212499 0 0 0 0.449792,0.72178 3.3760833,3.3760833 0 0 1 -0.858044,0.85276 m -1.612106,0.93794 c 0.02196,-0.0627 0.04313,-0.12726 0.06376,-0.19446 0.03281,-0.10901 0.06456,-0.22278 0.09181,-0.33735 a 4.2550291,4.2550291 0 0 0 0.136525,-1.10093 0.15372291,0.15372291 0 0 0 -0.1016,-0.14129 l -1.159669,-0.41883 a 0.15583958,0.15583958 0 0 0 -0.119062,0.007 0.15292916,0.15292916 0 0 0 -0.07937,0.0897 c -0.0056,0.0164 -0.01085,0.0309 -0.01641,0.0466 -0.0635,-0.29421 -0.11377,-0.53207 -0.148431,-0.70088 0.627327,0.15187 1.455209,0.42519 1.465263,0.4281 a 0.15478125,0.15478125 0 0 0 0.150283,-0.0312 l 0.331258,-0.29369 v 0 l 0.904346,-0.80248 0.161131,0.79639 c -0.2413,0.16193 -0.547158,0.36486 -0.781579,0.51356 a 0.15319375,0.15319375 0 0 0 -0.06006,0.18706 c 0.208492,0.51462 0.392906,0.93663 0.564356,1.29011 0.0463,0.0952 0.09155,0.18521 0.135467,0.26934 v 0 c -0.0037,0.001 -0.0074,0.002 -0.01138,0.004 a 0.52175833,0.52175833 0 0 0 -0.02646,0.0151 l -0.0024,0.001 -0.807773,0.59055 z m -2.268273,3.99707 c -0.01376,-0.82259 -0.02646,-1.62746 -0.03519,-2.31458 0.005,0.002 0.01005,0.006 0.01508,0.008 a 0.98980624,0.98980624 0 0 0 0.418306,0.0915 1.5126229,1.5126229 0 0 0 0.781579,-0.25479 2.5781,2.5781 0 0 0 0.978958,-1.24222 l 0.275961,0.0878 c -0.01376,0.0497 -0.02858,0.10584 -0.04445,0.16616 -0.217752,0.82444 -0.716756,2.71224 -2.389188,3.45784 m -4.589198,2.76304 a 4.1065979,4.1065979 0 0 0 0.243682,0.75036 2.7008666,2.7008666 0 0 1 -0.09181,-2.89083 c 0.105834,0.10583 0.186796,0.18706 0.228071,0.22939 -0.336021,0.39423 -0.583406,0.99192 -0.379942,1.91108 m 1.07659,-5.79781 a 0.63314791,0.63314791 0 0 1 -0.111125,0.47281 0.64664166,0.64664166 0 0 1 -0.418571,0.20638 c -0.09313,-0.32809 -0.129381,-0.71438 0.125148,-0.90673 a 0.83819999,0.83819999 0 0 1 0.600869,-0.23548 0.45481874,0.45481874 0 0 1 0.291042,0.23257 c 0.0021,0.003 0.0042,0.007 0.0058,0.01 a 1.3988521,1.3988521 0 0 1 -0.182827,0.0201 0.61753749,0.61753749 0 0 0 -0.219075,0.0392 0.15372291,0.15372291 0 0 0 -0.09128,0.16139 m 5.328708,-8.30156 c -0.919427,0.12382 -1.452562,0.68077 -1.501246,1.56818 a 2.960952,2.960952 0 0 0 0.324115,1.38774 0.12250208,0.12250208 0 0 0 0.009,0.0193 c 0.01085,0.0233 0.02355,0.0471 0.03493,0.0706 a 1.8497021,1.8497021 0 0 1 -0.375179,-0.22251 q -0.0082,-0.007 -0.0164,-0.0124 a 2.0081875,2.0081875 0 0 1 -0.28628,-2.8403 1.7851437,1.7851437 0 0 1 2.602177,-0.16431 1.9423062,1.9423062 0 0 1 0.436298,0.59161 1.9973396,1.9973396 0 0 0 -1.227402,-0.39687 m 0.326496,4.61089 a 8.1383186,8.1383186 0 0 1 -1.161785,-1.65629 l 1.068123,-0.71967 1.119981,0.33152 a 6.6238437,6.6238437 0 0 1 -0.510911,1.91374 l -0.244475,0.21537 c -0.06271,-0.0201 -0.156897,-0.0503 -0.270933,-0.0857 m 1.101196,-3.36021 a 1.9229916,1.9229916 0 0 1 -0.01138,0.83714 q -0.0098,0.0833 -0.02064,0.1696 l -1.145381,-0.33919 a 0.15266458,0.15266458 0 0 0 -0.129381,0.0198 l -1.087702,0.73395 a 2.5079854,2.5079854 0 0 1 -0.228071,-1.08928 c 0.04101,-0.74507 0.456406,-1.17581 1.23534,-1.28085 0.01085,-0.002 1.154906,-0.001 1.38721,0.94826 m -2.654565,3.16389 c 0.03122,0.17277 0.127794,0.63368 0.279665,1.33218 a 1.0091208,1.0091208 0 0 1 -0.652727,0.43947 0.15345833,0.15345833 0 0 0 0.03519,0.30268 0.14393333,0.14393333 0 0 0 0.03598,-0.004 1.4800791,1.4800791 0 0 0 0.432329,-0.17304 1.9785541,1.9785541 0 0 0 1.265502,0.9062 c -0.284162,0.82735 -0.677333,1.211 -0.965465,1.38747 a 0.95964374,0.95964374 0 0 1 -0.913341,0.14632 c -0.423334,-0.19447 -0.738717,-0.85567 -0.910696,-1.91241 -0.253735,-1.56104 0.306917,-2.66621 1.712912,-3.37688 a 8.5560957,8.5560957 0 0 0 0.697971,0.98901 c -0.283898,-0.0815 -0.587904,-0.16271 -0.835554,-0.21404 a 0.15345833,0.15345833 0 0 0 -0.182033,0.17727 m 1.537494,2.31378 c -0.01588,0.0672 -0.03281,0.13229 -0.05001,0.19394 a 1.6734896,1.6734896 0 0 1 -1.114954,-0.80407 1.4337771,1.4337771 0 0 0 0.18759,-0.23813 0.17806458,0.17806458 0 0 0 0.02223,-0.0362 2.2608646,2.2608646 0 0 0 0.167746,-0.35507 l 0.913077,0.32834 a 3.8271979,3.8271979 0 0 1 -0.125413,0.91202 M 69.69349,146.45556 h 0.03149 c 0,0.008 0,0.0151 0.0013,0.0228 0.02355,0.51382 0.05292,1.15015 1.069975,2.17356 -0.03519,0.0704 -0.06641,0.13996 -0.09472,0.20875 a 2.3595541,2.3595541 0 0 0 -1.815571,-0.77443 2.2976416,2.2976416 0 0 0 0.62865,-1.63672 c 0.05662,0.004 0.115888,0.007 0.178594,0.007 m 1.26365,1.92114 c -0.877623,-0.90328 -0.902759,-1.43854 -0.92419,-1.91293 0,-0.01 0,-0.0185 -0.0013,-0.0265 0.0344,-0.004 0.06853,-0.008 0.105834,-0.0127 a 11.213042,11.213042 0 0 1 1.140354,-0.095 3.815027,3.815027 0 0 0 0.540279,1.29329 2.1730229,2.1730229 0 0 0 -0.417513,0.26749 2.2568958,2.2568958 0 0 0 -0.441854,0.48789 m 4.725459,-3.6621 a 2.7352625,2.7352625 0 0 0 -0.541338,1.1856 c -1.5875,0.0333 -2.061369,0.9525 -2.201333,1.46315 a 2.8236333,2.8236333 0 0 0 -0.833702,0.13573 3.4951458,3.4951458 0 0 1 -0.555625,-1.35308 0.09710208,0.09710208 0 0 0 -0.0026,-0.0143 1.5753291,1.5753291 0 0 1 -0.0048,-0.51461 0.60272083,0.60272083 0 0 1 0.454555,-0.51568 4.5188187,4.5188187 0 0 1 1.005416,-0.099 c 0.79375,-0.0243 1.695715,-0.0529 2.211652,-0.67813 a 1.9827875,1.9827875 0 0 0 0.395023,-1.24989 3.1366354,3.1366354 0 0 1 0.07223,1.64042 m -1.742281,-4.69503 a 1.6562916,1.6562916 0 0 0 -0.141552,-0.0952 1.11125,1.11125 0 0 0 -1.114689,0.0386 l -0.172773,-0.59082 a 1.5284979,1.5284979 0 0 0 0.855662,-0.15319 1.4213416,1.4213416 0 0 0 0.777081,0.35242 c -0.06482,0.14737 -0.144727,0.32068 -0.204258,0.44821 m 0.307446,1.15358 h -0.0042 a 0.14684375,0.14684375 0 0 0 -0.03731,0.005 1.2998979,1.2998979 0 0 0 -0.175948,0.0368 1.2435417,1.2435417 0 0 1 -1.133739,-1.0152 0.77099582,0.77099582 0 0 1 0.744273,-0.0116 1.2308417,1.2308417 0 0 1 0.235479,0.18044 0.117475,0.117475 0 0 0 0.0093,0.009 1.6025812,1.6025812 0 0 1 0.392642,0.79375 l -0.03043,0.002 m -1.465263,0.44318 a 1.1773958,1.1773958 0 0 1 -0.127529,-1.1594 1.4970125,1.4970125 0 0 0 0.873125,0.94615 c -0.07038,0.0302 -0.143404,0.0624 -0.22225,0.0976 a 1.3086292,1.3086292 0 0 1 -0.522816,0.11562 m -1.998663,-0.81121 a 4.9402999,4.9402999 0 0 0 -1.166283,-0.13547 h -0.02514 c -0.03281,-0.16219 -0.06932,-0.40693 -0.09975,-0.61224 q -0.01482,-0.0987 -0.02646,-0.17833 a 1.1247437,1.1247437 0 0 0 0.806715,-0.0775 0.9696979,0.9696979 0 0 0 0.77126,0.15426 z m 1.811338,1.83356 c -0.502709,-0.0421 -1.081882,-0.59002 -1.402292,-1.27317 a 3.133725,3.133725 0 0 0 1.488017,0.55562 0.16933333,0.16933333 0 0 0 0.01852,0.002 c 0.0032,0 0.0058,0 0.0085,0 h 0.04366 a 1.6615833,1.6615833 0 0 0 0.67945,-0.14235 5.2236687,5.2236687 0 0 1 0.693209,-0.27358 c 0.138906,0.76729 -0.03096,1.32292 -0.541338,1.71979 a 1.0683875,1.0683875 0 0 0 -0.986896,-0.58975 m -3.655748,2.92364 c 0.03731,0 0.07647,-0.002 0.117475,-0.005 a 0.19949583,0.19949583 0 0 0 0.02064,0.002 0.15266458,0.15266458 0 0 0 0.04948,-0.008 3.5427708,3.5427708 0 0 0 0.911225,-0.25982 9.3882103,9.3882103 0 0 0 0.908579,-0.4453 l 0.175948,-0.0963 a 10.759017,10.759017 0 0 1 1.752865,-0.81518 c 1.25042,-0.43338 1.760008,-1.23481 1.554691,-2.44581 a 1.23825,1.23825 0 0 1 0.521494,0.38365 2.1251333,2.1251333 0 0 1 0.28866,0.37359 c 0.139436,0.88345 0.05292,1.50019 -0.262202,1.88436 -0.427566,0.51859 -1.254389,0.54399 -1.984375,0.56674 a 4.6791562,4.6791562 0 0 0 -1.0795,0.11086 0.90725624,0.90725624 0 0 0 -0.672041,0.75539 1.7036521,1.7036521 0 0 0 -0.01376,0.45826 c -0.36195,0.0124 -0.742156,0.0437 -1.134798,0.0963 -0.08361,0.0114 -0.161395,0.0188 -0.235214,0.0236 h -0.0021 a 1.9952229,1.9952229 0 0 1 -0.47625,-0.0196 h -0.0066 a 0.82602916,0.82602916 0 0 1 -0.690563,-0.58631 1.082675,1.082675 0 0 0 0.256381,0.0286 m -0.274373,-0.75565 a 1.6094604,1.6094604 0 0 0 0.134409,0.43683 0.3349625,0.3349625 0 0 1 -0.244475,-0.13944 0.43682708,0.43682708 0 0 1 0.110066,-0.29712 m 5.990432,13.84617 c -1.02235,-0.49186 -1.456796,-1.22634 -1.875896,-1.93728 -0.363008,-0.61674 -0.737129,-1.25174 -1.481667,-1.69333 a 3.8348708,3.8348708 0 0 0 0.914136,-0.54478 0.15372291,0.15372291 0 0 0 -0.07461,-0.27358 c -1.182687,-0.15028 -1.664494,-0.71437 -1.719792,-0.83423 a 0.15054791,0.15054791 0 0 0 -0.15875,-0.12038 0.15345833,0.15345833 0 0 0 -0.143668,0.16298 c 0.0095,0.15743 0.461698,0.78449 1.616868,1.0332 -1.089554,0.71649 -1.711325,0.36301 -2.109258,0.0913 l -0.03096,-1.82007 a 0.15319375,0.15319375 0 0 0 -0.240242,-0.1233 l -0.130175,0.0894 c -0.172773,-0.2749 -0.305064,-0.6215 -0.140229,-0.9062 a 1.0358437,1.0358437 0 0 1 0.916517,-0.4101 c 0.343958,0.0368 0.407987,0.65643 0.454818,1.1094 0.0066,0.0614 0.01297,0.12065 0.01932,0.17621 a 0.63499999,0.63499999 0 0 1 -0.613569,-0.17992 0.15345833,0.15345833 0 1 0 -0.215635,0.21802 0.94614999,0.94614999 0 0 0 1.0668,0.20294 0.15478125,0.15478125 0 0 0 0.08308,-0.16113 c -0.01296,-0.0833 -0.02328,-0.18177 -0.03466,-0.28787 -0.05794,-0.55721 -0.137055,-1.32001 -0.727605,-1.38271 a 1.3356166,1.3356166 0 0 0 -1.214437,0.56118 c -0.141023,0.24262 -0.220398,0.64902 0.152929,1.23454 l -0.280194,0.19315 a 0.15266458,0.15266458 0 0 0 -0.06588,0.13229 c 0.0071,0.17992 0.01138,0.59214 0.01244,1.10675 a 0.17171458,0.17171458 0 0 0 -0.01773,-0.005 c -1.182422,-0.15055 -1.664758,-0.71437 -1.719791,-0.8345 a 0.15875,0.15875 0 0 0 -0.15875,-0.11985 0.15345833,0.15345833 0 0 0 -0.143669,0.16272 c 0.01005,0.15742 0.46355,0.78449 1.617133,1.03319 -1.096168,0.7202 -1.719791,0.35693 -2.109787,0.0884 l -0.03043,-1.81743 a 0.15345833,0.15345833 0 0 0 -0.240771,-0.12382 l -0.129646,0.0894 c -0.173037,-0.27491 -0.305064,-0.62124 -0.140494,-0.90567 a 1.031875,1.031875 0 0 1 0.916782,-0.41011 c 0.343958,0.0363 0.407723,0.65644 0.454818,1.10914 0.0066,0.0616 0.01244,0.12065 0.01879,0.17621 a 0.63499999,0.63499999 0 0 1 -0.613569,-0.17965 0.15345833,0.15345833 0 1 0 -0.215635,0.21801 0.94694374,0.94694374 0 0 0 1.061508,0.20294 0.1539875,0.1539875 0 0 0 0.08334,-0.16113 c -0.01297,-0.0833 -0.02328,-0.18177 -0.03466,-0.28787 -0.05768,-0.55721 -0.137054,-1.32027 -0.727075,-1.38298 a 1.3393208,1.3393208 0 0 0 -1.214966,0.56198 c -0.141023,0.24262 -0.220398,0.64902 0.152929,1.23428 l -0.2794,0.19262 a 0.15451666,0.15451666 0 0 0 -0.06615,0.13229 c 0.01852,0.44979 0.0024,2.09815 -0.0095,3.11123 -0.846667,-1.20411 -0.834231,-3.01175 -0.691621,-3.8645 a 8.0224311,8.0224311 0 0 1 0.195527,-0.78502 c 0.250825,-0.89746 0.594784,-2.12725 0.337344,-3.62902 a 4.5772916,4.5772916 0 0 0 -0.150283,-0.61807 c 0.613039,-0.18045 1.544373,-0.009 2.287323,0.43392 a 2.6699104,2.6699104 0 0 1 1.362868,1.98437 0.15319375,0.15319375 0 0 0 0.152665,0.13785 0.11615208,0.11615208 0 0 0 0.01535,0 0.15345833,0.15345833 0 0 0 0.137583,-0.16801 2.7035125,2.7035125 0 0 0 -0.584465,-1.42002 c 1.11125,-0.1823 1.928019,0.0714 2.434167,0.7538 a 3.0228645,3.0228645 0 0 0 -0.105833,0.62733 0.15292916,0.15292916 0 0 0 0.145256,0.16086 h 0.0079 a 0.15292916,0.15292916 0 0 0 0.152929,-0.14605 2.789502,2.789502 0 0 1 0.110066,-0.6178 v -0.003 a 2.5349729,2.5349729 0 0 1 0.215371,-0.51674 0.18123958,0.18123958 0 0 0 0.01005,-0.0177 1.9960166,1.9960166 0 0 1 0.470694,-0.56409 c 0.488421,-0.399 1.166283,-0.53658 2.016125,-0.40826 a 0.15347458,0.15347458 0 0 0 0.04604,-0.30347 c -0.136525,-0.0206 -0.268552,-0.0344 -0.396875,-0.0421 0.152929,-0.4826 0.591608,-1.11972 1.838325,-1.16232 a 2.6722916,2.6722916 0 0 0 -0.01058,0.41011 0.15372291,0.15372291 0 0 0 0.152929,0.14367 h 0.01005 a 0.15345833,0.15345833 0 0 0 0.143668,-0.16272 2.5159229,2.5159229 0 0 1 0.545042,-1.71821 0.174625,0.174625 0 0 0 0.01746,-0.0212 2.8204583,2.8204583 0 0 1 1.801019,-0.88689 2.1539729,2.1539729 0 0 0 0.364067,0.21326 c -1.366838,0.77972 -1.905,1.95209 -1.640417,3.57187 a 5.9795833,5.9795833 0 0 0 0.250031,1.025 l -0.410633,0.12409 c -0.464608,0.14023 -0.982662,0.29686 -1.301485,0.38946 -0.02064,-0.0558 -0.03836,-0.11324 -0.05556,-0.16906 -0.0127,-0.0429 -0.02646,-0.0849 -0.03969,-0.12595 v 0 -0.003 0 0 a 1.063625,1.063625 0 0 0 -0.100807,-0.22013 0.75221041,0.75221041 0 0 0 -0.495829,-0.37042 1.0993437,1.0993437 0 0 0 -0.840581,0.29316 c -0.341048,0.25824 -0.408252,0.73105 -0.194733,1.36658 v 0 a 3.4999083,3.4999083 0 0 0 0.190235,0.45323 l -0.0024,-0.003 a 0.15372291,0.15372291 0 0 0 -0.20029,-0.041 c 0,0 -0.236537,0.13758 -0.574939,0.3511 q -0.236009,0.1487 -0.45429,0.29448 l 0.207169,-0.85116 a 0.15347161,0.15347161 0 0 0 -0.298185,-0.0728 l -0.301361,1.23798 v 0.004 a 0.10133542,0.10133542 0 0 0 -0.0024,0.0177 c 0,0.004 0,0.008 -0.0013,0.0124 -0.0013,0.004 0,0.0109 0,0.0164 0,0.006 0,0.009 0.0016,0.0135 a 0.10292292,0.10292292 0 0 0 0.0037,0.0148 c 0.0013,0.005 0.0026,0.01 0.0045,0.014 l 0.0058,0.0124 a 0.127,0.127 0 0 0 0.0085,0.0148 0.00899583,0.00899583 0 0 0 0.0024,0.004 0.0428625,0.0428625 0 0 0 0.005,0.007 0.10583333,0.10583333 0 0 0 0.01138,0.0135 v 0 0 c 0,0 0.589228,0.58632 1.033198,1.0295 a 2.9874104,2.9874104 0 0 0 0.117211,3.36814 0.15266458,0.15266458 0 0 0 0.27596,-0.0815 4.3013312,4.3013312 0 0 0 1.338527,1.58538 v 0.68422 a 0.15345833,0.15345833 0 0 0 0.153723,0.15319 v 0 a 0.15345833,0.15345833 0 0 0 0.153194,-0.15372 v -0.76729 l -0.0032,-5.08371 c 0.687917,0.14685 1.580885,0.33761 1.630627,0.35031 a 0.15345833,0.15345833 0 1 0 0.07779,-0.29686 c -0.05794,-0.0154 -1.534583,-0.3302 -1.830122,-0.39317 a 0.15531041,0.15531041 0 0 0 -0.128588,0.0309 0.15345833,0.15345833 0 0 0 -0.05689,0.11933 l 0.0032,4.96914 a 4.0097604,4.0097604 0 0 1 -1.363927,-2.19075 c -0.313002,-1.41314 0.578643,-1.93358 1.007268,-2.18361 0.04154,-0.0243 0.07937,-0.046 0.109273,-0.0651 a 0.15345833,0.15345833 0 0 0 -0.162718,-0.25983 c -0.02858,0.0177 -0.06271,0.0378 -0.100807,0.0601 a 3.3490958,3.3490958 0 0 0 -0.555625,0.38602 c -0.04762,-0.0487 -0.144462,-0.14525 -0.347927,-0.34925 -0.329141,-0.32835 -0.78105,-0.77893 -1.001183,-0.99774 0.194733,-0.13229 0.40296,-0.26908 0.622035,-0.4072 0.189707,-0.12012 0.346869,-0.21537 0.446617,-0.27516 0.318823,0.43788 0.545042,0.7956 0.645583,0.95991 -0.09498,0.0717 -0.177535,0.14578 -0.251883,0.21166 a 0.15354504,0.15354504 0 0 0 0.205052,0.2286 c 0.318823,-0.28628 0.714375,-0.64293 1.604433,-0.36301 a 0.15355239,0.15355239 0 0 0 0.09234,-0.29289 1.7499541,1.7499541 0 0 0 -1.390121,0.0508 c -0.09366,-0.15319 -0.286279,-0.45826 -0.559594,-0.84137 a 0.149225,0.149225 0 0 0 0.05768,0.0119 h 0.01243 a 1.2014729,1.2014729 0 0 0 1.080294,-0.88371 0.15345833,0.15345833 0 1 0 -0.299509,-0.0659 0.86492291,0.86492291 0 0 1 -0.714375,0.62971 3.0249812,3.0249812 0 0 1 -0.150018,-0.31247 0.91413541,0.91413541 0 0 0 0.555625,-0.30507 0.88370832,0.88370832 0 0 0 0.186795,-0.56065 h 0.01482 a 1.5314083,1.5314083 0 0 0 0.274638,-0.0368 2.0108333,2.0108333 0 0 0 0.11086,0.29819 l 0.0026,0.006 0.0024,0.005 a 0.98372082,0.98372082 0 0 0 0.518054,0.4826 2.2225,2.2225 0 0 1 1.139825,1.11125 0.15319375,0.15319375 0 0 0 0.138113,0.0865 0.15610416,0.15610416 0 0 0 0.06694,-0.0153 0.15425208,0.15425208 0 0 0 0.07091,-0.20532 2.5193625,2.5193625 0 0 0 -1.296459,-1.26021 0.70696666,0.70696666 0 0 1 -0.259291,-0.17938 c 0.32332,-0.0942 0.80301,-0.23972 1.236398,-0.37042 l 0.436033,-0.13229 a 1.997075,1.997075 0 0 0 0.396875,0.59928 c 0.01032,0.79375 0.02646,1.77456 0.04207,2.76781 0.01376,0.80539 0.02805,1.61792 0.04154,2.3442 0.02275,1.23428 0.0418,2.21906 0.04736,2.49714 a 7.1871416,7.1871416 0 0 1 -2.510632,1.33112 c -0.05927,0.0164 -0.127793,0.0312 -0.2032,0.0452 m -2.780506,0.11033 a 3.5816645,3.5816645 0 0 1 -0.398462,-0.82682 c -0.270934,-0.7067 -0.576263,-1.50336 -1.827213,-1.61845 l -0.02408,-1.41156 a 1.7327562,1.7327562 0 0 0 0.916517,0.27332 1.7864666,1.7864666 0 0 0 0.332846,-0.0323 c 0.858837,0.39899 1.239043,1.04246 1.640416,1.72376 0.38735,0.65749 0.7874,1.33429 1.624013,1.8497 a 18.848916,18.848916 0 0 1 -2.26404,0.0426 m -0.865981,-0.0439 c -1.002771,-0.49054 -1.414198,-1.21708 -1.811338,-1.92035 -0.08811,-0.15637 -0.176477,-0.31088 -0.269345,-0.46249 0.01402,-1.19195 0.01376,-2.58709 0,-3.08187 l 0.358245,-0.24685 0.02646,1.61396 0.03096,1.83382 v 0.006 0.009 l 0.0048,0.27782 a 0.15372291,0.15372291 0 0 0 0.153193,0.15081 h 0.0032 a 0.15345833,0.15345833 0 0 0 0.150548,-0.15637 l -0.0021,-0.11509 c 1.031875,0.10583 1.26656,0.71675 1.534583,1.41922 a 5.0421645,5.0421645 0 0 0 0.311414,0.70141 c -0.163512,-0.008 -0.327818,-0.0167 -0.49186,-0.028 m -2.382308,-2.82655 a 3.1046208,3.1046208 0 0 0 -0.873125,-0.78211 3.71475,3.71475 0 0 0 0.878416,-0.51011 c 0,0.4056 -0.0021,0.85301 -0.0058,1.29222 m -0.574146,2.37279 c -0.03334,-0.0823 -0.06615,-0.16484 -0.09763,-0.24845 -0.27014,-0.70617 -0.575734,-1.5031 -1.825625,-1.61819 l -0.02434,-1.4142 a 1.7364604,1.7364604 0 0 0 0.918104,0.27464 1.7954625,1.7954625 0 0 0 0.305065,-0.0265 2.9588354,2.9588354 0 0 1 1.316037,1.22635 l 0.0058,0.01 c 0.09816,0.15875 0.189706,0.31962 0.281781,0.4826 a 4.7701729,4.7701729 0 0 0 1.382183,1.71106 12.166335,12.166335 0 0 1 -2.261393,-0.39687 m -2.645834,-4.92972 0.357982,-0.24712 0.05794,3.44117 c 0,0.004 -0.0013,0.008 -0.0013,0.0119 a 0.12620625,0.12620625 0 0 0 0.0021,0.0198 l 0.0045,0.26644 a 0.15345833,0.15345833 0 0 0 0.153723,0.15081 h 0.0037 a 0.15345833,0.15345833 0 0 0 0.150813,-0.15611 l -0.0021,-0.11509 c 1.017852,0.10583 1.259152,0.70088 1.523471,1.39118 -0.514879,-0.23998 -1.084792,-0.56303 -1.707886,-0.92472 a 2.619375,2.619375 0 0 1 -0.55827,-0.43709 c 0.01376,-1.06072 0.03228,-2.80167 0.01667,-3.40122 m 18.276358,-1.16231 c -2.076185,-1.37716 -2.105289,-3.1631 -2.091531,-3.99812 0.454819,0.76729 0.810684,0.9525 1.291696,0.9525 0.04604,0 0.09366,-10e-4 0.141552,-0.005 a 0.15292916,0.15292916 0 0 0 0.143404,-0.16245 0.1508125,0.1508125 0 0 0 -0.162454,-0.14367 c -0.396875,0.0241 -0.744008,0.0466 -1.406789,-1.27185 a 3.6409312,3.6409312 0 0 0 0.93636,-0.89562 0.59293124,0.59293124 0 0 0 0.319881,0.17304 0.10795,0.10795 0 0 0 0.01508,0 0.15345833,0.15345833 0 0 0 0.01429,-0.30612 c -0.06165,-0.006 -0.151606,-0.0849 -0.253471,-0.20717 a 0.18997083,0.18997083 0 0 0 -0.01349,-0.0159 4.9604083,4.9604083 0 0 1 -0.547423,-0.89218 0.15345833,0.15345833 0 0 0 -0.224102,-0.0601 l -0.03704,0.0265 -0.188119,-0.93239 a 0.15478125,0.15478125 0 0 0 -0.1016,-0.1151 0.15292916,0.15292916 0 0 0 -0.150813,0.0304 l -0.617008,0.54716 a 8.8807395,8.8807395 0 0 0 0.242623,-1.03188 3.8364583,3.8364583 0 0 1 2.331244,0.79852 c 0.0037,0.003 0.0082,0.006 0.01191,0.009 a 13.344525,13.344525 0 0 1 0.345546,7.49882 m 0.686329,-3.16124 a 13.639006,13.639006 0 1 0 -17.756981,13.00268 c 0.01878,0.7374 0.08096,1.53803 0.250825,1.87299 a 0.14234583,0.14234583 0 0 0 0.02514,0.0357 c 0.769938,0.81121 3.427942,0.0693 5.431632,-0.50668 0.03572,0.28019 0.156368,0.84958 0.54557,1.04431 a 0.68791666,0.68791666 0 0 0 0.310357,0.0669 1.7372541,1.7372541 0 0 0 0.759354,-0.22807 0.15001875,0.15001875 0 0 0 -0.06826,-0.27966 0.28231041,0.28231041 0 0 1 -0.243152,-0.23204 4.1539583,4.1539583 0 0 1 0.644525,-0.006 h 0.01376 a 0.58076041,0.58076041 0 0 0 0.517789,-0.33364 0.51461458,0.51461458 0 0 0 0.03625,-0.11272 0.09763125,0.09763125 0 0 0 0.0024,-0.0106 0.46249166,0.46249166 0 0 0 -0.0085,-0.20823 l -0.06112,-1.07844 a 13.641123,13.641123 0 0 0 9.600406,-13.02676"
       fill="#ffffff"
       style="fill:#366493;fill-opacity:1;stroke-width:0.264583"
       clip-path="none" /></g></svg>
