<?xml version="1.0" encoding="UTF-8" standalone="no"?>
<!-- Created with Inkscape (http://www.inkscape.org/) -->

<svg
   width="158.72356mm"
   height="31.802916mm"
   viewBox="0 0 158.72356 31.802916"
   version="1.1"
   id="svg1"
   xml:space="preserve"
   inkscape:version="1.3 (0e150ed, 2023-07-21)"
   sodipodi:docname="plymouth.svg"
   xmlns:inkscape="http://www.inkscape.org/namespaces/inkscape"
   xmlns:sodipodi="http://sodipodi.sourceforge.net/DTD/sodipodi-0.dtd"
   xmlns="http://www.w3.org/2000/svg"
   xmlns:svg="http://www.w3.org/2000/svg"><sodipodi:namedview
     id="namedview1"
     pagecolor="#ffffff"
     bordercolor="#000000"
     borderopacity="0.25"
     inkscape:showpageshadow="2"
     inkscape:pageopacity="0.0"
     inkscape:pagecheckerboard="0"
     inkscape:deskcolor="#d1d1d1"
     inkscape:document-units="mm"
     inkscape:zoom="0.12561668"
     inkscape:cx="-636.85811"
     inkscape:cy="1050.8159"
     inkscape:window-width="1392"
     inkscape:window-height="971"
     inkscape:window-x="0"
     inkscape:window-y="25"
     inkscape:window-maximized="0"
     inkscape:current-layer="layer1"><inkscape:page
       x="8.6350025e-07"
       y="0"
       width="158.72356"
       height="31.802916"
       id="page2"
       margin="0"
       bleed="0" /></sodipodi:namedview><defs
     id="defs1" /><g
     inkscape:label="Layer 1"
     inkscape:groupmode="layer"
     id="layer1"
     transform="translate(-220.00001)" /><g
     id="g1"
     inkscape:groupmode="layer"
     inkscape:label="1"
     transform="matrix(0.26458333,0,0,0.26458333,4.9379573e-6,0)"><path
       id="path1"
       d="m 447.227,84.074 c -1.125,-0.301 -1.801,-0.676 -1.875,-0.972 -0.454,-1.579 -0.528,-3.602 -0.528,-6 V 51.898 c 0,-2.546 0.227,-4.574 0.528,-5.921 0.074,-0.301 0.75,-0.676 1.875,-0.977 1.199,-0.301 2.023,-0.523 2.472,-0.523 0.227,0 0.227,-0.301 0.227,-1.125 0,-0.301 -0.074,-0.676 -0.227,-1.125 -5.324,0.222 -8.25,0.449 -8.625,0.449 -1.199,0 -2.926,-0.074 -5.25,-0.227 -2.25,-0.074 -3.449,-0.222 -3.676,-0.222 -0.074,0.074 -0.074,0.449 -0.074,1.199 0,0.676 0.074,0.972 0.227,0.972 0.523,0 1.347,0.079 2.472,0.528 1.125,0.301 1.653,0.676 1.875,0.972 0.301,1.125 0.528,2.926 0.528,5.704 v 10.046 c 0,0.079 0,0.227 -0.074,0.227 -4.051,0.074 -7.051,0.074 -8.852,0.074 -1.648,0 -4.801,0 -9.148,-0.074 l -0.079,-0.227 v -9.824 c 0,-2.551 0.227,-4.574 0.528,-5.926 0.074,-0.296 0.75,-0.671 1.875,-0.972 1.199,-0.301 2.023,-0.528 2.472,-0.528 0.227,0 0.227,-0.296 0.227,-1.125 0,-0.296 -0.074,-0.671 -0.227,-1.125 -5.324,0.227 -8.25,0.454 -8.625,0.454 -1.199,0 -2.921,-0.079 -5.25,-0.227 -2.25,-0.074 -3.449,-0.227 -3.671,-0.227 -0.079,0.079 -0.079,0.454 -0.079,1.204 0,0.671 0.079,0.972 0.227,0.972 0.523,0 1.352,0.074 2.477,0.528 1.125,0.296 1.648,0.671 1.875,0.972 0.296,1.125 0.523,2.926 0.523,5.699 v 25.875 c 0,2.329 -0.227,4.278 -0.523,5.704 -0.079,0.296 -0.75,0.671 -1.875,0.972 -1.125,0.301 -2.028,0.449 -2.551,0.449 -0.227,0 -0.227,0.454 -0.227,1.204 0,0.449 0.074,0.75 0.227,0.898 0.676,0 1.648,-0.074 2.926,-0.227 1.199,-0.074 2.25,-0.074 3.222,-0.074 0.977,0 1.875,-0.074 2.778,-0.074 0.296,0 3.148,0.074 8.472,0.449 0.074,-0.222 0.074,-0.523 0.074,-0.898 0,-0.903 -0.074,-1.199 -0.222,-1.199 -0.449,0 -1.199,-0.227 -2.324,-0.528 -1.125,-0.301 -1.801,-0.676 -1.875,-0.972 -0.454,-1.579 -0.528,-3.602 -0.528,-6 V 65.926 c 0,-0.074 3.153,-0.227 9.227,-0.301 1.648,0 4.648,0 8.847,0.074 l 0.079,0.227 v 11.625 c 0,2.324 -0.227,4.273 -0.528,5.699 -0.074,0.301 -0.75,0.676 -1.875,0.977 -1.125,0.296 -2.023,0.449 -2.551,0.449 -0.222,0 -0.222,0.449 -0.222,1.199 0,0.449 0.074,0.75 0.222,0.898 0.676,0 1.653,-0.074 2.926,-0.222 1.199,-0.074 2.25,-0.074 3.227,-0.074 0.972,0 1.875,-0.079 2.773,-0.079 0.301,0 3.153,0.079 8.477,0.454 0.074,-0.227 0.074,-0.528 0.074,-0.903 0,-0.898 -0.074,-1.199 -0.227,-1.199 -0.296,-0.074 -1.046,-0.301 -2.171,-0.676 M 367.801,42.148 c -1.125,0 -2.699,-0.222 -4.653,-0.671 l -1.199,10.125 c 0.301,0.296 0.903,0.523 1.801,0.523 0.449,0 0.676,-0.074 0.676,-0.449 0.676,-2.477 1.574,-4.051 2.551,-4.875 0.972,-0.903 2.699,-1.352 4.796,-1.352 3.903,0 6,0.301 6.375,1.125 0.454,0.676 0.528,2.778 0.528,6.449 v 24.301 c 0,2.477 -0.227,4.352 -0.528,5.551 -0.074,0.301 -0.75,0.676 -1.875,0.977 -1.125,0.296 -2.023,0.449 -2.546,0.449 -0.227,0 -0.227,0.449 -0.227,1.199 0,0.523 0.074,0.898 0.227,1.125 0.449,0 1.796,-0.074 3.898,-0.227 2.102,-0.074 3.824,-0.222 5.023,-0.222 0.903,0 1.801,0 2.778,0.074 0.972,0 2.023,0.074 3.148,0.227 1.125,0.074 2.028,0.074 2.551,0.222 0.074,-0.222 0.074,-0.676 0.074,-1.125 0,-0.75 -0.074,-1.199 -0.222,-1.199 -0.454,0 -1.204,-0.227 -2.329,-0.523 -1.125,-0.301 -1.796,-0.676 -1.796,-0.977 -0.454,-1.426 -0.528,-3.449 -0.528,-5.773 v -24 c 0,-2.926 0.227,-5.028 0.528,-6.375 0.222,-0.75 2.324,-1.125 6.449,-1.125 2.25,0 3.824,0.449 4.801,1.347 0.972,0.903 1.875,2.551 2.472,5.028 0.074,0.222 0.301,0.296 0.676,0.296 0.898,0 1.426,-0.074 1.801,-0.449 l -1.199,-10.273 c -2.028,0.449 -3.454,0.676 -4.653,0.676 -1.801,0 -4.273,0.074 -7.347,0.222 -3,0.074 -5.551,0.227 -7.5,0.227 -1.875,0 -4.352,0 -7.352,-0.227 -3,-0.074 -5.398,-0.222 -7.199,-0.301 m -54.602,0 c -0.074,0.079 -0.222,0.528 -0.222,1.204 0,0.671 0.074,0.972 0.222,0.972 0.528,0 1.352,0.074 2.477,0.528 1.125,0.296 1.648,0.671 1.875,0.972 0.301,0.903 0.523,2.778 0.523,5.699 v 14.625 c 0,7.278 1.574,12.375 4.653,15.75 3.148,3.227 7.347,4.875 12.75,4.875 2.546,0 4.796,-0.296 6.824,-0.972 2.023,-0.676 3.824,-1.801 5.324,-3.227 1.574,-1.426 2.773,-3.449 3.602,-6 0.898,-2.551 1.199,-5.551 1.199,-9 V 51.75 c 0,-2.551 0.222,-4.426 0.75,-5.551 0.449,-0.523 1.199,-0.972 2.551,-1.347 1.347,-0.301 2.25,-0.528 2.921,-0.528 0.227,0 0.227,-0.301 0.227,-1.125 0,-0.449 0,-0.75 -0.074,-1.125 -0.449,0 -1.574,0.074 -3.449,0.227 -1.875,0.074 -3.375,0.222 -4.426,0.222 -0.75,0 -3.602,-0.074 -8.477,-0.449 -0.074,0.227 -0.222,0.528 -0.074,1.199 0,0.676 0.074,0.903 0.301,0.903 0.523,0 1.574,0.222 2.926,0.523 1.347,0.301 2.097,0.75 2.324,1.199 0.449,0.903 0.676,2.704 0.676,5.329 v 16.421 c 0,5.25 -0.977,9 -3.153,11.25 -2.097,2.25 -4.801,3.375 -8.25,3.375 -3.597,0 -6.222,-1.347 -8.25,-4.125 -2.023,-2.773 -3,-6.449 -3,-11.023 V 51.824 c 0,-2.551 0.227,-4.574 0.528,-5.926 0,-0.296 0.671,-0.671 1.875,-0.972 1.199,-0.301 2.023,-0.528 2.472,-0.528 0.227,0 0.227,-0.296 0.227,-1.125 0,-0.296 0,-0.671 -0.074,-1.125 -4.875,0.227 -7.801,0.454 -8.625,0.454 -0.375,0 -3.454,-0.153 -9.153,-0.454 m -23.25,45.153 c 5.926,0 10.949,-2.25 15.153,-6.676 4.273,-4.426 6.375,-9.824 6.375,-16.051 0,-6.222 -2.102,-11.625 -6.375,-16.051 -4.278,-4.421 -9.227,-6.671 -15.153,-6.671 -5.926,0 -10.949,2.25 -15.148,6.671 -4.278,4.426 -6.375,9.829 -6.375,16.051 0,6.227 2.097,11.625 6.375,16.051 4.051,4.426 9.222,6.676 15.148,6.676 m 6.977,-38.926 c 2.25,2.102 3.676,4.801 4.648,7.801 0.903,3 1.352,6.222 1.352,9.676 0,4.875 -0.977,9.148 -3.153,12.75 -2.097,3.597 -5.023,5.324 -8.847,5.324 -3.153,0 -5.699,-1.125 -7.949,-3.375 -2.25,-2.25 -3.829,-4.801 -4.653,-7.949 -0.898,-3 -1.347,-6.227 -1.347,-9.602 0,-5.023 0.972,-9.227 3,-12.75 C 282,46.801 285,45 288.824,45 c 3.227,0.148 5.926,1.273 8.102,3.375 m -81.074,29.324 c -0.079,2.25 -0.301,3.676 -0.75,4.426 -0.227,0.676 -1.125,1.352 -2.551,1.801 -1.426,0.449 -2.699,0.676 -3.375,0.676 -0.227,0 -0.227,0.296 -0.227,1.125 0,0.523 0.074,0.898 0.227,1.125 0.449,0 1.648,-0.079 3.676,-0.227 2.023,-0.074 3.597,-0.227 4.796,-0.227 0.227,0 3.153,0.079 8.477,0.454 0.074,-0.227 0.074,-0.528 0.074,-0.977 0,-0.75 -0.074,-1.199 -0.222,-1.199 -0.528,0 -1.579,-0.227 -3.153,-0.676 -1.574,-0.449 -2.472,-0.898 -2.699,-1.426 -0.074,-0.449 -0.227,-1.125 -0.227,-2.097 0.454,-8.852 0.75,-18.829 1.125,-29.926 l 15.079,36.148 c 0.222,0.074 0.449,0.074 0.671,0.074 0.903,0 1.801,-0.898 2.551,-2.546 l 12.824,-31.204 c 0.079,-0.222 0.227,-0.449 0.301,-0.449 0.301,0 0.676,1.352 0.75,4.125 l 0.676,20.403 v 3.824 c 0,0.972 -0.227,1.801 -0.676,2.324 -0.301,0.301 -0.898,0.676 -1.875,0.977 -0.898,0.296 -1.648,0.449 -2.097,0.449 -0.227,0 -0.227,0.449 -0.227,1.199 0,0.449 0.074,0.75 0.227,0.977 0.671,0 1.648,-0.079 2.921,-0.227 1.278,-0.148 2.25,-0.074 3.227,-0.074 0.977,0 1.875,-0.074 2.773,-0.074 0.079,0 2.926,0.074 8.25,0.449 0.079,-0.227 0.079,-0.528 0.079,-0.977 0,-0.75 -0.079,-1.199 -0.227,-1.199 -0.449,0 -1.199,-0.227 -2.25,-0.523 -1.125,-0.301 -1.648,-0.676 -1.875,-1.125 -0.676,-1.653 -0.977,-3.829 -1.125,-6.153 -0.449,-14.472 -0.75,-23.773 -0.898,-27.75 -0.079,-1.875 0.222,-3.148 0.898,-3.597 0.977,-0.676 2.102,-1.125 3.227,-1.125 h 0.074 c 0.222,0 0.222,-0.301 0.222,-1.125 0,-0.528 -0.074,-0.903 -0.222,-1.125 -3.602,0.222 -6.227,0.296 -8.028,0.296 -2.324,0 -4.125,-0.074 -5.472,-0.222 l -2.477,7.801 c -2.324,6.148 -5.472,13.796 -9.375,23.324 0,0.074 -0.074,0.222 -0.222,0.222 -0.079,0 -0.227,0 -0.227,-0.074 -1.199,-3.148 -2.926,-7.125 -5.023,-11.926 -2.102,-4.875 -3.829,-8.921 -5.25,-12.375 -1.426,-3.375 -2.329,-5.699 -2.778,-6.898 -4.125,0.227 -6.375,0.449 -6.597,0.449 -1.125,0 -2.551,0 -4.278,-0.222 -1.648,-0.079 -2.773,-0.227 -3.449,-0.227 -0.227,0.227 -0.227,0.523 -0.227,0.977 0,0.75 0.079,1.125 0.227,1.125 0.523,0 1.574,0.074 2.926,0.449 1.347,0.301 2.097,0.676 2.25,0.972 0.074,0.454 0.222,0.977 0.222,1.875 0,0.75 -0.074,2.778 -0.222,6.153 M 181.5,66 c 0.301,0.676 0.449,1.125 0.449,1.352 v 9.898 c 0,2.699 -0.222,4.574 -0.523,5.926 -0.074,0.301 -0.75,0.676 -1.875,1.125 -1.125,0.449 -1.875,0.523 -2.477,0.523 -0.074,0 -0.222,0.301 -0.222,1.125 0,0.528 0.074,0.903 0.222,1.125 0.449,0 1.801,-0.074 3.903,-0.222 2.097,-0.079 3.671,-0.227 4.875,-0.227 0.898,0 1.796,0 2.773,0.074 0.898,0 2.023,0.074 3.148,0.227 1.125,0.074 2.028,0.074 2.551,0.222 0.074,-0.222 0.074,-0.671 0.074,-1.125 0,-0.671 -0.074,-1.125 -0.222,-1.125 -0.301,0 -1.125,-0.222 -2.25,-0.523 -1.125,-0.301 -1.801,-0.75 -1.875,-0.977 -0.301,-1.347 -0.528,-3.375 -0.528,-6 v -10.5 c 0,-0.523 1.653,-3.597 5.028,-9 3.375,-5.398 5.699,-9.148 7.051,-11.023 0.523,-0.676 1.421,-1.199 2.546,-1.574 1.204,-0.449 2.102,-0.528 2.778,-0.528 0.222,0 0.222,-0.296 0.222,-1.125 0,-0.296 0,-0.671 -0.074,-1.125 -0.449,0 -1.199,0.079 -2.023,0.079 -0.903,0.074 -1.653,0.074 -2.551,0.222 -0.75,0 -1.801,0.074 -2.773,0.074 -0.903,0 -3.602,-0.074 -8.028,-0.449 -0.074,0.227 -0.222,0.528 -0.222,1.199 0,0.676 0.074,0.903 0.222,0.903 1.352,0 2.477,0.222 3.227,0.523 0.75,0.301 1.199,0.75 1.199,1.352 0,0.75 -0.898,2.699 -2.699,5.773 -1.801,3 -3.676,6 -5.551,8.852 -0.227,0.301 -0.449,0.301 -0.676,0.074 l -7.125,-13.051 c -0.449,-0.75 -0.523,-1.347 -0.523,-1.801 0,-0.671 0.449,-1.125 1.347,-1.421 0.903,-0.301 1.653,-0.454 2.477,-0.454 0.074,0 0.227,-0.296 0.227,-0.898 0,-0.676 0,-0.977 -0.079,-1.199 -5.324,0.222 -8.472,0.449 -9.222,0.449 -4.801,0 -7.801,0 -8.852,0.074 -0.074,0.227 -0.074,0.449 -0.074,0.903 0,0.449 0.074,0.671 0.227,0.671 0.449,0 0.972,0.079 1.875,0.301 0.898,0.227 1.574,0.528 2.023,0.903 0.977,0.671 2.25,2.25 3.449,4.648 m -26.176,-4.352 c 0.079,-0.296 0.75,-0.671 1.875,-0.972 1.204,-0.301 2.028,-0.528 2.477,-0.528 0.227,0 0.227,-0.296 0.227,-1.125 0,-0.296 -0.079,-0.671 -0.227,-1.125 -5.324,0.227 -8.25,0.454 -8.625,0.454 -1.199,0 -2.926,-0.079 -5.25,-0.227 -2.25,-0.074 -3.449,-0.227 -3.676,-0.227 -0.074,0.079 -0.074,0.454 -0.074,1.204 0,0.671 0.074,0.972 0.227,0.972 0.523,0 1.347,0.074 2.472,0.528 1.125,0.296 1.653,0.671 1.875,0.972 0.301,1.125 0.528,3 0.528,5.699 v 25.426 c 0,3.153 -0.079,5.102 -0.454,6.153 -0.222,0.449 -0.75,0.75 -1.875,0.972 -1.125,0.301 -2.023,0.449 -2.546,0.449 -0.079,0 -0.227,0.301 -0.227,1.125 0,0.528 0.074,0.903 0.227,1.125 l 8.921,-0.222 c 2.25,-0.074 6.227,-0.074 11.852,0.074 5.551,0.074 9.375,0.227 11.176,0.227 0.074,-0.676 0.301,-1.579 0.523,-2.551 0.301,-1.125 0.528,-2.028 0.903,-2.699 0.222,-0.75 0.671,-1.801 1.199,-3.227 0.523,-1.426 0.898,-2.324 0.972,-2.773 -0.222,-0.227 -0.898,-0.454 -1.875,-0.454 -0.523,0 -0.898,0.079 -0.898,0.454 -0.449,1.574 -1.199,2.921 -2.102,4.125 -0.898,1.199 -1.648,2.023 -2.472,2.324 -1.801,0.898 -4.426,1.426 -8.028,1.426 h -2.472 c -2.778,0 -4.352,-0.301 -4.574,-0.903 -0.454,-1.347 -0.528,-3.148 -0.528,-5.324 V 51.676 c -0.074,-2.403 0.153,-4.278 0.449,-5.778 M 99.301,42.227 c -0.227,0.074 -0.227,0.523 -0.227,1.199 0,0.676 0.074,0.972 0.227,0.972 0.523,0 1.426,0.227 2.551,0.528 1.199,0.301 1.875,0.75 2.023,1.125 0.227,1.125 0.449,2.926 0.449,5.472 v 25.426 c 0,3.227 -0.074,5.324 -0.449,6.153 -0.227,0.449 -0.898,0.75 -2.023,0.972 -1.125,0.301 -2.028,0.449 -2.551,0.449 -0.074,0 -0.227,0.301 -0.227,1.125 0,0.676 0.074,0.977 0.227,1.204 l 1.347,-0.079 c 0.903,0 2.102,-0.074 3.602,-0.222 1.5,-0.153 2.926,-0.074 4.051,-0.074 1.426,0 4.574,0.074 9.449,0.449 0.074,-0.227 0.074,-0.676 0.074,-1.125 0,-0.75 -0.074,-1.125 -0.222,-1.125 -0.676,0 -1.653,-0.227 -3,-0.528 -1.352,-0.296 -2.102,-0.75 -2.25,-1.347 -0.301,-1.125 -0.528,-3 -0.528,-5.699 v -24 c 0,-4.352 0.227,-6.676 0.75,-7.051 0.676,-0.301 2.028,-0.449 3.903,-0.449 2.472,0 4.347,0.898 5.546,2.546 1.204,1.801 1.801,4.125 1.801,7.125 0,2.704 -0.676,4.875 -1.875,6.676 -1.199,1.801 -2.926,2.699 -5.097,2.699 -1.426,0 -2.704,-0.222 -3.829,-0.671 -0.074,0 -0.074,0.074 -0.222,0.449 0,0.301 0,0.676 0,0.972 0.074,0.301 0.074,0.528 0.222,0.676 0.301,0.449 0.977,0.903 1.875,1.199 0.903,0.301 1.875,0.528 2.778,0.528 2.773,0 5.25,-0.676 7.5,-2.102 2.25,-1.426 3.898,-3.148 5.023,-5.097 1.125,-1.954 1.653,-4.125 1.653,-6.153 0,-1.801 -0.301,-3.375 -0.977,-4.801 -0.676,-1.421 -1.426,-2.546 -2.477,-3.597 -0.972,-0.903 -2.097,-1.653 -3.449,-2.324 -1.347,-0.676 -2.699,-1.125 -4.051,-1.352 -1.347,-0.227 -2.699,-0.301 -4.046,-0.301 -1.352,0 -2.926,0 -4.579,0.074 -1.648,0.079 -3.222,0.079 -4.421,0.079 -0.903,0.222 -3.903,0.148 -8.551,0"
       style="fill:#000000;fill-opacity:1;fill-rule:nonzero;stroke:none"
       transform="scale(1.3333333)" /><path
       id="path2"
       d="m 440.176,32.773 c 0.074,-0.074 0.074,-0.296 0.074,-0.75 0,-0.523 -0.074,-0.75 -0.227,-0.75 -0.296,0 -0.972,-0.074 -2.097,-0.449 -0.977,-0.301 -1.574,-0.523 -1.801,-0.898 -0.301,-0.903 -0.523,-2.25 -0.523,-4.051 v -7.574 c 0,-0.227 1.125,-0.301 3.449,-0.301 2.551,0 4.051,0.074 4.426,0.301 0.222,0.074 0.296,0.222 0.449,0.301 0,0 0.074,0.222 0.301,0.671 0.222,0.454 0.296,1.125 0.523,1.875 0.074,0.227 0.301,0.301 0.75,0.301 0.449,0 0.75,-0.074 0.898,-0.222 V 12.074 C 446.324,12 445.949,11.852 445.5,11.852 c -0.449,0 -0.75,0.074 -0.75,0.296 -0.074,0.301 -0.227,0.75 -0.301,1.204 -0.222,0.972 -0.449,1.574 -0.75,1.648 -0.301,0.074 -1.426,0.227 -3.375,0.227 h -2.699 c -1.426,0 -2.102,-0.079 -2.102,-0.301 V 7.352 c 0,-1.801 0.079,-3.153 0.227,-3.903 0.074,-0.449 1.352,-0.676 3.676,-0.676 h 2.551 c 3,0 5.097,1.426 6.222,4.352 0.074,0.227 0.301,0.301 0.676,0.301 0.523,0 0.898,-0.074 0.977,-0.227 0,-0.074 -0.227,-1.125 -0.676,-2.773 -0.301,-1.653 -0.676,-3.153 -0.75,-4.051 -1.653,0 -4.352,0.074 -7.949,0.227 -3.602,0.074 -6.153,0.222 -7.727,0.074 -2.102,0 -4.273,-0.074 -6.375,-0.227 -0.074,0.074 -0.227,0.449 -0.227,0.903 0,0.449 0.079,0.75 0.227,0.75 0.449,0 1.125,0.074 1.875,0.296 0.75,0.227 1.199,0.528 1.352,0.903 0.222,0.676 0.296,2.023 0.296,4.051 V 25.5 c 0,2.25 -0.074,3.676 -0.296,4.426 -0.079,0.301 -0.528,0.523 -1.426,0.75 -0.75,0.222 -1.426,0.301 -1.875,0.301 -0.074,0 -0.074,0.222 -0.074,0.75 0,0.449 0,0.671 0.074,0.75 h 0.972 c 0.528,-0.079 1.426,-0.079 2.551,-0.227 1.125,0 2.102,-0.074 3.153,-0.074 1.046,0.222 3.296,0.375 7.199,0.597 m -30.903,0.301 c 4.278,0 7.954,-1.574 10.954,-4.801 3,-3.222 4.574,-7.046 4.574,-11.625 0,-4.574 -1.574,-8.324 -4.574,-11.546 -3,-3.227 -6.676,-4.801 -10.954,-4.801 -4.273,0 -7.949,1.574 -10.949,4.801 -3,3.222 -4.574,7.046 -4.574,11.625 0,4.574 1.574,8.398 4.574,11.625 3.074,3.222 6.75,4.722 10.949,4.722 m 5.176,-28.051 c 1.574,1.579 2.699,3.454 3.375,5.551 0.676,2.102 0.977,4.426 0.977,7.051 0,3.602 -0.75,6.602 -2.25,9.148 -1.426,2.551 -3.602,3.903 -6.375,3.903 -2.25,0 -4.125,-0.75 -5.699,-2.324 -1.579,-1.579 -2.704,-3.454 -3.375,-5.704 -0.676,-2.25 -0.977,-4.421 -0.977,-6.898 0,-3.602 0.75,-6.676 2.25,-9.148 1.426,-2.551 3.602,-3.829 6.375,-3.829 2.102,-0.148 4.125,0.676 5.699,2.25 m -50.926,12.676 c 0.227,0.449 0.301,0.75 0.301,0.903 v 7.125 c 0,1.875 -0.074,3.375 -0.301,4.273 -0.074,0.227 -0.523,0.523 -1.347,0.75 -0.75,0.227 -1.426,0.301 -1.801,0.301 -0.074,0 -0.074,0.222 -0.074,0.75 0,0.301 0.074,0.676 0.222,0.75 0.301,0 1.352,-0.074 2.778,-0.227 1.426,-0.148 2.699,-0.074 3.597,-0.074 0.676,0 1.352,0 2.028,0 0.676,0 1.426,0.074 2.25,0.074 0.75,0 1.426,0.074 1.801,0.074 0.074,-0.222 0.074,-0.449 0.074,-0.75 0,-0.523 -0.074,-0.75 -0.227,-0.75 -0.222,0 -0.75,-0.074 -1.648,-0.449 -0.75,-0.222 -1.199,-0.523 -1.352,-0.75 -0.222,-0.972 -0.301,-2.472 -0.301,-4.347 v -7.5 c 0,-0.454 1.204,-2.551 3.676,-6.454 2.477,-3.898 4.125,-6.597 5.028,-7.949 0.296,-0.449 0.972,-0.898 1.875,-1.125 0.898,-0.301 1.574,-0.449 2.023,-0.449 0.074,0 0.227,-0.227 0.227,-0.75 0,-0.227 0,-0.523 -0.079,-0.75 -0.296,0 -0.898,0.074 -1.421,0.074 -0.676,0 -1.204,0.074 -1.801,0.074 -0.528,0 -1.199,0 -2.028,0 -0.671,0 -2.546,-0.074 -5.773,-0.296 -0.074,0.074 -0.074,0.449 -0.074,0.898 0,0.449 0.074,0.676 0.222,0.676 0.977,0 1.801,0.074 2.329,0.449 0.523,0.227 0.898,0.523 0.898,0.898 0,0.528 -0.676,2.028 -1.875,4.125 -1.352,2.25 -2.699,4.352 -4.051,6.375 -0.074,0.227 -0.301,0.227 -0.449,0.079 l -5.551,-8.926 c -0.301,-0.528 -0.449,-0.977 -0.449,-1.199 0,-0.454 0.301,-0.75 0.977,-0.977 0.671,-0.227 1.199,-0.301 1.796,-0.301 0.079,0 0.079,-0.222 0.227,-0.676 0,-0.449 0,-0.75 -0.074,-0.898 -3.903,0.227 -6.153,0.301 -6.676,0.301 -3.449,0 -5.551,0 -6.375,0.074 -0.074,0.074 -0.074,0.301 -0.074,0.676 0,0.301 0.074,0.449 0.222,0.449 0.301,0 0.75,0.074 1.352,0.227 0.676,0.222 1.125,0.296 1.426,0.523 0.75,0.449 1.574,1.574 2.551,3.375 M 324.148,0.523 c -0.75,0 -1.875,-0.074 -3.375,-0.449 l -0.898,7.352 c 0.227,0.222 0.676,0.301 1.199,0.301 0.301,0 0.449,-0.079 0.449,-0.301 0.454,-1.801 1.125,-2.926 1.801,-3.602 0.75,-0.676 1.875,-0.898 3.449,-0.898 2.778,0 4.352,0.222 4.579,0.75 0.296,0.449 0.449,2.023 0.449,4.648 v 17.551 c 0,1.801 -0.074,3.148 -0.301,4.051 -0.074,0.222 -0.523,0.449 -1.352,0.75 -0.75,0.222 -1.421,0.301 -1.796,0.301 -0.079,0 -0.227,0.296 -0.227,0.898 0,0.301 0.074,0.676 0.227,0.75 0.296,0 1.347,-0.074 2.773,-0.227 1.574,-0.074 2.773,-0.074 3.602,-0.074 0.671,0 1.347,0 2.023,0 0.676,0 1.426,0.074 2.25,0.074 0.824,0 1.426,0.079 1.875,0.079 0.074,-0.227 0.074,-0.454 0.074,-0.75 0,-0.528 -0.074,-0.903 -0.222,-0.903 -0.301,0 -0.903,-0.074 -1.653,-0.301 -0.898,-0.222 -1.199,-0.449 -1.347,-0.671 -0.301,-1.125 -0.454,-2.477 -0.454,-4.278 V 8.25 c 0,-2.102 0.079,-3.602 0.454,-4.574 0.074,-0.528 1.648,-0.75 4.648,-0.75 1.574,0 2.773,0.301 3.449,0.898 0.75,0.676 1.352,1.801 1.801,3.602 0.074,0.074 0.227,0.222 0.449,0.222 0.676,0 1.125,-0.074 1.352,-0.296 L 348.676,0 c -1.426,0.301 -2.551,0.449 -3.375,0.449 -1.352,0 -3.153,0.074 -5.25,0.227 -2.25,0.074 -4.051,0.074 -5.324,0.074 -1.352,0 -3.153,0 -5.329,-0.074 -2.25,0 -3.898,0 -5.25,-0.153 m -15.671,25.579 c 0,1.648 -0.079,3 -0.301,4.046 -0.074,0.227 -0.528,0.454 -1.352,0.75 -0.75,0.227 -1.426,0.301 -1.801,0.301 -0.074,0 -0.222,0.301 -0.222,0.903 0,0.296 0.074,0.523 0.222,0.671 0.528,0 1.204,-0.074 2.028,-0.074 0.898,0 1.648,-0.074 2.324,-0.074 0.676,0 1.352,0 2.023,0 0.227,0 2.25,0.074 6.153,0.301 0.074,-0.227 0.074,-0.449 0.074,-0.676 0,-0.523 -0.074,-0.898 -0.227,-0.898 -0.296,0 -0.898,-0.079 -1.648,-0.301 -0.75,-0.227 -1.199,-0.449 -1.352,-0.676 -0.296,-1.125 -0.449,-2.551 -0.449,-4.352 V 7.648 c 0,-1.796 0.074,-3.222 0.301,-4.273 0.074,-0.227 0.523,-0.449 1.426,-0.75 0.898,-0.227 1.426,-0.301 1.801,-0.301 0.074,0 0.222,-0.222 0.222,-0.75 0,-0.222 0,-0.449 -0.074,-0.75 -3.898,0.227 -5.926,0.301 -6.227,0.301 -0.898,0 -2.097,0 -3.824,-0.074 -1.648,-0.074 -2.551,-0.074 -2.699,-0.074 -0.074,0.074 -0.074,0.296 -0.074,0.898 0,0.449 0.074,0.75 0.222,0.75 0.301,0 0.977,0.074 1.801,0.301 0.75,0.222 1.199,0.449 1.352,0.75 0.222,0.75 0.301,2.097 0.301,4.051 z M 283.352,11.477 c 0.296,0.75 0.671,1.421 0.972,2.023 0.301,0.523 0.977,1.125 1.653,1.801 0.75,0.676 1.347,1.125 1.875,1.426 0.449,0.296 1.199,0.75 2.097,1.347 0.227,0.074 0.449,0.301 0.528,0.301 0.296,0.074 0.75,0.449 1.421,0.898 0.676,0.454 1.204,0.676 1.579,0.903 0.296,0.222 0.75,0.523 1.347,0.972 0.528,0.454 0.903,0.75 1.199,1.125 0.227,0.301 0.528,0.75 0.75,1.352 0.227,0.602 0.301,0.977 0.301,1.574 0,1.801 -0.449,3.153 -1.426,4.051 -0.972,0.898 -2.25,1.352 -3.824,1.352 -1.199,0 -2.25,-0.227 -3.222,-0.75 -0.977,-0.454 -1.653,-1.125 -2.25,-1.875 -0.528,-0.75 -0.977,-1.579 -1.352,-2.25 -0.301,-0.676 -0.523,-1.352 -0.676,-1.875 -0.074,-0.227 -0.523,-0.301 -1.426,-0.301 -0.449,0 -0.75,0.074 -0.75,0.301 0,0.523 0.079,1.648 0.301,3.449 0.227,1.801 0.528,3.222 0.75,4.347 4.051,0.903 7.051,1.352 8.926,1.352 2.773,0 5.102,-0.898 7.273,-2.551 2.102,-1.648 3.153,-3.824 3.153,-6.375 0,-0.898 -0.074,-1.801 -0.301,-2.551 -0.227,-0.75 -0.523,-1.421 -0.898,-2.023 -0.301,-0.523 -0.75,-1.125 -1.426,-1.648 -0.676,-0.528 -1.199,-0.977 -1.574,-1.204 -0.301,-0.222 -0.977,-0.671 -1.875,-1.125 -0.903,-0.523 -1.426,-0.898 -1.653,-0.972 -0.074,-0.074 -0.676,-0.301 -1.347,-0.75 -0.75,-0.449 -1.204,-0.75 -1.426,-0.903 -0.227,-0.074 -0.528,-0.449 -1.199,-0.898 -0.528,-0.449 -0.977,-0.75 -1.204,-0.977 -0.222,-0.222 -0.449,-0.671 -0.75,-0.972 C 288.602,9.602 288.375,9.148 288.227,8.699 288.074,8.25 288,7.801 288,7.352 c 0,-1.426 0.449,-2.551 1.199,-3.375 0.75,-0.903 1.875,-1.204 3.449,-1.204 1.653,0 3.153,0.676 4.352,2.102 1.199,1.426 1.875,2.926 2.102,4.352 0.074,0.296 0.523,0.449 1.421,0.449 0.301,0 0.528,-0.074 0.528,-0.449 0,-2.778 -0.227,-5.25 -0.528,-7.5 -0.449,-0.079 -1.199,-0.301 -2.472,-0.528 -1.199,-0.301 -2.102,-0.523 -2.778,-0.523 -0.671,-0.074 -1.421,-0.074 -2.324,-0.074 -2.551,0 -4.801,0.75 -6.898,2.472 -2.028,1.653 -3,3.676 -3,6.153 -0.153,0.597 -0.074,1.421 0.301,2.25 m -24,-10.727 c -1.352,0 -2.477,0 -3.375,0 -0.903,0 -3,0 -6.454,-0.074 -0.074,0.074 -0.222,0.301 -0.222,0.898 0,0.602 0.074,0.75 0.222,0.75 0.301,0 0.977,0.074 1.875,0.449 0.903,0.227 1.352,0.528 1.426,0.75 0.227,0.75 0.301,2.102 0.301,4.051 v 18.153 c 0,2.324 -0.074,3.824 -0.301,4.421 -0.074,0.301 -0.523,0.528 -1.426,0.75 -0.75,0.227 -1.421,0.301 -1.875,0.301 -0.074,0 -0.074,0.227 -0.074,0.75 0,0.449 0,0.75 0.074,0.903 l 0.977,-0.079 c 0.676,0 1.574,-0.074 2.551,-0.074 1.125,0 2.023,-0.074 2.926,-0.074 0.972,0 3.375,0.074 6.898,0.301 0.074,-0.227 0.074,-0.449 0.074,-0.75 0,-0.528 -0.074,-0.75 -0.222,-0.75 -0.454,0 -1.125,-0.074 -2.102,-0.301 -0.977,-0.227 -1.574,-0.523 -1.648,-0.898 -0.227,-0.75 -0.301,-2.25 -0.301,-4.125 v -6.829 c 0,-0.523 0.222,-0.75 0.75,-0.75 0.523,0 0.972,0 1.125,0.079 0.222,0.074 0.523,0.222 0.75,0.523 0.222,0.227 0.523,0.676 0.972,1.125 0.301,0.523 0.75,0.977 0.977,1.426 0.301,0.449 0.75,1.125 1.352,2.023 0.523,0.903 1.125,1.653 1.574,2.25 0.676,1.125 1.347,2.028 2.023,2.699 0.676,0.676 1.426,1.426 2.477,2.25 0.972,0.75 2.097,1.352 3.449,1.653 1.352,0.301 2.773,0.523 4.426,0.523 0.523,0 1.125,0 1.426,-0.074 0.074,-0.227 0.222,-0.523 0.222,-0.898 0,-0.301 -0.074,-0.528 -0.222,-0.75 -1.125,0 -2.329,-0.454 -3.602,-1.426 -1.273,-0.977 -2.551,-2.102 -3.676,-3.602 -1.801,-2.25 -3.597,-5.023 -5.472,-8.25 -0.079,-0.222 -0.079,-0.301 0.222,-0.449 1.574,-0.676 3,-1.801 4.125,-3.375 1.125,-1.574 1.653,-3.227 1.653,-4.875 C 273.227,8.176 273,7.051 272.477,6 272.023,5.023 271.352,4.199 270.602,3.523 269.852,3 268.949,2.398 267.898,1.949 266.926,1.5 266.023,1.273 264.977,1.051 264.074,0.824 263.176,0.824 262.273,0.824 261.898,0.676 260.699,0.676 259.352,0.75 m 8.398,8.926 c 0,1.801 -0.449,3.222 -1.426,4.347 -0.972,1.125 -2.023,1.653 -3.222,1.653 h -1.204 c -0.972,0 -1.648,-0.074 -2.25,-0.301 -0.523,-0.227 -0.75,-0.676 -0.75,-1.426 V 8.398 c 0,-3.222 0.227,-4.875 0.528,-5.023 0.523,-0.227 1.426,-0.301 2.773,-0.301 3.602,0 5.551,2.25 5.551,6.602 m -45.449,-9 c -0.074,0.074 -0.227,0.449 -0.227,0.898 0,0.449 0.074,0.75 0.227,0.75 0.449,0 1.125,0.074 1.875,0.301 0.75,0.227 1.199,0.523 1.347,0.898 0.227,0.676 0.301,2.028 0.301,4.051 v 18.153 c 0,2.25 -0.074,3.671 -0.301,4.421 -0.074,0.301 -0.523,0.528 -1.421,0.75 -0.75,0.227 -1.426,0.301 -1.801,0.301 -0.074,0 -0.074,0.227 -0.074,0.75 0,0.449 0,0.676 0.074,0.75 l 6.449,-0.222 c 1.648,-0.079 4.426,0 8.625,0 4.051,0.074 6.676,0.074 8.023,0.074 0.079,-0.449 0.227,-1.125 0.454,-1.875 0.222,-0.75 0.449,-1.426 0.671,-2.028 0.227,-0.597 0.454,-1.347 0.903,-2.324 0.301,-0.972 0.523,-1.648 0.676,-2.023 C 247.875,24.074 247.426,24 246.75,24 c -0.449,0 -0.676,0.074 -0.676,0.301 -0.301,1.125 -0.898,2.097 -1.426,2.926 -0.671,0.898 -1.199,1.421 -1.796,1.648 -1.352,0.676 -3.227,0.977 -5.778,0.977 h -1.801 c -2.023,0 -3.148,-0.227 -3.375,-0.676 -0.296,-0.903 -0.449,-2.102 -0.449,-3.903 v -7.5 c 0,-0.222 1.125,-0.296 3.449,-0.296 2.551,0 4.051,0.074 4.426,0.296 0.227,0.079 0.301,0.227 0.449,0.301 0.079,0.074 0.079,0.227 0.301,0.676 0.227,0.449 0.301,1.125 0.528,1.875 0.074,0.227 0.296,0.301 0.75,0.301 0.449,0 0.75,-0.074 0.898,-0.227 v -9.148 c -0.074,-0.074 -0.449,-0.227 -0.898,-0.227 -0.454,0 -0.75,0.074 -0.75,0.301 -0.079,0.301 -0.227,0.75 -0.301,1.199 -0.227,0.977 -0.449,1.574 -0.75,1.653 -0.301,0.074 -1.426,0.222 -3.375,0.222 h -2.699 c -1.426,0 -2.102,-0.074 -2.102,-0.301 V 7.051 c 0,-1.653 0.074,-3 0.301,-3.903 0.074,-0.449 1.347,-0.671 3.676,-0.671 h 2.546 c 3,0 5.102,1.421 6.227,4.347 0.074,0.227 0.301,0.301 0.676,0.301 0.523,0 0.898,-0.074 0.972,-0.227 0,-0.074 -0.222,-1.125 -0.671,-2.773 -0.301,-1.648 -0.676,-3.148 -0.75,-4.051 -1.801,0 -4.579,0.074 -8.176,0.227 -3.602,0.074 -6.153,0.222 -7.5,0.222 -2.102,0.375 -4.199,0.227 -6.375,0.153 M 200.25,13.801 c -2.477,-6 -3.676,-9.227 -3.676,-9.903 0,-0.449 0.227,-0.75 0.676,-0.972 0.449,-0.227 0.898,-0.449 1.352,-0.528 0.449,-0.074 0.75,-0.074 0.972,-0.074 0.074,0 0.227,-0.222 0.227,-0.676 0,-0.449 0,-0.75 -0.074,-0.898 -4.051,0.227 -6.153,0.301 -6.602,0.301 -0.898,0 -2.102,0 -3.676,-0.074 -1.574,-0.079 -2.472,-0.079 -2.699,-0.079 -0.074,0.079 -0.074,0.454 -0.074,0.903 0,0.449 0.074,0.75 0.222,0.75 0.454,0 1.125,0.074 1.875,0.301 0.75,0.222 1.204,0.523 1.426,0.972 0.449,0.903 1.125,2.324 1.801,4.352 l 9.898,24.75 c 0.227,0.301 0.454,0.449 0.75,0.449 0.75,0 1.426,-0.523 1.875,-1.801 L 214.574,8.023 c 0.903,-2.097 1.574,-3.449 2.102,-4.273 0.301,-0.449 0.898,-0.75 1.648,-0.977 0.676,-0.222 1.199,-0.296 1.653,-0.296 0.074,0 0.074,-0.227 0.074,-0.75 0,-0.301 0,-0.528 -0.074,-0.75 -0.454,0 -1.204,0.074 -2.329,0.222 -1.125,0.074 -2.097,0.074 -2.921,0.074 -0.829,0 -1.801,0 -3,-0.074 -1.204,-0.074 -2.028,-0.074 -2.329,-0.074 -0.074,0.074 -0.074,0.449 -0.074,0.898 0,0.454 0,0.676 0.227,0.676 0.75,0 1.574,0.074 2.324,0.449 0.75,0.301 1.125,0.75 1.125,1.352 0,0.676 -0.301,1.801 -0.977,3.375 l -7.046,16.727 c 0,0.074 -0.227,-0.301 -0.676,-1.125 m -29.25,2.625 c 0,1.648 -0.074,3 -0.301,4.046 -0.074,0.227 -0.523,0.454 -1.352,0.75 -0.75,0.227 -1.421,0.301 -1.796,0.301 -0.079,0 -0.227,0.301 -0.227,0.903 0,0.296 0.074,0.523 0.227,0.671 0.523,0 1.199,-0.074 2.023,-0.074 0.898,0 1.648,-0.074 2.324,-0.074 0.676,0 1.352,0 2.028,0 0.222,0 2.25,0.074 6.148,0.301 0.074,-0.227 0.074,-0.449 0.074,-0.676 0,-0.523 -0.074,-0.898 -0.222,-0.898 -0.301,0 -0.903,-0.079 -1.653,-0.301 -0.75,-0.227 -1.199,-0.449 -1.347,-0.676 -0.301,-1.125 -0.454,-2.551 -0.454,-4.352 V 7.648 c 0,-1.796 0.079,-3.222 0.301,-4.273 0.074,-0.227 0.528,-0.449 1.426,-0.75 0.898,-0.227 1.426,-0.301 1.801,-0.301 0.074,0 0.222,-0.222 0.222,-0.75 0,-0.222 0,-0.449 -0.074,-0.75 -3.898,0.227 -5.926,0.301 -6.222,0.301 -0.903,0 -2.102,0 -3.829,-0.074 -1.648,-0.074 -2.546,-0.074 -2.699,-0.074 -0.074,0.074 -0.074,0.296 -0.074,0.898 0,0.449 0.074,0.75 0.227,0.75 0.296,0 0.972,0.074 1.796,0.301 0.75,0.222 1.204,0.449 1.352,0.75 0.227,0.75 0.301,2.097 0.301,4.051 z M 148.574,5.773 c -1.648,-2.25 -2.773,-4.046 -3.375,-5.097 -1.801,0.074 -3.375,0.222 -4.347,0.222 -0.454,0 -2.329,-0.074 -5.778,-0.222 -0.074,0.074 -0.222,0.449 -0.222,0.898 0,0.449 0.074,0.75 0.222,0.75 0.449,0 1.125,0.074 2.102,0.301 0.972,0.227 1.574,0.449 1.648,0.676 0.301,0.676 0.528,1.801 0.528,3.597 v 18.977 c 0,2.023 -0.079,3.375 -0.454,4.051 -0.222,0.449 -0.898,0.898 -1.796,1.125 -0.903,0.222 -1.653,0.301 -2.25,0.301 -0.079,0 -0.227,0.222 -0.227,0.75 0,0.449 0.074,0.671 0.227,0.75 0.449,0 1.199,-0.079 2.546,-0.227 1.204,-0.074 2.329,-0.074 3.227,-0.074 0.074,0 2.25,0.074 6,0.301 0.074,-0.079 0.074,-0.454 0.074,-0.903 0,-0.449 -0.074,-0.676 -0.222,-0.676 -0.454,0 -1.125,-0.074 -2.25,-0.449 -0.977,-0.222 -1.653,-0.523 -1.801,-0.972 -0.227,-0.676 -0.301,-2.028 -0.301,-4.051 V 6.148 l 19.273,25.579 c 0.528,0.75 0.977,1.125 1.579,1.125 0.597,0 0.898,-0.079 1.125,-0.227 -0.079,-3.375 -0.227,-5.551 -0.227,-6.824 V 7.5 c 0,-1.801 0.227,-3.148 0.523,-4.051 0.301,-0.449 0.903,-0.75 1.801,-0.972 0.903,-0.227 1.653,-0.301 2.102,-0.301 0.074,0 0.222,-0.227 0.222,-0.75 0,-0.301 0,-0.676 -0.074,-0.75 -0.301,0 -1.125,0.074 -2.472,0.222 -1.352,0.079 -2.477,0.227 -3.227,0.227 -0.676,0 -2.699,-0.074 -6.148,-0.301 -0.079,0.074 -0.079,0.449 -0.079,0.903 0,0.449 0.079,0.671 0.227,0.671 0.523,0 1.199,0.079 2.102,0.301 0.898,0.227 1.421,0.528 1.648,0.903 0.301,0.898 0.449,2.097 0.449,3.898 v 13.199 c 0,0.903 0,1.574 -0.074,2.028 M 99.375,0.523 c -0.074,0.079 -0.074,0.454 -0.074,0.903 0,0.449 0.074,0.75 0.222,0.75 0.301,0 0.977,0.074 1.801,0.301 0.75,0.222 1.199,0.449 1.352,0.75 0.222,0.671 0.301,2.023 0.301,4.046 v 10.579 c 0,5.25 1.125,8.921 3.375,11.25 2.25,2.324 5.25,3.449 9.148,3.449 1.801,0 3.449,-0.227 4.875,-0.75 1.426,-0.449 2.699,-1.199 3.898,-2.324 1.125,-0.977 2.028,-2.477 2.551,-4.352 0.528,-1.801 0.903,-4.051 0.903,-6.449 V 7.426 c 0,-1.875 0.222,-3.227 0.523,-4.051 0.301,-0.449 0.898,-0.75 1.801,-0.977 0.898,-0.222 1.648,-0.296 2.097,-0.296 0.079,0 0.227,-0.227 0.227,-0.75 0,-0.301 0,-0.528 -0.074,-0.75 -0.301,0 -1.125,0.074 -2.477,0.222 -1.347,0.074 -2.472,0.227 -3.222,0.227 -0.528,0 -2.551,-0.074 -6.153,-0.301 -0.074,0.074 -0.074,0.449 -0.074,0.898 0,0.454 0.074,0.676 0.227,0.676 0.449,0 1.125,0.074 2.023,0.449 0.977,0.227 1.574,0.528 1.648,0.903 0.301,0.523 0.454,1.875 0.454,3.898 v 11.625 c 0,3.824 -0.75,6.449 -2.25,8.176 -1.426,1.648 -3.454,2.477 -6,2.477 -2.551,0 -4.579,-0.977 -6,-3 -1.426,-2.028 -2.102,-4.653 -2.102,-7.954 V 7.727 c 0,-1.875 0.074,-3.375 0.301,-4.278 0,-0.222 0.449,-0.523 1.347,-0.75 0.903,-0.222 1.426,-0.301 1.801,-0.301 0.074,0 0.227,-0.222 0.227,-0.75 0,-0.222 0,-0.523 -0.074,-0.75 -3.602,0.227 -5.551,0.301 -6.227,0.301 C 105.676,0.898 103.5,0.75 99.375,0.523"
       style="fill:#000000;fill-opacity:1;fill-rule:nonzero;stroke:none"
       transform="scale(1.3333333)" /><path
       id="path3"
       d="M 73.273,19.5 V 0.074 H 0.074 v 19.278 c 0,6.222 0,9.375 0.227,16.722 C 3,67.727 23.625,83.398 36.75,90.148 49.801,83.324 70.574,67.648 73.199,36.074 73.273,28.875 73.273,25.727 73.273,19.5"
       style="fill:#ffffff;fill-opacity:1;fill-rule:nonzero;stroke:none"
       transform="scale(1.3333333)" /><path
       id="path4"
       d="M 70.273,36 C 70.5,28.875 70.5,25.727 70.5,19.949 V 2.852 H 2.773 v 17.097 c 0,5.926 0,9 0.227,16.051 C 5.477,65.551 24.75,80.398 36.602,86.773 48.523,80.398 67.801,65.551 70.273,36"
       style="fill:#efdd90;fill-opacity:1;fill-rule:nonzero;stroke:none"
       transform="scale(1.3333333)" /><path
       id="path5"
       d="M 72.074,36.148 C 69.375,67.125 48.977,82.648 36.75,89.102 24.449,82.5 3.977,67.125 1.426,36.148 1.125,28.801 1.125,25.574 1.199,19.5 V 1.199 H 72.375 V 19.5 c -0.074,6 -0.074,9.227 -0.301,16.648 M 73.273,19.5 V 0.074 H 0 V 19.352 C 0,25.574 0,28.727 0.227,36.074 2.926,67.727 23.551,83.398 36.676,90.148 49.727,83.324 70.5,67.648 73.125,36.074 73.273,28.875 73.273,25.727 73.273,19.5"
       style="fill:#000000;fill-opacity:1;fill-rule:nonzero;stroke:none"
       transform="scale(1.3333333)" /><path
       id="path6"
       d="m 25.352,65.023 c -0.75,-0.074 -0.977,-0.972 -1.204,-1.574 -0.296,-0.75 -1.347,-0.898 -2.324,-0.301 0.449,-1.125 1.801,-1.574 2.699,-1.125 1.579,0.528 0.903,1.653 2.25,1.875 -0.296,-0.75 0.301,-1.347 0.676,-1.796 0.528,-0.676 0.074,-1.579 -0.898,-2.102 1.125,-0.074 2.25,0.75 2.324,1.801 0.227,1.574 -0.977,1.574 -0.523,2.926 0.449,-0.676 1.347,-0.454 1.875,-0.301 0.75,0.074 1.421,-0.676 1.421,-1.875 0.676,0.898 0.454,2.324 -0.296,2.926 -1.204,0.972 -1.875,-0.079 -2.778,0.972 0.75,0.074 0.977,0.977 1.199,1.574 0.301,0.75 1.352,0.903 2.329,0.301 -0.454,1.125 -1.801,1.574 -2.704,1.125 -1.574,-0.523 -0.898,-1.648 -2.25,-1.875 0.301,0.75 -0.296,1.352 -0.671,1.801 -0.528,0.676 -0.079,1.574 0.898,2.102 -1.125,0.074 -2.25,-0.75 -2.324,-1.801 -0.227,-1.653 0.972,-1.574 0.523,-2.926 -0.449,0.676 -1.347,0.449 -1.875,0.301 -0.75,-0.074 -1.426,0.676 -1.426,1.875 -0.671,-0.903 -0.449,-2.324 0.301,-2.926 1.278,-1.125 1.949,0 2.778,-0.977 m 9.597,11.551 C 34.199,76.5 33.977,75.602 33.75,75 c -0.301,-0.75 -1.352,-0.898 -2.324,-0.301 0.449,-1.125 1.801,-1.574 2.699,-1.125 1.574,0.528 0.898,1.653 2.25,1.875 -0.301,-0.75 0.301,-1.347 0.676,-1.801 0.523,-0.671 0.074,-1.574 -0.903,-2.097 1.125,-0.074 2.25,0.75 2.329,1.801 0.222,1.574 -0.977,1.574 -0.528,2.921 0.449,-0.671 1.352,-0.449 1.875,-0.296 0.75,0.074 1.426,-0.676 1.426,-1.875 0.676,0.898 0.449,2.324 -0.301,2.921 C 39.75,78 39.074,76.949 38.176,78 c 0.75,0.074 0.972,0.977 1.199,1.574 0.301,0.75 1.352,0.903 2.324,0.301 C 41.25,81 39.898,81.449 39,81 c -1.574,-0.523 -0.898,-1.648 -2.25,-1.875 0.301,0.75 -0.301,1.352 -0.676,1.801 -0.523,0.676 -0.074,1.574 0.903,2.097 -1.125,0.079 -2.25,-0.75 -2.329,-1.796 -0.222,-1.579 0.977,-1.579 0.528,-2.926 -0.449,0.676 -1.352,0.449 -1.875,0.301 -0.75,-0.079 -1.426,0.671 -1.426,1.875 -0.676,-0.903 -0.449,-2.329 0.301,-2.926 1.273,-0.977 1.949,0.148 2.773,-0.977 M 41.25,68.926 C 40.574,68.023 40.801,66.602 41.551,66 c 1.199,-0.977 1.875,0.074 2.773,-0.977 -0.75,-0.074 -0.972,-0.972 -1.199,-1.574 -0.301,-0.75 -1.352,-0.898 -2.324,-0.301 0.449,-1.125 1.801,-1.574 2.699,-1.125 1.574,0.528 0.898,1.653 2.25,1.875 -0.301,-0.75 0.301,-1.347 0.676,-1.796 0.523,-0.676 0.074,-1.579 -0.903,-2.102 1.125,-0.074 2.25,0.75 2.329,1.801 0.222,1.574 -0.977,1.574 -0.528,2.926 0.449,-0.676 1.352,-0.454 1.875,-0.301 0.75,0.074 1.426,-0.676 1.426,-1.875 0.676,0.898 0.449,2.324 -0.301,2.926 -1.199,0.972 -1.875,-0.079 -2.773,0.972 0.75,0.074 0.972,0.977 1.199,1.574 0.301,0.75 1.352,0.903 2.324,0.301 -0.449,1.125 -1.801,1.574 -2.699,1.125 -1.574,-0.523 -0.898,-1.648 -2.25,-1.875 0.301,0.75 -0.301,1.352 -0.676,1.801 -0.449,0.676 -0.074,1.574 0.903,2.102 -1.125,0.074 -2.25,-0.75 -2.329,-1.801 -0.222,-1.574 0.977,-1.574 0.528,-2.926 -0.449,0.676 -1.352,0.449 -1.875,0.301 -0.75,-0.153 -1.426,0.597 -1.426,1.875 M 10.051,60.75 C 17.398,74.477 28.648,82.5 36.602,86.773 39.824,84.977 43.5,82.727 47.324,79.727 53.023,75.148 58.801,69 63.148,60.75 59.699,61.199 55.199,60.676 51.75,59.176 44.852,56.25 40.352,56.398 36.449,59.398 32.551,56.398 28.051,56.25 21.148,59.176 17.852,60.523 13.5,61.125 10.051,60.75"
       style="fill:#005dac;fill-opacity:1;fill-rule:nonzero;stroke:none"
       transform="scale(1.3333333)" /><path
       id="path7"
       d="m 54.676,11.324 c 0.75,0.074 0.972,0.977 1.199,1.574 0.301,0.75 1.352,0.903 2.324,0.301 -0.449,1.125 -1.801,1.574 -2.699,1.125 -1.574,-0.523 -0.898,-1.648 -2.25,-1.875 0.301,0.75 -0.301,1.352 -0.676,1.801 -0.523,0.676 -0.074,1.574 0.903,2.102 -1.125,0.074 -2.25,-0.75 -2.329,-1.801 -0.222,-1.574 0.977,-1.574 0.528,-2.926 -0.449,0.676 -1.352,0.449 -1.875,0.301 -0.75,-0.074 -1.426,0.676 -1.426,1.875 -0.676,-0.903 -0.449,-2.324 0.301,-2.926 1.199,-0.977 1.875,0.074 2.773,-0.977 C 50.699,9.824 50.477,8.926 50.25,8.324 49.949,7.574 48.898,7.426 47.926,8.023 c 0.449,-1.125 1.801,-1.574 2.699,-1.125 1.574,0.528 0.898,1.653 2.25,1.875 -0.301,-0.75 0.301,-1.347 0.676,-1.796 0.523,-0.676 0.074,-1.579 -0.903,-2.102 1.125,-0.074 2.25,0.75 2.329,1.801 C 55.199,8.25 54,8.25 54.449,9.602 c 0.449,-0.676 1.352,-0.454 1.875,-0.301 0.75,0.074 1.426,-0.676 1.426,-1.875 0.676,0.898 0.449,2.324 -0.301,2.926 -1.347,0.972 -2.023,-0.153 -2.773,0.972 m -16.278,0 c 0.75,0.074 0.977,0.977 1.204,1.574 0.296,0.75 1.347,0.903 2.324,0.301 -0.449,1.125 -1.801,1.574 -2.699,1.125 -1.579,-0.523 -0.903,-1.648 -2.25,-1.875 0.296,0.75 -0.301,1.352 -0.676,1.801 -0.528,0.676 -0.074,1.574 0.898,2.102 -1.125,0.074 -2.25,-0.75 -2.324,-1.801 -0.227,-1.574 0.977,-1.574 0.523,-2.926 -0.449,0.676 -1.347,0.449 -1.875,0.301 -0.75,-0.074 -1.421,0.676 -1.421,1.875 -0.676,-0.903 -0.454,-2.324 0.296,-2.926 1.204,-0.977 1.875,0.074 2.778,-0.977 -0.75,-0.074 -0.977,-0.972 -1.199,-1.574 -0.301,-0.75 -1.352,-0.898 -2.329,-0.301 0.454,-1.125 1.801,-1.574 2.704,-1.125 1.574,0.528 0.898,1.653 2.25,1.875 -0.301,-0.75 0.296,-1.347 0.671,-1.796 0.528,-0.676 0.079,-1.579 -0.898,-2.102 1.125,-0.074 2.25,0.75 2.324,1.801 0.227,1.574 -0.972,1.574 -0.523,2.926 0.449,-0.676 1.347,-0.454 1.875,-0.301 0.75,0.074 1.426,-0.676 1.426,-1.875 0.671,0.898 0.449,2.324 -0.301,2.926 -1.352,0.972 -1.875,-0.153 -2.778,0.972 m -15.671,0 c 0.75,0.074 0.972,0.977 1.199,1.574 0.301,0.75 1.347,0.903 2.324,0.301 -0.449,1.125 -1.801,1.574 -2.699,1.125 -1.574,-0.523 -0.903,-1.648 -2.25,-1.875 0.301,0.75 -0.301,1.352 -0.676,1.801 -0.523,0.676 -0.074,1.574 0.898,2.102 -1.125,0.074 -2.25,-0.75 -2.324,-1.801 -0.222,-1.574 0.977,-1.574 0.528,-2.926 -0.454,0.676 -1.352,0.449 -1.875,0.301 -0.75,-0.074 -1.426,0.676 -1.426,1.875 C 15.75,12.898 15.977,11.477 16.727,10.875 17.926,9.898 18.602,10.949 19.5,9.898 18.75,9.824 18.523,8.926 18.301,8.324 18,7.574 16.949,7.426 15.977,8.023 c 0.449,-1.125 1.796,-1.574 2.699,-1.125 1.574,0.528 0.898,1.653 2.25,1.875 -0.301,-0.75 0.301,-1.347 0.676,-1.796 0.523,-0.676 0.074,-1.579 -0.903,-2.102 1.125,-0.074 2.25,0.75 2.324,1.801 0.227,1.574 -0.972,1.574 -0.523,2.926 0.449,-0.676 1.352,-0.454 1.875,-0.301 0.75,0.074 1.426,-0.676 1.426,-1.875 0.676,0.898 0.449,2.324 -0.301,2.926 -1.273,0.972 -1.949,-0.153 -2.773,0.972 m 38.546,11.324 c 4.875,0 9.227,-3.148 9.227,-3.148 v -6.898 c -0.074,-0.079 -0.301,-0.079 -0.523,-0.227 0.296,0.75 -0.301,1.352 -0.676,1.801 -0.449,0.676 -0.074,1.574 0.898,2.097 -1.125,0.079 -2.25,-0.75 -2.324,-1.796 -0.227,-1.579 0.977,-1.579 0.523,-2.926 -0.449,0.676 -1.347,0.449 -1.875,0.301 -0.75,-0.079 -1.421,0.671 -1.421,1.875 -0.676,-0.903 -0.454,-2.329 0.296,-2.926 1.204,-0.977 1.875,0.074 2.778,-0.977 C 67.426,9.75 67.199,8.852 66.977,8.25 66.676,7.5 65.625,7.352 64.648,7.949 c 0.454,-1.125 1.801,-1.574 2.704,-1.125 1.574,0.528 0.898,1.653 2.25,1.875 -0.301,-0.75 0.296,-1.347 0.671,-1.801 0.528,-0.671 0.079,-1.574 -0.898,-2.097 0.449,-0.074 0.898,0.074 1.352,0.301 V 2.852 H 2.773 V 8.625 C 3,8.699 3.074,8.852 3.301,8.852 3,8.102 3.602,7.5 3.977,7.051 4.5,6.375 4.051,5.477 3.074,4.949 4.199,4.875 5.324,5.699 5.398,6.75 5.699,8.324 4.426,8.324 4.949,9.523 5.398,8.852 6.301,9.074 6.824,9.227 7.574,9.301 8.25,8.551 8.25,7.352 8.926,8.25 8.699,9.676 7.949,10.273 c -1.347,1.125 -1.875,0 -2.773,1.125 0.75,0.079 0.972,0.977 1.199,1.579 0.301,0.75 1.352,0.898 2.324,0.296 C 8.25,14.398 6.898,14.852 6,14.398 4.426,13.875 5.102,12.75 3.75,12.523 4.051,13.273 3.449,13.875 3.074,14.324 2.551,15 3,15.898 3.977,16.426 3.523,16.5 3.074,16.426 2.773,16.199 v 3.375 c 0,0 4.352,3.153 9.227,3.153 9.375,0 10.574,-4.426 18.375,-4.426 3.375,0 6.148,2.551 6.148,2.551 0,0 2.926,-2.551 6.153,-2.551 7.949,-0.153 9.222,4.347 18.597,4.347"
       style="fill:#005dac;fill-opacity:1;fill-rule:nonzero;stroke:none"
       transform="scale(1.3333333)" /><path
       id="path8"
       d="M 12.074,39.602 C 13.199,38.625 14.398,37.5 14.398,37.5 l -1.421,-1.199 c -0.079,-0.074 -0.079,-0.227 -0.079,-0.449 0,-0.079 0.079,-0.227 0.301,-0.227 H 15 c 0.074,-0.301 0.523,-0.676 0.898,-0.676 0.454,0 0.75,0.227 0.903,0.676 h 1.875 c 0.074,0 0.222,0.074 0.301,0.227 0,0.074 0,0.296 -0.079,0.449 L 17.551,37.5 c 0.074,0.074 1.199,1.125 2.324,2.102 0.227,0.074 2.023,1.421 1.125,3 -0.449,0.75 -1.125,0.671 -1.125,0.671 0,0 -0.227,1.204 -1.426,1.426 -0.523,0.074 -0.898,-0.222 -0.898,-0.222 0,0 -0.227,0.449 -0.75,0.671 -0.227,0.079 -0.449,0.079 -0.75,0.079 -1.125,0 -1.574,-0.903 -1.574,-0.903 0,0 -0.454,0.449 -0.977,0.301 -1.199,-0.227 -1.426,-1.426 -1.426,-1.426 0,0 -0.676,0 -1.125,-0.676 -0.898,-1.421 0.903,-2.699 1.125,-2.921 m 20.625,0 C 33.824,38.625 35.023,37.5 35.023,37.5 l -1.421,-1.199 c -0.079,-0.074 -0.079,-0.227 -0.079,-0.449 0,-0.079 0.079,-0.227 0.301,-0.227 h 1.801 c 0.074,-0.301 0.523,-0.676 0.898,-0.676 0.454,0 0.75,0.227 0.903,0.676 h 1.875 c 0.074,0 0.222,0.074 0.301,0.227 0,0.074 0,0.296 -0.079,0.449 L 38.176,37.5 c 0.074,0.074 1.199,1.125 2.324,2.102 0.227,0.074 2.023,1.421 1.125,3 -0.449,0.75 -1.125,0.671 -1.125,0.671 0,0 -0.227,1.125 -1.426,1.426 -0.523,0.074 -0.898,-0.222 -0.898,-0.222 0,0 -0.227,0.449 -0.75,0.671 -0.227,0.079 -0.449,0.079 -0.75,0.079 -1.125,0 -1.574,-0.903 -1.574,-0.903 0,0 -0.301,0.301 -0.903,0.227 -1.199,-0.227 -1.426,-1.426 -1.426,-1.426 0,0 -0.671,0 -1.125,-0.676 -0.972,-1.347 0.903,-2.625 1.051,-2.847 m 20.699,0 C 54.523,38.625 55.727,37.5 55.727,37.5 l -1.426,-1.199 c -0.074,-0.074 -0.074,-0.227 -0.074,-0.449 0,-0.079 0.074,-0.227 0.296,-0.227 h 1.801 c 0.074,-0.301 0.528,-0.676 0.903,-0.676 0.449,0 0.75,0.227 0.898,0.676 H 60 c 0.074,0 0.227,0.074 0.301,0.227 0.074,0.148 0,0.296 -0.074,0.449 L 58.875,37.5 c 0.074,0.074 1.199,1.125 2.324,2.102 0.227,0.074 2.028,1.421 1.125,3 -0.449,0.75 -1.125,0.671 -1.125,0.671 0,0 -0.222,1.204 -1.426,1.426 -0.523,0.074 -0.898,-0.222 -0.898,-0.222 0,0 -0.227,0.449 -0.75,0.671 -0.227,0.079 -0.449,0.079 -0.75,0.079 -1.125,0 -1.574,-0.903 -1.574,-0.903 0,0 -0.301,0.301 -0.903,0.227 -1.199,-0.227 -1.421,-1.426 -1.421,-1.426 0,0 -0.676,0 -1.125,-0.676 -0.903,-1.347 0.824,-2.625 1.046,-2.847 M 2.773,30 c 0,1.801 0.079,3.676 0.079,6.148 0.449,4.875 1.347,9.454 2.546,13.579 2.102,0.898 4.653,1.421 6.903,1.421 3,0 6,-0.75 8.847,-2.25 5.704,-3.148 9.829,-3.148 15.079,0 l 0.222,0.079 0.227,-0.079 c 5.25,-3 9.375,-3 15.074,0 2.773,1.426 5.773,2.25 8.852,2.25 2.472,0 4.796,-0.523 7.046,-1.421 1.204,-4.125 2.102,-8.625 2.551,-13.5 C 70.273,33.75 70.273,31.801 70.273,30 64.352,33 58.648,33.227 52.426,30.898 46.5,28.801 41.477,28.199 36.375,32.551 31.273,28.199 26.25,28.727 20.324,30.898 14.25,33 8.699,32.773 2.773,30"
       style="fill:#d93426;fill-opacity:1;fill-rule:nonzero;stroke:none"
       transform="scale(1.3333333)" /></g></svg>
