<svg class="logo--full" version="1.1" xmlns="http://www.w3.org/2000/svg" xmlns:xlink="http://www.w3.org/1999/xlink" x="0px" y="0px" viewBox="0 0 176 66" style="enable-background:new 0 0 176 66;" xml:space="preserve">
<style type="text/css">
	.logo-english--st0{fill:#164194;}
</style>
<path class="logo-english--st0" d="M39.2,64.5c0.3-0.7,1.9-5,2.4-11.4c0,0,0-1,0-1.9c-0.1-1.1-0.1-3-1-5c-1.4-3.1-3.9-5.7-8.7-9.6l-3.8-3.1
	c-8.9-7.3-10.9-12.6-10.9-18.3c0-9,6.8-15.2,17.4-15.2c3.3,0,5.7,0.3,7.8,0.9c1.6,0.3,2.3,0.4,3,0.4c0.7,0,0.9,0.2,0.9,0.6
	s-0.3,3.2-0.3,8.9c0,1.4-0.2,1.9-0.6,1.9c-0.5,0-0.6-0.4-0.7-1.1c-0.1-1-0.6-3.3-1.1-4.2S40.7,3,33,3c-5.8,0-10.4,3.6-10.4,9.8
	c0,4.8,2.2,7.8,10.3,14.2l2.4,1.9c9.9,7.8,12.3,13.1,12.3,19.8c0,3.5-2.5,11.8-8.3,16C39.2,64.5,39.1,64.5,39.2,64.5"></path>
<path class="logo-english--st0" d="M21.1,63.7L21.1,63.7c-1.2,1.6-4.8,2.3-6.9,2.3c-1.8,0-5-0.1-7.5-2.3c-1.7-1.6-3-4.1-3-9v-5
	c0-5.2,0-6.1-0.1-7.2c-0.1-1.2-0.3-1.7-1.5-1.9c-0.3-0.1-0.9-0.1-1.3-0.1c-0.4,0-0.6-0.1-0.6-0.3c0-0.2,0.2-0.3,0.7-0.3
	c1.8,0,3.9,0.1,5,0.1c0.8,0,3-0.1,4.2-0.1c0.5,0,0.7,0.1,0.7,0.3c0,0.2-0.2,0.3-0.5,0.3c-0.4,0-0.6,0-1,0.1C8.3,40.7,8,41.3,8,42.5
	c-0.1,1.1-0.1,2-0.1,7.2v4.7c0,4.9,1,7,2.6,8.3c1.4,1.2,2.6,1.4,3.7,1.7C16.3,65,19.6,64.9,21.1,63.7C21,63.7,21.1,63.7,21.1,63.7"></path>
<path class="logo-english--st0" d="M20.5,48c0-4.3,0-5,0-5.9c0-1-0.3-1.4-1-1.6c-0.3-0.1-0.7-0.1-1-0.1c-0.3,0-0.5,0-0.5-0.3
	c0-0.2,0.2-0.2,0.7-0.2c1,0,2.8,0.1,3.6,0.1c0.7,0,2.4-0.1,3.4-0.1c0.3,0,0.6,0,0.6,0.2c0,0.2-0.2,0.3-0.5,0.3c-0.3,0-0.5,0-0.9,0.1
	c-0.8,0.2-1,0.6-1,1.6c-0.1,0.9-0.1,1.7-0.1,5.9v4.9c0,2.7,0,3.5,0.1,4.7c0.1,0.8,0.3,1.3,1.1,1.4c0.4,0,1,0.1,1.4,0.1
	c0.3,0,0.5,0.1,0.5,0.2c0,0.2-0.2,0.3-0.5,0.3c-1.9,0-3.6-0.1-4.4-0.1c-0.7,0-2.4,0.1-3.5,0.1c-0.3,0-0.6-0.1-0.6-0.3
	c0-0.2,0.1-0.2,0.5-0.2c0.4,0,0.8,0,1-0.1c0.5-0.1,0.7-0.6,0.8-1.4c0.2-1.2,0.2-2,0.2-4.7L20.5,48"></path>
<g>
	<g>
		<path class="logo-english--st0" d="M72.2,26c0,1.4-0.1,2.6-1,3.7c-0.9,1.1-2.3,1.5-3.7,1.5c-1.4,0-2.8-0.3-3.7-1.3c-1-1.1-1.1-2.5-1.1-4v-8.7
			h1.7V26c0,0.8,0,1.9,0.5,2.7c0.6,0.8,1.7,1,2.7,1c0.9,0,1.9-0.3,2.5-1c0.7-0.8,0.7-1.8,0.7-2.8v-8.7h1.4V26z"></path>
		<path class="logo-english--st0" d="M77.4,22.7L77.4,22.7c0.6-1.3,1.8-2.2,3.2-2.2c1.2,0,2.3,0.5,2.9,1.6c0.5,0.9,0.5,2.3,0.5,3.3v5.7h-1.6v-6.3
			c0-0.6,0-1.4-0.3-1.9c-0.3-0.6-1.1-0.9-1.7-0.9c-0.8,0-1.6,0.4-2.1,1c-0.7,0.8-0.8,1.7-0.8,2.8V31H76V20.8h1.5L77.4,22.7
			L77.4,22.7z"></path>
		<path class="logo-english--st0" d="M87.8,20.8h1.6V31h-1.6V20.8z M87.7,17.2h1.7V19h-1.7V17.2z"></path>
		<polygon class="logo-english--st0" points="97,31 95.3,31 91.7,20.8 93.5,20.8 96.3,29.1 99.1,20.8 100.5,20.8 		"></polygon>
		<path class="logo-english--st0" d="M109.5,24.9c0-1.7-0.9-3.1-2.7-3.1c-1.7,0-2.8,1.5-2.9,3.1H109.5z M111,28.2c-0.6,1.9-2.4,3-4.3,3
			c-3.1,0-4.7-2.4-4.7-5.3c0-2.8,1.7-5.4,4.7-5.4c3.2,0,4.5,2.7,4.5,5.5h-7.4c0,0.8,0,1.6,0.4,2.3c0.5,1,1.6,1.6,2.6,1.6
			c1.3,0,2.3-0.8,2.8-2L111,28.2z"></path>
		<path class="logo-english--st0" d="M115.7,20.8v2.4h0c0.5-1.4,1.4-2.7,3-2.7l0.6,0v1.5H119c-1.2,0-2.1,0.6-2.6,1.6c-0.4,0.7-0.5,1.4-0.5,2.2v5.2
			h-1.6V20.8L115.7,20.8L115.7,20.8z"></path>
		<path class="logo-english--st0" d="M122.7,28c0.2,1.4,1.9,1.9,3.1,1.9c1.1,0,2.5-0.4,2.5-1.7c0-1.1-1.1-1.4-2-1.6l-1.7-0.3c-1.6-0.3-3-1-3-2.8
			c0-2.1,1.9-3,3.8-3c1.8,0,3.5,0.7,4,2.6l-1.4,0.3c-0.4-1.1-1.4-1.6-2.6-1.6c-0.9,0-2.2,0.3-2.2,1.5c0,1.1,0.9,1.4,1.8,1.5l1.5,0.3
			c0.7,0.2,1.5,0.3,2.1,0.7c0.8,0.5,1.2,1.4,1.2,2.3c0,2.3-2.3,3.1-4.2,3.1s-4-0.8-4.5-2.9L122.7,28z"></path>
		<path class="logo-english--st0" d="M133.1,20.8h1.6V31h-1.6V20.8z M133,17.2h1.7V19H133V17.2z"></path>
		<path class="logo-english--st0" d="M143.2,31.1l-1.5,0.1c-2.3,0-2.9-1.3-2.9-3.3V22H137v-1.2h1.8v-2.5l1.6-0.2v2.7h2.3v1.2h-2.3v6.2
			c0,1.2,0.3,1.8,1.6,1.8l1.2-0.1L143.2,31.1L143.2,31.1z"></path>
	</g>
	<path class="logo-english--st0" d="M142.7,20.7"></path>
	<path class="logo-english--st0" d="M149.2,32c-0.3,0.7-0.5,1.3-1,1.9c-0.6,0.7-1.6,0.8-2.4,0.8c-0.4,0-0.4-0.1-0.8-0.2v-1.2
		c0.3,0.1,0.7,0.2,1,0.2c1.6,0,1.9-1.3,2.3-2.5l-3.5-10h1.6l2.7,7.6l2.8-7.6h1.3L149.2,32z"></path>
	<path class="logo-english--st0" d="M67,41.6c3,0,4.5,2.6,4.5,5.3c0,2.8-1.6,5.4-4.7,5.4c-3,0-4.4-2.7-4.4-5.4C62.4,44.1,64,41.6,67,41.6z
		 M64.7,49.7c0.4,0.8,1.3,1.3,2.2,1.3c1,0,1.9-0.5,2.3-1.5c0.4-0.8,0.5-1.7,0.5-2.6c0-1-0.1-2-0.6-2.8c-0.5-0.7-1.3-1.2-2.2-1.2
		c-1,0-1.9,0.5-2.3,1.4c-0.4,0.7-0.5,1.7-0.5,2.6C64.1,47.8,64.2,48.9,64.7,49.7z"></path>
	<path class="logo-english--st0" d="M79,43.1h-2.4v8.9H75v-8.9h-1.8v-1.2H75c-0.1-2,0.6-3.8,2.7-3.8c0.4,0,1.1,0,1.8,0.2v1.2
		c-0.4-0.1-0.9-0.2-1.3-0.2c-1.7,0-1.7,1.2-1.7,2.5H79L79,43.1L79,43.1z"></path>
	<path class="logo-english--st0" d="M85.9,47.9c0.5,1.9,2.1,2.8,4.1,2.8c0.8,0,1.8-0.2,2.4-0.7c0.5-0.4,0.9-1.1,0.9-1.7c0-1.4-1.1-1.9-2.3-2.3
		l-2.3-0.5c-0.9-0.2-1.7-0.4-2.5-1.1c-0.7-0.7-1.1-1.6-1.1-2.6c0-2.6,2.3-3.8,4.7-3.8c2.3,0,4.2,1.1,4.9,3.4L93,41.9
		c-0.3-1.5-1.9-2.4-3.4-2.4c-1.3,0-3,0.7-3,2.2c0,1.6,1.2,1.9,2.5,2.2l2.1,0.5c0.9,0.2,1.8,0.5,2.5,1c0.9,0.7,1.3,1.6,1.3,2.7
		c0,1.2-0.5,2.4-1.6,3.1c-1,0.8-2.3,1-3.6,1c-2.8,0-4.7-1.2-5.6-3.9L85.9,47.9z"></path>
	<path class="logo-english--st0" d="M102.8,52.1l-1.5,0.1c-2.2,0-2.9-1.3-2.9-3.3v-5.9h-1.8v-1.2h1.8v-2.5L100,39v2.7h2.3v1.2H100v6.1
		c0,1.2,0.3,1.8,1.6,1.8l1.2-0.1L102.8,52.1L102.8,52.1z"></path>
	<path class="logo-english--st0" d="M111.6,45.7v-0.4c0-1.8-0.8-2.4-2.6-2.4c-1.3,0-2.5,0.4-2.8,1.8l-1.5-0.2c0.3-2.1,2.5-2.8,4.4-2.8
		c1.1,0,2.4,0.1,3.1,1c0.9,0.9,0.9,2.2,0.9,3.3v4c0,0.7,0,1.5,0.2,2.1h-1.6l-0.2-1.9c-0.7,1.5-1.9,2.1-3.6,2.1c-1.9,0-3.5-1-3.5-3.1
		c0-1.2,0.8-2.3,1.9-2.8c1.1-0.5,2.6-0.6,3.9-0.6L111.6,45.7L111.6,45.7z M111.6,46.9h-1.3c-1.6,0-4.1,0.2-4.1,2.3
		c0,1.3,1.1,1.8,2.2,1.8c1.9,0,3.2-1.6,3.2-3.5V46.9z"></path>
	<path class="logo-english--st0" d="M120,52h-1.6l-3.6-10.2h1.7l2.8,8.3l2.8-8.3h1.4L120,52z"></path>
	<path class="logo-english--st0" d="M132.1,45.7v-0.4c0-1.8-0.8-2.4-2.6-2.4c-1.3,0-2.5,0.4-2.8,1.8l-1.5-0.2c0.3-2.1,2.5-2.8,4.4-2.8
		c1.1,0,2.4,0.1,3.1,1c0.9,0.9,0.9,2.2,0.9,3.3v4c0,0.7,0,1.5,0.2,2.1h-1.6l-0.2-1.9c-0.7,1.5-1.9,2.1-3.6,2.1c-1.9,0-3.5-1-3.5-3.1
		c0-1.2,0.8-2.3,1.9-2.8c1.1-0.5,2.6-0.6,3.9-0.6L132.1,45.7L132.1,45.7z M132.1,46.9h-1.3c-1.6,0-4.1,0.2-4.1,2.3
		c0,1.3,1.1,1.8,2.2,1.8c1.9,0,3.2-1.6,3.2-3.5L132.1,46.9L132.1,46.9z"></path>
	<path class="logo-english--st0" d="M138.6,43.7L138.6,43.7c0.6-1.2,1.7-2.1,3.2-2.1c1.2,0,2.3,0.5,2.9,1.6c0.5,0.9,0.5,2.2,0.5,3.2V52h-1.6v-6.3
		c0-0.6,0-1.4-0.3-1.9c-0.3-0.6-1.1-0.9-1.7-0.9c-0.8,0-1.6,0.4-2.1,1c-0.7,0.8-0.8,1.7-0.8,2.8V52h-1.6V41.8h1.5L138.6,43.7
		L138.6,43.7z"></path>
	<path class="logo-english--st0" d="M152,41.5c0.7,0,1.4,0.2,2.1,0.4c0.3-1.4,1-1.7,2.3-1.7l0.4,0l0,1.2h-0.2c-0.9,0-1.6,0.1-1.8,1.2
		c0.6,0.7,1,1.6,1,2.5c0,1-0.5,1.9-1.3,2.6c-0.7,0.5-1.7,0.8-2.6,0.8c-0.5,0-1-0.2-1.4-0.2c-0.5,0-1.1,0.4-1.1,0.9
		c0,0.5,0.3,0.8,0.8,0.9c0.7,0.2,1.7,0.1,2.4,0.2c0.9,0,2.2,0.1,3,0.3c0.9,0.3,1.6,1.2,1.6,2.3c0,2.6-3.1,2.9-5,2.9
		c-0.9,0-2.1,0-3-0.4c-1-0.4-1.7-1.1-1.7-2.3c0-1,0.6-1.7,1.6-2.1c-0.6-0.4-1-0.9-1-1.6c0-1,0.6-1.4,1.4-1.8
		c-0.9-0.7-1.3-1.6-1.3-2.7C148.1,42.8,150,41.5,152,41.5z M152.2,54.6c0.8,0,1.9-0.1,2.6-0.4c0.5-0.3,0.9-0.6,0.9-1.2
		c0-1-1.1-1.2-2.2-1.2c-0.6,0-2.3,0-3.5-0.2c-0.6,0.3-1.1,0.7-1.1,1.4C149,54.4,151.2,54.6,152.2,54.6z M152,47.3
		c1.4,0,2.3-0.9,2.3-2.3c0-1.3-1-2.2-2.3-2.2c-1.3,0-2.3,0.9-2.3,2.3C149.7,46.4,150.6,47.3,152,47.3z"></path>
	<path class="logo-english--st0" d="M167.7,49.2c-0.6,1.9-2.4,3-4.3,3c-3.1,0-4.7-2.4-4.7-5.3c0-2.8,1.7-5.4,4.7-5.4c3.1,0,4.5,2.6,4.5,5.5h-7.4
		c0,0.8,0,1.6,0.4,2.3c0.5,1,1.6,1.6,2.6,1.6c1.3,0,2.3-0.8,2.7-2L167.7,49.2z M166.1,45.9c0-1.7-0.9-3.1-2.7-3.1
		c-1.7,0-2.8,1.5-2.9,3.1H166.1z"></path>
	<path class="logo-english--st0" d="M172.3,41.8v2.4h0c0.5-1.4,1.4-2.7,3-2.7l0.6,0v1.5h-0.3c-1.2,0-2.1,0.6-2.6,1.6c-0.4,0.7-0.5,1.4-0.5,2.2v5.1
		h-1.6V41.8L172.3,41.8L172.3,41.8z"></path>
</g>
</svg>