<?xml version="1.0" encoding="UTF-8" standalone="no"?>
<!-- Created with Inkscape (http://www.inkscape.org/) -->

<svg
   xmlns:dc="http://purl.org/dc/elements/1.1/"
   xmlns:cc="http://creativecommons.org/ns#"
   xmlns:rdf="http://www.w3.org/1999/02/22-rdf-syntax-ns#"
   xmlns:svg="http://www.w3.org/2000/svg"
   xmlns="http://www.w3.org/2000/svg"
   xmlns:sodipodi="http://sodipodi.sourceforge.net/DTD/sodipodi-0.dtd"
   xmlns:inkscape="http://www.inkscape.org/namespaces/inkscape"
   width="146.26108mm"
   height="100.15856mm"
   viewBox="0 0 146.26108 100.15856"
   version="1.1"
   id="svg8"
   inkscape:version="0.92.1 r"
   sodipodi:docname="swansea-2017.svg">
  <defs
     id="defs2">
    <clipPath
       id="clipPath4522"
       clipPathUnits="userSpaceOnUse">
      <path
         inkscape:connector-curvature="0"
         id="path4520"
         d="M 0,0 H 4862.5 V 3460 H 0 Z" />
    </clipPath>
  </defs>
  <sodipodi:namedview
     id="base"
     pagecolor="#ffffff"
     bordercolor="#666666"
     borderopacity="1.0"
     inkscape:pageopacity="0.0"
     inkscape:pageshadow="2"
     inkscape:zoom="1.979899"
     inkscape:cx="257.7729"
     inkscape:cy="189.01943"
     inkscape:document-units="mm"
     inkscape:current-layer="layer1"
     showgrid="false"
     fit-margin-top="0"
     fit-margin-left="0"
     fit-margin-right="0"
     fit-margin-bottom="0"
     inkscape:window-width="1680"
     inkscape:window-height="958"
     inkscape:window-x="0"
     inkscape:window-y="410"
     inkscape:window-maximized="0" />
  <metadata
     id="metadata5">
    <rdf:RDF>
      <cc:Work
         rdf:about="">
        <dc:format>image/svg+xml</dc:format>
        <dc:type
           rdf:resource="http://purl.org/dc/dcmitype/StillImage" />
        <dc:title></dc:title>
      </cc:Work>
    </rdf:RDF>
  </metadata>
  <g
     inkscape:label="Layer 1"
     inkscape:groupmode="layer"
     id="layer1"
     transform="translate(-16.071854,-73.051662)">
    <path
       inkscape:connector-curvature="0"
       id="path4524"
       style="fill:#233264;fill-opacity:1;fill-rule:nonzero;stroke:none;stroke-width:0.03527778"
       d="m 19.664261,164.28632 c 0.982133,0.0508 1.083839,0.0508 1.439368,0.0508 3.505165,0 4.893663,-1.6426 4.893663,-3.556 0,-1.524 -0.880533,-2.31994 -1.642604,-2.65853 -0.677298,-0.3048 -1.456161,-0.35567 -2.590729,-0.35567 h -3.742197 v 11.95504 h 1.642499 z m 0,-5.52027 h 1.811831 c 1.456337,0 1.9812,0.3387 2.336871,0.76203 0.270792,0.32177 0.490996,0.82974 0.490996,1.40547 0,1.03297 -0.643396,2.06583 -2.201263,2.48917 -0.999067,0.27089 -1.964267,0.23713 -2.438435,0.2202 z m 9.13197,4.40267 c 0.169369,-0.237 0.745102,-1.03297 1.778106,-1.03297 0.575734,0 1.049761,0.23717 1.320695,0.35567 v -1.3885 c -0.237032,-0.10171 -0.457236,-0.20327 -0.897502,-0.20327 -1.236098,0 -1.913432,0.98213 -2.201299,1.3885 v -1.18523 h -1.557866 v 8.61907 h 1.557866 z m 5.880912,-2.08277 h -1.541039 v 8.63604 h 1.541039 z m -1.659572,-2.5061 c 0,0.54145 0.423474,0.8974 0.880568,0.8974 0.287902,0 0.91433,-0.16923 0.91433,-0.94823 0,-0.4403 -0.338561,-0.88057 -0.880569,-0.88057 -0.54169,0 -0.914329,0.40636 -0.914329,0.9314 m 5.637036,3.5052 h 1.778071 v -0.98213 h -1.778071 v -0.82973 c 0,-0.74511 0,-1.13454 0.186302,-1.43937 0.169369,-0.28787 0.524969,-0.54183 1.066835,-0.54183 0.4064,0 0.694267,0.11849 0.931334,0.22006 0.06773,-0.10157 0.2032,-0.25397 0.270933,-0.35553 -0.186267,-0.20324 -0.643467,-0.7451 -1.693333,-0.7451 -0.711236,0 -1.2192,0.25396 -1.524142,0.4742 -0.761929,0.57559 -0.778862,1.37153 -0.778862,2.15043 v 1.06687 h -1.219306 v 0.98213 h 1.219306 v 7.63694 h 1.540933 z m 9.13878,-0.98213 -2.624667,6.01126 -2.4384,-6.01126 h -1.710267 l 3.3528,7.80616 c -1.134533,2.5739 -1.845733,3.36988 -3.3528,3.82697 v 0.45723 c 2.1844,0.10153 3.318933,-1.20223 4.351867,-3.55603 l 3.7592,-8.53433 z m 8.29557,2.04886 c -0.0508,-0.38943 -0.169334,-1.20219 -1.049867,-1.81183 -0.626534,-0.4403 -1.456267,-0.5927 -2.1336,-0.5927 -1.947334,0 -3.132667,1.11756 -3.132667,2.55693 0,1.65943 1.490133,2.13364 2.353733,2.40454 0.931334,0.2879 1.3716,0.42333 1.710267,0.5927 0.237067,0.11853 0.8636,0.45723 0.8636,1.27 0,0.86363 -0.762,1.43937 -1.9304,1.43937 -0.8636,0 -1.693333,-0.30484 -2.252134,-0.79598 -0.389466,-0.33856 -0.592666,-0.69423 -0.745066,-0.94819 -0.118534,0.0508 -0.321734,0.10153 -0.4572,0.1524 0.08467,0.40636 0.237066,1.28693 1.134533,1.96426 0.677334,0.49111 1.524,0.6773 2.370667,0.6773 0.931333,0 1.811867,-0.18619 2.506133,-0.74496 0.592667,-0.4742 0.948267,-1.1515 0.948267,-1.96441 0,-1.8288 -1.744133,-2.33673 -2.607733,-2.59073 -0.118534,-0.0339 -0.846667,-0.25396 -0.897467,-0.27089 -0.880533,-0.28787 -1.456267,-0.62661 -1.456267,-1.33781 0,-0.76193 0.728134,-1.32073 1.845734,-1.32073 1.608666,0 2.201333,0.98214 2.4892,1.4562 0.118533,-0.0338 0.321733,-0.10157 0.440267,-0.13547 m 7.343775,-2.04886 v 1.11756 c -0.3556,-0.50807 -1.032933,-1.47323 -2.556934,-1.47323 -1.811866,0 -3.471333,1.5409 -3.471333,4.50423 0,2.72634 1.456267,4.2164 3.369733,4.2164 1.676401,0 2.387601,-0.96516 2.658534,-1.32112 v 0.49139 c 0,1.2193 0,2.01513 -0.6096,2.70937 -0.4572,0.54186 -1.1684,0.779 -1.8796,0.779 -0.795867,0 -1.6256,-0.30522 -2.1844,-0.81291 -0.389467,-0.35553 -0.541867,-0.67729 -0.677334,-0.96516 l -0.491066,0.16937 c 0.508,2.42146 2.54,2.6924 3.4544,2.6924 1.456267,0 2.4384,-0.54183 3.014133,-1.1176 0.9144,-0.93141 0.9144,-2.11667 0.9144,-3.4036 v -7.5861 z m 0,6.3839 c -0.389467,0.32163 -1.083733,0.89736 -2.065867,0.89736 -1.659467,0 -2.353733,-1.60856 -2.353733,-3.2512 0,-1.9473 0.897466,-3.2851 2.286,-3.2851 0.423333,0 0.8636,0.13561 1.253067,0.38957 0.491066,0.32163 0.7112,0.69427 0.880533,0.98214 z m 11.629673,-2.20144 c 0,-2.64156 -1.557867,-4.53813 -4.080934,-4.53813 -2.302933,0 -4.250267,1.4902 -4.250267,4.80907 0,0.79597 0.1016,2.47233 1.388534,3.58951 0.948267,0.79622 2.015067,0.93169 2.709333,0.93169 1.8796,0 2.878667,-0.93169 3.302001,-1.47313 0.575733,-0.74511 0.931333,-1.86267 0.931333,-3.31901 m -1.642534,0.10157 c 0,2.75981 -1.202266,3.75888 -2.523066,3.75888 -0.8636,0 -1.761067,-0.49071 -2.1844,-1.62525 -0.135467,-0.32162 -0.338667,-1.04979 -0.338667,-2.16739 0,-1.81184 0.6604,-3.65757 2.54,-3.65757 1.744133,0 2.506133,1.74403 2.506133,3.69133 m 4.924073,-7.62 h -1.540933 v 11.95504 h 1.540933 z m 6.112581,11.95504 h 2.099733 l 1.185334,-2.64171 h 4.944533 l 1.185334,2.64171 h 2.573867 l -5.486401,-11.95504 h -0.830086 z m 7.501467,-4.21637 h -3.5052 l 1.7272,-3.8778 z m 5.452534,4.21637 h 2.269067 v -0.89751 c 0.287866,0.35553 1.049867,1.28694 2.523067,1.28694 1.69333,0 3.84387,-1.32084 3.84387,-4.80907 0,-2.6924 -1.3716,-4.60583 -3.69147,-4.60583 -1.64289,0 -2.3368,0.8974 -2.675467,1.33766 v -4.26723 h -2.269067 z m 2.269067,-6.5024 c 0,-0.017 0.541867,-1.13454 1.845737,-1.13454 0.86324,0 1.42204,0.49072 1.76071,1.18523 0.33867,0.67744 0.38982,1.45634 0.38982,2.0151 0,2.84484 -1.3208,3.43754 -2.20133,3.43754 -0.9652,0 -1.4732,-0.60964 -1.794937,-0.9991 z m 15.729307,3.86069 c -0.59267,0.76207 -1.2192,1.55787 -2.794,1.55787 -2.67547,0 -2.96369,-2.38785 -3.048,-3.031 h 6.67173 c -0.0173,-0.9482 -0.0339,-2.55693 -1.23613,-3.7761 -1.04987,-1.0499 -2.40454,-1.16843 -3.1496,-1.16843 -3.06494,0 -4.69054,2.06583 -4.69054,4.60583 0,2.6585 1.64254,4.80907 4.75827,4.80907 2.98027,0 3.67453,-1.77793 4.04707,-2.72631 z m -5.7912,-2.79396 c 0.22013,-0.8636 0.5588,-2.20127 2.1844,-2.20127 1.69333,0 1.8796,1.4224 1.9812,2.20127 z m 10.31557,-3.23427 h -2.26907 v 8.66994 h 2.26907 v -6.72261 c 0.38912,-0.254 0.89747,-0.59256 1.72685,-0.59256 0.62689,0 1.06715,0.20313 1.49049,0.40637 v -1.96424 c -0.2032,-0.0339 -0.42334,-0.0509 -0.64347,-0.0509 -1.54093,0 -2.2352,0.89754 -2.57387,1.33767 z m 5.60987,0 h -1.3716 v 1.35477 h 1.3716 v 4.79214 c 0,0.76189 0.0843,1.52396 0.7112,2.13345 0.6604,0.66051 1.55787,0.7112 1.96427,0.7112 1.1176,0 1.7272,-0.38943 2.2352,-0.69423 l -0.27093,-0.54186 c -0.27094,0.0848 -0.508,0.16936 -0.8636,0.16936 -0.16934,0 -0.84667,0 -1.25307,-0.76207 -0.16933,-0.28786 -0.27093,-0.64339 -0.27093,-1.37153 v -4.43646 h 1.9812 v -1.35477 h -1.9812 v -2.35366 h -2.25214 z m 13.13322,3.43754 c 0,-0.79598 -0.0169,-1.9473 -0.8636,-2.81094 -0.49107,-0.50807 -1.43969,-0.99949 -2.91254,-0.99949 -2.57386,0 -3.2512,1.49049 -3.62373,2.32022 l 0.57573,0.28787 c 0.33867,-0.45724 0.94827,-1.28697 2.3876,-1.28697 0.64347,0 1.60867,0.2202 2.01472,1.13453 0.18662,0.42334 0.22048,0.88057 0.23706,1.32087 -0.67733,-0.20327 -1.21884,-0.37249 -2.04858,-0.37249 -2.01506,0 -3.6576,1.1176 -3.6576,3.11577 0,1.55786 1.1176,2.77699 2.87867,2.77699 1.60867,0 2.45533,-0.84667 2.82751,-1.2361 v 0.98214 h 2.18476 z m -2.18476,3.47126 c -0.43991,0.28787 -0.98178,0.6266 -1.77764,0.6266 -1.13454,0 -1.55787,-0.79597 -1.55787,-1.54093 0,-1.10077 0.88018,-1.62567 1.87925,-1.62567 0.57608,0 1.01635,0.15243 1.45626,0.32177 z m 5.54955,1.8288 h 0.82938 l 2.28635,-5.0461 2.28565,5.0461 h 0.81315 l 3.26814,-8.7376 h -1.81187 l -1.49048,4.31811 -0.25365,0.81276 c -0.18627,-0.45724 -0.20355,-0.54187 -0.37254,-0.94837 l -1.72755,-4.1825 h -0.74471 l -2.25249,5.1139 c -0.11853,-0.42333 -0.15205,-0.5249 -0.27058,-0.91447 l -1.4224,-4.19943 h -2.35373 z m 17.95251,-2.70937 c -0.59267,0.76207 -1.21955,1.55787 -2.794,1.55787 -2.67547,0 -2.96333,-2.38785 -3.048,-3.031 h 6.67173 c -0.0169,-0.9482 -0.0342,-2.55693 -1.23613,-3.7761 -1.04987,-1.0499 -2.40453,-1.16843 -3.14995,-1.16843 -3.06458,0 -4.69018,2.06583 -4.69018,4.60583 0,2.6585 1.64253,4.80907 4.75826,4.80907 2.98027,0 3.67454,-1.77793 4.04672,-2.72631 z m -5.79155,-2.79396 c 0.22048,-0.8636 0.5588,-2.20127 2.18475,-2.20127 1.69333,0 1.8796,1.4224 1.9812,2.20127 h -4.16595" />
    <path
       inkscape:connector-curvature="0"
       id="path4526"
       style="fill:#233264;fill-opacity:1;fill-rule:nonzero;stroke:none;stroke-width:0.03527778"
       d="m 16.071854,149.28197 c 0.101706,0.62618 0.254106,1.59177 1.083839,2.40425 1.134533,1.13454 2.793965,1.16872 3.4036,1.16872 0.50793,0 2.489306,0 3.776098,-1.3378 0.609636,-0.6434 1.049938,-1.59206 1.049938,-2.62502 0,-0.93088 -0.372639,-1.761 -0.948232,-2.30287 -0.779004,-0.77893 -2.015243,-1.06644 -2.844835,-1.25306 -1.287075,-0.25365 -2.201404,-0.44027 -2.556934,-1.3208 -0.08477,-0.22014 -0.101564,-0.44027 -0.101564,-0.57574 0,-1.23613 1.202055,-1.84538 2.556933,-1.84538 1.032863,0 1.862561,0.33867 2.3876,0.84632 0.304694,0.30515 0.440302,0.59266 0.592561,0.96555 l 0.694408,-0.18662 c -0.05087,-0.40605 -0.135608,-1.23613 -0.863776,-1.9812 -1.032828,-1.06645 -2.675467,-1.08338 -3.166605,-1.08338 -3.877521,0 -4.605655,2.40418 -4.605655,3.72498 0,2.74355 2.522891,3.2512 3.877663,3.52252 1.456161,0.28748 2.48913,0.66037 2.48913,1.94691 0,1.01604 -0.829698,2.04929 -2.522891,2.04929 -1.016176,0 -2.015102,-0.30484 -2.743412,-1.01632 -0.44016,-0.43988 -0.660223,-0.8975 -0.880427,-1.3378 z m 12.459512,3.28468 h 0.829733 l 2.286036,-5.04568 2.286035,5.04568 h 0.812624 l 3.268133,-8.73718 h -1.811831 l -1.490063,4.31768 -0.254,0.81319 c -0.186302,-0.45723 -0.203094,-0.542 -0.372604,-0.94865 l -1.727235,-4.18222 h -0.744961 l -2.252134,5.1139 c -0.118498,-0.42333 -0.1524,-0.52503 -0.270933,-0.91475 l -1.422541,-4.19915 h -2.353698 z m 17.258243,-5.30006 c 0,-0.79587 -0.01693,-1.94734 -0.8636,-2.81094 -0.491067,-0.50764 -1.439334,-0.99906 -2.912534,-0.99906 -2.573867,0 -3.251271,1.49048 -3.623733,2.31986 l 0.575733,0.28822 c 0.338667,-0.4572 0.948267,-1.28728 2.3876,-1.28728 0.643467,0 1.608667,0.22013 2.015067,1.13453 0.186267,0.42333 0.220133,0.88053 0.237067,1.3208 -0.677334,-0.2032 -1.219201,-0.37218 -2.048934,-0.37218 -2.015067,0 -3.657671,1.11767 -3.657671,3.11566 0,1.5579 1.117671,2.77717 2.878738,2.77717 1.608666,0 2.455333,-0.84709 2.827867,-1.23623 v 0.98185 h 2.1844 z m -2.1844,3.47168 c -0.440267,0.28745 -0.982134,0.62618 -1.778001,0.62618 -1.134533,0 -1.557866,-0.79583 -1.557866,-1.54093 0,-1.10035 0.880533,-1.62525 1.8796,-1.62525 0.575733,0 1.016,0.15201 1.456267,0.32177 z m 11.910836,-4.09786 c 0,-0.72849 -0.0508,-1.59174 -0.694266,-2.26907 -0.4572,-0.47449 -1.185334,-0.79622 -2.0828,-0.79622 -1.642534,0 -2.387601,0.88053 -2.827867,1.38889 v -1.13454 h -2.252134 v 8.66952 h 2.252134 v -6.45125 c 0.389466,-0.44027 0.948266,-1.06715 1.8796,-1.06715 0.8128,0 1.236133,0.52528 1.3716,1.016 0.08467,0.28822 0.08467,0.59266 0.08467,0.88053 v 5.62187 h 2.269066 z m 1.283759,3.58951 c 0.0508,0.40679 0.1524,1.03297 0.728133,1.62595 0.372534,0.37218 1.236134,0.99907 2.929467,0.99907 2.4892,0 3.691467,-1.40589 3.691467,-2.9125 0,-0.72856 -0.270933,-1.37195 -0.677333,-1.79529 -0.491067,-0.50768 -1.151467,-0.69426 -1.625601,-0.81276 -0.321733,-0.0847 -0.643466,-0.15212 -0.9652,-0.2202 -0.762,-0.2032 -1.540933,-0.42334 -1.540933,-1.20227 0,-0.5588 0.491067,-1.15147 1.7272,-1.15147 1.710267,0 2.1336,0.88089 2.286,1.18569 l 0.592667,-0.16969 c -0.06773,-0.33866 -0.169333,-0.84631 -0.677333,-1.37124 -0.541867,-0.5588 -1.422401,-0.94862 -2.573867,-0.94862 -2.523067,0 -3.640667,1.524 -3.640667,2.91253 0,1.57519 1.303867,2.0659 1.642533,2.1844 0.389467,0.15243 0.778934,0.23703 1.1684,0.32205 1.100667,0.23675 1.659467,0.45681 1.913467,1.01561 0.0508,0.15244 0.08467,0.28829 0.08467,0.42376 0,0.0504 0,0.84624 -0.948267,1.15108 -0.287867,0.1017 -0.575733,0.1185 -0.846667,0.1185 -0.948266,0 -1.761066,-0.32163 -2.2352,-0.7958 -0.237067,-0.23703 -0.338667,-0.47378 -0.440267,-0.69384 z m 16.524817,-0.37222 c -0.592666,0.76207 -1.2192,1.55787 -2.794,1.55787 -2.675467,0 -2.963333,-2.38785 -3.048,-3.031 h 6.671734 c -0.01693,-0.94862 -0.03387,-2.55696 -1.236134,-3.77616 -1.049866,-1.05022 -2.404533,-1.16876 -3.1496,-1.16876 -3.064933,0 -4.690533,2.06622 -4.690533,4.60594 0,2.6585 1.642533,4.80935 4.758267,4.80935 2.980266,0 3.674533,-1.77793 4.047067,-2.72659 z m -5.7912,-2.79396 c 0.220133,-0.8636 0.5588,-2.20133 2.1844,-2.20133 1.693334,0 1.8796,1.4224 1.9812,2.20133 z m 15.424504,0.20285 c 0,-0.79587 -0.01693,-1.94734 -0.8636,-2.81094 -0.491067,-0.50764 -1.439334,-0.99906 -2.912534,-0.99906 -2.573867,0 -3.2512,1.49048 -3.623733,2.31986 l 0.575733,0.28822 c 0.338667,-0.4572 0.948267,-1.28728 2.3876,-1.28728 0.643467,0 1.608667,0.22013 2.015067,1.13453 0.186267,0.42333 0.220133,0.88053 0.237067,1.3208 -0.677334,-0.2032 -1.2192,-0.37218 -2.048934,-0.37218 -2.015067,0 -3.6576,1.11767 -3.6576,3.11566 0,1.5579 1.1176,2.77717 2.878667,2.77717 1.608667,0 2.455333,-0.84709 2.827867,-1.23623 v 0.98185 h 2.1844 z m -2.1844,3.47168 c -0.440267,0.28745 -0.982134,0.62618 -1.778,0.62618 -1.134534,0 -1.557867,-0.79583 -1.557867,-1.54093 0,-1.10035 0.880533,-1.62525 1.8796,-1.62525 0.575733,0 1.016,0.15201 1.456267,0.32177 z M 99.90784,140.52712 h -1.6256 v 9.31365 c -0.762,0.86332 -2.116667,1.86242 -3.674534,1.86242 -1.134533,0 -2.048933,-0.52465 -2.455333,-1.16819 -0.3048,-0.47403 -0.423334,-1.13453 -0.423334,-2.42175 v -7.58613 h -1.6256 v 8.31455 c 0,1.25321 0.2032,2.11667 0.9144,2.84455 0.643467,0.6773 1.7272,1.15179 3.1496,1.15179 1.591381,0 2.912534,-0.50797 4.114801,-2.11667 v 1.77765 h 1.6256 z m 9.4488,5.90973 c 0,-0.79551 -0.0169,-1.60831 -0.72813,-2.26871 -0.16969,-0.13582 -0.72849,-0.64347 -1.9812,-0.64347 -1.79494,0 -2.60774,1.10067 -2.9464,1.55787 v -1.20262 h -1.524 v 8.61907 h 1.524 v -6.41738 c 0.59266,-0.99907 1.49013,-1.43934 2.31986,-1.43934 0.508,0 1.43934,0.2032 1.69334,1.13418 0.11853,0.4572 0.11853,0.89747 0.11853,1.82912 v 4.89342 h 1.524 z m 3.64737,-2.57351 h -1.54093 v 8.63565 h 1.54093 z m -1.65947,-2.50649 c 0,0.54187 0.42334,0.89782 0.88054,0.89782 0.28786,0 0.9144,-0.16968 0.9144,-0.94862 0,-0.44026 -0.33867,-0.88053 -0.88054,-0.88053 -0.54186,0 -0.9144,0.40675 -0.9144,0.93133 m 9.65342,2.52307 -2.45569,5.75772 c -0.13512,0.3048 -0.15205,0.40598 -0.18592,0.57573 -0.0677,-0.28829 -0.1524,-0.50835 -0.16933,-0.5588 l -2.35373,-5.77465 h -1.6764 l 3.77613,8.72063 h 0.52493 l 3.81001,-8.72063 z m 9.87354,4.31835 c 0.0169,-0.60992 0.0677,-2.45533 -1.27,-3.69146 -0.67733,-0.60996 -1.59173,-0.98214 -2.6924,-0.98214 -2.31987,0 -4.30107,1.70992 -4.30107,4.70708 0,3.08226 2.032,4.62319 4.318,4.62319 2.96334,0 3.62374,-2.15085 3.79307,-2.76006 -0.11853,-0.0339 -0.3048,-0.11868 -0.42333,-0.1698 -0.3048,0.47446 -1.1684,1.76114 -2.9972,1.76114 -0.254,0 -1.4732,0 -2.3368,-1.1176 -0.6604,-0.88057 -0.7112,-1.87963 -0.74542,-2.37035 z m -6.63787,-0.93168 c 0.23707,-1.98085 1.60867,-2.67547 2.6416,-2.67547 0.84667,0 2.37067,0.508 2.4892,2.67547 z m 9.76207,-1.32045 c 0.16933,-0.23707 0.74507,-1.03329 1.778,-1.03329 0.57573,0 1.04987,0.23707 1.3208,0.35596 v -1.38889 c -0.23707,-0.1016 -0.45755,-0.2032 -0.89747,-0.2032 -1.23613,0 -1.91346,0.98213 -2.20133,1.38889 v -1.18569 h -1.55787 v 8.61907 h 1.55787 z m 10.41894,-0.0173 c -0.0508,-0.38946 -0.16933,-1.20191 -1.04987,-1.81186 -0.62653,-0.44027 -1.45626,-0.59232 -2.1336,-0.59232 -1.94733,0 -3.13266,1.1176 -3.13266,2.55694 0,1.65943 1.49013,2.13321 2.35373,2.40411 0.93133,0.2879 1.3716,0.42333 1.71027,0.59312 0.23671,0.1185 0.8636,0.4571 0.8636,1.26958 0,0.86402 -0.762,1.43937 -1.9304,1.43937 -0.8636,0 -1.69334,-0.30484 -2.25214,-0.79555 -0.38946,-0.33856 -0.59266,-0.69423 -0.74506,-0.94862 -0.11854,0.0513 -0.32174,0.10167 -0.4572,0.15282 0.0847,0.40594 0.23706,1.28651 1.13453,1.96384 0.67733,0.49139 1.524,0.67773 2.37067,0.67773 0.93133,0 1.81186,-0.18634 2.50613,-0.74514 0.59267,-0.47403 0.94827,-1.15175 0.94827,-1.96452 0,-1.82851 -1.74414,-2.33687 -2.60774,-2.59044 -0.11853,-0.0339 -0.84666,-0.25411 -0.89746,-0.27132 -0.88054,-0.28752 -1.45627,-0.62618 -1.45627,-1.33774 0,-0.76164 0.72813,-1.32044 1.84573,-1.32044 1.60867,0 2.20134,0.98178 2.4892,1.45626 0.11854,-0.0342 0.32174,-0.1016 0.44027,-0.13582 m 3.29671,-2.06551 h -1.54094 v 8.63565 h 1.54094 z m -1.65947,-2.50649 c 0,0.54187 0.42333,0.89782 0.88054,0.89782 0.28786,0 0.9144,-0.16968 0.9144,-0.94862 0,-0.44026 -0.33867,-0.88053 -0.88054,-0.88053 -0.54187,0 -0.9144,0.40675 -0.9144,0.93133 m 5.57954,3.50556 h 1.81186 v -0.98249 h -1.81186 v -2.28565 h -1.54094 v 2.28565 h -1.18533 v 0.98249 h 1.18533 v 5.36751 c 0,1.03297 0.0677,1.72752 0.762,2.21823 0.254,0.16976 0.74507,0.40679 1.40547,0.40679 0.99907,0 1.54093,-0.47445 1.86267,-0.7451 -0.0677,-0.1185 -0.16934,-0.28815 -0.23707,-0.40665 -0.28787,0.13571 -0.59267,0.28815 -1.03329,0.28815 -1.21884,0 -1.21884,-1.08412 -1.21884,-2.18475 z m 9.36378,-0.98249 -2.62467,6.01126 -2.4384,-6.01126 h -1.71027 l 3.3528,7.8063 c -1.13453,2.57376 -1.84573,3.36974 -3.3528,3.82722 v 0.45723 c 2.1844,0.10157 3.31894,-1.20233 4.35187,-3.556 l 3.7592,-8.53475 h -1.33773" />
    <path
       inkscape:connector-curvature="0"
       id="path4528"
       style="fill:#233264;fill-opacity:1;fill-rule:nonzero;stroke:none;stroke-width:0.03527778"
       d="m 103.83532,114.7694 c -0.70909,-1.43334 -2.10432,-3.59974 -2.4698,-4.04707 l -0.073,0.16616 c -0.007,0.0296 -0.64664,2.80776 -0.85372,3.92924 0.16722,-0.0843 0.45226,-0.248 0.69533,-0.38664 l 0.21801,-0.12489 0.007,0.1644 c 0.0769,1.90182 -0.26317,3.55318 -1.01141,4.9082 l -0.0138,0.025 c -0.13723,0.024 -0.28328,0.043 -0.428975,0.0571 l -2.430286,-1.81328 v -9.05404 c 0,-0.11606 -0.04516,-0.22542 -0.127,-0.30656 -0.05997,-0.061 -0.142523,-0.13159 -0.2413,-0.19685 l 5.127621,-3.9624 c 0.23531,-0.18168 0.26776,-0.52388 0.0709,-0.74718 -0.0737,-0.0843 -0.14746,-0.16899 -0.22119,-0.25365 -0.17886,-0.2032 -0.48436,-0.23425 -0.69956,-0.0699 l -5.003798,3.80894 c -0.49777,-0.1584 -1.539522,-0.43709 -2.685698,-0.43709 -1.401233,0 -2.643364,0.3496 -3.705578,1.04105 v -1.52789 c 0.503767,-0.0272 1.226609,-0.127 1.957917,-0.4385 0.117475,-0.0497 0.195439,-0.17215 0.198261,-0.30938 l 0.02893,-1.21638 c 0.0032,-0.13159 -0.06279,-0.2533 -0.170744,-0.31362 -0.282223,-0.15628 -0.920398,-0.43039 -2.014362,-0.5147 v -0.2346 c 0,-0.22119 -0.178858,-0.40005 -0.399697,-0.40005 h -0.561975 c -0.221192,0 -0.399697,0.17886 -0.399697,0.40005 v 0.2346 c -1.093964,0.0843 -1.732139,0.35842 -2.014361,0.5147 -0.10795,0.0603 -0.17392,0.18203 -0.171098,0.31362 l 0.02928,1.21638 c 0.0032,0.13723 0.08079,0.25964 0.198261,0.30938 0.731661,0.3115 1.45415,0.41134 1.957917,0.4385 v 1.52789 c -1.062214,-0.69145 -2.304345,-1.04105 -3.705578,-1.04105 -0.991306,0 -1.904647,0.20849 -2.455334,0.36724 l -2.211564,-1.63689 c 0.101953,-0.25612 0.158045,-0.53552 0.158045,-0.82797 0,-1.23966 -1.004711,-2.24437 -2.244373,-2.24437 -1.239661,0 -2.245077,1.00471 -2.245077,2.24437 0,1.24002 1.005416,2.24508 2.245077,2.24508 0.45085,0 0.870656,-0.13335 1.222728,-0.36266 l 2.365375,1.75084 c -0.214841,0.0797 -0.382763,0.21731 -0.488244,0.32244 -0.08149,0.0811 -0.126647,0.1905 -0.126647,0.30656 v 8.88965 l -1.691923,1.25236 c -0.264583,0.007 -0.534811,0.0699 -0.709789,0.1905 -1.346552,-1.94239 -2.424289,-4.44958 -2.338916,-6.846 -1.13277,2.534 -0.164395,5.5499 1.176866,7.85001 l -0.487186,0.32773 c -0.06385,0.043 0.04762,0.32173 0.249767,0.62195 l 0.207786,0.30868 c 0.201789,0.29986 0.417336,0.5087 0.481895,0.46566 l 0.557388,-0.37535 c 1.798109,1.93146 4.363156,3.69605 7.083426,3.3655 -2.320572,-0.67028 -4.315178,-2.29518 -5.789084,-4.17619 0.135467,-0.10689 0.190853,-0.36442 0.275872,-0.56232 l 2.323395,-1.7198 c 0.676981,-0.21907 1.4986,-0.4265 2.189339,-0.4265 1.095022,0 2.12972,0.16298 2.987675,0.43497 -0.0021,0.004 0.0099,0.007 0.03387,0.0109 l 0.937683,0.30127 c -0.0018,0.0169 -0.0025,0.0342 -0.0025,0.0515 v 4.29825 c 0,0.29245 0.237067,0.53022 0.529872,0.53022 h 0.301272 c 0.293159,0 0.530225,-0.23777 0.530225,-0.53022 v -4.29825 c 0,-0.0173 -7.05e-4,-0.0346 -0.0028,-0.0515 l 0.938389,-0.30127 c 0.02364,-0.004 0.03563,-0.007 0.03387,-0.0109 0.857603,-0.27199 1.8923,-0.43497 2.987322,-0.43497 0.565856,0 1.219906,0.13934 1.810103,0.31044 l 3.215217,2.39395 c 0.04586,0.18979 0.08714,0.39088 0.114653,0.58738 -1.346553,1.3275 -2.961217,1.93498 -4.086225,2.2105 l -0.137231,0.0335 0.01411,-0.14075 c 0.01905,-0.19297 0.04269,-0.38912 0.06421,-0.56551 0.0194,-0.15698 0.03986,-0.32737 0.05009,-0.44591 -0.928158,0.62654 -3.161242,2.25002 -3.174295,2.25849 L 91.686,124.52688 c 0.584906,0.121 2.985912,0.39864 4.514498,0.41945 -0.166864,-0.13546 -0.400756,-0.32526 -0.600781,-0.48471 l -0.152752,-0.12136 0.187677,-0.0533 c 1.141237,-0.32173 2.737909,-0.95991 4.126442,-2.20274 0.707316,-0.15452 1.698976,-0.58314 1.698976,-0.58314 0,0 0,-0.78987 -0.0579,-1.46932 0.91087,-1.56634 1.32538,-3.47098 1.22978,-5.66561 l -0.008,-0.16793 0.15134,0.0737 c 0.27552,0.13441 0.76306,0.36054 1.05975,0.49742 m -25.684698,-9.23149 c -0.6858,0 -1.241073,-0.55562 -1.241073,-1.24142 0,-0.68545 0.555273,-1.24143 1.241073,-1.24143 0.6858,0 1.241072,0.55598 1.241072,1.24143 0,0.6858 -0.555272,1.24142 -1.241072,1.24142 m 18.072454,11.20634 c -0.611717,-0.24624 -1.331384,-0.37077 -2.14242,-0.37077 -1.853847,0 -3.704872,0.635 -4.482395,0.94086 -0.130527,0.0607 -0.388761,0.15734 -0.289983,0.11959 0,0 -0.06703,-0.0226 -0.281869,-0.11677 -0.772231,-0.30445 -2.630312,-0.94368 -4.490862,-0.94368 -0.811036,0 -1.53035,0.12453 -2.142419,0.37077 v -9.44845 c 0.357011,-0.11994 1.331383,-0.4004 2.528711,-0.4004 1.5621,0 3.043414,0.53693 4.146197,1.45168 l 0.240242,0.27587 0.239889,-0.27587 c 1.103136,-0.91475 2.58445,-1.45168 4.146197,-1.45168 1.197328,0 2.171348,0.28046 2.528712,0.4004 v 9.44845" />
    <path
       inkscape:connector-curvature="0"
       id="path4530"
       style="fill:#233264;fill-opacity:1;fill-rule:nonzero;stroke:none;stroke-width:0.03527778"
       d="m 90.040645,109.15212 c -0.01376,0.0437 -0.0085,0.09 0.01376,0.12947 l 0.01552,0.0275 c 0.02822,0.0526 0.08361,0.0857 0.144286,0.0857 0.02469,0 0.04833,-0.005 0.07091,-0.0162 0.428272,-0.20284 1.576564,-0.67557 2.986617,-0.67557 0.455789,0 0.903464,0.0504 1.330325,0.14993 l 0.02752,0.004 h 0.0099 c 0.07408,0 0.1397,-0.0494 0.159809,-0.12347 l 0.0067,-0.0296 c 0.01129,-0.0434 0.0046,-0.0889 -0.0187,-0.12806 -0.02328,-0.0381 -0.05997,-0.0649 -0.104069,-0.0755 -0.460728,-0.10795 -0.941917,-0.16263 -1.430162,-0.16263 -1.490486,0 -2.683228,0.50024 -3.125258,0.71508 -0.04198,0.0194 -0.07338,0.0561 -0.08714,0.0991" />
    <path
       inkscape:connector-curvature="0"
       id="path4532"
       style="fill:#233264;fill-opacity:1;fill-rule:nonzero;stroke:none;stroke-width:0.03527778"
       d="m 90.069925,110.37485 c 0.02858,0.0529 0.08396,0.0861 0.144286,0.0861 0.02469,0 0.04798,-0.006 0.07091,-0.0159 0.425097,-0.20355 1.566333,-0.67592 2.9845,-0.67592 0.456847,0 0.904875,0.0501 1.332442,0.14993 l 0.02787,0.004 h 0.0095 c 0.07408,0 0.139347,-0.0497 0.160161,-0.12418 l 0.0063,-0.0282 c 0.01164,-0.0448 0.0046,-0.0907 -0.01834,-0.12911 -0.02328,-0.0381 -0.05997,-0.0646 -0.10407,-0.0751 -0.46108,-0.10759 -0.941916,-0.16298 -1.430514,-0.16298 -1.488722,0 -2.681464,0.49989 -3.125964,0.71543 -0.04269,0.0215 -0.07338,0.0575 -0.08643,0.1009 -0.01305,0.043 -0.0088,0.0892 0.01376,0.12911 l 0.01552,0.0258" />
    <path
       inkscape:connector-curvature="0"
       id="path4534"
       style="fill:#233264;fill-opacity:1;fill-rule:nonzero;stroke:none;stroke-width:0.03527778"
       d="m 94.683553,110.56464 c -0.460727,-0.10795 -0.942269,-0.16263 -1.430866,-0.16263 -1.48837,0 -2.681112,0.49953 -3.125612,0.71508 -0.04233,0.0215 -0.07303,0.0575 -0.08608,0.10125 -0.01411,0.043 -0.0088,0.0889 0.01376,0.12912 l 0.01482,0.0275 c 0.02893,0.0529 0.08431,0.0857 0.144991,0.0857 0.02434,0 0.04833,-0.006 0.07091,-0.0162 0.428272,-0.2032 1.576211,-0.67557 2.985911,-0.67557 0.456142,0 0.903817,0.0504 1.330678,0.14993 l 0.02752,0.004 h 0.0095 c 0.07479,0 0.140053,-0.0497 0.160162,-0.12312 l 0.0067,-0.0296 c 0.01164,-0.0434 0.0049,-0.0885 -0.01764,-0.127 -0.02328,-0.0392 -0.06068,-0.0674 -0.104775,-0.0787" />
    <path
       inkscape:connector-curvature="0"
       id="path4536"
       style="fill:#233264;fill-opacity:1;fill-rule:nonzero;stroke:none;stroke-width:0.03527778"
       d="m 90.068161,112.47211 c 0.02893,0.0529 0.08431,0.0861 0.144287,0.0861 0.02434,0 0.04798,-0.006 0.07126,-0.0169 0.426508,-0.20285 1.571625,-0.67593 2.986264,-0.67593 0.456494,0 0.904875,0.0504 1.332089,0.15029 l 0.02752,0.004 h 0.0095 c 0.07479,0 0.140053,-0.049 0.160162,-0.12347 l 0.0063,-0.0286 c 0.01199,-0.0448 0.0053,-0.0907 -0.01834,-0.12911 -0.02328,-0.0385 -0.05997,-0.0649 -0.103717,-0.0755 -0.461433,-0.10795 -0.943327,-0.16228 -1.431925,-0.16228 -1.494366,0 -2.683228,0.49954 -3.126317,0.71473 -0.04163,0.0212 -0.07267,0.0572 -0.08643,0.10266 -0.01305,0.0427 -0.0088,0.0889 0.0134,0.12735 l 0.01588,0.0265" />
    <path
       inkscape:connector-curvature="0"
       id="path4538"
       style="fill:#233264;fill-opacity:1;fill-rule:nonzero;stroke:none;stroke-width:0.03527778"
       d="m 94.681437,112.67919 c -0.460728,-0.10795 -0.941917,-0.16263 -1.430514,-0.16263 -1.489781,0 -2.681817,0.49989 -3.125259,0.71473 -0.04233,0.0201 -0.07267,0.0554 -0.08608,0.0991 -0.01411,0.0437 -0.0092,0.09 0.01305,0.12876 l 0.01517,0.0286 c 0.02928,0.0526 0.08467,0.0854 0.144991,0.0854 0.02399,0 0.04762,-0.005 0.07126,-0.0159 0.425803,-0.2032 1.569509,-0.67628 2.985559,-0.67628 0.456494,0 0.904522,0.0505 1.332442,0.15028 l 0.02752,0.004 h 0.0092 c 0.07444,0 0.140052,-0.049 0.160866,-0.12312 l 0.0063,-0.0296 c 0.01164,-0.0434 0.0046,-0.0889 -0.0187,-0.12771 -0.02328,-0.0388 -0.06103,-0.0656 -0.105833,-0.0758" />
    <path
       inkscape:connector-curvature="0"
       id="path4540"
       style="fill:#233264;fill-opacity:1;fill-rule:nonzero;stroke:none;stroke-width:0.03527778"
       d="m 94.683553,113.72236 c -0.461786,-0.10795 -0.942269,-0.16299 -1.430866,-0.16299 -1.488017,0 -2.681112,0.49989 -3.125612,0.71508 -0.04233,0.0219 -0.07303,0.0579 -0.08608,0.1016 -0.01341,0.0423 -0.0092,0.0882 0.0134,0.12841 l 0.01517,0.0265 c 0.02893,0.0526 0.08431,0.0857 0.144991,0.0857 0.02434,0 0.04833,-0.005 0.07091,-0.0162 0.428272,-0.2032 1.576211,-0.67557 2.986264,-0.67557 0.456141,0 0.903464,0.0504 1.330325,0.14993 l 0.02752,0.004 h 0.0095 c 0.07479,0 0.140053,-0.0494 0.160162,-0.12311 l 0.0067,-0.03 c 0.01164,-0.0434 0.0049,-0.0889 -0.0187,-0.12806 -0.02364,-0.0384 -0.06033,-0.0653 -0.103717,-0.0755" />
    <path
       inkscape:connector-curvature="0"
       id="path4542"
       style="fill:#233264;fill-opacity:1;fill-rule:nonzero;stroke:none;stroke-width:0.03527778"
       d="m 94.685317,114.76905 c -0.46108,-0.10795 -0.941916,-0.16263 -1.430866,-0.16263 -1.489076,0 -2.681465,0.49953 -3.125612,0.71473 -0.04233,0.0212 -0.07338,0.0575 -0.08643,0.10089 -0.01341,0.0434 -0.0081,0.09 0.02716,0.15487 0.02857,0.0533 0.08396,0.0864 0.144991,0.0864 0.02434,0 0.04833,-0.005 0.07091,-0.0162 0.427919,-0.20285 1.575858,-0.67557 2.985911,-0.67557 0.456142,0 0.903464,0.0504 1.330678,0.14993 l 0.02752,0.004 h 0.0095 c 0.07479,0 0.140053,-0.0501 0.159809,-0.12136 l 0.0067,-0.0296 c 0.01199,-0.0452 0.0053,-0.0917 -0.01834,-0.13018 -0.02223,-0.0377 -0.05962,-0.0649 -0.101953,-0.0755" />
    <path
       inkscape:connector-curvature="0"
       id="path4544"
       style="fill:#233264;fill-opacity:1;fill-rule:nonzero;stroke:none;stroke-width:0.03527778"
       d="m 87.602597,112.216 c -0.442383,-0.2152 -1.63195,-0.71509 -3.126316,-0.71509 -0.488598,0 -0.970492,0.0547 -1.431573,0.16263 -0.0441,0.01 -0.08114,0.0371 -0.104069,0.0752 -0.02293,0.0381 -0.02963,0.0847 -0.0187,0.1277 l 0.0067,0.0307 c 0.02011,0.0723 0.08608,0.12312 0.160161,0.12312 l 0.02787,-0.002 0.0092,-0.002 c 0.427214,-0.0998 0.875242,-0.15028 1.332442,-0.15028 1.413933,0 2.559756,0.47272 2.986264,0.67592 0.02293,0.0109 0.04621,0.0162 0.07091,0.0162 0.06103,0 0.115006,-0.0332 0.144286,-0.0861 l 0.01552,-0.0258 c 0.02223,-0.0399 0.02716,-0.0857 0.01341,-0.12841 -0.01305,-0.0441 -0.04445,-0.0808 -0.08608,-0.1016" />
    <path
       inkscape:connector-curvature="0"
       id="path4546"
       style="fill:#233264;fill-opacity:1;fill-rule:nonzero;stroke:none;stroke-width:0.03527778"
       d="m 87.602597,113.23129 c -0.443794,-0.21484 -1.636183,-0.71473 -3.125611,-0.71473 -0.488597,0 -0.969786,0.0547 -1.430867,0.16263 -0.0441,0.0102 -0.08149,0.037 -0.106186,0.0766 -0.02258,0.0384 -0.02893,0.0843 -0.01799,0.12629 l 0.0067,0.0303 c 0.02011,0.073 0.08608,0.12347 0.160161,0.12347 l 0.02787,-0.002 0.0092,-0.002 c 0.427214,-0.0998 0.875595,-0.15029 1.332795,-0.15029 1.414639,0 2.559755,0.47273 2.985911,0.67593 0.02293,0.0109 0.04621,0.0162 0.07091,0.0162 0.06032,0 0.115711,-0.0335 0.143934,-0.0857 l 0.01552,-0.0275 c 0.02258,-0.0399 0.02752,-0.0861 0.01376,-0.13017 -0.01411,-0.0441 -0.0448,-0.0794 -0.08608,-0.0988" />
    <path
       inkscape:connector-curvature="0"
       id="path4548"
       style="fill:#233264;fill-opacity:1;fill-rule:nonzero;stroke:none;stroke-width:0.03527778"
       d="m 87.600481,114.27445 c -0.443795,-0.21484 -1.636889,-0.71472 -3.125259,-0.71472 -0.488244,0 -0.96908,0.0543 -1.430867,0.16298 -0.04374,0.01 -0.08079,0.0367 -0.103716,0.0755 -0.02328,0.0388 -0.02963,0.085 -0.0187,0.12736 l 0.0067,0.0303 c 0.02011,0.0723 0.08572,0.12311 0.160161,0.12311 l 0.02787,-0.002 0.0092,-0.002 c 0.426861,-0.10018 0.874183,-0.15028 1.330678,-0.15028 1.410053,0 2.557992,0.47237 2.985558,0.67522 0.02258,0.0109 0.04657,0.0162 0.07161,0.0162 0.06068,0 0.115359,-0.0328 0.144639,-0.0857 l 0.01552,-0.0258 c 0.02223,-0.0402 0.02681,-0.0857 0.01376,-0.12771 -0.01305,-0.0441 -0.04445,-0.0811 -0.08714,-0.10266" />
    <path
       inkscape:connector-curvature="0"
       id="path4550"
       style="fill:#233264;fill-opacity:1;fill-rule:nonzero;stroke:none;stroke-width:0.03527778"
       d="m 87.59907,115.32115 c -0.443795,-0.21485 -1.636184,-0.71473 -3.125259,-0.71473 -0.488597,0 -0.970139,0.0547 -1.431219,0.16263 -0.04269,0.0106 -0.07832,0.037 -0.1016,0.0755 -0.02364,0.0399 -0.03034,0.0861 -0.01905,0.12877 l 0.0067,0.0293 c 0.02011,0.0727 0.08608,0.12312 0.160161,0.12312 l 0.02787,-0.002 0.0092,-0.002 c 0.426508,-0.0995 0.874536,-0.14993 1.330678,-0.14993 1.410053,0 2.558697,0.47272 2.985911,0.67522 0.02223,0.0113 0.04621,0.0166 0.07126,0.0166 0.05997,0 0.115006,-0.0328 0.144287,-0.0861 l 0.01446,-0.0261 c 0.02152,-0.0388 0.02646,-0.0843 0.01305,-0.12841 -0.01341,-0.0437 -0.0448,-0.0808 -0.08643,-0.1016" />
    <path
       inkscape:connector-curvature="0"
       id="path4552"
       style="fill:#233264;fill-opacity:1;fill-rule:nonzero;stroke:none;stroke-width:0.03527778"
       d="m 83.454989,110.85286 c 0.325261,-0.0557 0.662517,-0.0843 1.001889,-0.0843 1.4097,0 2.557992,0.47272 2.986264,0.67627 0.02223,0.0102 0.04621,0.0159 0.0702,0.0159 0.06068,0 0.116064,-0.0332 0.144639,-0.0857 l 0.01552,-0.0275 c 0.02222,-0.0399 0.02716,-0.0861 0.01411,-0.12806 -0.01305,-0.0444 -0.0441,-0.0811 -0.08678,-0.10231 -0.4318,-0.2092 -1.579386,-0.69109 -3.020483,-0.71437 l 0.0018,-0.63253 c 1.361017,0.0264 2.450394,0.47836 2.859969,0.67451 0.02258,0.0106 0.04657,0.0159 0.07126,0.0159 0.06103,0 0.115711,-0.0332 0.144991,-0.0857 l 0.01552,-0.0258 c 0.02187,-0.0402 0.02681,-0.0861 0.01341,-0.12911 -0.01376,-0.0434 -0.0448,-0.0804 -0.08643,-0.10125 -0.23495,-0.11359 -1.466497,-0.67345 -3.018014,-0.71226 l 0.0018,-0.70167 c 1.353256,0.0275 2.445809,0.47836 2.8575,0.6738 0.02258,0.0109 0.04657,0.0162 0.07126,0.0162 0.06068,0 0.116064,-0.0328 0.144639,-0.0857 l 0.01552,-0.0272 c 0.02222,-0.0399 0.02752,-0.0857 0.0134,-0.13017 -0.01376,-0.0441 -0.04515,-0.0794 -0.08608,-0.0988 -0.443441,-0.21484 -1.636183,-0.71508 -3.125611,-0.71508 -0.488597,0 -0.969786,0.055 -1.428397,0.16439 l -0.130175,0.0653 0.0032,2.39536 0.535164,-0.11007" />
    <path
       inkscape:connector-curvature="0"
       id="path4554"
       style="fill:#233264;fill-opacity:1;fill-rule:nonzero;stroke:none;stroke-width:0.03527778"
       d="m 93.360637,88.467346 c -0.01235,0.0014 -0.03493,-7.05e-4 -0.04692,3.53e-4 0.0011,0.0014 0.04692,-3.53e-4 0.04692,-3.53e-4 -0.710495,0.14852 -1.749778,1.5113 -1.934281,1.760714 -0.05115,0.400403 0.01552,0.578203 0.220839,0.869245 0.215547,0.30233 0.102658,0.606072 -0.105128,0.956028 -0.150636,0.263525 -0.451556,0.985308 -0.547158,1.335264 -0.174625,0.191205 -0.42157,0.35948 -0.638175,0.424039 -0.0448,-0.02434 -0.0628,-0.156281 -0.0628,-0.156281 -0.341489,-0.503414 -0.96273,-0.444147 -0.96273,-0.444147 -0.670984,0.113947 -0.696737,0.326319 -0.696737,0.326319 0.143934,-0.01588 0.581025,0.156986 0.581025,0.156986 0.0018,0.103011 0.177801,0.198261 0.177801,0.198261 -0.407812,-0.07549 -0.752123,0.160867 -0.752123,0.160867 -0.6223,0.428978 -0.402872,0.899231 -0.402872,0.899231 0.0014,-0.369711 0.541514,-0.455789 0.541514,-0.455789 0.235303,0.215547 1.151114,-0.158045 1.151114,-0.158045 l -0.806097,0.6604 c -0.303389,0.404989 -0.123473,0.809978 -0.123473,0.809978 0.01235,-0.298097 0.421923,-0.400755 0.421923,-0.400755 0.273755,-0.02893 0.369005,-0.16757 0.369005,-0.16757 0.496711,-0.106539 0.534811,-0.617008 0.534811,-0.617008 0.754239,-0.314678 1.515887,-0.147109 1.515887,-0.147109 0.466725,0.269523 0.792691,0.480837 0.792691,0.480837 l 0.08855,-0.137231 c 0.347487,-0.07479 0.515762,0.347839 0.515762,0.347839 C 93.358518,94.611677 92.91931,94.424705 92.91931,94.424705 92.739746,94.211627 92.404607,94.22468 92.404607,94.22468 l -0.563386,-0.158044 c -0.0046,-0.0074 -0.169334,-0.06068 -0.17392,-0.06879 -0.05009,-0.1397 -0.125236,-0.302331 -0.09948,-0.453672 0.0388,-0.155575 0.08643,-0.279048 0.142522,-0.396523 0.293864,-0.394052 0.738364,-0.872772 0.886531,-1.185686 0.157339,-0.328436 0.265994,-0.856897 0.68968,-1.082675 0.171803,-0.08678 0.394053,-0.169686 0.585964,-0.258939 l 7.06e-4,0.0011 c 0,0 0.0074,-0.0039 0.01834,-0.0099 0.101953,-0.04798 0.193675,-0.09737 0.262467,-0.149931 0.344664,-0.185208 0.566561,-0.341841 0.566561,-0.341841 -0.285397,-0.263173 -0.801158,-0.769762 -1.359958,-1.652412" />
    <path
       inkscape:connector-curvature="0"
       id="path4556"
       style="fill:#233264;fill-opacity:1;fill-rule:nonzero;stroke:none;stroke-width:0.03527778"
       d="m 91.653545,87.879266 c 0.518936,0.128411 0.807508,0.573616 0.859014,0.659694 0.210255,-0.172508 0.425803,-0.307975 0.621947,-0.348897 0,0 -0.554214,-0.930981 -1.444272,-0.860072 -0.01446,0 -0.02999,0.0014 -0.04516,0.0021 -0.0014,0 -0.0028,0 -0.0042,0 l -3.53e-4,7.06e-4 c -0.453672,0.03104 -1.27,0.458964 -3.136195,1.678869 -2.880783,1.883481 -4.408311,0.85337 -4.408311,0.85337 -0.541161,1.455914 -1.414992,1.815042 -1.414992,1.815042 0,0 0.258234,0.246591 0.745067,0.480483 0.01446,-0.01305 0.02646,-0.02399 0.04092,-0.03845 0.157692,-0.152752 0.357717,-0.371122 0.538339,-0.607836 0.09137,-0.117475 0.176389,-0.240242 0.252236,-0.358422 0.0755,-0.118533 0.143581,-0.231775 0.195086,-0.33267 0.05468,-0.09913 0.09525,-0.184502 0.121709,-0.245533 0.02787,-0.06068 0.04374,-0.09525 0.04374,-0.09525 0,0 -0.0081,0.03704 -0.02187,0.102658 -0.0127,0.06526 -0.03316,0.15875 -0.06526,0.269875 -0.02858,0.111831 -0.0702,0.239889 -0.119944,0.376414 -0.04939,0.136525 -0.10795,0.281164 -0.17392,0.421923 -0.115711,0.253647 -0.251883,0.4953 -0.37218,0.686858 0.290689,0.09984 0.631472,0.180622 1.021291,0.214136 0.01164,-0.01658 0.02258,-0.03104 0.03457,-0.04904 0.125588,-0.179917 0.280811,-0.432506 0.41275,-0.699206 0.06738,-0.132997 0.127352,-0.269875 0.179563,-0.40005 0.05151,-0.130527 0.09596,-0.255058 0.128059,-0.363361 0.03422,-0.10795 0.05786,-0.200025 0.07232,-0.264583 0.01588,-0.06491 0.0247,-0.101953 0.0247,-0.101953 0,0 -3.53e-4,0.0381 -0.0014,0.104775 -3.53e-4,0.06668 -0.0028,0.162631 -0.0127,0.277636 -0.0071,0.115006 -0.02364,0.249061 -0.04621,0.392642 -0.02258,0.143228 -0.05256,0.296333 -0.09031,0.446969 -0.05786,0.239889 -0.132998,0.474487 -0.206023,0.671337 0.395111,-0.0081 0.830087,-0.06773 1.302456,-0.19932 0.0078,-0.02258 0.01517,-0.04304 0.02364,-0.06773 0.0695,-0.208139 0.146756,-0.494242 0.197556,-0.7874 0.02681,-0.146403 0.04621,-0.29457 0.05891,-0.43427 0.01305,-0.140053 0.02081,-0.271639 0.02046,-0.38488 0.0025,-0.113242 -0.0011,-0.208139 -0.0053,-0.274109 -0.0032,-0.06668 -0.0049,-0.104775 -0.0049,-0.104775 0,0 0.01023,0.03634 0.02787,0.100895 0.01905,0.06421 0.04374,0.156633 0.06632,0.269522 0.02575,0.112536 0.04762,0.245533 0.06667,0.389819 0.01905,0.143934 0.03351,0.298803 0.03986,0.454378 0.01235,0.238125 0.0074,0.476956 -0.006,0.681567 0.311503,-0.1143 0.637117,-0.258586 0.977195,-0.441678 0.134056,-0.07197 0.263172,-0.143228 0.391231,-0.214136 -0.0011,-0.192969 -0.01305,-0.420158 -0.04127,-0.648053 -0.01693,-0.147814 -0.04163,-0.295275 -0.06985,-0.432858 -0.02858,-0.137583 -0.05962,-0.265995 -0.09243,-0.374297 -0.03105,-0.108656 -0.06209,-0.198262 -0.08537,-0.26035 -0.02223,-0.06279 -0.03493,-0.09878 -0.03493,-0.09878 0,0 0.02011,0.0321 0.05574,0.08819 0.03704,0.05644 0.08749,0.137231 0.14217,0.238831 0.0575,0.100189 0.117475,0.221192 0.177094,0.353483 0.06033,0.132292 0.119592,0.276225 0.170745,0.423334 0.06103,0.168627 0.11183,0.339372 0.153811,0.499886 0.408869,-0.232834 0.779286,-0.456495 1.107722,-0.670278 -0.02611,-0.202142 -0.07479,-0.46355 -0.147108,-0.723195 -0.03669,-0.135466 -0.08043,-0.269875 -0.126295,-0.394758 -0.04586,-0.124531 -0.09278,-0.240242 -0.138994,-0.33655 -0.04339,-0.09807 -0.08502,-0.177447 -0.115006,-0.232833 -0.02963,-0.05574 -0.04657,-0.08784 -0.04657,-0.08784 0,0 0.02364,0.02752 0.06526,0.07444 0.04304,0.04692 0.101952,0.115711 0.168627,0.201789 0.06879,0.08537 0.142523,0.189442 0.219428,0.303742 0.07585,0.1143 0.153459,0.239889 0.223661,0.369358 0.107245,0.19297 0.201436,0.394406 0.27552,0.5715 0.207433,-0.145344 0.392641,-0.284692 0.55245,-0.416983 h 3.53e-4 l 0.173213,-0.131234 c 0,0 0.03034,-0.207786 -0.04798,-0.38735 -0.04233,-0.102305 -0.08855,-0.20708 -0.140406,-0.31115 -0.06103,-0.126647 -0.129469,-0.250472 -0.197908,-0.364066 -0.06809,-0.113948 -0.136172,-0.219428 -0.198967,-0.3048 -0.06174,-0.08819 -0.117475,-0.159103 -0.157339,-0.207081 -0.03986,-0.04939 -0.06209,-0.07761 -0.06209,-0.07761 0,0 0.02857,0.02258 0.07796,0.06103 0.05115,0.0381 0.122414,0.09384 0.203553,0.166511 0.08361,0.0702 0.175683,0.159102 0.272344,0.256822 0.09631,0.09807 0.195087,0.20708 0.289278,0.321733 0.01446,0.01729 0.02787,0.03528 0.04233,0.05292 0,0 0.25153,0.313619 0.249414,0.619125 0,0 0.349602,-0.48895 0.781755,-0.912636 -0.08996,-0.612775 -0.653344,-0.924984 -0.583847,-0.90805" />
    <path
       inkscape:connector-curvature="0"
       id="path4558"
       style="fill:#233264;fill-opacity:1;fill-rule:nonzero;stroke:none;stroke-width:0.03527778"
       d="m 79.055144,82.459188 c 0.970845,0.156633 2.350559,-0.450145 2.903361,-1.078089 -0.08608,-0.170392 -0.356658,-0.237773 -0.51188,-0.214489 -0.735895,0.549628 -2.303992,1.251655 -3.310467,0.487186 0,0 -0.947561,-0.696384 -0.310797,-1.823156 0,0 0.179211,0.57397 0.510469,0.607836 0,0 0.07444,-0.948266 0.636764,-1.127125 0,0 -0.783167,-0.29845 -1.407936,0.3302 -0.767645,0.772231 -0.207433,2.543175 1.490486,2.817637" />
    <path
       inkscape:connector-curvature="0"
       id="path4560"
       style="fill:#233264;fill-opacity:1;fill-rule:nonzero;stroke:none;stroke-width:0.03527778"
       d="m 84.906317,88.254621 c 0.891116,-0.144639 1.769886,0.266348 1.769886,0.266348 0.277636,-0.978959 -0.11677,-1.271412 -0.11677,-1.271412 -0.826558,0.831498 -1.653116,1.005064 -1.653116,1.005064" />
    <path
       inkscape:connector-curvature="0"
       id="path4562"
       style="fill:#233264;fill-opacity:1;fill-rule:nonzero;stroke:none;stroke-width:0.03527778"
       d="m 88.116595,87.349041 c 0,0 0.207433,-0.886178 -0.478367,-1.29152 0,0 -0.363008,0.620184 -0.730603,0.92957 0,0 0.264583,0.367594 0.164395,0.706614 0,0 0.578202,-0.524934 1.044575,-0.344664" />
    <path
       inkscape:connector-curvature="0"
       id="path4564"
       style="fill:#233264;fill-opacity:1;fill-rule:nonzero;stroke:none;stroke-width:0.03527778"
       d="m 90.496434,85.189688 c 0,0 0.296686,-1.126773 1.347964,-1.126773 0,0 -0.582436,-0.96273 -1.999898,-0.989894 -1.416755,-0.02787 -1.520472,1.118658 -1.520472,1.118658 v 0.03281 c 7.06e-4,-0.01517 0.817033,-0.468489 1.669345,0.246239 0,0 0.4445,0.309386 0.503061,0.718961" />
    <path
       inkscape:connector-curvature="0"
       id="path4566"
       style="fill:#233264;fill-opacity:1;fill-rule:nonzero;stroke:none;stroke-width:0.03527778"
       d="m 81.989197,86.260368 c -0.08431,0.07408 -0.176742,0.167217 -0.272344,0.268464 -0.0956,0.1016 -0.193323,0.213078 -0.284339,0.329495 -0.184503,0.230716 -0.346781,0.475897 -0.455789,0.66428 -0.02399,0.04057 -0.04375,0.07726 -0.06315,0.111831 -0.0032,0.01023 -0.0071,0.02081 -0.0099,0.03104 -0.107597,0.357717 -0.188736,0.715434 -0.223309,1.050925 0.07796,-0.09208 0.159456,-0.185913 0.245887,-0.276225 0.10548,-0.11183 0.2159,-0.218016 0.322791,-0.313619 0.106892,-0.0949 0.208492,-0.180622 0.30092,-0.248003 0.08961,-0.0695 0.167216,-0.123119 0.22225,-0.159103 0.05468,-0.03704 0.08608,-0.05786 0.08608,-0.05786 0,0 -0.02575,0.02752 -0.07091,0.07549 -0.04551,0.04727 -0.108655,0.116064 -0.179564,0.202847 -0.07267,0.08431 -0.150989,0.188031 -0.231422,0.30092 -0.08008,0.112889 -0.160867,0.236008 -0.23495,0.363008 -0.150283,0.252236 -0.276225,0.515056 -0.357717,0.715434 -0.03281,0.07796 -0.05609,0.142169 -0.07585,0.195791 0.05115,0.235303 0.147814,0.440973 0.302683,0.603603 -0.0042,-0.01058 0.05009,-0.111478 0.138289,-0.26035 0.186267,-0.330905 0.392995,-0.643467 0.609953,-0.957792 -7.05e-4,-3.52e-4 -0.0011,-7.05e-4 -0.0011,-7.05e-4 0.335139,-0.500239 0.787047,-1.0414 0.935919,-1.116189 0,0 -0.323497,-1.020939 -0.0127,-2.0574 0.138289,-0.663575 0.738717,-1.737078 0.802217,-2.4638 -0.198614,0.246944 -0.352072,0.420511 -0.802217,0.480836 l -0.08467,0.2413 v -7.06e-4 l -0.341842,0.65652 c 0.172861,-0.07444 0.344311,-0.133703 0.479425,-0.170392 0.07973,-0.02328 0.146756,-0.03775 0.194028,-0.04762 0.04657,-0.01023 0.07303,-0.01588 0.07303,-0.01588 0,0 -0.02328,0.01376 -0.06491,0.03775 -0.04163,0.02293 -0.100189,0.0575 -0.167217,0.102659 -0.136172,0.08855 -0.306917,0.218016 -0.462492,0.361597 -0.156633,0.143228 -0.29845,0.297744 -0.395464,0.418394 -0.01552,0.01905 -0.02787,0.03492 -0.04163,0.05186 -0.0508,0.09666 -0.104423,0.200025 -0.164748,0.320322 -0.09349,0.187678 -0.192616,0.396522 -0.293864,0.623005 -0.04657,0.10407 -0.09243,0.211667 -0.137936,0.321028 0.110773,-0.08819 0.224014,-0.171097 0.333375,-0.244475 0.119592,-0.08043 0.232834,-0.152047 0.334081,-0.206728 0.09878,-0.05715 0.183444,-0.09984 0.243769,-0.128058 0.05891,-0.02893 0.09313,-0.04551 0.09313,-0.04551 0,0 -0.02928,0.02328 -0.08043,0.06526 -0.05221,0.04057 -0.124883,0.100189 -0.207433,0.176741" />
    <path
       inkscape:connector-curvature="0"
       id="path4568"
       style="fill:#233264;fill-opacity:1;fill-rule:nonzero;stroke:none;stroke-width:0.03527778"
       d="m 94.410151,82.205893 c -0.0127,-0.563033 0.121355,-1.209322 0.571147,-1.515181 0.992364,-0.675569 3.686175,-0.536222 3.686175,-0.536222 -0.560917,-0.224366 -6.092473,-1.12783 -8.948914,1.576564 0,0 2.615141,-1.367719 4.50215,0.288925 0.06985,0.04445 0.131233,0.143228 0.189442,0.185914" />
    <path
       inkscape:connector-curvature="0"
       id="path4570"
       style="fill:#233264;fill-opacity:1;fill-rule:nonzero;stroke:none;stroke-width:0.03527778"
       d="m 93.849234,82.205893 c 0,0 -0.688622,-0.430036 -1.470378,-0.572558 -0.982133,-0.178859 -2.734733,0.139347 -3.426884,1.269294 1.762831,-0.496005 2.649009,0.225073 3.161595,0.743656 0.124531,-1.265767 1.470025,-1.383595 1.735667,-1.440392" />
    <path
       inkscape:connector-curvature="0"
       id="path4572"
       style="fill:#233264;fill-opacity:1;fill-rule:nonzero;stroke:none;stroke-width:0.03527778"
       d="m 88.41575,86.425468 c 0.460375,-1.055511 1.753306,-1.001536 1.753306,-1.001536 0.0039,-0.195791 -0.363008,-0.79763 -1.160992,-0.981428 -0.881944,-0.203552 -1.273175,1.199445 -1.273175,1.199445 0.611717,0.104422 0.680861,0.783519 0.680861,0.783519" />
    <path
       inkscape:connector-curvature="0"
       id="path4574"
       style="fill:#233264;fill-opacity:1;fill-rule:nonzero;stroke:none;stroke-width:0.03527778"
       d="m 82.897247,88.057771 c -0.181328,0.05292 -0.329847,0.297392 -0.329847,0.297392 -0.500239,0.662164 -0.820914,1.177925 -1.303514,2.020006 -0.601486,0.97155 -1.185686,2.377016 -1.956506,3.113264 -0.06844,0.06421 -0.09737,0.104069 -0.206375,0.142522 -0.109008,0.03916 -0.239536,-0.155222 -0.239536,-0.155222 -0.341842,-0.503414 -0.962731,-0.4445 -0.962731,-0.4445 -0.670983,0.1143 -0.697088,0.326672 -0.697088,0.326672 0.144286,-0.01588 0.581377,0.156281 0.581377,0.156281 0.0014,0.103363 0.177448,0.198966 0.177448,0.198966 -0.407459,-0.07549 -0.75177,0.160514 -0.75177,0.160514 -0.6223,0.428978 -0.402872,0.899231 -0.402872,0.899231 0.0011,-0.369359 0.541514,-0.455436 0.541514,-0.455436 0.235303,0.215547 1.151114,-0.158045 1.151114,-0.158045 l -0.806098,0.6604 c -0.303388,0.404989 -0.123472,0.809625 -0.123472,0.809625 0.01235,-0.298097 0.421217,-0.400403 0.421217,-0.400403 0.274461,-0.02893 0.369711,-0.167922 0.369711,-0.167922 0.496358,-0.105833 0.534811,-0.617008 0.534811,-0.617008 0.753534,-0.314678 1.515886,-0.147109 1.515886,-0.147109 0.466725,0.269523 0.792692,0.480484 0.792692,0.480484 l 0.08855,-0.136878 c 0.347486,-0.07444 0.515761,0.347839 0.515761,0.347839 0.118534,-0.557389 -0.321027,-0.744361 -0.321027,-0.744361 -0.179211,-0.212725 -0.514703,-0.200025 -0.514703,-0.200025 l -0.513292,-0.144286 c -0.04057,-0.06385 -0.07832,-0.134056 -0.109008,-0.219428 -0.06209,-0.455789 0.267758,-0.885825 0.488244,-1.230136 0.676628,-0.7366 1.726848,-1.032228 2.217209,-1.567745 0.43568,-0.48895 0.87383,-1.256242 0.801864,-2.241903 -0.02928,-0.42545 -0.784931,-0.624769 -0.959556,-0.582789" />
    <path
       inkscape:connector-curvature="0"
       id="path4576"
       style="fill:#233264;fill-opacity:1;fill-rule:nonzero;stroke:none;stroke-width:0.03527778"
       d="m 77.398852,85.167463 c 0.314678,0.754239 0.147109,1.515886 0.147109,1.515886 -0.269875,0.467078 -0.480836,0.793044 -0.480836,0.793044 l 0.13723,0.08819 c 0.07408,0.347839 -0.347839,0.515761 -0.347839,0.515761 0.557742,0.118533 0.744361,-0.320675 0.744361,-0.320675 0.212725,-0.179564 0.200378,-0.514703 0.200378,-0.514703 l 0.143933,-0.513291 c 0.06385,-0.04092 0.133703,-0.07867 0.219781,-0.109009 0.276578,-0.144991 0.509411,0.02152 0.684742,0.176389 0.06421,0.06068 0.129116,0.121356 0.191558,0.188736 0.376767,0.342195 0.535517,0.863247 0.807508,1.27247 l -0.0011,0.0028 0.395817,0.630767 c 0.02046,-0.384881 0.110419,-0.806803 0.237066,-1.22802 0.06809,-0.225425 0.145698,-0.448733 0.228953,-0.667808 H 80.38053 c -0.01658,-0.0025 -0.03422,-0.0025 -0.05362,0 -0.457553,-0.117475 -0.814917,-0.540103 -1.244953,-0.902053 -0.13335,-0.123825 -0.45473,-0.360892 -0.715433,-0.549628 -0.07585,-0.05433 -0.115711,-0.06315 -0.15487,-0.172155 -0.0388,-0.109009 0.155928,-0.239889 0.155928,-0.239889 0.502709,-0.341489 0.443795,-0.962731 0.443795,-0.962731 -0.113948,-0.670983 -0.32632,-0.696736 -0.32632,-0.696736 0.01623,0.144286 -0.156633,0.581025 -0.156633,0.581025 -0.103011,0.0018 -0.198261,0.1778 -0.198261,0.1778 0.07514,-0.407458 -0.160867,-0.75177 -0.160867,-0.75177 -0.429331,-0.622652 -0.899583,-0.402872 -0.899583,-0.402872 0.369711,0.0011 0.456141,0.541514 0.456141,0.541514 -0.215547,0.235656 0.157692,1.151114 0.157692,1.151114 l -0.6604,-0.806097 c -0.404989,-0.303742 -0.809978,-0.123825 -0.809978,-0.123825 0.298097,0.01235 0.400403,0.421922 0.400403,0.421922 0.02928,0.273756 0.168275,0.369358 0.168275,0.369358 0.106186,0.496359 0.617008,0.534459 0.617008,0.534459" />
    <path
       inkscape:connector-curvature="0"
       id="path4578"
       style="fill:#233264;fill-opacity:1;fill-rule:nonzero;stroke:none;stroke-width:0.03527778"
       d="m 86.406681,86.874907 7.05e-4,3.53e-4 c 0.706614,-0.590903 1.295753,-2.025297 1.465439,-2.5908 2.026356,-6.744759 11.162595,-4.318706 11.162595,-4.318706 -2.812697,-1.089025 -5.647267,-0.725311 -5.647267,-0.725311 0,0 -4.216753,0.20955 -5.767917,3.692172 -0.929569,2.085623 -1.399469,2.804937 -1.596672,3.033184 -3.53e-4,0 -3.53e-4,-7.06e-4 -7.06e-4,-0.0011 -1.081616,1.142647 -2.075744,1.032933 -2.075744,1.032933 1.042105,-0.297392 1.565275,-1.054453 1.701094,-1.279878 0,0 0.135114,-0.216253 0.142875,-0.293864 -0.09102,0.01376 -0.332316,0.08396 -0.439914,0.08537 -0.324555,0.01235 -0.614538,-0.261408 -0.67945,-0.63888 -0.239183,0.258586 -0.410633,0.553508 -0.410633,0.553508 0.03246,-0.360539 0.294922,-0.740833 0.487186,-0.974725 0.04516,-0.06668 0.103011,-0.129469 0.162631,-0.185561 0.02611,-0.02716 0.04233,-0.04339 0.04233,-0.04339 l 0.0018,0.0032 c 0.131233,-0.115711 0.256822,-0.193675 0.256822,-0.193675 0,0 -0.487891,-0.286455 -0.511175,-0.800452 -0.272344,0.248002 -0.479072,0.554213 -0.479072,0.554213 0.06279,-0.3937 0.403931,-0.791986 0.611364,-1.002241 0.173567,-0.229306 0.455083,-0.302331 0.455083,-0.302331 0,0 -0.519994,-0.104422 -0.43568,-0.998361 -0.205317,0.214489 -0.34925,0.427567 -0.34925,0.427567 0.05115,-0.322439 0.289983,-0.648053 0.488244,-0.870656 0.164395,-0.269522 0.410281,-0.363714 0.410281,-0.363714 -0.0508,-0.03598 -0.09701,-0.07514 -0.140406,-0.117122 -0.05327,-0.0448 -0.116769,-0.100189 -0.186972,-0.166511 -0.09701,-0.09349 -0.206022,-0.208139 -0.308681,-0.3429 -0.100541,-0.136525 -0.200025,-0.292453 -0.250472,-0.471311 -0.02752,-0.08749 -0.03916,-0.181681 -0.03351,-0.27305 0.0025,-0.09172 0.0314,-0.179212 0.06738,-0.25647 0.03916,-0.0762 0.08714,-0.144286 0.142522,-0.198261 0.05186,-0.05786 0.111125,-0.100894 0.164394,-0.140758 0.109362,-0.0762 0.208492,-0.126648 0.278695,-0.158045 0.0702,-0.03175 0.110419,-0.04974 0.110419,-0.04974 0,0 -0.03881,0.02011 -0.106891,0.05609 -0.06773,0.03634 -0.10795,0.05997 -0.210609,0.141464 -0.04974,0.04233 -0.104422,0.08784 -0.14993,0.145697 -0.05045,0.05503 -0.09031,0.122061 -0.122414,0.194381 -0.02822,0.07303 -0.04904,0.152753 -0.04586,0.23495 0,0.0822 0.01587,0.164747 0.04586,0.243417 0.08008,0.212725 0.155222,0.376061 0.299861,0.521405 -0.05786,-0.176741 -0.06385,-0.321028 -0.04304,-0.522464 0.05574,-0.635 0.988131,-1.035403 0.988131,-1.035403 0,0 -0.107245,-0.130175 -0.340078,-0.155927 0,0 -0.653697,-0.169686 -2.021064,0.72778 -0.686858,-0.391583 -1.712736,-0.204964 -2.382661,0.452261 0,0 -0.884414,-0.418041 -2.004837,0.631473 l 1.117953,0.324908 c 0.330906,0.165806 0.386645,0.219428 0.383823,0.629003 0.504825,-0.318911 0.941211,-0.260703 1.317977,-0.08079 0.222956,0.110419 0.696737,0.430036 0.540103,1.059744 -0.05151,0.09031 -0.106539,0.176389 -0.176389,0.248003 -0.445205,0.477661 -1.13418,0.506942 -1.685219,0.563739 -0.184503,0.02787 -0.366536,0.376061 -0.446617,0.562681 l 0.155928,-0.03704 c 0.853017,-0.248708 1.51765,0.261055 2.361847,-0.09102 0.672747,-0.398286 0.886531,-0.871008 0.879122,-1.688747 -0.09701,-1.210028 -0.540102,-1.514475 -0.712963,-1.569861 -0.350309,-0.08784 -0.570089,0.280458 -0.765176,0.160866 -0.234597,-0.144286 -0.144286,-0.511175 -0.144286,-0.511175 0.232481,-0.09207 0.69462,0.05256 0.882298,0.123825 0.248708,0.128411 0.890411,0.443089 1.0033,1.839737 0.05256,0.428625 0.03845,0.742597 0.03422,1.261886 -0.134055,1.518003 -0.767644,1.963208 -0.899583,3.592689 0.0254,0.932392 0.108303,1.087967 0.301978,1.242483 0.357716,0.286456 1.499305,0.206022 2.030589,-0.07514 0.403577,-0.213431 0.763058,-0.499534 1.076325,-0.815623" />
    <path
       inkscape:connector-curvature="0"
       id="path4580"
       style="fill:#233264;fill-opacity:1;fill-rule:nonzero;stroke:none;stroke-width:0.03527778"
       d="m 84.205347,89.568366 c 7.06e-4,-0.0018 0.0018,-0.0042 0.0035,-0.0085 -0.0018,0.0035 -0.0028,0.006 -0.0035,0.0085" />
    <path
       inkscape:connector-curvature="0"
       id="path4582"
       style="fill:#233264;fill-opacity:1;fill-rule:nonzero;stroke:none;stroke-width:0.03527778"
       d="m 84.205347,89.568366 c -0.0014,0.0042 -0.0014,0.0035 0,0" />
    <path
       inkscape:connector-curvature="0"
       id="path4584"
       style="fill:#233264;fill-opacity:1;fill-rule:nonzero;stroke:none;stroke-width:0.03527778"
       d="m 84.208875,89.559899 c 0.0028,-0.0063 0.0053,-0.01341 0.0071,-0.01729 -0.0028,0.0067 -0.0049,0.01305 -0.0071,0.01729" />
    <path
       inkscape:connector-curvature="0"
       id="path4586"
       style="fill:#233264;fill-opacity:1;fill-rule:nonzero;stroke:none;stroke-width:0.03527778"
       d="m 101.53344,92.774763 c -0.25718,-0.07161 -0.51259,0.130881 -0.51259,0.130881 l -0.52705,0.193675 c -0.0296,0.02787 -0.40816,-0.03563 -0.44344,-0.0095 -0.09489,-0.229659 -0.198965,-0.558447 -0.344309,-1.178278 l -0.0011,-0.0053 c -0.02081,-0.08855 -0.04198,-0.182739 -0.06456,-0.28328 h -0.0021 L 99.517315,91.109299 99.40372,90.167383 c 0,0 -0.0071,-0.02469 -0.01905,-0.06456 -0.160866,-0.747183 -0.450144,-1.10878 -0.472369,-1.144764 l -3.53e-4,0.0011 c -0.825147,-1.325387 -2.553758,-1.907823 -2.573514,-1.911351 0.07726,0.01482 1.585031,0.260703 2.526595,1.362781 0.432505,-0.0949 0.84843,-0.250825 1.266471,-0.484364 1.78611,-0.999772 2.82716,-3.653014 1.37266,-5.468409 -1.43581,-1.792111 -4.314473,-0.973666 -4.629151,0.649464 -0.255764,1.3208 0.742245,2.019301 0.742245,2.019301 -0.239537,-0.848078 0.8509,-1.77412 0.8509,-1.77412 -0.310092,-0.377119 -1.152525,-0.09172 -1.152525,-0.09172 0.851605,-1.77412 2.465211,-1.222728 2.465211,-1.222728 2.45181,0.941917 1.91029,4.006497 -0.333022,4.841522 -0.733073,0.272698 -1.479551,0.170039 -2.140656,-0.08572 -0.966259,-0.486127 -0.507295,-1.948039 -0.507295,-1.948039 0,0 -0.468841,0.559506 -1.055158,0.519642 -7.06e-4,0 -7.06e-4,-3.53e-4 -0.0014,-3.53e-4 0.05221,0.334081 0.235303,0.69215 0.235303,0.69215 -0.330906,-0.261408 -0.488245,-0.94368 -0.488245,-0.94368 h 7.06e-4 c -0.153811,-0.376414 -0.13582,-1.019881 -0.195086,-0.821973 -0.08572,0.28187 -0.31362,0.750359 -1.006475,0.806803 -0.0063,7.06e-4 -0.01235,-0.0014 -0.01834,-0.0011 0.125236,0.255058 0.297039,0.471664 0.297039,0.471664 -0.241653,-0.12312 -0.447322,-0.431095 -0.563386,-0.635 -0.218017,-0.304095 -0.294922,-0.922514 -0.294922,-0.922514 -0.494948,0.918986 -1.914525,1.116189 -2.458509,1.148292 -0.826558,-0.09948 -0.607836,0.998361 -0.607836,0.998361 -0.298803,-0.157692 -0.367242,-0.372534 -0.751417,-0.37712 -0.174977,-0.0092 -0.525286,0.08925 -0.679097,0.208845 -0.433917,0.261761 -0.769408,0.698147 -0.809978,1.843969 -0.413808,-0.33408 -0.835025,-0.1397 -1.253067,0.168628 0,0 -0.105127,0.593372 -0.430741,0.886531 -0.521406,-0.284692 -1.105959,-0.393347 -1.237898,-0.397581 h 0.0021 c 0,0 -0.472722,-0.05856 -1.180394,0.02963 0,0 0.102305,0.559152 -0.08608,1.018469 1.063272,0.710142 2.747786,-0.03669 3.681589,-0.562328 1.064683,-0.586316 2.064456,-1.432278 3.182761,-1.862314 0.56127,-0.252589 1.156406,-0.150283 1.632303,0.179564 0.681214,0.473428 1.455914,1.793522 2.270125,2.584097 0.04586,0.0448 0.536575,0.706614 2.232025,0.788812 0,0 0.889353,-0.01729 1.552928,1.036108 0.03069,0.05045 0.06174,0.10407 0.09384,0.160867 0.02364,0.04304 0.04798,0.08361 0.07091,0.129822 0.156633,0.295981 0.319969,0.669219 0.447322,1.139472 -0.0187,0.130175 -0.04198,0.271639 -0.07973,0.394406 -0.01976,0.06914 -0.04621,0.125236 -0.07514,0.175683 -7.05e-4,0 -0.0018,0 -0.0021,0 -0.0187,0.113947 -0.1651,-0.05433 -0.1651,-0.05433 -0.542925,-0.216252 -0.996598,0.188031 -0.996598,0.188031 -0.462844,0.478014 -0.366536,0.66675 -0.366536,0.66675 0.103717,-0.0956 0.540103,-0.204611 0.540103,-0.204611 0.05786,0.08361 0.24765,0.06103 0.24765,0.06103 -0.359833,0.171803 -0.500239,0.562681 -0.500239,0.562681 -0.252589,0.708378 0.176742,0.968022 0.176742,0.968022 -0.201084,-0.304094 0.174272,-0.684036 0.174272,-0.684036 0.302683,0.04163 0.814917,-0.789164 0.814917,-0.789164 l -0.269875,1.0033 c -0.01588,0.505531 0.34678,0.734484 0.34678,0.734484 -0.153811,-0.251531 0.11042,-0.570089 0.11042,-0.570089 0.198614,-0.180622 0.197555,-0.34925 0.197555,-0.34925 0.3302,-0.371828 0.08043,-0.812095 0.08043,-0.812095 -0.04621,-0.609953 1.10596,-0.989189 1.10596,-0.989189 0.51258,-0.04692 0.87736,-0.223661 0.87736,-0.223661 0.23177,-0.26035 0.59407,-0.01023 0.59407,-0.01023 -0.21237,-0.524934 -0.65828,-0.426509 -0.65828,-0.426509" />
    <path
       inkscape:connector-curvature="0"
       id="path4588"
       style="fill:#233264;fill-opacity:1;fill-rule:nonzero;stroke:none;stroke-width:0.03527778"
       d="m 106.52207,98.3864 -0.048,0.01658 c -0.56021,0.371828 -4.54871,2.65818 -14.694603,-0.311503 -12.359923,-3.618794 -19.897021,2.603853 -19.897021,2.603853 l 0.09772,0.0233 c 1.108075,-0.57855 8.673748,-4.242502 20.062121,-0.91228 11.010903,3.22333 14.479763,-1.41993 14.479763,-1.41993" />
    <path
       inkscape:connector-curvature="0"
       id="path4590"
       style="fill:#233264;fill-opacity:1;fill-rule:nonzero;stroke:none;stroke-width:0.03527778"
       d="m 89.197859,134.23639 c 0,0 19.702291,-5.03309 22.121281,-20.86117 l -0.0903,0.10548 c -1.77024,11.53196 -22.030971,17.83433 -22.030971,17.83433 h 0.0092 c 0,0 -20.261088,-6.30237 -22.030974,-17.83433 l -0.08996,-0.10548 c 2.418292,15.82808 22.120932,20.86117 22.120932,20.86117" />
    <path
       inkscape:connector-curvature="0"
       id="path4592"
       style="fill:#233264;fill-opacity:1;fill-rule:nonzero;stroke:none;stroke-width:0.03527778"
       d="m 89.19292,75.411393 c 7.47642,0 19.81447,3.149953 20.94477,5.240161 0.55457,0.861836 1.00789,5.34035 1.09784,6.129867 l 0.0928,0.137936 c 0,0 0.21343,-4.551186 0.13617,-5.9309 -0.15911,-2.854325 -10.21786,-7.936795 -22.27157,-7.936795 h 0.01905 c -12.053712,0 -22.112466,5.08247 -22.271568,7.936795 -0.07726,1.379714 0.136172,5.9309 0.136172,5.9309 l 0.09278,-0.137936 c 0.08996,-0.789517 0.543278,-5.268031 1.097845,-6.129867 1.129947,-2.090208 13.468351,-5.240161 20.944771,-5.240161" />
  </g>
</svg>
