<?xml version="1.0" encoding="UTF-8" standalone="no"?>
<!-- Created with Inkscape (http://www.inkscape.org/) -->

<svg
   width="174.40002mm"
   height="45.309975mm"
   viewBox="0 0 174.40002 45.309975"
   version="1.1"
   id="svg1"
   inkscape:version="1.3 (0e150ed, 2023-07-21)"
   sodipodi:docname="tours.svg"
   xmlns:inkscape="http://www.inkscape.org/namespaces/inkscape"
   xmlns:sodipodi="http://sodipodi.sourceforge.net/DTD/sodipodi-0.dtd"
   xmlns="http://www.w3.org/2000/svg"
   xmlns:svg="http://www.w3.org/2000/svg">
  <sodipodi:namedview
     id="namedview1"
     pagecolor="#ffffff"
     bordercolor="#000000"
     borderopacity="0.25"
     inkscape:showpageshadow="2"
     inkscape:pageopacity="0.0"
     inkscape:pagecheckerboard="0"
     inkscape:deskcolor="#d1d1d1"
     inkscape:document-units="mm"
     inkscape:zoom="0.56906661"
     inkscape:cx="541.23717"
     inkscape:cy="110.7076"
     inkscape:window-width="1312"
     inkscape:window-height="431"
     inkscape:window-x="0"
     inkscape:window-y="34"
     inkscape:window-maximized="0"
     inkscape:current-layer="layer1" />
  <defs
     id="defs1">
    <clipPath
       clipPathUnits="userSpaceOnUse"
       id="clipPath119">
      <path
         d="M 0,204.094 H 1176.378 V 0 H 0 Z"
         transform="translate(-489.19781,-131.4287)"
         id="path119" />
    </clipPath>
    <clipPath
       clipPathUnits="userSpaceOnUse"
       id="clipPath117">
      <path
         d="M 0,204.094 H 1176.378 V 0 H 0 Z"
         transform="translate(-444.17141,-118.4062)"
         id="path117" />
    </clipPath>
    <clipPath
       clipPathUnits="userSpaceOnUse"
       id="clipPath115">
      <path
         d="M 0,204.094 H 1176.378 V 0 H 0 Z"
         id="path115" />
    </clipPath>
    <clipPath
       clipPathUnits="userSpaceOnUse"
       id="clipPath113">
      <path
         d="M 0,204.094 H 1176.378 V 0 H 0 Z"
         transform="translate(-421.44681,-112.4516)"
         id="path113" />
    </clipPath>
    <clipPath
       clipPathUnits="userSpaceOnUse"
       id="clipPath111">
      <path
         d="M 0,204.094 H 1176.378 V 0 H 0 Z"
         transform="translate(-378.87261,-91.021902)"
         id="path111" />
    </clipPath>
    <clipPath
       clipPathUnits="userSpaceOnUse"
       id="clipPath109">
      <path
         d="M 0,204.094 H 1176.378 V 0 H 0 Z"
         transform="translate(-347.56701,-107.7812)"
         id="path109" />
    </clipPath>
    <clipPath
       clipPathUnits="userSpaceOnUse"
       id="clipPath107">
      <path
         d="M 0,204.094 H 1176.378 V 0 H 0 Z"
         transform="translate(-338.39121,-118.4062)"
         id="path107" />
    </clipPath>
    <clipPath
       clipPathUnits="userSpaceOnUse"
       id="clipPath105">
      <path
         d="M 0,204.094 H 1176.378 V 0 H 0 Z"
         id="path105" />
    </clipPath>
    <clipPath
       clipPathUnits="userSpaceOnUse"
       id="clipPath103">
      <path
         d="M 0,204.094 H 1176.378 V 0 H 0 Z"
         transform="translate(-264.22221,-91.021902)"
         id="path103" />
    </clipPath>
    <clipPath
       clipPathUnits="userSpaceOnUse"
       id="clipPath101">
      <path
         d="M 0,204.094 H 1176.378 V 0 H 0 Z"
         transform="translate(-253.81651,-118.4062)"
         id="path101" />
    </clipPath>
    <clipPath
       clipPathUnits="userSpaceOnUse"
       id="clipPath99">
      <path
         d="M 0,204.094 H 1176.378 V 0 H 0 Z"
         transform="translate(-523.55621,-67.149904)"
         id="path99" />
    </clipPath>
    <clipPath
       clipPathUnits="userSpaceOnUse"
       id="clipPath97">
      <path
         d="M 0,204.094 H 1176.378 V 0 H 0 Z"
         transform="translate(-456.32771,-70.052202)"
         id="path97" />
    </clipPath>
    <clipPath
       clipPathUnits="userSpaceOnUse"
       id="clipPath95">
      <path
         d="M 0,204.094 H 1176.378 V 0 H 0 Z"
         transform="translate(-436.14221,-77.521002)"
         id="path95" />
    </clipPath>
    <clipPath
       clipPathUnits="userSpaceOnUse"
       id="clipPath93">
      <path
         d="M 0,204.094 H 1176.378 V 0 H 0 Z"
         transform="translate(-368.48391,-43.565899)"
         id="path93" />
    </clipPath>
    <clipPath
       clipPathUnits="userSpaceOnUse"
       id="clipPath91">
      <path
         d="M 0,204.094 H 1176.378 V 0 H 0 Z"
         transform="translate(-304.95951,-77.521002)"
         id="path91" />
    </clipPath>
    <clipPath
       clipPathUnits="userSpaceOnUse"
       id="clipPath89">
      <path
         d="M 0,204.094 H 1176.378 V 0 H 0 Z"
         transform="translate(-267.37551,-52.923304)"
         id="path89" />
    </clipPath>
    <clipPath
       clipPathUnits="userSpaceOnUse"
       id="clipPath87">
      <path
         d="M 0,204.094 H 1176.378 V 0 H 0 Z"
         transform="translate(-233.7496,-50.130304)"
         id="path87" />
    </clipPath>
    <clipPath
       clipPathUnits="userSpaceOnUse"
       id="clipPath85">
      <path
         d="M 0,204.094 H 1176.378 V 0 H 0 Z"
         transform="translate(-103.77891,-117.5815)"
         id="path85" />
    </clipPath>
    <clipPath
       clipPathUnits="userSpaceOnUse"
       id="clipPath83">
      <path
         d="M 0,204.094 H 1176.378 V 0 H 0 Z"
         transform="translate(-217.62261,-164.4096)"
         id="path83" />
    </clipPath>
  </defs>
  <g
     inkscape:label="Layer 1"
     inkscape:groupmode="layer"
     id="layer1"
     transform="translate(-17.991667,-125.94166)">
    <g
       id="group-MC0"
       transform="matrix(0.26458333,0,0,0.26458333,4.9918397,111.94189)">
      <g
         id="group-MC1" />
    </g>
    <path
       id="path82"
       d="m 0,0 c -13.116,0 -24.975,-5.408 -33.495,-14.097 -8.5,8.686 -20.338,14.091 -33.451,14.091 -10.373,0 -19.938,-3.414 -27.713,-9.124 l 19.402,-19.41 c 2.525,1.147 5.321,1.802 8.278,1.802 11.089,0 20.079,-8.99 20.079,-20.079 l 0.019,-80.291 h 26.737 l 0.02,80.28 c 0,0.006 -0.001,0.011 -0.001,0.016 h 0.032 c 0,11.09 8.969,20.084 20.059,20.084 h 16.65 L 43.32,-0.006 Z"
       style="fill:#26b6a3;fill-opacity:1;fill-rule:nonzero;stroke:none"
       transform="matrix(0.35277776,0,0,-0.35277776,81.764257,125.94166)"
       clip-path="url(#clipPath83)" />
    <path
       id="path84"
       d="m 0,0 0.015,-33.47 c 0,-11.09 -8.99,-20.08 -20.079,-20.08 -11.09,0 -20.06,8.99 -20.06,20.08 V 20.159 L -66.929,-6.708 V -33.46 c 0,-25.858 21.039,-46.821 46.898,-46.821 25.859,0 46.823,20.963 46.823,46.821 l 0.013,33.471 c 0,8.133 4.834,15.121 11.781,18.277 L 19.185,37.698 C 7.578,29.174 0,15.486 0,0"
       style="fill:#333f4a;fill-opacity:1;fill-rule:nonzero;stroke:none"
       transform="matrix(0.35277776,0,0,-0.35277776,41.60273,142.46158)"
       clip-path="url(#clipPath85)" />
    <path
       id="path86"
       d="m 0,0 c 0,-5.968 3.833,-9.857 8.544,-9.857 4.379,0 7.392,2.849 8.322,3.997 V 5.749 C 14.456,8.156 11.5,9.746 8.544,9.746 3.833,9.746 0,5.912 0,0 m 17.631,-12.923 c -0.273,1.204 -0.382,2.573 -0.382,3.777 -1.26,-1.751 -4.655,-4.544 -9.144,-4.544 -7.064,0 -12.923,5.366 -12.923,13.69 0,8.156 5.915,13.579 12.923,13.579 3.176,0 6.241,-1.37 8.761,-3.833 v 15.659 h 4.38 V -6.353 c 0,-2.081 0,-4.326 0.438,-6.57 z"
       style="fill:#333f4a;fill-opacity:1;fill-rule:nonzero;stroke:none"
       transform="matrix(0.35277776,0,0,-0.35277776,87.453502,166.25686)"
       clip-path="url(#clipPath87)" />
    <path
       id="path88"
       d="M 0,0 H 16.973 C 16.863,4.818 12.538,7.116 8.65,7.116 4.053,7.116 0.984,3.997 0,0 m 21.025,-11.663 c -2.793,-2.683 -7.337,-4.82 -12.538,-4.82 -8.324,0 -13.196,6.024 -13.196,13.362 0,7.773 5.693,13.907 13.579,13.907 6.078,0 12.867,-3.777 12.923,-12.923 0,-0.383 0,-0.875 -0.056,-1.313 H -0.329 c 0.165,-5.037 3.394,-9.144 9.253,-9.144 3.67,0 7.009,1.532 9.199,3.778 z"
       style="fill:#333f4a;fill-opacity:1;fill-rule:nonzero;stroke:none"
       transform="matrix(0.35277776,0,0,-0.35277776,99.315974,165.27155)"
       clip-path="url(#clipPath89)" />
    <path
       id="path90"
       d="M 0,0 H 38.029 V -7.656 H 23.461 V -40.313 H 14.633 V -7.656 H 0 Z"
       style="fill:#333f4a;fill-opacity:1;fill-rule:nonzero;stroke:none"
       transform="matrix(0.35277776,0,0,-0.35277776,112.57477,156.59403)"
       clip-path="url(#clipPath91)" />
    <path
       id="path92"
       d="M 0,0 C 7.716,0 13.767,6.298 13.767,13.892 13.767,21.36 7.716,27.535 0,27.535 -7.594,27.535 -13.521,21.36 -13.521,13.892 -13.521,6.298 -7.594,0 0,0 m 0,35.19 c 12.779,0 23.027,-9.571 23.027,-21.298 C 23.027,1.913 12.779,-7.594 0,-7.594 c -12.781,0 -22.78,9.507 -22.78,21.486 0,11.727 9.999,21.298 22.78,21.298"
       style="fill:#333f4a;fill-opacity:1;fill-rule:nonzero;stroke:none"
       transform="matrix(0.35277776,0,0,-0.35277776,134.98477,168.57264)"
       clip-path="url(#clipPath93)" />
    <path
       id="path94"
       d="m 0,0 v -25.807 c 0,-10.06 -7.779,-15.742 -18.461,-15.742 -10.371,0 -18.335,5.682 -18.335,15.742 V 0 h 8.89 v -25.807 c 0,-5.307 4.261,-8.148 9.445,-8.148 5.495,0 9.569,2.841 9.569,8.148 V 0 Z"
       style="fill:#333f4a;fill-opacity:1;fill-rule:nonzero;stroke:none"
       transform="matrix(0.35277776,0,0,-0.35277776,158.85311,156.59403)"
       clip-path="url(#clipPath95)" />
    <path
       id="path96"
       d="m 0,0 v -10.559 h 14.445 c 3.088,0 5.621,2.223 5.621,5.31 0,1.359 -0.495,2.593 -1.42,3.518 C 17.226,-0.187 15.436,0 13.83,0 Z M -8.827,-32.845 V 7.469 h 22.348 c 5.743,0 9.506,-1.667 12.101,-4.385 2.098,-2.22 3.333,-5.123 3.333,-8.333 0,-5.187 -3.21,-9.199 -8.148,-11.358 L 30.25,-32.845 H 20.128 l -8.151,14.818 H 0 v -14.818 z"
       style="fill:#333f4a;fill-opacity:1;fill-rule:nonzero;stroke:none"
       transform="matrix(0.35277776,0,0,-0.35277776,165.97411,159.22886)"
       clip-path="url(#clipPath97)" />
    <path
       id="path98"
       d="m 0,0 c -2.407,1.789 -7.469,4.32 -14.138,4.32 -4.012,0 -7.591,-1.482 -7.591,-4.938 0,-3.579 5.307,-3.828 10.555,-4.259 7.346,-0.495 18.83,-1.359 18.83,-12.471 0,-9.941 -8.274,-13.83 -18.15,-13.83 -10.433,0 -17.471,4.138 -22.164,7.966 l 5.001,6.049 c 3.394,-2.716 9.137,-6.79 17.286,-6.79 5.125,0 9.199,1.974 9.199,5.741 0,3.89 -4.138,4.753 -10.186,5.245 -8.828,0.557 -19.204,1.544 -19.204,11.792 0,9.756 9.079,12.781 16.673,12.781 8.395,0 15.494,-3.086 18.953,-5.432 z"
       style="fill:#333f4a;fill-opacity:1;fill-rule:nonzero;stroke:none"
       transform="matrix(0.35277776,0,0,-0.35277776,189.69083,160.25272)"
       clip-path="url(#clipPath99)" />
    <path
       id="path100"
       d="m 0,0 v -20.378 c 0,-2.218 0,-4.613 0.468,-7.006 h -4.264 c -0.291,1.284 -0.406,2.918 -0.406,4.205 -2.279,-2.512 -5.198,-5.024 -10.045,-5.024 -6.014,0 -10.628,4.032 -10.628,9.635 V 0 h 4.729 v -18.568 c 0,-3.095 2.745,-5.548 6.6,-5.548 3.969,0 6.891,2.395 8.876,4.615 L -4.67,0 Z"
       style="fill:#26b6a3;fill-opacity:1;fill-rule:nonzero;stroke:none"
       transform="matrix(0.35277776,0,0,-0.35277776,94.532659,142.17064)"
       clip-path="url(#clipPath101)" />
    <path
       id="path102"
       d="m 0,0 v 20.437 c 0,2.218 -0.232,4.553 -0.76,6.947 h 4.265 c 0.406,-1.457 0.583,-2.627 0.641,-4.202 2.277,2.509 5.254,5.08 10.102,5.08 6.014,0 10.569,-4.029 10.569,-9.695 V 0 h -4.671 v 18.567 c 0,3.096 -2.745,5.607 -6.599,5.607 -4.028,0 -6.891,-2.453 -8.876,-4.67 L 4.671,0 Z"
       style="fill:#26b6a3;fill-opacity:1;fill-rule:nonzero;stroke:none"
       transform="matrix(0.35277776,0,0,-0.35277776,98.20356,151.83121)"
       clip-path="url(#clipPath103)" />
    <path
       id="path104"
       d="m 298.971,118.406 h 4.612 V 91.022 h -4.612 z m 2.277,12.849 c 1.753,0 3.095,-1.287 3.095,-2.804 0,-1.578 -1.342,-2.803 -3.095,-2.803 -1.752,0 -3.037,1.225 -3.037,2.803 0,1.517 1.285,2.804 3.037,2.804"
       style="fill:#26b6a3;fill-opacity:1;fill-rule:nonzero;stroke:none"
       transform="matrix(0.35277776,0,0,-0.35277776,4.9918397,183.94172)"
       clip-path="url(#clipPath105)" />
    <path
       id="path106"
       d="m 0,0 -12.029,-27.384 h -4.088 L -28.088,0 h 5.257 l 8.699,-21.02 h 0.35 L -4.788,0 Z"
       style="fill:#26b6a3;fill-opacity:1;fill-rule:nonzero;stroke:none"
       transform="matrix(0.35277776,0,0,-0.35277776,124.36873,142.17064)"
       clip-path="url(#clipPath107)" />
    <path
       id="path108"
       d="M 0,0 H 18.102 C 17.984,5.139 13.372,7.589 9.227,7.589 4.322,7.589 1.051,4.261 0,0 m 22.422,-12.439 c -2.977,-2.86 -7.824,-5.139 -13.37,-5.139 -8.875,0 -14.073,6.423 -14.073,14.247 0,8.293 6.072,14.833 14.483,14.833 6.481,0 13.72,-4.028 13.779,-13.782 0,-0.406 0,-0.933 -0.059,-1.401 H -0.351 c 0.177,-5.371 3.622,-9.751 9.869,-9.751 3.914,0 7.474,1.635 9.812,4.029 z"
       style="fill:#26b6a3;fill-opacity:1;fill-rule:nonzero;stroke:none"
       transform="matrix(0.35277776,0,0,-0.35277776,127.60575,145.91891)"
       clip-path="url(#clipPath109)" />
    <path
       id="path110"
       d="m 0,0 v 20.437 c 0,2.277 -0.232,4.553 -0.818,6.947 h 4.323 c 0.406,-1.575 0.583,-2.918 0.641,-4.729 1.868,2.803 4.321,5.607 8.35,5.607 1.692,0 3.327,-0.468 4.146,-1.402 l -1.52,-4.264 c -0.815,0.701 -2.626,1.11 -3.678,1.11 -2.977,0 -5.138,-2.685 -6.773,-5.021 L 4.671,0 Z"
       style="fill:#26b6a3;fill-opacity:1;fill-rule:nonzero;stroke:none"
       transform="matrix(0.35277776,0,0,-0.35277776,138.64967,151.83121)"
       clip-path="url(#clipPath111)" />
    <path
       id="path112"
       d="m 0,0 c -1.87,1.167 -6.072,3.036 -10.337,3.036 -3.21,0 -6.597,-1.169 -6.597,-4.028 0,-3.328 4.671,-3.62 7.766,-3.737 4.789,-0.233 12.905,-0.642 12.905,-8.293 0,-6.364 -5.722,-9.283 -12.845,-9.283 -6.423,0 -10.746,2.395 -13.432,4.262 l 1.811,3.504 c 2.568,-1.693 6.305,-3.913 11.561,-3.913 4.612,0 8.234,1.693 8.234,4.965 0,3.793 -4.906,4.143 -8.234,4.32 -5.663,0.35 -12.38,0.815 -12.38,7.647 0,6.423 5.957,8.467 11.152,8.467 5.198,0 10.104,-2.044 12.207,-3.386 z"
       style="fill:#26b6a3;fill-opacity:1;fill-rule:nonzero;stroke:none"
       transform="matrix(0.35277776,0,0,-0.35277776,153.6689,144.27129)"
       clip-path="url(#clipPath113)" />
    <path
       id="path114"
       d="m 432.958,118.406 h 4.611 V 91.022 h -4.611 z m 2.276,12.849 c 1.752,0 3.095,-1.287 3.095,-2.804 0,-1.578 -1.343,-2.803 -3.095,-2.803 -1.752,0 -3.036,1.225 -3.036,2.803 0,1.517 1.284,2.804 3.036,2.804"
       style="fill:#26b6a3;fill-opacity:1;fill-rule:nonzero;stroke:none"
       transform="matrix(0.35277776,0,0,-0.35277776,4.9918397,183.94172)"
       clip-path="url(#clipPath115)" />
    <path
       id="path116"
       d="m 0,0 h 5.371 v 8.293 h 4.671 V 0 h 8.233 v -3.619 h -8.233 v -16.992 c 0,-2.568 1.693,-3.679 3.796,-3.679 1.461,0 3.737,0.41 4.556,0.875 l 0.583,-3.619 c -1.111,-0.759 -3.914,-1.342 -6.014,-1.342 -3.445,0 -7.592,1.925 -7.592,7.765 V -3.619 H 0 Z"
       style="fill:#26b6a3;fill-opacity:1;fill-rule:nonzero;stroke:none"
       transform="matrix(0.35277776,0,0,-0.35277776,161.68564,142.17064)"
       clip-path="url(#clipPath117)" />
    <path
       id="path118"
       d="m 0,0 -6.072,-8.525 -4.205,0.058 4.962,8.526 z M -16.235,-23.647 H 1.867 c -0.117,5.138 -4.729,7.588 -8.876,7.588 -4.903,0 -8.175,-3.327 -9.226,-7.588 M 6.187,-36.086 c -2.977,-2.861 -7.824,-5.139 -13.37,-5.139 -8.876,0 -14.073,6.423 -14.073,14.247 0,8.292 6.072,14.833 14.483,14.833 6.482,0 13.72,-4.028 13.779,-13.782 0,-0.406 0,-0.934 -0.059,-1.402 h -23.532 c 0.176,-5.371 3.622,-9.751 9.868,-9.751 3.913,0 7.474,1.635 9.812,4.03 z"
       style="fill:#26b6a3;fill-opacity:1;fill-rule:nonzero;stroke:none"
       transform="matrix(0.35277776,0,0,-0.35277776,177.56995,137.57659)"
       clip-path="url(#clipPath119)" />
  </g>
</svg>
